<?xml version="1.0" standalone="no"?>
<!DOCTYPE svg PUBLIC "-//W3C//DTD SVG 20010904//EN"
 "http://www.w3.org/TR/2001/REC-SVG-20010904/DTD/svg10.dtd">
<svg version="1.0" xmlns="http://www.w3.org/2000/svg"
 width="920.000000pt" height="978.000000pt" viewBox="0 0 920.000000 978.000000"
 preserveAspectRatio="xMidYMid meet">

<g transform="translate(0.000000,978.000000) scale(0.100000,-0.100000)"
fill="#000000" stroke="none">
<path d="M4326 9689 c-406 -56 -808 -334 -1161 -804 -454 -605 -759 -1455
-826 -2308 -15 -193 -6 -670 15 -827 59 -427 184 -793 363 -1065 88 -133 257
-302 373 -373 258 -158 558 -186 858 -80 486 171 968 682 1301 1380 569 1190
611 2672 102 3511 -178 293 -437 494 -709 552 -93 19 -233 26 -316 14z m214
-630 c417 -115 700 -549 798 -1224 23 -159 22 -623 -1 -800 -71 -535 -241
-1028 -493 -1435 -145 -236 -348 -467 -529 -603 -110 -83 -301 -179 -415 -209
-119 -31 -293 -31 -403 0 -423 120 -713 571 -802 1245 -92 707 92 1563 473
2196 108 179 208 307 352 451 231 231 462 362 705 400 85 13 228 3 315 -21z"/>
<path d="M4227 9000 c-407 -69 -817 -449 -1107 -1030 -374 -746 -469 -1672
-244 -2375 42 -130 145 -330 221 -430 38 -49 100 -116 139 -148 124 -105 309
-177 451 -177 167 0 363 70 540 192 97 67 271 234 367 352 354 437 602 1078
671 1730 17 169 20 474 4 632 -32 331 -140 668 -282 879 -57 85 -180 209 -259
261 -151 101 -333 142 -501 114z"/>
<path d="M5125 9518 c351 -311 559 -787 641 -1468 25 -200 25 -663 1 -880
-100 -902 -413 -1721 -888 -2321 -108 -137 -330 -357 -449 -445 -196 -146
-392 -244 -570 -286 l-95 -22 45 -9 c73 -13 315 -1 395 21 366 99 722 367
1030 777 673 894 990 2287 770 3380 -135 669 -458 1140 -882 1286 l-58 19 60
-52z"/>
<path d="M7106 6730 c-43 -77 -81 -142 -85 -145 -5 -2 -80 25 -167 61 -87 36
-170 70 -182 75 l-24 9 20 -32 c11 -18 72 -121 135 -229 l116 -196 -30 -178
c-16 -98 -29 -185 -29 -192 0 -10 36 -13 168 -14 l167 0 159 -190 c88 -104
160 -188 161 -187 2 2 -10 93 -26 203 -15 110 -28 212 -29 227 0 24 12 33 113
87 61 33 120 66 129 73 16 12 -2 27 -158 143 -97 72 -182 139 -189 150 -8 11
-48 121 -91 245 -42 124 -77 226 -78 227 -1 1 -37 -61 -80 -137z"/>
<path d="M1859 4716 c-53 -19 -64 -28 -206 -181 -71 -77 -448 -480 -838 -895
-437 -467 -714 -770 -726 -795 -97 -209 172 -598 490 -707 88 -30 199 -31 257
-1 50 26 1720 1805 1747 1861 24 50 18 175 -12 252 -30 79 -36 86 -54 71 -14
-11 -12 -19 10 -69 31 -67 43 -184 23 -232 -32 -78 -124 -119 -226 -102 -267
44 -546 327 -562 568 -4 66 -2 77 23 119 49 84 153 107 290 64 60 -18 69 -19
83 -6 13 14 5 18 -67 41 -90 29 -174 33 -232 12z m-115 -346 c85 -234 339
-453 569 -490 37 -6 79 -7 94 -4 26 6 25 4 -18 -42 -25 -27 -347 -371 -714
-764 -878 -940 -833 -893 -882 -908 -54 -16 -93 -15 -166 4 -251 65 -500 335
-515 558 -3 58 -1 79 14 107 11 20 372 412 804 873 l785 838 7 -63 c3 -35 14
-84 22 -109z"/>
</g>
</svg>
