<?xml version="1.0" standalone="no"?>
<!DOCTYPE svg PUBLIC "-//W3C//DTD SVG 20010904//EN"
 "http://www.w3.org/TR/2001/REC-SVG-20010904/DTD/svg10.dtd">
<svg version="1.0" xmlns="http://www.w3.org/2000/svg"
 width="750.000000pt" height="1065.000000pt" viewBox="0 0 750.000000 1065.000000"
 preserveAspectRatio="xMidYMid meet">

<g transform="translate(0.000000,1065.000000) scale(0.100000,-0.100000)"
fill="#000000" stroke="none">
<path d="M5455 10636 c-89 -18 -104 -25 -386 -181 -208 -115 -242 -138 -310
-205 -109 -108 -177 -239 -234 -453 -42 -157 -29 -290 42 -431 13 -27 21 -52
16 -56 -4 -4 -972 -564 -2151 -1244 -1179 -680 -2161 -1251 -2183 -1268 -93
-74 -188 -220 -225 -343 -18 -57 -19 -178 -22 -2575 -2 -1833 0 -2531 8 -2575
13 -68 48 -135 82 -157 13 -8 101 -57 196 -108 167 -89 175 -92 223 -87 27 3
69 15 93 25 24 11 590 335 1258 721 668 385 1223 704 1233 707 17 7 18 1 12
-92 -4 -54 -7 -140 -7 -191 l0 -91 -571 -334 c-349 -203 -578 -342 -588 -357
-13 -21 -16 -58 -16 -223 l0 -198 30 -29 c25 -24 844 -510 954 -566 44 -22
138 -22 180 0 127 65 3170 1840 3184 1856 15 19 17 44 17 199 0 155 -2 180
-17 198 -21 24 -981 583 -1032 600 -44 15 -106 15 -151 -1 -19 -7 -164 -88
-322 -180 -158 -92 -289 -167 -291 -167 -2 0 -7 33 -11 73 -13 148 -17 167
-37 167 -14 0 -17 -6 -13 -33 20 -133 91 -803 86 -809 -22 -21 -1037 -598
-1054 -598 -17 0 -253 127 -302 163 -15 11 -16 39 -10 328 l7 317 1861 1072
c1024 590 1884 1091 1912 1112 91 68 173 189 221 324 l28 79 3 1224 2 1224 78
76 c111 110 175 244 219 459 28 136 25 494 -6 665 -45 257 -116 469 -228 690
l-58 112 -5 350 c-6 454 12 415 -261 564 -224 123 -238 123 -456 -3 l-81 -47
-92 56 c-323 196 -616 281 -825 241z m286 -45 c112 -25 247 -78 389 -152 750
-393 1252 -1143 1320 -1974 29 -344 -39 -666 -178 -841 -60 -76 -136 -130
-357 -255 l-60 -33 33 41 c18 23 50 79 72 125 189 403 131 1062 -141 1607
-202 405 -478 724 -839 970 -322 219 -607 330 -845 331 l-70 0 125 71 c69 39
141 78 160 87 102 45 251 54 391 23z m1083 -200 c134 -73 135 -74 90 -90 -21
-7 -90 -44 -155 -82 -65 -38 -121 -69 -124 -69 -3 0 -44 31 -93 69 -48 37 -98
74 -110 81 l-24 12 21 14 c11 8 64 37 116 65 128 66 156 66 279 0z m-1534 -37
c220 -41 502 -181 762 -376 510 -384 857 -961 955 -1588 27 -176 24 -491 -6
-629 -26 -123 -71 -246 -116 -316 -85 -134 -249 -246 -498 -341 -207 -79 -335
-169 -375 -263 -34 -77 -52 -208 -52 -373 0 -86 -4 -148 -9 -146 -5 2 -131 73
-280 158 l-270 155 0 105 c-1 286 27 596 64 715 38 119 148 214 361 309 419
188 514 323 515 727 0 168 -18 299 -62 433 -93 283 -301 526 -565 659 -280
141 -478 50 -572 -263 -11 -36 -27 -91 -36 -122 -12 -40 -27 -65 -52 -87 -30
-27 -42 -31 -92 -31 -126 1 -269 123 -357 305 -74 154 -82 245 -39 411 96 372
294 571 570 573 40 1 109 -6 154 -15z m1784 -105 c20 -17 40 -47 46 -67 6 -21
10 -162 10 -331 l0 -295 -62 92 c-99 143 -184 247 -299 363 l-106 107 110 63
c189 110 240 122 301 68z m-1499 -651 c2 -2 -9 -47 -23 -101 -34 -131 -50
-148 -247 -257 -88 -49 -161 -87 -163 -86 -2 2 7 41 18 87 68 266 173 376 344
365 37 -3 70 -6 71 -8z m144 -63 c241 -124 429 -349 521 -623 44 -132 61 -247
61 -417 0 -258 -40 -385 -156 -493 -77 -73 -147 -115 -325 -196 -156 -71 -225
-115 -296 -186 -59 -59 -90 -117 -113 -208 l-17 -65 -363 -208 c-200 -114
-368 -212 -374 -218 -7 -7 -8 -14 -1 -21 6 -6 137 63 369 195 198 112 360 203
362 202 1 -2 -2 -43 -7 -92 -4 -50 -12 -176 -15 -282 l-7 -192 -359 -208
c-295 -171 -356 -210 -345 -221 11 -11 74 22 357 187 l344 200 3 -38 3 -37
204 -118 c113 -65 205 -119 205 -121 0 -2 -252 -150 -560 -330 -344 -201 -560
-333 -560 -342 0 -10 7 -14 18 -11 9 3 269 152 576 331 307 180 562 327 567
327 9 0 129 -69 129 -74 0 -2 -11 -1 -25 2 -50 9 -120 -21 -318 -135 -263
-150 -269 -155 -303 -216 -26 -47 -29 -63 -32 -164 -3 -78 1 -136 13 -194 13
-67 14 -84 3 -90 -7 -5 -151 -89 -321 -186 -216 -125 -307 -182 -304 -193 2
-8 7 -14 13 -13 5 1 150 83 323 183 172 100 314 180 315 178 2 -2 20 -37 40
-79 96 -197 289 -352 440 -353 38 0 72 6 91 15 123 66 426 238 452 257 17 12
44 48 60 80 26 53 28 66 28 172 -1 165 -41 320 -111 432 -14 22 -24 41 -22 43
2 2 62 38 133 80 187 111 178 104 165 120 -9 11 -40 -4 -161 -76 -83 -49 -153
-89 -157 -89 -4 0 -27 23 -50 50 -45 52 -175 150 -199 150 -7 0 -13 3 -13 8 0
4 93 59 208 123 l207 116 3 106 3 106 85 51 c67 41 83 55 74 65 -9 11 -25 6
-81 -27 -39 -22 -73 -38 -76 -34 -10 10 15 208 33 256 9 25 16 52 16 60 0 9
18 23 44 34 36 15 416 222 572 312 l42 25 0 -1014 0 -1014 -477 -280 c-541
-317 -6247 -3621 -6269 -3630 -12 -4 -14 293 -12 2143 l3 2147 2784 1613
c1531 887 2788 1617 2792 1621 5 5 4 15 -1 23 -7 11 -14 12 -32 3 -13 -6
-1265 -731 -2783 -1611 l-2760 -1599 -3 168 c-4 277 36 399 177 539 75 74 110
95 2180 1289 l2105 1213 52 -12 c99 -24 128 -15 373 123 123 69 235 136 248
149 28 26 57 79 67 123 18 79 38 135 47 135 6 0 50 -20 98 -45z m-1084 -292
c10 -16 49 -58 86 -94 l69 -66 -2097 -1209 c-2074 -1195 -2099 -1210 -2173
-1284 -81 -81 -134 -169 -167 -275 -17 -58 -18 -164 -18 -2657 l0 -2597 -105
55 c-125 66 -144 82 -167 143 -17 44 -18 177 -18 2586 l0 2540 22 70 c32 99
87 188 168 270 68 68 138 109 2215 1307 1180 680 2150 1237 2156 1238 7 0 20
-12 29 -27z m1794 -2190 c-27 -72 -40 -185 -40 -355 l-1 -176 -190 -106 c-104
-58 -192 -106 -194 -106 -10 0 -2 323 11 394 31 175 91 236 335 342 41 18 78
33 82 33 4 1 3 -11 -3 -26z m-410 -844 c81 -40 194 -152 249 -244 22 -38 56
-113 74 -165 30 -90 32 -103 33 -241 0 -145 0 -146 -30 -194 -27 -43 -46 -57
-190 -138 -88 -49 -165 -91 -172 -94 -8 -3 -7 9 3 43 19 63 18 227 -2 317 -18
81 -75 211 -125 284 -47 69 -144 168 -201 204 -26 17 -73 39 -103 48 l-55 17
158 91 c86 50 164 93 172 96 8 3 40 6 71 6 44 1 70 -6 118 -30z m-414 -244
c64 -33 164 -125 213 -196 53 -79 102 -186 124 -271 28 -112 23 -281 -10 -350
-67 -137 -233 -122 -399 36 -161 152 -240 350 -231 579 3 85 8 109 28 147 52
94 156 115 275 55z m1501 -1000 c-33 -105 -87 -194 -162 -269 -56 -56 -331
-217 -3185 -1863 -1719 -991 -3145 -1811 -3169 -1822 -59 -27 -129 -27 -163
-1 -48 38 -58 87 -55 280 l3 174 3006 1741 c1653 957 3172 1838 3375 1957
l369 217 3 -167 c2 -155 1 -173 -22 -247z m-1362 -2110 c315 -184 502 -298
508 -311 7 -16 6 -29 -3 -48 -11 -20 -393 -245 -1564 -922 -852 -493 -1572
-907 -1600 -920 -60 -28 -116 -30 -170 -5 -57 26 -905 539 -933 564 -25 23
-30 82 -9 110 6 10 262 163 567 341 l555 324 5 -106 5 -107 160 -92 c87 -51
170 -93 182 -93 22 0 1051 586 1082 616 13 12 11 51 -17 296 -17 156 -28 286
-24 290 6 5 507 297 587 342 22 12 49 15 100 13 l70 -3 499 -289z m489 -655
c-14 -14 -3073 -1793 -3162 -1840 -34 -18 -112 -15 -152 5 -28 15 -869 506
-921 539 -30 18 -39 59 -36 164 l3 103 440 -267 c242 -146 463 -277 490 -290
80 -38 137 -33 237 20 46 24 765 438 1598 920 l1515 876 3 -107 c2 -92 0 -109
-15 -123z"/>
<path d="M2635 6246 l-1580 -913 -3 -1408 c-2 -1338 -1 -1407 15 -1401 18 7
3076 1769 3146 1813 l37 23 0 1400 c0 1327 -1 1400 -17 1399 -10 0 -729 -411
-1598 -913z m1575 -504 l0 -1368 -1542 -889 c-849 -489 -1553 -895 -1566 -903
l-22 -14 0 1369 0 1370 1563 901 c859 496 1563 902 1565 902 1 0 2 -615 2
-1368z"/>
<path d="M3645 5949 c-52 -12 -134 -54 -322 -163 l-153 -88 0 -524 c0 -431 2
-526 14 -530 14 -5 346 182 426 241 62 46 159 150 192 206 44 76 70 166 71
249 1 103 -34 164 -100 176 -19 4 -33 9 -31 13 2 3 16 30 31 59 40 75 60 165
54 235 -6 69 -27 104 -72 123 -38 16 -53 16 -110 3z m120 -60 c17 -16 20 -33
20 -102 -1 -71 -5 -91 -33 -152 -18 -38 -45 -82 -59 -97 -33 -35 -28 -64 12
-61 99 6 129 -26 128 -138 -1 -141 -80 -287 -215 -396 -53 -42 -348 -222 -394
-240 -12 -4 -14 63 -14 483 l0 489 181 104 c245 141 321 163 374 110z"/>
<path d="M3544 5760 c-35 -8 -176 -84 -199 -106 -12 -12 -15 -43 -15 -147 0
-73 5 -139 10 -147 8 -13 19 -10 75 20 156 83 235 178 235 285 0 79 -36 112
-106 95z m66 -93 c0 -53 -28 -113 -71 -153 -38 -36 -142 -104 -159 -104 -6 0
-10 39 -10 108 l0 108 76 43 c128 73 164 73 164 -2z"/>
<path d="M3533 5340 c-59 -26 -187 -101 -195 -114 -9 -13 -11 -298 -2 -320 9
-24 18 -21 118 36 152 87 228 175 242 282 7 52 -10 112 -36 126 -29 15 -81 11
-127 -10z m118 -41 c27 -51 -12 -161 -81 -227 -39 -37 -171 -122 -190 -122 -6
0 -10 51 -10 128 l0 129 93 50 c106 58 112 61 149 62 18 1 31 -6 39 -20z"/>
<path d="M2675 5436 c-147 -47 -303 -182 -395 -342 -171 -298 -171 -728 -1
-849 39 -27 50 -30 119 -29 57 0 90 6 125 22 210 95 380 313 448 572 31 119
38 320 15 424 -39 175 -157 251 -311 202z m158 -40 c44 -18 81 -64 104 -128
14 -43 18 -83 18 -208 0 -186 -19 -270 -95 -425 -79 -163 -198 -287 -340 -354
-73 -34 -174 -36 -217 -5 -76 57 -107 150 -107 324 -1 139 17 235 66 362 106
278 404 504 571 434z"/>
<path d="M2576 5219 c-164 -87 -272 -360 -237 -597 27 -179 112 -243 239 -178
139 72 229 251 239 479 7 148 -12 231 -64 283 -30 30 -40 34 -86 34 -32 -1
-67 -9 -91 -21z m157 -49 c48 -56 62 -233 31 -373 -52 -236 -236 -406 -334
-309 -39 40 -54 100 -53 222 0 122 20 214 63 300 81 160 227 240 293 160z"/>
<path d="M1888 4930 l-87 -51 -3 -367 c-3 -327 -5 -371 -21 -407 -21 -47 -52
-82 -89 -101 -38 -20 -53 -18 -84 11 -15 14 -28 25 -30 25 -7 0 -124 -175
-124 -186 0 -21 68 -73 106 -80 49 -9 124 15 200 64 101 65 175 167 217 297
21 67 22 84 22 454 0 247 -4 385 -10 388 -5 1 -49 -20 -97 -47z m70 -367 c-5
-387 -6 -401 -65 -517 -55 -109 -195 -219 -295 -232 -33 -4 -51 0 -76 16 l-33
20 42 63 c23 34 43 64 45 66 1 1 13 -4 26 -13 34 -24 71 -19 124 17 37 24 57
47 79 92 l30 60 3 361 4 361 51 30 c29 17 56 32 60 32 5 1 7 -160 5 -356z"/>
</g>
</svg>
