<?xml version="1.0" encoding="utf-8"?>
<!-- Generator: Adobe Illustrator 26.0.3, SVG Export Plug-In . SVG Version: 6.00 Build 0)  -->
<svg version="1.1" id="Layer_1" xmlns="http://www.w3.org/2000/svg" xmlns:xlink="http://www.w3.org/1999/xlink" x="0px" y="0px"
	 viewBox="0 0 500 500" style="enable-background:new 0 0 500 500;" xml:space="preserve">
<style type="text/css">
	.st0{fill:#5991CB;}
	.st1{fill:#FFFFFF;}
	.st2{fill:#6E6E6E;}
</style>
<g>
	<g>
		<path class="st0" d="M359.9,387.4c0-0.8-0.2-1.5-0.5-2.2l0.2-9.9c-0.1-17.3-5-30.8-8.4-38.4c0,0-11.7-21.8-36.5-30.7
			c-3.1-1.2-6.4-2-6.4-2c-2.3-0.6-4.7-1.2-7.1-1.6c-0.4,0-0.8-0.2-1.2-0.2c-10.1,9.1-23.6,14.6-38.3,14.6h-5.8
			c-14.7,0-28.1-5.5-38.3-14.6c-0.4,0-0.8,0.2-1.2,0.2c-2.4,0.4-4.7,0.9-7.1,1.6c0,0-3.3,0.9-6.4,2c-24.8,8.9-36.5,30.7-36.5,30.7
			c-3.4,7.6-8.3,21-8.4,38.4c0,0,0.2,6.5,0.1,6.7c-0.1,0.7-0.1,38.7-0.1,38.7c0,19.5,16.5,33.9,35.5,29.2l65.3-16.1l65.3,16.1
			c18.9,4.7,35.4-9.6,35.4-29.2v-21.5c0,0-0.1,0-0.1,0L359.9,387.4z"/>
		<path class="st1" d="M305.8,391.6c-1.5-10,3.2-26.6,3.2-26.6s28.3-1.8,35.5,6.1c7.2,7.9,11.8,17.6,11.5,21.5
			c-0.3,3.9-8.6,18.3-8.6,18.3s-6.6-7.8-10.4-9.7C333.1,399.3,305.8,391.6,305.8,391.6z"/>
		<path class="st1" d="M153.9,393.4c-1.1-6.7,5.5-19.9,12-23.4c6.5-3.5,21-7.2,26.5-6.8c5.5,0.4,21,4.1,21,4.1s-9.7,13.7-12.4,28.4
			c0,0-16.3-2.2-22.2,0.3c-5.9,2.5-14.6,13.2-17.2,13C159,408.8,154.8,398.7,153.9,393.4z"/>
	</g>
	<g>
		<path class="st2" d="M329.3,451c-2.6,0-5.3-0.3-8-1L254,433.4L186.7,450c-9.7,2.4-19.2,0.4-26.8-5.5c-8-6.2-12.5-16-12.5-26.7
			v-22.2h4v22.2c0,9.5,4,18.1,11,23.6c6.6,5.2,14.9,6.9,23.4,4.8l68.3-16.9l68.3,16.9c8.5,2.1,16.8,0.4,23.4-4.8
			c7-5.5,11-14.1,11-23.6v-47.2c-0.1-16.8-2.5-27.7-8.5-38.9c-0.2-0.3-13.9-27.5-40.9-35.4c-7-2-13.1-2.9-16.4-3.3
			c-1.5,1.3-2.9,2.7-4.2,4c-8.2,7.8-16,15.1-29.5,15.1h-6.1c-13.6,0-21.3-7.3-29.5-15.1c-1.4-1.3-2.8-2.6-4.2-3.9
			c-2.3,0.4-8.7,1.6-13.9,3.7c-27.5,10.7-35.4,20.8-43,32.9c-5.5,8.8-8.9,25.4-9,43.4V388h-4V373c0.1-18.7,3.8-36.2,9.6-45.5
			c7.9-12.8,16.3-23.4,44.9-34.5c6.8-2.7,15.6-4,15.7-4l0.9-0.1l0.7,0.6c1.7,1.6,3.4,3.1,5,4.6c8,7.5,14.8,14,26.8,14h6.1
			c12,0,18.9-6.5,26.8-14c1.6-1.5,3.2-3.1,5-4.6l0.7-0.6l1.1,0.1c3.3,0.3,10,1.2,17.8,3.5c28.7,8.3,42.7,36.2,43.3,37.3
			c6.2,11.7,8.8,23.5,8.9,40.7v47.2c0,10.8-4.6,20.5-12.5,26.7C342.6,448.8,336.1,451,329.3,451z"/>
	</g>
	<g>
		<path class="st2" d="M307.2,228.8l-3.9-0.8c0.5-2.5,2.5-4,4.5-5.5c2.8-2.1,5.9-4.4,7.2-9.9c1.3-5.5,0.9-9.5-1.3-10.9
			c-1.7-1.1-4.2-0.5-5.7,0.6l-2.5-3.1c2.6-2.1,6.9-3,10.3-0.9c2.2,1.4,5.5,5.2,3.1,15.2c-1.7,6.8-5.7,9.9-8.7,12.1
			C308.6,226.9,307.4,227.8,307.2,228.8z"/>
	</g>
	<g>
		<path class="st2" d="M201.5,228.8c-0.2-1-1.4-1.9-3-3.1c-3-2.2-7-5.3-8.7-12.1c-2.4-10,0.9-13.8,3.1-15.2
			c3.4-2.1,7.7-1.2,10.3,0.9l-2.5,3.1c-1.5-1.2-4-1.7-5.7-0.6c-2.2,1.4-2.7,5.4-1.3,10.9c1.3,5.4,4.5,7.8,7.2,9.9
			c2.1,1.6,4,3,4.5,5.5L201.5,228.8z"/>
	</g>
	<g>
		<polygon class="st2" points="217.8,330.4 214.5,292.9 218.4,292.6 221.3,324.1 250.7,308.9 252.5,312.4 		"/>
	</g>
	<g>
		<polygon class="st2" points="288.7,330.3 253.2,312.5 254.9,308.9 285.3,324.2 288.2,292.6 292.1,292.9 		"/>
	</g>
	<g>
		<path class="st2" d="M204.5,208.3l-3.1-4.2c-5.2-7.1-13.4-21.3-10.3-37.4c2.3-12.2,10.2-23.6,20.5-29.9c3.9-2.4,7.6-3.7,10.9-4.8
			c5-1.7,8.9-3.1,12-7.6c2.2-3.1,3.4-7,3.6-11.5l0.1-1.9l1.9,0c37.9,0.8,69.6,22.4,75.6,51.3c3.3,16.3-2.4,31-7.7,40.4l-1,1.8
			l-1.8-1.2c-1-0.6-2.3-1.4-3.9-2.5c-10.3-6.3-31.7-19.4-43.2-36.7l3.3-2.2c11,16.6,31.9,29.4,41.9,35.5c0.8,0.5,1.6,1,2.2,1.4
			c4.7-8.9,9.2-21.8,6.3-35.8c-5.5-26.7-34.7-46.7-69.9-48.1c-0.5,4.4-1.8,8.3-4.1,11.6c-3.8,5.5-8.8,7.2-14,9
			c-3.2,1.1-6.6,2.3-10.1,4.5c-9.4,5.7-16.5,16.2-18.7,27.3c-2.3,11.8,2.3,22.6,6.6,29.8c0.6-4.9,1.4-10.3,2.7-14.6
			c1.7-5.4,4.8-13,7.3-16.6l1.4-2l1.7,1.7c0.5,0.5,1.1,1.1,1.7,1.8c6.4,6.7,17.1,17.9,33,23.3c9.8,3.3,20,4.9,30.5,4.6l0.1,4
			c-10.9,0.3-21.6-1.3-31.8-4.8c-16.7-5.7-28.2-17.7-34.4-24.2c-2,3.6-4.2,9.2-5.5,13.4c-1.7,5.7-2.6,13.7-3.1,19.3L204.5,208.3z"/>
	</g>
	<g>
		<rect x="251.3" y="311.8" class="st2" width="4" height="61.8"/>
	</g>
	<g>
		<rect x="244.2" y="367.6" transform="matrix(0.985 -0.1725 0.1725 0.985 -59.624 53.2214)" class="st2" width="64.2" height="4"/>
	</g>
	<g>
		<path class="st2" d="M158.1,410.9c-0.3,0-0.6,0-0.9-0.1c-1.6-0.3-2.9-1.2-3.6-2.6l-5.5-10.6c-1.9-3.7-1.9-8.1-0.1-11.8l5.8-11.3
			c2.2-4.4,6.1-7.7,10.8-9.3l6.4-2.1c8.2-2.7,16.9-3.3,25.4-1.7l14,2.7l0.9,0.5l95.3,24.3l-1,3.8l-95.8-24.4l-0.8-0.4l-13.4-2.6
			c-7.8-1.5-15.9-1-23.4,1.5l-6.4,2.1c-3.7,1.2-6.7,3.8-8.5,7.3l-5.8,11.3c-1.3,2.6-1.3,5.6,0,8.2l5.5,10.6c0.2,0.4,0.6,0.5,0.7,0.5
			c0.2,0,0.6,0,0.9-0.3l10.3-9.2c4.1-3.8,9.5-6,15.1-6l0.4,0l12.2,2.4l-0.8,3.9l-12.1-2.4c-4.6,0-8.9,1.8-12.3,4.9l-10.3,9.2
			C160.6,410.4,159.4,410.9,158.1,410.9z"/>
	</g>
	<g>
		<path class="st2" d="M253.8,433.4l-58.8-14l-0.5-4.2c-2.1-17.5,3.1-35.3,14.3-48.9l3.1,2.5c-10.5,12.8-15.4,29.5-13.4,45.9
			l0.2,1.5l56.2,13.4L253.8,433.4z"/>
	</g>
	<g>
		<path class="st2" d="M348.6,411.3c-1,0-2-0.4-2.8-1.1l-12.1-10.1c-2.4-2.2-17.7-5.7-27.9-7.4l-1.5-0.3l-0.2-1.5
			c-1-9.3,0-18.5,2.8-27.4l0.4-1.3l1.1-0.2c9.7-1.9,19.5-1.5,26.9,1l6.4,2.1c4.7,1.6,8.5,4.9,10.8,9.3l5.8,11.3
			c1.9,3.7,1.9,8.1-0.1,11.8l-6.1,11.6c-0.6,1.2-1.7,1.9-3,2.2C349.1,411.3,348.8,411.3,348.6,411.3z M308,389.1
			c6.4,1.2,24.7,4.7,28.4,8.1l12.1,10.1c0.1,0.1,0.1,0.1,0.2,0.1c0.1,0,0.1-0.1,0.1-0.1l6.1-11.6c1.3-2.6,1.3-5.6,0-8.2l-5.8-11.3
			c-1.8-3.5-4.8-6.1-8.5-7.3l-6.4-2.1c-6.4-2.1-15.2-2.5-23.8-1C308.1,373.3,307.3,381.2,308,389.1z"/>
	</g>
	<g>
		<path class="st2" d="M254.2,256.6c-6.1,0-14.3-4.5-14.6-4.6l1.9-3.5c0.1,0,7.6,4.2,12.7,4.2c5.7,0,12.6-4.1,12.7-4.1l2,3.4
			C268.5,252.2,260.9,256.6,254.2,256.6z"/>
	</g>
	<g>
		<path class="st2" d="M254.1,239.9c-5.1,0-8.4-2.6-8.5-2.7c-0.5-0.4-0.7-0.9-0.7-1.5l0-28.6c0-2.8-2.3-5-5-5h-16.7v-4h16.7
			c4.9,0,9,4,9,9l0,27.6c1,0.5,2.8,1.3,5.3,1.3c3.7,0,6-1.8,6-1.8l2.5,3.1C262.4,237.3,259.2,239.9,254.1,239.9z"/>
	</g>
	<g>
		<path class="st2" d="M254.7,284.7c-9.8,0-18.9-3.8-25.9-10.7l-12.8-12.8c-9.5-9.5-14.7-22.2-14.7-35.6V197h4v28.6
			c0,12.4,4.8,24,13.6,32.8l12.8,12.8c6.2,6.2,14.3,9.5,23.1,9.5c8.8,0,17.3-3.6,23.4-9.9l12.1-12.5c8.4-8.7,13.1-20.2,13.1-32.3
			v-27.1h4v27.1c0,13.1-5,25.6-14.2,35L281,273.6C274.1,280.6,264.6,284.7,254.7,284.7z"/>
	</g>
	<g>
		<g>
			<polygon class="st0" points="143.2,443.3 19.9,443.3 19.9,382.6 23.8,382.6 23.8,439.3 143.2,439.3 			"/>
		</g>
		<g>
			<rect x="83.5" y="411.8" class="st2" width="16.7" height="4"/>
		</g>
		<g>
			<rect x="76.8" y="382.2" class="st2" width="28.8" height="4"/>
		</g>
		<g>
			
				<rect x="99.1" y="386.3" transform="matrix(0.9533 -0.302 0.302 0.9533 -111.592 54.9766)" class="st0" width="45.6" height="4"/>
		</g>
		<g>
			<rect x="105.2" y="336" class="st0" width="44" height="4"/>
		</g>
		<g>
			<path class="st0" d="M81.6,397.1l-63.1-20.8v-29.3c0-6,4.9-10.9,10.9-10.9h48.7v4H29.4c-3.8,0-7,3.1-7,7v26.5l60.3,19.9
				L81.6,397.1z"/>
		</g>
		<g>
			<path class="st2" d="M102.6,430.2H79.8v-98.3h22.9V430.2z M83.7,426.2h15v-90.3h-15V426.2z"/>
		</g>
		<g>
			<rect x="89.7" y="384.8" class="st2" width="4" height="9.1"/>
		</g>
		<g>
			<path class="st2" d="M112.6,331.4h-4V323H73.4v8.4h-4v-9.9c0-1.3,1.1-2.4,2.4-2.4h38.3c1.3,0,2.4,1.1,2.4,2.4V331.4z"/>
		</g>
		<g>
			<path class="st2" d="M121.3,331.1h-4v-9.3c0-4.6-3.7-8.3-8.3-8.3H73c-4.6,0-8.3,3.7-8.3,8.3v9.3h-4v-9.3
				c0-6.8,5.5-12.3,12.3-12.3h36.1c6.8,0,12.3,5.5,12.3,12.3V331.1z"/>
		</g>
		<g>
			<polygon class="st2" points="43.9,434.3 28.4,434.3 28.4,419.2 32.4,419.2 32.4,430.3 43.9,430.3 			"/>
		</g>
	</g>
	<g>
		<g>
			<path class="st2" d="M375.9,260.9c-11.4,0-20.7-9.3-20.7-20.7s9.3-20.7,20.7-20.7c1.4,0,2.9,0.1,4.3,0.4l-0.8,3.9
				c-1.1-0.2-2.3-0.4-3.5-0.4c-9.2,0-16.7,7.5-16.7,16.7s7.5,16.7,16.7,16.7c9.2,0,16.7-7.5,16.7-16.7c0-1.7-0.3-3.4-0.8-5l3.8-1.2
				c0.6,2,0.9,4.1,0.9,6.2C396.6,251.6,387.3,260.9,375.9,260.9z"/>
		</g>
		<g>
			<path class="st2" d="M375.9,279.2c-21.5,0-39.1-17.5-39.1-39.1s17.5-39.1,39.1-39.1c8.2,0,16,2.5,22.7,7.3l-2.3,3.2
				c-6-4.3-13-6.5-20.4-6.5c-19.4,0-35.1,15.7-35.1,35.1s15.7,35.1,35.1,35.1c19.4,0,35.1-15.7,35.1-35.1c0-7-2-13.7-5.9-19.4
				l3.3-2.2c4.3,6.4,6.5,13.9,6.5,21.6C415,261.7,397.4,279.2,375.9,279.2z"/>
		</g>
		<g>
			<g>
				<path class="st0" d="M379.5,243.3c-1.5,0-2.9-0.6-4-1.6c-1.1-1.1-1.7-2.5-1.7-4.1c0-1.5,0.6-3,1.7-4l49.8-49.3v-24.4l24.8-24.8
					v30.2l-0.6,0.6l-71.2,70.6c-0.4,0.3-0.5,0.8-0.5,1.2c0,0.5,0.2,0.9,0.5,1.2c0.7,0.7,1.7,0.7,2.4,0l71.4-70.8h30.2L457.5,193
					h-24.8l-49.2,48.8C382.3,242.8,380.9,243.3,379.5,243.3z M436.7,189h19.2l16.9-16.9h-19L436.7,189z M429.3,161.5v18.9l16.9-16.7
					v-19L429.3,161.5z"/>
			</g>
		</g>
		<g>
			<path class="st2" d="M334,207.5l-3.1-2.4c1.1-1.4,2.3-2.8,3.6-4.1l2.9,2.7C336.2,204.9,335.1,206.2,334,207.5z M341,200.1l-2.6-3
				c1.4-1.2,2.8-2.3,4.3-3.4l2.3,3.2C343.7,198,342.3,199,341,200.1z M402.8,194.4c-1.5-0.9-3-1.7-4.5-2.4l1.7-3.6
				c1.6,0.8,3.3,1.6,4.8,2.5L402.8,194.4z M349.3,194.2l-2-3.4c1.6-0.9,3.2-1.8,4.9-2.5l1.6,3.6
				C352.3,192.6,350.8,193.4,349.3,194.2z M393.6,190.1c-1.6-0.6-3.2-1.1-4.9-1.5l0.9-3.8c1.8,0.4,3.5,1,5.2,1.6L393.6,190.1z
				 M358.6,190l-1.3-3.7c1.7-0.6,3.5-1.1,5.3-1.5l0.9,3.9C361.8,188.9,360.2,189.4,358.6,190z M383.7,187.6
				c-1.7-0.2-3.4-0.4-5.1-0.5l0.2-4c1.8,0.1,3.7,0.3,5.4,0.5L383.7,187.6z M368.4,187.6l-0.6-3.9c1.8-0.3,3.6-0.4,5.5-0.5l0.2,4
				C371.8,187.2,370.1,187.4,368.4,187.6z"/>
		</g>
		<g>
			<path class="st2" d="M375.9,297.2c-0.4,0-0.7,0-1.1,0c-1.3,0-2.7-0.1-4-0.2l0.4-3.9c1.2,0.1,2.5,0.2,3.7,0.2c0.3,0,0.7,0,1,0
				l0.3,0l0,4L375.9,297.2C375.9,297.2,375.9,297.2,375.9,297.2z M381.7,296.9l-0.4-3.9c1.7-0.2,3.4-0.4,5-0.8l0.8,3.9
				C385.4,296.5,383.5,296.8,381.7,296.9z M365.4,296.3c-1.8-0.3-3.6-0.8-5.3-1.3l1.1-3.8c1.6,0.5,3.3,0.9,5,1.2L365.4,296.3z
				 M392.4,294.8l-1.1-3.8c1.6-0.5,3.2-1.1,4.8-1.7l1.5,3.7C395.9,293.7,394.2,294.3,392.4,294.8z M354.9,293.2
				c-1.7-0.7-3.4-1.4-5-2.3l1.8-3.5c1.5,0.8,3.1,1.5,4.6,2.1L354.9,293.2z M402.6,290.6l-1.9-3.5c1.5-0.8,3-1.7,4.4-2.6l2.2,3.3
				C405.8,288.8,404.2,289.8,402.6,290.6z M345.1,288.2c-1.5-1-3-2-4.5-3.2l2.4-3.1c1.3,1,2.7,2,4.2,3L345.1,288.2z M411.7,284.6
				l-2.5-3.1c1.3-1.1,2.6-2.2,3.8-3.4l2.8,2.8C414.5,282.3,413.1,283.5,411.7,284.6z M336.5,281.5c-1.3-1.3-2.6-2.6-3.8-4l3-2.6
				c1.1,1.3,2.3,2.5,3.5,3.7L336.5,281.5z M419.5,277l-3-2.6c1.1-1.3,2.1-2.7,3.1-4l3.3,2.3C421.8,274.1,420.7,275.6,419.5,277z
				 M425.7,268l-3.5-1.9c0.8-1.5,1.6-3,2.3-4.6l3.6,1.6C427.4,264.7,426.6,266.4,425.7,268z M430.1,258l-3.8-1.2
				c0.5-1.6,1-3.3,1.3-4.9l3.9,0.9C431.2,254.5,430.7,256.2,430.1,258z M432.5,247.3l-3.9-0.5c0.2-1.7,0.3-3.4,0.4-5.1l4,0.1
				C432.9,243.7,432.7,245.5,432.5,247.3z M428.9,236.6c-0.1-1.7-0.3-3.4-0.6-5.1l3.9-0.6c0.3,1.8,0.5,3.6,0.6,5.4L428.9,236.6z
				 M427.2,226.6c-0.4-1.6-0.9-3.3-1.5-4.9l3.7-1.4c0.6,1.7,1.2,3.5,1.7,5.2L427.2,226.6z M423.7,217.1c-0.7-1.5-1.6-3-2.4-4.5
				l3.4-2.1c0.9,1.5,1.8,3.2,2.6,4.8L423.7,217.1z"/>
		</g>
		<g>
			<path class="st0" d="M331.1,186.9l-2.6-3c13.2-11.1,30-17.2,47.3-17.2c16.4,0,32,5.3,44.9,15.3l-2.4,3.1
				c-12.3-9.5-27-14.5-42.5-14.5C359.5,170.6,343.6,176.4,331.1,186.9z"/>
		</g>
		<g>
			<path class="st0" d="M375.9,313.7c-9.4,0-18.5-1.7-27.1-5.2l1.5-3.7c8.2,3.2,16.8,4.9,25.7,4.9c38.3,0,69.5-31.2,69.5-69.5
				c0-15.2-4.8-29.7-14-41.8l3.2-2.4c9.7,12.8,14.8,28.1,14.8,44.2C449.4,280.7,416.4,313.7,375.9,313.7z"/>
		</g>
	</g>
	<g>
		<g>
			<path class="st0" d="M156.1,286.6c-24.8,0-45-20.2-45-45c0-24.8,20.2-45,45-45h2v76.4h-4v-72.4c-21.7,1-39.1,19-39.1,41
				c0,22.7,18.4,41.1,41.1,41.1c12.6,0,24.4-5.7,32.2-15.6l3.1,2.5C182.9,280.3,170,286.6,156.1,286.6z"/>
		</g>
		<g>
			<path class="st0" d="M150.3,285.7c-0.8-0.6-20.1-14.9-19.1-45.8c1.1-32.8,19.1-42.6,19.9-43l1.8,3.5l-0.9-1.8l0.9,1.8
				c-0.2,0.1-16.8,9.2-17.7,39.6c-0.9,28.7,17.2,42.4,17.4,42.5L150.3,285.7z"/>
		</g>
		<g>
			<path class="st0" d="M162.3,285.7l-2.3-3.2c0.2-0.1,18.4-13.9,17.4-42.7c-0.3-9.7-2.2-18.2-5.6-25.3l3.6-1.7
				c3.7,7.6,5.7,16.7,6,26.9C182.3,270.7,163.1,285.1,162.3,285.7z"/>
		</g>
		<g>
			<rect x="116.4" y="224.9" class="st0" width="61.5" height="4"/>
		</g>
		<g>
			<rect x="116.2" y="254.3" class="st0" width="61.2" height="4"/>
		</g>
	</g>
	<g>
		<path class="st0" d="M65.3,234.9l-10.8-24l28.5,3.6L65.3,234.9z M61.1,215.7l5.3,11.9l8.8-10.1L61.1,215.7z"/>
	</g>
	<g>
		<polygon class="st0" points="478.1,329.9 477.2,307.5 459.9,324.8 453.2,311 443.2,315.2 441.7,311.6 455.2,305.9 461,318 
			480.9,298.3 482,329.7 		"/>
	</g>
	<g>
		<g>
			<path class="st0" d="M337.1,131.2v-19.7c-13.4-4-23.3-16.9-23.3-30.6c0-17.6,14.4-31.9,32.2-31.9H373c17.7,0,32.1,14.5,32.1,32.2
				c0,17.8-14.4,32.2-32.1,32.2h-16.7L337.1,131.2z M346.1,53c-15.6,0-28.2,12.5-28.2,27.9c0,12.5,9.4,24.2,21.8,27.2l1.5,0.4v13.7
				l13.6-12.6H373c15.5,0,28.1-12.7,28.1-28.3c0-15.6-12.6-28.3-28.1-28.3H346.1z"/>
		</g>
		<g>
			<rect x="335.5" y="72.5" class="st2" width="48.8" height="4"/>
		</g>
		<g>
			<rect x="335.5" y="85.7" class="st2" width="39.4" height="4"/>
		</g>
	</g>
	<g>
		<g>
			<rect x="388.1" y="374.2" class="st0" width="73.5" height="4"/>
		</g>
		<g>
			<rect x="399.7" y="350.1" class="st2" width="4" height="14.4"/>
		</g>
		<g>
			<rect x="444.7" y="350.1" class="st2" width="4" height="14.4"/>
		</g>
		<g>
			<rect x="408.7" y="377.1" class="st0" width="4" height="48.7"/>
		</g>
		<g>
			<rect x="435.7" y="377.1" class="st0" width="4" height="48.7"/>
		</g>
		<g>
			<rect x="389.9" y="397.7" class="st0" width="70.3" height="4"/>
		</g>
		<g>
			<path class="st2" d="M463.1,426.9h-77.9v-70.6h77.9V426.9z M389.2,422.9h69.9v-62.7h-69.9V422.9z"/>
		</g>
	</g>
	<g>
		<path class="st0" d="M262.3,71.4c-5.6,0-10.2-4.6-10.2-10.2s4.6-10.2,10.2-10.2c5.6,0,10.2,4.6,10.2,10.2S267.9,71.4,262.3,71.4z
			 M262.3,55.1c-3.4,0-6.2,2.8-6.2,6.2s2.8,6.2,6.2,6.2c3.4,0,6.2-2.8,6.2-6.2S265.8,55.1,262.3,55.1z"/>
	</g>
	<g>
		<g>
			<polygon class="st0" points="161.8,156.8 93.2,156.7 93.2,58.5 164.7,58.5 182.9,77.7 182.9,141 178.9,141 178.9,79.3 163,62.5 
				97.2,62.5 97.2,152.7 161.8,152.8 			"/>
		</g>
		<g>
			<polygon class="st0" points="180.9,82.6 160.3,82.6 160.3,60.5 164.2,60.5 164.2,78.7 180.9,78.7 			"/>
		</g>
		<g>
			<polygon class="st2" points="119.7,91.9 111.3,83.4 114.1,80.6 119.7,86.2 129.4,76.6 132.2,79.4 			"/>
		</g>
		<g>
			<polygon class="st2" points="119.7,115.8 111.3,107.3 114.1,104.5 119.7,110.2 129.4,100.5 132.2,103.3 			"/>
		</g>
		<g>
			<polygon class="st2" points="119.7,140.1 111.3,131.7 114.1,128.9 119.7,134.5 129.4,124.9 132.2,127.7 			"/>
		</g>
		<g>
			<rect x="140.2" y="109.1" class="st2" width="25.8" height="4"/>
		</g>
		<g>
			<rect x="140.2" y="88.3" class="st2" width="25.8" height="4"/>
		</g>
		<g>
			<rect x="140.2" y="130.1" class="st2" width="25.5" height="4"/>
		</g>
	</g>
	<g>
		<path class="st2" d="M222,295.1l-2.2-3.3c9.5-6.3,8.5-19.1,8.5-19.2l3.9-0.4C232.3,272.9,233.5,287.5,222,295.1z"/>
	</g>
	<g>
		<path class="st2" d="M287.1,295.1c-11.5-7.6-10.3-21-10.2-21.6l3.9,0.4c0,0.5-1,11.6,8.5,17.9L287.1,295.1z"/>
	</g>
	<g>
		<path class="st2" d="M260.9,267.3c0,0-3.4-1.8-7-1.8c-3.5,0-6.2,1.7-6.2,1.7l-2.1-3.3c0.1-0.1,3.6-2.3,8.4-2.3
			c4.6,0,8.7,2.1,8.9,2.2L260.9,267.3z"/>
	</g>
	<g>
		<path class="st2" d="M234.6,213.3c0,2.4-1.9,4.3-4.3,4.3c-2.4,0-4.3-1.9-4.3-4.3c0-2.4,1.9-4.3,4.3-4.3
			C232.7,209,234.6,210.9,234.6,213.3z"/>
	</g>
	<g>
		<path class="st2" d="M279.1,213.3c0,2.4-1.9,4.3-4.3,4.3c-2.4,0-4.3-1.9-4.3-4.3c0-2.4,1.9-4.3,4.3-4.3
			C277.2,209,279.1,210.9,279.1,213.3z"/>
	</g>
</g>
</svg>
