<?xml version="1.0" encoding="utf-8"?>
<!-- Generator: Adobe Illustrator 26.0.3, SVG Export Plug-In . SVG Version: 6.00 Build 0)  -->
<svg version="1.1" id="Layer_1" xmlns="http://www.w3.org/2000/svg" xmlns:xlink="http://www.w3.org/1999/xlink" x="0px" y="0px"
	 viewBox="0 0 500 500" style="enable-background:new 0 0 500 500;" xml:space="preserve">
<style type="text/css">
	.st0{fill:#5991CB;}
	.st1{fill:#6E6E6E;}
	.st2{fill:#FFFFFF;}
</style>
<g>
	<g>
		<path class="st0" d="M127.9,286.9c-5.9,0-10.7-4.8-10.7-10.7s4.8-10.7,10.7-10.7c5.9,0,10.7,4.8,10.7,10.7
			S133.9,286.9,127.9,286.9z M127.9,269.4c-3.7,0-6.7,3-6.7,6.7c0,3.7,3,6.7,6.7,6.7c3.7,0,6.7-3,6.7-6.7
			C134.6,272.4,131.6,269.4,127.9,269.4z"/>
	</g>
	<g>
		<path class="st0" d="M258.9,72.4c-0.1,0-0.2,0-0.3,0c-0.7-0.1-1.3-0.5-1.5-1.2L248.9,53c-0.3-0.7-0.2-1.4,0.2-2
			c0.4-0.6,1.1-0.9,1.9-0.8l21.6,2.7c0.7,0.1,1.4,0.6,1.6,1.3c0.3,0.7,0.1,1.5-0.4,2l-13.5,15.5C260.1,72.1,259.5,72.4,258.9,72.4z
			 M254,54.6l5.4,12.1l8.9-10.3L254,54.6z"/>
	</g>
	<g>
		<polygon class="st1" points="53.1,291.5 33.1,262.4 36.4,260.1 51.2,281.6 57.4,254.2 72.1,263.3 79.4,252.9 82.7,255.2 
			73.3,268.7 60.1,260.6 		"/>
	</g>
	<g>
		
			<ellipse transform="matrix(0.5257 -0.8507 0.8507 0.5257 -160.1705 560.0388)" class="st0" cx="422.2" cy="423.7" rx="50.9" ry="50.9"/>
		<g>
			<path class="st1" d="M342.6,135.8h-4c0-7.7-4.8-13.9-10.7-13.9h-21.2c-4.7,0-8.9,4.1-10.3,9.9l-3.9-0.9c1.8-7.7,7.6-13,14.2-13
				h21.2C335.9,117.8,342.6,125.9,342.6,135.8z"/>
		</g>
		<g>
			<polygon class="st1" points="368.1,466.7 181.6,466.7 181.6,159.4 262.1,159.4 262.1,163.4 185.6,163.4 185.6,462.7 368.1,462.7 
							"/>
		</g>
		<g>
			<rect x="164.2" y="178.2" class="st1" width="4" height="87.2"/>
		</g>
		<g>
			<rect x="164.2" y="280.2" class="st1" width="4" height="13.4"/>
		</g>
		<g>
			<polygon class="st1" points="454,362 450,362 450,163.4 380.2,163.4 380.2,159.4 454,159.4 			"/>
		</g>
		<g>
			<path class="st2" d="M417.2,442.9c-0.5,0-1.1-0.2-1.4-0.6l-17.9-18.4c-0.8-0.8-0.8-2.1,0-2.8c0.8-0.8,2.1-0.8,2.8,0l16.4,16.8
				l31.8-35.5c0.7-0.8,2-0.9,2.8-0.2c0.8,0.7,0.9,2,0.2,2.8l-33.2,37.1C418.3,442.7,417.8,442.9,417.2,442.9
				C417.2,442.9,417.2,442.9,417.2,442.9z"/>
		</g>
		<g>
			<rect x="419.1" y="167.5" class="st1" width="4" height="187.9"/>
		</g>
		<g>
			<polygon class="st1" points="352,435.8 212.5,435.8 212.5,379.5 216.5,379.5 216.5,431.8 352,431.8 			"/>
		</g>
		<g>
			<rect x="212.5" y="167.5" class="st1" width="4" height="148.9"/>
		</g>
		<g>
			<path class="st1" d="M376.2,178.2h-40.4l-0.3-1.6c-1.2-6.5-8.3-13.7-16.5-13.7c-8.2,0-15.2,7.2-16.5,13.7l-0.3,1.6h-42.8v-27.9
				c0-9,7.3-16.3,16.3-16.3h84.7c8.7,0,15.7,7.1,15.7,15.7V178.2z M339.1,174.2h33.1v-24.5c0-6.5-5.3-11.7-11.7-11.7h-84.7
				c-6.8,0-12.3,5.5-12.3,12.3v23.9H299c2.3-7.7,10.4-15.4,20-15.4S336.8,166.5,339.1,174.2z"/>
		</g>
		<g>
			<rect x="340" y="328.5" class="st1" width="49.6" height="4"/>
		</g>
		<g>
			<rect x="287.6" y="328.5" class="st1" width="37.6" height="4"/>
		</g>
		<g>
			<path class="st1" d="M388.3,360.7h-5.4v-4h5.4V360.7z M377.5,360.7h-5.4v-4h5.4V360.7z M366.8,360.7h-5.4v-4h5.4V360.7z
				 M356.1,360.7h-5.4v-4h5.4V360.7z M345.3,360.7H340v-4h5.4V360.7z M334.6,360.7h-5.4v-4h5.4V360.7z M323.8,360.7h-5.4v-4h5.4
				V360.7z M313.1,360.7h-5.4v-4h5.4V360.7z M302.4,360.7H297v-4h5.4V360.7z M291.6,360.7h-5.4v-4h5.4V360.7z M280.9,360.7h-5.4v-4
				h5.4V360.7z M270.2,360.7h-5.4v-4h5.4V360.7z"/>
		</g>
		<g>
			<rect x="252.7" y="384.8" class="st1" width="96.6" height="4"/>
		</g>
		<g>
			<path class="st0" d="M204.2,361.2c6.4,6.4,16.7,6.4,23.1,0l42.4-42.9c3.7-3.7,3.7-9.8,0-13.5l-16.3-16.3l-49.1,49.6
				C197.9,344.5,197.9,354.8,204.2,361.2z"/>
			<path class="st0" d="M300.4,266.5c1.7-1.1,3.5-3.6,5.1-4c3.5,2.5,7.2,3.8,10.8,3h0.4c3.7,1,7.5,1.4,11.1-1.6
				c1.6,0.8,3.5,1.5,5.3,2.7c6.3,4,7.9,10.7,8.3,14.5c0,0,0,2.8,0,2.8c-6.2,6.8-15,8.2-24.8,8.2c-9.7,0-18.4-4.1-24.6-10.7
				C292.4,277.5,293.9,270.6,300.4,266.5z"/>
			<g>
				<path class="st1" d="M319.3,294.4c-11.1,0-21.8-4.7-29.3-12.8l-0.6-0.7l0.1-0.9c0.5-4.6,2.4-13.2,10.4-18.3l7-4.1l1.1,0.8
					c0.1,0,6.1,4.7,11.5,4.7c5.4,0,11.3-4.6,11.3-4.6l1-0.8l1.2,0.6c0.2,0.1,4.1,2.1,6.1,3.5c7.7,4.9,10.2,17.2,10.3,17.8l0.2,1
					l-0.7,0.7C341.3,289.7,330.5,294.4,319.3,294.4z M293.6,279.6c6.7,6.9,16,10.8,25.7,10.8c9.8,0,19.1-4,25.9-11
					c-0.7-2.8-3.1-10.9-8.3-14.2c-1.3-0.9-3.4-2-4.7-2.7c-2.2,1.5-7.5,4.7-12.8,4.7c-5.3,0-10.6-3.2-12.9-4.7l-4.6,2.7
					C296.2,268.9,294.2,274.9,293.6,279.6z"/>
			</g>
			<g>
				<rect x="301" y="280.2" class="st1" width="4" height="8.1"/>
			</g>
			<g>
				<path class="st1" d="M336.2,238.8l-2.3-4.6c-2.3-4.7-5.5-9-6.8-9.2c-1-0.1-1.1,0-2.7,1.6c-1,1.1-2.4,2.7-4.8,4.6
					c-6.4,5.1-15.7,3.1-16.1,3l-1.1-0.2l-0.4-1c-0.6-1.6-1.8-9.3-0.4-13.9c0.5-1.7,1.8-5,5-7.6c4.6-3.7,10.3-3.8,12.5-3.8l0.2,0
					l0.3,0l0.2,0l0.2,0c2.2,0,8,0.1,12.5,3.8c3,2.5,4.2,5.6,4.8,7.1l0.1,0.3c2.5,6.4,0.2,14.5,0.1,14.9L336.2,238.8z M305.7,230.5
					c2.4,0.3,7.8,0.5,11.5-2.4c2.1-1.7,3.3-3.1,4.3-4.2c1.6-1.8,3-3.3,6.1-3c2.5,0.3,5.1,3.3,7.1,6.4c0.1-2.2,0-4.7-0.8-6.9
					l-0.2-0.4c-0.5-1.3-1.3-3.6-3.6-5.4c-3.5-2.8-8-2.9-10-2.9l-0.2,0l-0.2,0l-0.3,0l-0.2,0c-2,0-6.5,0.1-10,2.9
					c-2.3,1.9-3.3,4.3-3.7,5.6C304.7,223.2,305.3,228.3,305.7,230.5z"/>
			</g>
			<g>
				<path class="st1" d="M319.6,259.7c-5,0-13.4-4.7-15.1-12.1l0-0.2l-0.4-3.7c-1.9-1.2-3.8-3.2-3.8-5.4c0-3.8,1.5-7.8,4.7-7.8v4
					c0.1,0,0.3-0.1,0.3-0.1c-0.3,0.3-0.9,1.8-0.9,3.9c0,0.4,1,1.5,2.6,2.3l1,0.5l0.7,5.7c1.2,5.1,7.5,8.8,11.1,8.8
					c4.3,0,10-3.8,11.1-8.9l1.5-5.7l0.8-0.4c1.6-0.8,2.5-2.1,2.6-2.5c0.1-1-0.4-2.8-0.8-3l2-3.5c2.5,1.5,3,5.4,2.8,6.9
					c-0.2,2.1-2,4.1-3.9,5.2l-1,3.9C333.1,254.7,325.4,259.7,319.6,259.7z"/>
			</g>
			<g>
				<path class="st1" d="M319.3,304.5c-13.8,0-27.6-5.3-38.2-15.8c-21-21-21-55.3,0-76.3c10.2-10.2,23.7-15.8,38.2-15.8
					c14.4,0,28,5.6,38.2,15.8c10.2,10.2,15.8,23.7,15.8,38.2s-5.6,28-15.8,38.2C347,299.3,333.1,304.5,319.3,304.5z M284,215.3
					c-19.5,19.5-19.5,51.1,0,70.6c19.5,19.5,51.1,19.5,70.6,0c19.5-19.5,19.5-51.1,0-70.6C335.2,195.8,303.5,195.8,284,215.3
					L284,215.3z"/>
			</g>
			<g>
				<path class="st0" d="M279.8,266.5c-3.1-7.8-3.9-16.2-2.2-24.4l3.9,0.8c-1.5,7.4-0.8,15.1,2,22.1L279.8,266.5z"/>
			</g>
			<g>
				<path class="st0" d="M356.5,271.3l-3.5-2c8.3-15,5.7-33.9-6.4-46l2.8-2.8C362.8,233.9,365.7,254.7,356.5,271.3z"/>
			</g>
			<g>
				
					<rect x="277" y="298.5" transform="matrix(0.7043 -0.7099 0.7099 0.7043 -128.9106 291.5721)" class="st1" width="17" height="4"/>
			</g>
			<g>
				
					<rect x="260" y="281.5" transform="matrix(0.7043 -0.7099 0.7099 0.7043 -121.8608 274.4667)" class="st1" width="17" height="4"/>
			</g>
			<g>
				<path class="st1" d="M220.5,371.3c-5.5,0-11.1-2.1-15.3-6.3c-8.4-8.4-8.4-22.2,0-30.6l52.3-52.9l30.6,30.6L235.8,365
					C231.6,369.2,226,371.3,220.5,371.3z M257.5,287.2l-49.5,50c-6.9,6.9-6.9,18.1,0,24.9c6.9,6.9,18.1,6.9,24.9,0l49.5-50
					L257.5,287.2z"/>
			</g>
		</g>
	</g>
	<g>
		<g>
			<rect x="39.4" y="387.5" class="st0" width="4" height="79.2"/>
		</g>
		<g>
			<path class="st0" d="M95.7,390.2h-66c-0.7,0-1.4-0.4-1.8-1c-0.4-0.6-0.3-1.4,0.1-2.1L43.5,363c0.4-0.6,1-0.9,1.7-0.9h50.5v4H46.3
				l-12.9,20.1h62.3V390.2z"/>
		</g>
		<g>
			<rect x="30" y="465.4" class="st0" width="139.6" height="4"/>
		</g>
		<g>
			<rect x="94.4" y="332.5" class="st0" width="4" height="134.2"/>
		</g>
		<g>
			<path class="st0" d="M170.9,333.8H85.7c-1.1,0-2-0.9-2-2V313c0-1.1,0.9-2,2-2h85.2v4H87.7v14.8h83.2V333.8z"/>
		</g>
		<g>
			<g>
				<rect x="114.5" y="433.1" class="st0" width="55" height="4"/>
			</g>
		</g>
		<g>
			<g>
				<rect x="114.5" y="409" class="st0" width="55" height="4"/>
			</g>
		</g>
		<g>
			<g>
				<rect x="114.5" y="384.8" class="st0" width="55" height="4"/>
			</g>
		</g>
		<g>
			<g>
				<rect x="114.5" y="360.7" class="st0" width="55" height="4"/>
			</g>
		</g>
		<g>
			<g>
				<rect x="74.3" y="406.3" class="st1" width="4" height="12.1"/>
			</g>
		</g>
		<g>
			<g>
				<rect x="55.5" y="406.3" class="st1" width="4" height="12.1"/>
			</g>
		</g>
		<g>
			<g>
				<rect x="74.3" y="430.5" class="st1" width="4" height="12.1"/>
			</g>
		</g>
		<g>
			<g>
				<rect x="55.5" y="430.5" class="st1" width="4" height="12.1"/>
			</g>
		</g>
	</g>
	<g>
		<path class="st1" d="M128.4,221.5c-0.4,0-0.8,0-1.1,0l0.1-4c0.4,0,0.7,0,1.1,0c1.4,0,2.8,0,4.2-0.1l0.2,4
			C131.3,221.5,129.9,221.5,128.4,221.5z M121.8,221.3c-1.8-0.1-3.7-0.3-5.5-0.6l0.5-4c1.7,0.2,3.5,0.4,5.2,0.5L121.8,221.3z
			 M138.2,221l-0.4-4c1.7-0.2,3.5-0.4,5.2-0.7l0.7,4C141.9,220.5,140,220.8,138.2,221z M110.9,219.8c-1.8-0.3-3.6-0.8-5.4-1.2l1-3.9
			c1.7,0.4,3.4,0.8,5.1,1.2L110.9,219.8z M149,219.1l-0.9-3.9c1.7-0.4,3.4-0.8,5.1-1.3l1.1,3.9C152.6,218.3,150.8,218.7,149,219.1z
			 M100.3,217.1c-1.7-0.6-3.5-1.2-5.2-1.9l1.5-3.7c1.6,0.6,3.3,1.2,4.9,1.8L100.3,217.1z M90.1,213.1c-1.7-0.8-3.3-1.6-4.9-2.5
			l1.9-3.5c1.5,0.8,3.1,1.6,4.7,2.4L90.1,213.1z M80.4,207.8c-1.5-1-3.1-2-4.6-3l2.3-3.3c1.4,1,2.9,2,4.4,2.9L80.4,207.8z
			 M71.5,201.5c-1.4-1.1-2.8-2.3-4.2-3.6l2.7-3c1.3,1.2,2.6,2.3,4,3.4L71.5,201.5z M63.3,194.1c-1.3-1.3-2.5-2.7-3.7-4l3-2.6
			c1.1,1.3,2.3,2.6,3.6,3.9L63.3,194.1z M56.2,185.8c-1.1-1.4-2.2-2.9-3.2-4.5l3.3-2.3c1,1.4,2,2.9,3.1,4.3L56.2,185.8z M50,176.7
			c-0.9-1.6-1.8-3.2-2.6-4.8l3.6-1.8c0.8,1.5,1.6,3.1,2.5,4.6L50,176.7z M45,167c-0.7-1.7-1.4-3.4-2-5.1l3.8-1.4
			c0.6,1.6,1.3,3.3,2,4.9L45,167z M41.3,156.7c-0.5-1.7-1-3.5-1.4-5.3l3.9-0.9c0.4,1.7,0.8,3.4,1.3,5.1L41.3,156.7z M38.8,146
			c-0.3-1.8-0.6-3.6-0.8-5.4l4-0.4c0.2,1.7,0.4,3.5,0.7,5.2L38.8,146z M37.6,135.1c-0.1-1.5-0.1-3-0.1-4.5l0-0.9l4,0l0,0.9
			c0,1.4,0,2.9,0.1,4.3L37.6,135.1z M41.7,124.4l-4-0.3c0.1-1.2,0.2-2.3,0.3-3.5l4,0.4C41.9,122.2,41.8,123.3,41.7,124.4z"/>
	</g>
	<g>
		<path class="st1" d="M218.3,143.9l-4-0.6c0.3-1.7,0.5-3.5,0.6-5.2l4,0.3C218.8,140.3,218.6,142.1,218.3,143.9z M219.3,133l-4-0.1
			c0-0.8,0-1.5,0-2.3c0-1,0-2,0-3l4-0.1c0,1,0.1,2.1,0.1,3.1C219.3,131.4,219.3,132.2,219.3,133z M214.9,122.4
			c-0.2-1.7-0.4-3.5-0.6-5.2l4-0.6c0.3,1.8,0.5,3.6,0.7,5.4L214.9,122.4z"/>
	</g>
	<g>
		<path class="st1" d="M84.2,55.8l-2-3.5c1.6-0.9,3.2-1.8,4.8-2.7l1.8,3.6C87.2,54,85.7,54.9,84.2,55.8z M169.5,54
			c-1.5-0.8-3.1-1.6-4.7-2.3l1.7-3.7c1.7,0.8,3.3,1.6,4.9,2.5L169.5,54z M93.5,51l-1.6-3.7c1.7-0.7,3.4-1.4,5.1-2.1l1.4,3.8
			C96.7,49.6,95.1,50.3,93.5,51z M160,49.6c-1.6-0.6-3.3-1.2-4.9-1.8l1.2-3.8c1.7,0.6,3.5,1.2,5.2,1.8L160,49.6z M103.3,47.4
			l-1.2-3.9c1.7-0.5,3.5-1,5.3-1.4l0.9,3.9C106.7,46.4,105,46.9,103.3,47.4z M150,46.4c-1.7-0.4-3.4-0.8-5.1-1.1l0.8-4
			c1.8,0.3,3.6,0.7,5.4,1.2L150,46.4z M113.6,45l-0.7-4c1.8-0.3,3.6-0.6,5.4-0.8l0.4,4C117,44.4,115.3,44.7,113.6,45z M139.7,44.4
			c-1.7-0.2-3.5-0.4-5.2-0.5l0.3-4c1.8,0.1,3.7,0.3,5.5,0.5L139.7,44.4z M124,43.8l-0.2-4c1.5-0.1,3.1-0.1,4.6-0.1l0.9,0l0,4l-0.8,0
			C126.9,43.7,125.4,43.7,124,43.8z"/>
	</g>
	<g>
		<g>
			<path class="st0" d="M470.8,143.3H431c-5.1,0-9.2-4-9.2-9v-20.9c0-5,4.1-9,9.2-9h39.7c1.1,0,2,0.9,2,2v34.9
				C472.8,142.4,471.9,143.3,470.8,143.3z M431,108.4c-2.9,0-5.2,2.2-5.2,5v20.9c0,2.7,2.3,5,5.2,5h37.7v-30.9H431z"/>
		</g>
		<g>
			<path class="st0" d="M461.1,184.5v-4c4.3,0,7.7-3.5,7.7-7.7V85.2c0-4.2-3.5-7.7-7.7-7.7H323.5c-4.2,0-7.7,3.5-7.7,7.7v24.5h-4
				V85.2c0-6.5,5.3-11.7,11.7-11.7h137.6c6.5,0,11.7,5.3,11.7,11.7v87.6C472.8,179.3,467.5,184.5,461.1,184.5z"/>
		</g>
		<g>
			<g>
				<g>
					<g>
						<rect x="376.2" y="86.9" class="st1" width="84.5" height="4"/>
					</g>
				</g>
			</g>
		</g>
		<g>
			<path class="st0" d="M442.5,76.2l-3.4-2.2l7.3-11l-51-33.6L385,45.3l-3.4-2.2l11.5-17.5c0.3-0.4,0.8-0.8,1.3-0.9
				c0.5-0.1,1.1,0,1.5,0.3l54.4,35.8c0.4,0.3,0.8,0.8,0.9,1.3c0.1,0.5,0,1.1-0.3,1.5L442.5,76.2z"/>
		</g>
		<g>
			<path class="st0" d="M343.9,77l-3.4-2.2l27-41c0.3-0.4,0.8-0.8,1.3-0.9c0.5-0.1,1.1,0,1.5,0.3L424.7,69l-2.2,3.4l-52.7-34.7
				L343.9,77z"/>
		</g>
		<circle class="st0" cx="440.6" cy="123.2" r="5.4"/>
	</g>
	<g>
		<g>
			<g>
				<path class="st0" d="M179.7,144.1l-2.6-3.1c7.8-6.4,10.7-12.3,13.4-17.6c2.1-4.3,4.1-8.3,8.3-11.3l2.3,3.3
					c-3.3,2.4-4.9,5.6-7,9.8C191.4,130.5,188.1,137.2,179.7,144.1z"/>
			</g>
			<g>
				<path class="st0" d="M94.2,166.6c-2.5,0-4.9-0.9-6.8-2.8c-3.7-3.7-3.7-9.8,0-13.5l7.5-7.5c3.7-3.7,9.8-3.7,13.5,0
					c3.7,3.7,3.7,9.8,0,13.5l-7.5,7.5C99.1,165.6,96.7,166.6,94.2,166.6z M101.7,144c-1.4,0-2.8,0.5-3.9,1.6l-7.5,7.5
					c-2.2,2.2-2.2,5.7,0,7.8c2.2,2.2,5.7,2.2,7.8,0l7.5-7.5c2.2-2.2,2.2-5.7,0-7.8C104.5,144.5,103.1,144,101.7,144z"/>
			</g>
			<g>
				<path class="st0" d="M83.7,155.9c-2.5,0-4.9-0.9-6.8-2.8c-3.7-3.7-3.7-9.8,0-13.5l1.2-1.2c3.7-3.7,9.8-3.7,13.5,0
					c1.8,1.8,2.8,4.2,2.8,6.8c0,2.6-1,5-2.8,6.8l-1.2,1.2C88.6,154.9,86.1,155.9,83.7,155.9z M84.9,139.6c-1.4,0-2.8,0.5-3.9,1.6
					l-1.2,1.2c-2.2,2.2-2.2,5.7,0,7.8c2.2,2.2,5.7,2.2,7.8,0l1.2-1.2c1-1,1.6-2.4,1.6-3.9c0-1.5-0.6-2.9-1.6-3.9
					C87.7,140.1,86.3,139.6,84.9,139.6z"/>
			</g>
			<g>
				<path class="st0" d="M202.4,116c-0.6,0-1.1-0.2-1.5-0.7l-34.1-39.1c-0.7-0.8-0.6-2.1,0.2-2.8l16.7-14.6l2.6,3l-15.2,13.3
					l31.4,36l4.3-3.7l2.6,3l-5.8,5.1C203.4,115.8,202.9,116,202.4,116z"/>
			</g>
			<g>
				<path class="st0" d="M74.8,141.9l-0.7-0.6c-2.9-2.5-3.2-2.7-4.7-4.2c-4.7-4.7-7.6-9.8-9.6-13.7c-0.7-1.4-1.3-2.7-1.9-4
					c-1.2-2.5-2.3-4.7-3.4-6.5c-0.1-0.1-0.1-0.2-0.2-0.3c0,0-0.1-0.1-0.1-0.1l3.2-2.4c0.1,0.2,0.3,0.4,0.5,0.7
					c1.3,2,2.4,4.3,3.6,6.9c0.6,1.2,1.2,2.5,1.9,3.9c1.8,3.6,4.5,8.4,8.8,12.7c1.4,1.4,1.6,1.6,4.5,4l0.7,0.6L74.8,141.9z"/>
			</g>
			<g>
				<path class="st0" d="M125.4,80c-5.7-4.2-13.5-5.3-20.7-3.2c-0.5,0.1-0.9,0.3-1.4,0.4c-7.5,2.2-13.4,2.8-17.3,2
					c-0.4-0.1-0.7-0.1-1.1-0.3c-0.1,0-0.3-0.1-0.4-0.2l1.3-2.6l-0.4,0.8L86,75c0.1,0,0.2,0,0.3,0.1c0.1,0,0.3,0.1,0.4,0.1
					c0,0,0.1,0,0.1,0c3.3,0.7,8.6,0.1,15.5-1.9c0.5-0.1,0.8-0.2,1.2-0.3c8.5-2.5,17.5-1.1,24.3,3.8L125.4,80z"/>
			</g>
			<g>
				<path class="st0" d="M157.8,163.2c-2.5,0-4.9-0.9-6.8-2.8l-7.5-7.5l2.8-2.8l7.5,7.5c2.2,2.2,5.7,2.2,7.8,0
					c2.2-2.2,2.2-5.7,0-7.8l-14-14l2.8-2.8l14,14c3.7,3.7,3.7,9.8,0,13.5C162.7,162.3,160.3,163.2,157.8,163.2z"/>
			</g>
			<g>
				<path class="st0" d="M172.1,156.3c-2.5,0-4.9-0.9-6.8-2.8l-17.5-17.7l2.9-2.8l17.5,17.7c2.2,2.2,5.7,2.2,7.8,0
					c2.2-2.2,2.2-5.7,0-7.8l-1.2-1.2l2.8-2.8l1.2,1.2c3.7,3.7,3.7,9.8,0,13.5C177,155.3,174.5,156.3,172.1,156.3z"/>
			</g>
			<g>
				<path class="st0" d="M146.9,173.7c-2.6,0-5-1-6.8-2.8l-8.3-8.3l2.8-2.8l8.3,8.3c1,1,2.4,1.6,3.9,1.6s2.9-0.6,3.9-1.6
					c1-1,1.6-2.4,1.6-3.9c0-1.5-0.6-2.9-1.6-3.9l-14-14l2.8-2.8l14,14c1.8,1.8,2.8,4.2,2.8,6.8c0,2.6-1,5-2.8,6.8
					C151.8,172.7,149.4,173.7,146.9,173.7z"/>
			</g>
			<g>
				<path class="st0" d="M53.2,116.1c-0.5,0-0.9-0.2-1.3-0.5l-5.8-5.1l2.6-3l4.3,3.7l31.4-36L69.2,61.9l2.6-3l16.7,14.6
					c0.8,0.7,0.9,2,0.2,2.8l-34.1,39.1C54.3,115.9,53.7,116.1,53.2,116.1z"/>
			</g>
			<g>
				<path class="st0" d="M174.8,141.6l-40.4-40.4c-1.3-1.3-3.4-1.4-4.8-0.1c-3.3,3.1-7.9,7.5-10.8,10.3c-1.6,1.5-2.7,2.6-2.9,2.8
					c-1.7,1.6-4,2.5-6.3,2.4c-2.4-0.1-4.6-1-6.2-2.7l-1-1.1c-0.3-0.3-0.5-0.6-0.7-0.9c-2.6-3.5-2.2-8.5,1-11.6l21.8-20.9
					c1.1-1.1,2.3-2,3.5-2.9c6.7-4.9,15.8-6.3,24.2-3.8c8,2.4,14.2,3.2,17.5,2.1l1.3,3.8c-4.2,1.4-10.9,0.7-19.9-2
					c-7.2-2.2-15-1-20.7,3.2c-1.1,0.8-2.1,1.6-3.1,2.5l-21.8,20.9c-1.7,1.7-2,4.4-0.5,6.3c0,0,0.1,0.1,0.1,0.1
					c0.1,0.1,0.2,0.3,0.3,0.4l1,1c0.9,0.9,2.1,1.5,3.4,1.5c1.3,0,2.5-0.4,3.4-1.3c0.2-0.2,1.3-1.3,3-2.8c3-2.8,7.6-7.2,10.8-10.3
					c2.9-2.8,7.6-2.7,10.4,0.1l40.4,40.4L174.8,141.6z"/>
			</g>
			<g>
				<path class="st0" d="M105.1,177c-2.6,0-5-1-6.8-2.8c-3.7-3.7-3.7-9.8,0-13.5l9.5-9.5c1.8-1.8,4.2-2.8,6.8-2.8s5,1,6.8,2.8
					c1.8,1.8,2.8,4.2,2.8,6.8c0,2.6-1,5-2.8,6.8l-9.5,9.5C110.1,176,107.7,177,105.1,177z M114.6,152.4c-1.5,0-2.9,0.6-3.9,1.6
					l-9.5,9.5c-2.2,2.2-2.2,5.7,0,7.8c1,1,2.4,1.6,3.9,1.6c1.5,0,2.9-0.6,3.9-1.6l9.5-9.5c1-1,1.6-2.4,1.6-3.9s-0.6-2.9-1.6-3.9
					C117.5,153,116.1,152.4,114.6,152.4z"/>
			</g>
			<g>
				<path class="st0" d="M123.2,180.4c-2.6,0-5-1-6.8-2.8c-3.3-3.3-3.7-8.4-1.1-12.2c0.3-0.5,0.7-0.9,1.1-1.3l4.5-4.5
					c1.8-1.8,4.2-2.8,6.8-2.8c1.9,0,3.7,0.5,5.3,1.6c0,0,0.1,0.1,0.1,0.1c0.5,0.3,0.9,0.7,1.4,1.1c0.4,0.4,0.7,0.8,1.1,1.3
					c2.7,3.8,2.2,9-1.1,12.2l-4.4,4.5c-0.5,0.5-1,0.9-1.5,1.2C127,179.8,125.1,180.4,123.2,180.4z M127.6,160.8
					c-1.5,0-2.9,0.6-3.9,1.6l-4.4,4.4c-0.2,0.2-0.4,0.5-0.6,0.7c-1.6,2.3-1.3,5.3,0.6,7.1c1,1,2.4,1.6,3.9,1.6c1.1,0,2.2-0.3,3.1-1
					c0.3-0.2,0.6-0.4,0.8-0.6l4.4-4.5c1.9-1.9,2.2-4.9,0.6-7.1c-0.2-0.3-0.4-0.5-0.6-0.8c-0.3-0.3-0.5-0.5-0.8-0.7
					c0,0-0.1-0.1-0.1-0.1C129.8,161.1,128.7,160.8,127.6,160.8z"/>
			</g>
		</g>
	</g>
</g>
</svg>
