<?xml version="1.0" encoding="utf-8"?>
<!-- Generator: Adobe Illustrator 26.0.3, SVG Export Plug-In . SVG Version: 6.00 Build 0)  -->
<svg version="1.1" id="Layer_1" xmlns="http://www.w3.org/2000/svg" xmlns:xlink="http://www.w3.org/1999/xlink" x="0px" y="0px"
	 viewBox="0 0 420 436.9" style="enable-background:new 0 0 420 436.9;" xml:space="preserve">
<style type="text/css">
	.st0{fill:#5892CC;}
	.st1{fill:#6F6F6F;}
</style>
<g>
	<g>
		<g>
			<path class="st0" d="M228.9,54.1h-91.8V19.3h91.8l35.2,17.4L228.9,54.1z M140.2,51.1h88.1l29.1-14.4l-29.1-14.4h-88.1V51.1z"/>
		</g>
		<g>
			<rect x="242.2" y="29.1" class="st0" width="3" height="15.2"/>
		</g>
		<g>
			<polygon class="st0" points="219,53.8 217,51.6 224.3,44.7 215.8,36.7 224.3,28.6 217,21.7 219,19.5 228.7,28.6 220.2,36.7 
				228.7,44.7 			"/>
		</g>
		<g>
			<path class="st0" d="M132.9,54.1c-9.6,0-17.4-7.8-17.4-17.4c0-9.6,7.8-17.4,17.4-17.4v3c-7.9,0-14.4,6.4-14.4,14.4
				c0,7.9,6.4,14.4,14.4,14.4V54.1z"/>
		</g>
		<g>
			<rect x="146.1" y="20.8" class="st0" width="3" height="31.8"/>
		</g>
		<g>
			<rect x="147.3" y="35.2" class="st0" width="70.7" height="3"/>
		</g>
	</g>
	<g>
		<g>
			<rect x="324.8" y="51.1" class="st0" width="3" height="94.2"/>
		</g>
		<g>
			<rect x="324.8" y="22.2" class="st0" width="3" height="28.9"/>
		</g>
		<g>
			<path class="st0" d="M285.5,108.2c-2.9,0-5.7-0.6-8.3-2l1.3-2.7c4.6,2.3,10.1,2.2,14.6-0.3c4.7-2.6,7.8-7.4,8.1-12.8l3,0.2
				c-0.4,6.4-4,12.1-9.7,15.2C291.8,107.5,288.7,108.2,285.5,108.2z"/>
		</g>
		<g>
			<path class="st0" d="M308.3,113.3l-3-0.5c1.3-7.8-5.9-10.1-6.2-10.2l0.9-2.9C303.4,100.8,309.6,105,308.3,113.3z"/>
		</g>
		<g>
			<path class="st0" d="M283.6,91.1c-2.6-2.6-6.1-9.2-1-15.8L285,77c-4.8,6.2,0.5,11.7,0.7,11.9L283.6,91.1z"/>
		</g>
		<g>
			<path class="st0" d="M302,76.6c-0.6-8-8.3-9.7-8.3-9.7l0.6-2.9c3.4,0.7,10.1,4.2,10.7,12.4L302,76.6z"/>
		</g>
		<g>
			<path class="st0" d="M296.9,67.2c-3.4,0-7.1-1-9.9-4.3l2.3-1.9c5.2,6.1,15.3,1.6,15.4,1.5l1.3,2.7
				C305.7,65.3,301.6,67.2,296.9,67.2z"/>
		</g>
		<g>
			<path class="st0" d="M312.1,151.2c-10.3,0-19.1-7-21.5-16.9c-0.5,0-1,0.1-1.4,0.1c-12.2,0-22.1-9.9-22.1-22.1
				c0-3.6,0.9-7.1,2.6-10.3c-5.8-4.9-9.1-11.9-9.1-19.5c0-10.8,6.8-20.4,16.8-24c-2-3.4-3-7.2-3-11.2c0-12.2,9.9-22.1,22.1-22.1
				c1.7,0,3.4,0.2,5.2,0.6c1.5-5.4,6.3-9.5,12.1-9.8c7.4-0.5,13.7,5.2,14.1,12.5l-3,0.2c-0.3-5.7-5.3-10-11-9.7
				c-4.9,0.3-9,4-9.6,8.9l-0.2,1.8l-1.7-0.6c-2-0.6-3.9-1-5.8-1c-10.6,0-19.1,8.6-19.1,19.1c0,4,1.2,7.8,3.6,11.1l1.2,1.7l-2.1,0.6
				c-9.7,2.7-16.5,11.6-16.5,21.7c0,7.1,3.2,13.6,8.9,17.9l1.1,0.8l-0.7,1.2c-1.8,3-2.8,6.4-2.8,9.9c0,10.6,8.6,19.1,19.1,19.1
				c0.7,0,1.5-0.1,2.4-0.2l1.4-0.2l0.2,1.4c1.6,9.1,9.5,15.8,18.8,15.8c4.6,0,10.7-2.3,15.2-5.6l1.8,2.4
				C324,148.8,317.4,151.2,312.1,151.2z"/>
		</g>
		<g>
			<path class="st0" d="M290.1,132.6c-0.1-0.3-2.3-7,0.9-16.5l2.8,1c-2.9,8.5-0.9,14.5-0.9,14.6L290.1,132.6z"/>
		</g>
		<g>
			<g>
				<path class="st0" d="M351.2,78.5l-3-0.2c0.6-8.2,7.3-11.7,10.7-12.4l0.6,2.9C359.2,68.9,351.8,70.5,351.2,78.5z"/>
			</g>
			<g>
				<path class="st0" d="M356.3,69.1c-4.7,0-8.8-1.9-9.1-2l1.3-2.7l-0.6,1.4l0.6-1.4c0.1,0,10.2,4.6,15.4-1.5l2.3,1.9
					C363.4,68.1,359.7,69.1,356.3,69.1z"/>
			</g>
			<g>
				<path class="st0" d="M341,151.6c-5.3,0-11.9-2.4-17-6.2l1.8-2.4c4.5,3.4,10.6,5.6,15.2,5.6V151.6z"/>
			</g>
			<g>
				<path class="st0" d="M389.2,78.7c-1.6-8.4-7.9-15.3-16.1-17.6l-2.1-0.6l1.2-1.7c2.3-3.3,3.6-7.1,3.6-11.1
					c0-10.6-8.6-19.1-19.1-19.1c-1.9,0-3.9,0.3-5.8,1l-1.7,0.6l-0.2-1.8c-0.7-4.9-4.7-8.6-9.6-8.9c-2.8-0.2-5.4,0.7-7.5,2.6
					c-2.1,1.8-3.3,4.4-3.5,7.1l-3-0.2c0.2-3.6,1.8-6.8,4.5-9.2c2.7-2.4,6.1-3.6,9.7-3.3c5.7,0.3,10.6,4.4,12.1,9.8
					c1.7-0.4,3.5-0.6,5.2-0.6c12.2,0,22.1,9.9,22.1,22.1c0,4-1,7.8-3,11.2c8.4,3.1,14.7,10.5,16.4,19.3L389.2,78.7z"/>
			</g>
		</g>
		<g>
			<path class="st0" d="M328,50.2l-2.8-1.2c0.1-0.3,3.5-8,13.6-10.8l0.8,2.9C331,43.5,328.2,49.9,328,50.2z"/>
		</g>
		<g>
			<path class="st0" d="M314.6,131.2l-0.7-2.9l0.3,1.5l-0.3-1.5c0.3-0.1,7-1.8,10.9-10l2.7,1.3C323,129.1,314.9,131.1,314.6,131.2z"
				/>
		</g>
		<g id="gear-5-icon_1_">
			<path class="st0" d="M381,166.8l-5.6-8.8c-1.9-0.2-3.9-0.5-5.7-1l-8.2,6.4l-10.9-6.9l2.3-10.2c-1.3-1.5-2.4-3.1-3.4-4.8
				l-10.3-1.2l-2.8-12.6l8.8-5.6c0.2-1.9,0.5-3.9,1-5.7l-6.4-8.2l6.9-10.9l10.2,2.3c1.5-1.3,3.1-2.4,4.8-3.4l1.2-10.4l12.5-2.8
				l5.6,8.8c1.9,0.2,3.9,0.5,5.7,1l8.2-6.4l10.9,6.9l-2.3,10.2c1.3,1.5,2.4,3.1,3.4,4.8l10.4,1.2l2.8,12.6l-8.8,5.6
				c-0.2,1.9-0.5,3.9-1,5.7l6.4,8.2l-6.9,10.9l-10.2-2.3c-1.5,1.3-3.1,2.4-4.8,3.4l-1.3,10.4L381,166.8z M369.1,153.7l0.7,0.2
				c2.1,0.6,4.4,1,6.6,1.1l0.8,0l5.3,8.3l8.4-1.9l1.2-9.8l0.7-0.4c2-1.1,3.8-2.4,5.5-3.9l0.6-0.5l9.6,2.2l4.6-7.3l-6.1-7.7l0.2-0.7
				c0.6-2.2,1-4.4,1.1-6.6l0-0.8l8.3-5.3l-1.9-8.4l-9.8-1.2l-0.4-0.7c-1.1-2-2.4-3.8-3.9-5.5l-0.5-0.6l2.2-9.6l-7.3-4.6l-7.7,6.1
				l-0.7-0.2c-2.2-0.6-4.4-1-6.6-1.1l-0.8,0l-5.3-8.3l-8.4,1.9l-1.2,9.8l-0.7,0.4c-1.9,1.1-3.8,2.4-5.5,3.9l-0.6,0.5l-9.6-2.2
				l-4.6,7.3l6.1,7.7l-0.2,0.7c-0.6,2.1-1,4.4-1.1,6.6l0,0.8l-8.3,5.3l1.9,8.4l9.8,1.2l0.4,0.7c1.1,2,2.4,3.8,3.9,5.5l0.5,0.6
				l-2.2,9.6l7.3,4.6L369.1,153.7z M378.2,141.2c-3,0-6-0.9-8.6-2.5c-3.6-2.3-6.2-5.9-7.1-10.1c-2-8.7,3.5-17.3,12.2-19.3
				c4.2-0.9,8.5-0.2,12.2,2.1c3.6,2.3,6.2,5.9,7.1,10.1c0.9,4.2,0.2,8.5-2.1,12.2c-2.3,3.6-5.9,6.2-10.1,7.1
				C380.6,141,379.4,141.2,378.2,141.2z M378.2,111.9c-1,0-1.9,0.1-2.9,0.3c-7.1,1.6-11.5,8.6-9.9,15.7c0.8,3.4,2.8,6.3,5.8,8.2
				c3,1.9,6.5,2.5,9.9,1.7c3.4-0.8,6.3-2.8,8.2-5.8c1.9-3,2.5-6.5,1.7-9.9c-0.8-3.4-2.8-6.3-5.8-8.2
				C383.1,112.6,380.7,111.9,378.2,111.9z"/>
		</g>
		<g>
			<path class="st0" d="M309.3,167.1c-1.3-0.3-2.6-0.6-3.9-1l0.8-2.9c1.3,0.3,2.5,0.7,3.8,1L309.3,167.1z M301.5,165
				c-1.3-0.4-2.6-0.9-3.8-1.4l1.1-2.8c1.2,0.5,2.5,0.9,3.7,1.3L301.5,165z M293.9,162c-1.2-0.5-2.5-1.1-3.7-1.7l1.3-2.7
				c1.2,0.6,2.4,1.1,3.6,1.7L293.9,162z M286.6,158.4c-1.2-0.7-2.4-1.4-3.5-2.1l1.6-2.5c1.1,0.7,2.2,1.4,3.4,2L286.6,158.4z
				 M279.7,154.1c-1.1-0.8-2.2-1.6-3.3-2.4l1.8-2.4c1,0.8,2.1,1.6,3.2,2.3L279.7,154.1z M273.2,149.2c-1-0.9-2.1-1.8-3.1-2.7l2-2.2
				c1,0.9,1.9,1.8,2.9,2.6L273.2,149.2z M267.2,143.6c-0.9-1-1.9-2-2.8-3l2.2-2c0.9,1,1.8,1.9,2.7,2.9L267.2,143.6z M261.8,137.6
				c-0.9-1.1-1.7-2.1-2.5-3.2l2.4-1.8c0.8,1,1.6,2.1,2.4,3.1L261.8,137.6z M257,131c-0.7-1.1-1.5-2.3-2.2-3.4l2.6-1.5
				c0.7,1.1,1.4,2.2,2.1,3.3L257,131z M252.8,124c-0.6-1.2-1.3-2.4-1.8-3.6l2.7-1.3c0.6,1.2,1.2,2.4,1.8,3.5L252.8,124z
				 M249.3,116.7c-0.2-0.6-0.5-1.2-0.7-1.8l2.8-1.1c0.2,0.6,0.5,1.1,0.7,1.7L249.3,116.7z"/>
		</g>
		<g>
			<path class="st0" d="M328.3,169.3c-6.4,0-12.8-0.7-19-2.1l0.7-2.9c11.7,2.7,24.2,2.7,35.9,0.1l0.6,2.9
				C340.6,168.6,334.4,169.3,328.3,169.3z"/>
		</g>
	</g>
	<g>
		<g>
			<polygon class="st0" points="15.8,328.7 12.8,328.7 12.8,147.6 106.3,148.2 106.3,151.2 15.8,150.6 			"/>
		</g>
		<g>
			<path class="st0" d="M106.3,361h-76c-9.8,0-17.7-8-17.7-17.7v-0.7c0-9.8,8-17.7,17.7-17.7h76v3h-76c-8.1,0-14.7,6.6-14.7,14.7
				v0.7c0,8.1,6.6,14.7,14.7,14.7h76V361z"/>
		</g>
		<g>
			<rect x="28.3" y="149.2" class="st0" width="3" height="142.8"/>
		</g>
		<g>
			<rect x="28.3" y="298.6" class="st0" width="3" height="11.1"/>
		</g>
		<g>
			<polygon class="st0" points="109.5,221.5 48.2,221.5 48.2,172 109.5,172 109.5,175 51.2,175 51.2,218.5 109.5,218.5 			"/>
		</g>
		<g>
			<rect x="70.8" y="238.4" class="st0" width="36.8" height="3"/>
		</g>
		<g>
			<path class="st0" d="M106.8,261.4h-4v-3h4V261.4z M98.8,261.4h-4v-3h4V261.4z M90.8,261.4h-4v-3h4V261.4z M82.8,261.4h-4v-3h4
				V261.4z M74.8,261.4h-4v-3h4V261.4z"/>
		</g>
		<g>
			<rect x="70.8" y="280.5" class="st0" width="35.6" height="3"/>
		</g>
		<g>
			<rect x="30.9" y="340.3" class="st0" width="75.4" height="3"/>
		</g>
	</g>
	<g>
		<g>
			<ellipse transform="matrix(0.9813 -0.1925 0.1925 0.9813 -41.6809 73.7662)" class="st0" cx="358.8" cy="251.4" rx="3" ry="3"/>
		</g>
		<g>
			<path class="st0" d="M374.3,261.2h-3v-10.8c0-7.1-5.8-12.8-12.8-12.8c-7.1,0-12.8,5.8-12.8,12.8v10.5h-3v-10.5
				c0-8.7,7.1-15.8,15.8-15.8c8.7,0,15.8,7.1,15.8,15.8V261.2z"/>
		</g>
		<g>
			<rect x="353.5" y="264.9" class="st0" width="9.4" height="3"/>
		</g>
		<g>
			<path class="st0" d="M364.1,237.2l-1.8-2.4c0.9-0.7,1.6-1.6,2-2.7c0.6-1.6,0.5-3.2-0.1-4.8c-0.7-1.5-1.9-2.7-3.5-3.3
				c-3.2-1.2-6.8,0.4-8,3.6c-1,2.6-0.2,5.4,2,7.1l-1.8,2.4c-3.2-2.5-4.4-6.7-3-10.5c1.8-4.8,7.1-7.1,11.9-5.3
				c2.3,0.9,4.1,2.6,5.1,4.8c1,2.2,1.1,4.8,0.2,7.1C366.5,234.8,365.5,236.1,364.1,237.2z"/>
		</g>
		<g>
			<path class="st0" d="M345.6,243.3c-3.7-3.5-5.7-8.3-5.7-13.4c0-10.3,8.4-18.6,18.6-18.6c10.3,0,18.6,8.4,18.6,18.6
				c0,5-1.9,9.6-5.5,13.2l-2.1-2.1c2.9-3,4.6-6.9,4.6-11c0-8.6-7-15.6-15.6-15.6c-8.6,0-15.6,7-15.6,15.6c0,4.3,1.7,8.3,4.8,11.3
				L345.6,243.3z"/>
		</g>
		<g>
			<path class="st0" d="M352.3,216.3h-3v-24.7c0-4.8,3.9-8.7,8.7-8.7s8.7,3.9,8.7,8.7v23.2h-3v-23.2c0-3.1-2.6-5.7-5.7-5.7
				s-5.7,2.6-5.7,5.7V216.3z"/>
		</g>
		<g>
			<path class="st0" d="M402.3,364.3c-3.2,0-6.2-2-7.4-5.1l-34.3-94.1l14.1-5.1l34.8,93.9c0.7,2,0.6,4.1-0.3,6
				c-0.9,1.9-2.4,3.3-4.4,4C404,364.2,403.1,364.3,402.3,364.3z M364.5,266.8l33.2,91.3c0.9,2.5,3.7,3.8,6.2,2.9
				c1.2-0.4,2.2-1.3,2.7-2.5c0.5-1.2,0.6-2.5,0.2-3.7L373,263.8L364.5,266.8z"/>
		</g>
		<g>
			<polygon class="st0" points="326.3,345 323.5,344 351.7,266.6 343.9,263.8 326.8,310 324,309 342.2,259.9 355.5,264.8 			"/>
		</g>
		<g>
			
				<rect x="407.9" y="362.7" transform="matrix(0.9484 -0.3171 0.3171 0.9484 -97.5643 149.1226)" class="st0" width="3" height="23.3"/>
		</g>
		<g>
			<path class="st0" d="M357.2,336.4c-5.5,0-11-0.3-16.4-0.8l0.3-3c11.3,1.1,23.2,1,34.4-0.2l0.3,3
				C369.7,336,363.4,336.4,357.2,336.4z"/>
		</g>
		<g>
			<path class="st0" d="M357.2,324.1c-10.4,0-20.8-1-30.9-3.1l0.6-2.9c9.8,2,20,3,30.3,3c19.5,0,38.1-3.6,55.3-10.6l1.1,2.8
				C396,320.5,377,324.1,357.2,324.1z"/>
		</g>
	</g>
	<g>
		<g>
			<path class="st0" d="M148.2,100.8h-3c0-5.9,2.1-10.8,6.1-14.8c13-12.6,42.9-11.7,58.9-11.2c3.9,0.1,7,0.2,8.1,0l0.5,3
				c-1.4,0.2-4.3,0.1-8.7,0c-14.5-0.4-44.7-1.3-56.7,10.4C149.9,91.6,148.2,95.7,148.2,100.8z"/>
		</g>
		<g>
			<path class="st0" d="M132.2,120.3c-6.6,0-12.8-3.2-16.7-8.5H29.6V98h95.7v1.7c0,3.8,3.1,6.9,6.9,6.9c3.8,0,6.9-3.1,6.9-6.9V98
				h97.1v12.2h-3V101H142c-0.6,4.8-4.8,8.6-9.8,8.6c-5,0-9.1-3.7-9.8-8.6H32.6v7.7h84.5l0.4,0.7c3.3,4.9,8.8,7.9,14.6,7.9
				c5.9,0,11.4-2.9,14.6-7.9l0.4-0.7h77.5v3h-75.9C145,117.1,138.8,120.3,132.2,120.3z"/>
		</g>
		<g>
			<path class="st0" d="M219.6,99.2h-3V65.1c-9.3-0.4-61.9-2.2-78.2,13.2c-3.2,3-4.7,6.3-4.7,10.2h-3c0-4.7,1.9-8.9,5.7-12.4
				c18.8-17.7,79.3-14,81.9-13.9l1.4,0.1V99.2z"/>
		</g>
		<g>
			<path class="st0" d="M45.7,100.6h-3V61.8l1.5,0c2.7,0,66-0.9,84.3,17.2c3.4,3.3,5.1,7.1,5.1,11.3l0.1,6.3l-3,0l-0.1-6.3
				c0-3.4-1.4-6.4-4.2-9.1c-16-15.7-70.9-16.3-80.7-16.3V100.6z"/>
		</g>
		<g>
			<rect x="44.2" y="87.2" class="st0" width="14.1" height="3"/>
		</g>
		<g>
			<path class="st0" d="M119.3,100.6h-3c0-5.1-1.7-9.2-5.2-12.6C99,76.3,68.8,77.1,54.3,77.6c-4.4,0.1-7.2,0.2-8.7,0l0.5-3
				c1.1,0.2,4.2,0.1,8.1,0c16.1-0.5,45.9-1.4,58.9,11.2C117.2,89.8,119.3,94.7,119.3,100.6z"/>
		</g>
		<g>
			<rect x="201.6" y="87.2" class="st0" width="14.1" height="3"/>
		</g>
		<g>
			<path class="st0" d="M66.9,88.2c0,1.5,1.2,2.8,2.8,2.8c1.5,0,2.8-1.2,2.8-2.8c0-1.5-1.2-2.8-2.8-2.8
				C68.1,85.4,66.9,86.7,66.9,88.2z"/>
		</g>
	</g>
</g>
<g>
	<g>
		<path class="st0" d="M248.3,132.1c-0.2,0.8,72.2,82.7,72.2,82.7l0.6,7.2l-72.8,0V132.1z"/>
	</g>
	<g>
		<path class="st0" d="M279.8,406.4l8.4,14.2c2.2,3.7,0.9,8.4-2.7,10.6c-3.7,2.2-8.5,0.9-10.6-2.8l-8.6-14.9L279.8,406.4z"/>
	</g>
	<g>
		<path class="st0" d="M239.3,317.5c-1.7-3.2-3.4-5.9-5.1-8.2l-0.1,0.1c-0.1,0.3-0.3,0.5-0.4,0.7c-5.8,10-15.5,10.2-18.7,9.9
			c0.9,2.4,2,4.9,3.4,7.7l36.7,73.1l20.5-10.8L239.3,317.5z"/>
	</g>
	<g>
		<g>
			<polygon class="st1" points="249.9,401.6 118,401.6 118,166.5 121,166.5 121,398.6 249.9,398.6 			"/>
		</g>
		<g>
			<polygon class="st1" points="321.8,401.6 294.7,401.6 294.7,398.6 318.8,398.6 318.8,216.3 240.1,127.4 119.5,127.4 119.5,124.4 
				241.4,124.4 321.8,215.2 			"/>
		</g>
		<g>
			<polygon class="st1" points="320.3,217.3 239.2,217.3 239.2,125.9 242.2,125.9 242.2,214.3 320.3,214.3 			"/>
		</g>
		<g>
			<g>
				<path class="st0" d="M178,194h-24.1l-5.4,14.8h-7.9l22.2-57.4h6.7l21.9,57.4h-7.9L178,194z M156.3,187.5h19.3l-9.5-26.1h-0.2
					L156.3,187.5z"/>
			</g>
		</g>
		<g>
			<polygon class="st1" points="166.9,273.3 154.8,261.1 156.9,259 166.9,269 188,247.9 190.1,250.1 			"/>
		</g>
		<g>
			<polygon class="st1" points="194.7,287.2 143.3,287.2 143.3,236.6 193.2,236.6 193.2,239.6 146.3,239.6 146.3,284.2 191.7,284.2 
				191.7,272.3 194.7,272.3 			"/>
		</g>
		<g>
			<polygon class="st1" points="166.9,353 154.8,340.8 156.9,338.7 166.9,348.7 188,327.6 190.1,329.7 			"/>
		</g>
		<g>
			<polygon class="st1" points="194.7,366.9 143.3,366.9 143.3,316.2 193.2,316.2 193.2,319.2 146.3,319.2 146.3,363.9 191.7,363.9 
				191.7,352 194.7,352 			"/>
		</g>
		<g>
			<rect x="225.7" y="247.7" class="st1" width="70.3" height="3"/>
		</g>
		<g>
			<path class="st1" d="M298.9,278.4h-1.2v-3h1.2V278.4z M293.7,278.4h-4v-3h4V278.4z M285.7,278.4h-4v-3h4V278.4z M277.7,278.4h-4
				v-3h4V278.4z M269.7,278.4h-4v-3h4V278.4z M261.7,278.4h-4v-3h4V278.4z M253.7,278.4h-4v-3h4V278.4z M245.7,278.4h-4v-3h4V278.4z
				 M237.7,278.4h-4v-3h4V278.4z M229.7,278.4h-4v-3h4V278.4z"/>
		</g>
		<g>
			<rect x="263.6" y="325.9" class="st1" width="33.2" height="3"/>
		</g>
		<g>
			<rect x="283.4" y="353.5" class="st1" width="12.6" height="3"/>
		</g>
		<g>
			<g>
				<rect x="210.9" y="177.1" class="st0" width="10.3" height="3"/>
			</g>
			<g>
				<rect x="204.4" y="184.5" class="st0" width="3" height="10.1"/>
			</g>
			<g>
				<rect x="191.3" y="177.1" class="st0" width="29.9" height="3"/>
			</g>
			<g>
				<rect x="204.4" y="162.5" class="st0" width="3" height="22"/>
			</g>
		</g>
		<g>
			<path class="st1" d="M115,147.7c0,2.4,2,4.3,4.4,4.3c2.4,0,4.3-2,4.3-4.4c0-2.4-2-4.3-4.4-4.3C117,143.4,115,145.3,115,147.7z"/>
		</g>
	</g>
	<g>
		<g>
			<path class="st1" d="M257.5,395l-37.4-74.5c-4.8-9.1-5.7-15-7.1-24.8c-1.9-14.2-2.4-17.2-2.5-17.8l-0.9-4.4l16.5,14.6
				c7.5,6.6,12.3,11.1,17.4,20.8c0,0,37.1,73.8,37.1,73.8L257.5,395z M214.1,281.5c0.4,3,1.1,7.7,1.9,13.8
				c1.3,9.7,2.2,15.1,6.8,23.8l36.1,71.7l17.9-9.4l-35.8-71.2c-4.6-8.8-8.7-12.8-16.8-20L214.1,281.5z"/>
		</g>
		<g>
			
				<rect x="208.7" y="265.5" transform="matrix(0.8845 -0.4666 0.4666 0.8845 -103.362 129.657)" class="st1" width="3" height="16.2"/>
		</g>
		<g>
			<path class="st1" d="M219.4,313.7c-1.6,0-2.6-0.2-2.6-0.2l0.5-3c0.5,0.1,12.3,2,18.5-9.8l2.6,1.4
				C233,312.4,223.8,313.7,219.4,313.7z"/>
		</g>
		<g>
			<path class="st1" d="M265.1,409.5l-8.8-16.7l23.3-12.2l8.8,16.7L265.1,409.5z M260.4,394l6,11.4l17.9-9.4l-6-11.4L260.4,394z"/>
		</g>
		<g>
			<path class="st1" d="M281.2,425.7c-1.9,0-3.8-1-4.7-2.9l-5.2-9.9l2.7-1.4l5.2,9.9c0.6,1.1,2,1.6,3.1,1l7-3.7
				c0.6-0.3,1-0.8,1.1-1.4c0.2-0.6,0.1-1.2-0.2-1.8l-4.9-9.4l2.7-1.4l4.9,9.4c0.7,1.3,0.8,2.7,0.4,4.1c-0.4,1.4-1.4,2.5-2.6,3.1
				l-7,3.7C282.9,425.5,282,425.7,281.2,425.7z"/>
		</g>
	</g>
</g>
</svg>
