<?xml version="1.0" encoding="utf-8"?>
<!-- Generator: Adobe Illustrator 26.0.3, SVG Export Plug-In . SVG Version: 6.00 Build 0)  -->
<svg version="1.1" id="Layer_1" xmlns="http://www.w3.org/2000/svg" xmlns:xlink="http://www.w3.org/1999/xlink" x="0px" y="0px"
	 viewBox="0 0 412.1 414.9" style="enable-background:new 0 0 412.1 414.9;" xml:space="preserve">
<style type="text/css">
	.st0{fill:none;stroke:#5991CB;stroke-width:3;stroke-linecap:round;stroke-linejoin:round;stroke-miterlimit:10;}
	.st1{fill:none;stroke:#6E6E6E;stroke-width:3;stroke-linecap:round;stroke-linejoin:round;stroke-miterlimit:10;}
	.st2{fill:#5991CB;}
	.st3{fill:none;stroke:#6E6E6E;stroke-width:3;stroke-linecap:round;stroke-linejoin:round;stroke-miterlimit:9.9999;}
	
		.st4{fill:none;stroke:#6E6E6E;stroke-width:3;stroke-linecap:round;stroke-linejoin:round;stroke-miterlimit:10;stroke-dasharray:2.1967,7.3225;}
	.st5{fill:none;stroke:#6F6F6F;stroke-width:3;stroke-linecap:round;stroke-linejoin:round;stroke-miterlimit:10;}
	.st6{fill:none;stroke:#5991CB;stroke-width:2.9321;stroke-linecap:round;stroke-linejoin:round;stroke-miterlimit:10;}
</style>
<g>
	<polyline class="st0" points="60.3,90.3 42.2,72.4 41.5,95.2 32.2,91.7 26.3,102.1 	"/>
	<polygon class="st1" points="243.9,209.9 262.2,217 243.2,229.5 	"/>
	<g>
		<rect x="75.7" y="197" class="st2" width="116" height="17"/>
		<polyline class="st1" points="46.2,250.5 46.2,165.5 210.2,165.5 210.2,237.5 		"/>
		<path class="st2" d="M114.9,321c0-8.7,1.3-17.1,3.8-24.9h-31c-6.6,0-12-5.4-12-12v-8.9c0-5.6-4.5-10.2-10.2-10.2H24.8
			c-5.6,0-10.2,4.5-10.2,10.2v108.7c0,5.6,4.5,10.2,10.2,10.2h126.9c1.6,0,2.3-2.1,0.9-3C129.9,376,114.9,350.2,114.9,321z"/>
		<path class="st1" d="M116.2,294.5h-29c-6.6,0-12-5.4-12-12v-7.9c0-5.6-4.5-10.2-10.2-10.2H24.3c-5.6,0-10.2,4.5-10.2,10.2v108.7
			c0,5.6,4.5,10.2,10.2,10.2h128.8"/>
		
			<ellipse transform="matrix(0.7071 -0.7071 0.7071 0.7071 -168.987 235.0003)" class="st3" cx="199.2" cy="321.5" rx="72" ry="72"/>
		<polyline class="st1" points="29.2,251.5 29.2,148.5 197.2,148.5 		"/>
		<g>
			<path class="st2" d="M210.7,337h-19v-61h19V337z M210.7,369h-19v-16h19V369z"/>
		</g>
		<rect x="70.2" y="192.5" class="st1" width="116" height="17"/>
		<line class="st4" x1="70.2" y1="229.5" x2="186.2" y2="229.5"/>
		<line class="st1" x1="70.2" y1="248.5" x2="149.2" y2="248.5"/>
	</g>
	<g>
		<polyline class="st0" points="105.2,119.5 105.2,132.5 120.2,132.5 120.2,119.5 		"/>
		<line class="st0" x1="120" y1="132.3" x2="121.2" y2="139.5"/>
		<line class="st0" x1="105.4" y1="132.3" x2="104.2" y2="140.5"/>
		<path class="st5" d="M143.5,74.5c0.5-2.7,4-1.6,5.5-7.9c1.1-4.4,0.6-7.1-0.5-8.4"/>
		<path class="st1" d="M80.9,74.5c-0.5-2.7-4-1.6-5.5-7.9c-1.2-5.1-0.4-7.8,1-8.9"/>
		<path class="st1" d="M143.5,74.5c-2.9,19.5-15.8,34.2-31.3,34.2S83.8,94,80.9,74.5"/>
		<path class="st1" d="M120.4,93.2c-2.5,1.9-5.3,3-8.2,3c-2.9,0-5.7-1.1-8.2-3"/>
		<path class="st6" d="M120.3,77.5H132c1.2,0,2.1-1,2.1-2.1v-8.7c0-1.2-1-2.1-2.1-2.1h-11.7c-1.2,0-2.1,1-2.1,2.1v8.7
			C118.2,76.6,119.1,77.5,120.3,77.5z"/>
		<path class="st6" d="M93.3,77.5H105c1.2,0,2.1-1,2.1-2.1v-8.7c0-1.2-1-2.1-2.1-2.1H93.3c-1.2,0-2.1,1-2.1,2.1v8.7
			C91.2,76.6,92.1,77.5,93.3,77.5z"/>
		<path class="st0" d="M116.5,70.4c-2.9-1.9-5.9-2.1-8.9,0"/>
		<path class="st1" d="M52.6,141.5c0-15.1,12.5-28.1,35.5-33.6c0,0,6.3,11.8,24.6,11.8s24.5-11.8,24.5-11.8
			c23,5.5,35.6,18.5,35.6,33.6"/>
		<path class="st1" d="M136.3,27.9c-5.9-12.3-22.8-15.9-35.5-12.7C88,18.3,76.2,27.9,76.2,47.9v14.6l7.3-9.1
			c12.7,3.6,34.6,1.8,49.2-7.3l14.6,16.4V49.7C147.2,42.7,148.1,30.8,136.3,27.9z"/>
	</g>
	<g>
		<polyline class="st1" points="195.2,135.5 195.2,48.9 203.5,47.5 		"/>
		<polyline class="st1" points="256.2,130.5 256.2,173.8 217.2,180.2 		"/>
		<polyline class="st1" points="328.2,163.5 328.2,48.5 390.2,38.2 390.2,164.5 		"/>
		<line class="st1" x1="256.6" y1="173.8" x2="283.2" y2="177.5"/>
		<line class="st1" x1="270.1" y1="136.3" x2="314.2" y2="142.6"/>
		<line class="st1" x1="270.1" y1="153.5" x2="314.2" y2="159.7"/>
		<line class="st1" x1="376.7" y1="102.7" x2="341.5" y2="107.8"/>
		<line class="st1" x1="376.7" y1="119.8" x2="341.5" y2="124.9"/>
		<line class="st1" x1="360.5" y1="139.3" x2="341.5" y2="142"/>
		<line class="st1" x1="328.4" y1="48.9" x2="317.7" y2="47.3"/>
		<path class="st0" d="M309.6,68.5c0-27.9-22.6-50.5-50.5-50.5s-50.5,22.6-50.5,50.5s22.6,50.5,50.5,50.5c5.5,0,10.8-0.9,15.7-2.5
			l19.4,11.1l-2.4-20.6C302.7,97.8,309.6,84,309.6,68.5z"/>
		<g>
			<path class="st0" d="M254.2,37.5h12v10h-12L254.2,37.5L254.2,37.5z M254.2,58.5h12v38h-12L254.2,58.5L254.2,58.5z"/>
		</g>
		<polygon class="st1" points="377.2,87.4 341.2,92.5 341.2,70.2 377.2,65.1 		"/>
	</g>
	<g>
		<path class="st1" d="M388.2,361.5h-62.4c-4.4,0-10.5,2.7-13.4,6c-1.8,2.1-3.9,3.6-6.6,3.6s-4.7-1.4-6.5-3.5
			c-2.9-3.4-9-6.1-13.5-6.1l-15.7,0.4"/>
		<path class="st1" d="M263.2,371.5h16.4c5.6,0,9.7,2.9,13.2,5.4l0.3,0.2c2.7,1.9,5.4,3.4,12.2,3.4c4.5,0,9.3-1.3,12.2-3.4l0.2-0.2
			c3.6-2.5,7.6-5.4,13.2-5.4H394v12h-63.1c-2.4,0-4.7,1.7-7.5,3.6l-0.3,0.2c-4.6,3.2-11.5,5.2-18,5.2c-8.8,0-13.5-2.1-18-5.2
			l-0.3-0.2c-2.7-1.9-5.1-3.6-7.5-3.6h-25.4"/>
		<path class="st1" d="M392.3,330.4c-14.3,14.3-37,15.3-64.8,16.9c-4.1,0.2-8.1,1.5-11.6,3.6l-4.3,2.6"/>
		<path class="st0" d="M292.6,265.5h64.2l25.4,21.5v-21.5h10.6c2.4,0,4.4-2,4.4-4.4v-85.2c0-2.4-2-4.4-4.4-4.4H292.6
			c-2.4,0-4.4,2-4.4,4.4v85.2C288.2,263.6,290.1,265.5,292.6,265.5z"/>
		<path class="st0" d="M265.2,276.5v-14.6c0-1.9,1.5-3.4,3.4-3.4h11.6"/>
		<path class="st0" d="M349.2,277.5v49.6c0,1.9-1.5,3.4-3.4,3.4h-38.1l-19.5,16.6v-16.6h-9"/>
		<g>
			<path class="st2" d="M304.1,306c0-3,0.5-5.1,1.3-6.5c0.9-1.4,2.6-3.1,5.1-5c1.5-1.2,2.7-2.6,3.6-4s1.4-3,1.4-4.8
				c0-1.9-0.5-3.5-1.5-4.6s-2.5-1.7-4.4-1.7c-1.6,0-2.9,0.5-4,1.4s-1.6,2.3-1.7,4.1h-9l-0.1-0.2c-0.1-4.1,1.3-7.2,4-9.3
				c2.7-2.2,6.3-3.2,10.7-3.2c4.7,0,8.5,1.2,11.2,3.6s4.1,5.7,4.1,9.8c0,2.7-0.8,5.2-2.4,7.5s-3.6,4.2-5.9,5.8c-1.3,1-2.1,2-2.5,3
				s-0.6,2.4-0.6,4.1L304.1,306L304.1,306z M313.7,319h-9v-8h9V319z"/>
		</g>
	</g>
</g>
<path class="st2" d="M342.4,187.4c-16.7,0-30.3,13.6-30.3,30.3s13.6,30.3,30.3,30.3s30.3-13.6,30.3-30.3S359.1,187.4,342.4,187.4z
	 M333.8,198.6c2.2-5.2,5.3-8.4,8.6-8.4c6.6,0,12.1,12.4,12.1,27.3h-24.2c0-6,0.9-11.6,2.5-16.2h13.7v-2.7H333.8z M354.4,220.2
	c-0.2,5.5-1.2,10.6-2.7,14.8H333c-1.5-4.2-2.5-9.3-2.7-14.8H354.4z M327.6,217.5h-12.8c0.1-6.1,2.1-11.7,5.5-16.2h9.6
	C328.5,205.9,327.6,211.5,327.6,217.5z M327.7,220.2c0.2,5.5,1.1,10.6,2.5,14.8h-9.3v0.1c-3.3-4.1-5.5-9.3-6-14.9H327.7z
	 M331.2,237.7c1.2,2.8,2.6,5.1,4.2,6.8c-4.6-1.2-8.7-3.6-12.1-6.8H331.2z M334.1,237.7h16.6c-2.2,4.7-5.1,7.7-8.3,7.7
	C339.3,245.4,336.3,242.4,334.1,237.7z M353.6,237.7h7.8c-3.3,3.2-7.4,5.6-12,6.8C351,242.8,352.5,240.5,353.6,237.7z M354.7,235
	c1.4-4.2,2.3-9.3,2.5-14.8h9.4v-2.7h-9.4c0-6-0.9-11.6-2.3-16.2h9.6c3.5,4.6,5.5,10.3,5.5,16.5c0,6.5-2.3,12.5-6.1,17.3V235H354.7z
	 M362.2,198.6h-7.7v1.4c-1.3-3.7-2.9-6.7-4.8-8.9C354.5,192.5,358.8,195.1,362.2,198.6z M335.1,191.2c-1.7,1.9-3.1,4.4-4.3,7.4h-8.2
	C326,195.1,330.3,192.5,335.1,191.2z"/>
</svg>
