<?xml version="1.0" encoding="utf-8"?>
<!-- Generator: Adobe Illustrator 26.0.3, SVG Export Plug-In . SVG Version: 6.00 Build 0)  -->
<svg version="1.1" id="Layer_1" xmlns="http://www.w3.org/2000/svg" xmlns:xlink="http://www.w3.org/1999/xlink" x="0px" y="0px"
	 viewBox="0 0 442.5 436.9" style="enable-background:new 0 0 442.5 436.9;" xml:space="preserve">
<style type="text/css">
	.st0{fill:#5891CC;}
	.st1{fill:#6E6E6E;}
</style>
<g>
	<g>
		<g>
			<rect x="254.4" y="159.5" class="st0" width="3" height="12.3"/>
		</g>
		<g>
			<rect x="264.8" y="177.8" class="st0" width="12.3" height="3"/>
		</g>
		<g>
			<rect x="254.4" y="188.8" class="st0" width="3" height="12.3"/>
		</g>
		<g>
			<rect x="235.2" y="177.8" class="st0" width="12.3" height="3"/>
		</g>
	</g>
	<g>
		<g>
			<g>
				<path class="st0" d="M212.8,33.3l-1.2-2.7c0.8-0.3,1.3-0.6,1.8-0.8c2.1-1,2.2-1,4.6-1.6c0.6-0.1,1.2-0.3,2.1-0.5l0.8,2.9
					c-0.9,0.2-1.6,0.4-2.1,0.5c-2.2,0.6-2.2,0.6-4.1,1.4C214.2,32.7,213.6,33,212.8,33.3z"/>
			</g>
			<g>
				<path class="st0" d="M181.2,62.4l-2.5-1.6c6.5-9.9,14.9-18.4,24.7-25l1.7,2.5C195.6,44.7,187.5,52.8,181.2,62.4z"/>
			</g>
			<g>
				<path class="st0" d="M328.7,145.3H183.9v-3h141.8v-32.8c0-40.1-32.6-72.7-72.7-72.7c-27,0-51.6,14.8-64.2,38.7l-2.7-1.4
					c13.2-24.8,38.8-40.3,66.9-40.3c41.7,0,75.7,33.9,75.7,75.7V145.3z"/>
			</g>
			<g>
				<path class="st0" d="M303.3,121.5H202.8v-13.7c0-27.7,22.5-50.3,50.3-50.3c27.7,0,50.3,22.5,50.3,50.3V121.5z M205.8,118.5h94.5
					v-10.7c0-26.1-21.2-47.3-47.3-47.3c-26.1,0-47.3,21.2-47.3,47.3V118.5z"/>
			</g>
			<g>
				<rect x="215.5" y="130.9" class="st0" width="3" height="12.9"/>
			</g>
			<g>
				<rect x="194.1" y="130.9" class="st0" width="3" height="12.9"/>
			</g>
			<g>
				<rect x="239" y="130.9" class="st0" width="3" height="12.9"/>
			</g>
			<g>
				<rect x="262.5" y="130.9" class="st0" width="3" height="12.9"/>
			</g>
			<g>
				<rect x="286" y="130.9" class="st0" width="3" height="12.9"/>
			</g>
			<g>
				<rect x="307" y="130.9" class="st0" width="3" height="12.9"/>
			</g>
		</g>
	</g>
	<g>
		<g>
			<path class="st0" d="M108.6,200.6c-1.2,0-2.4,0-3.6-0.1l0.1-3c1.2,0,2.4,0.1,3.5,0.1l0.4,0l0,3L108.6,200.6z M113.1,200.5l-0.1-3
				c1.3-0.1,2.6-0.2,3.9-0.3l0.3,3C115.8,200.3,114.4,200.4,113.1,200.5z M100.9,200.3c-1.3-0.1-2.7-0.3-4-0.4l0.4-3
				c1.3,0.2,2.6,0.3,3.9,0.4L100.9,200.3z M121.2,199.7l-0.4-3c1.3-0.2,2.6-0.4,3.9-0.6l0.6,2.9
				C123.9,199.3,122.5,199.5,121.2,199.7z M92.8,199.2c-1.3-0.2-2.7-0.5-4-0.8l0.7-2.9c1.3,0.3,2.6,0.6,3.9,0.8L92.8,199.2z
				 M129.2,198.2l-0.7-2.9c1.3-0.3,2.5-0.6,3.8-1l0.8,2.9C131.8,197.5,130.5,197.9,129.2,198.2z M84.9,197.4
				c-1.3-0.4-2.6-0.8-3.9-1.2l0.9-2.9c1.2,0.4,2.5,0.8,3.8,1.1L84.9,197.4z M137,195.9l-1-2.8c1.2-0.4,2.5-0.9,3.7-1.3l1.1,2.8
				C139.5,195,138.3,195.5,137,195.9z M77.2,194.9c-1.3-0.5-2.5-1-3.8-1.5l1.2-2.8c1.2,0.5,2.4,1,3.6,1.5L77.2,194.9z M144.6,193
				l-1.2-2.7c1.2-0.5,2.4-1.1,3.6-1.7l1.3,2.7C147,191.9,145.8,192.4,144.6,193z M69.7,191.6c-1.2-0.6-2.4-1.2-3.6-1.9l1.4-2.6
				c1.1,0.6,2.3,1.2,3.5,1.8L69.7,191.6z M151.8,189.3l-1.5-2.6c1.1-0.6,2.3-1.3,3.4-2l1.6,2.5C154.2,188,153,188.7,151.8,189.3z
				 M62.6,187.7c-1.2-0.7-2.3-1.4-3.4-2.2l1.7-2.5c1.1,0.7,2.2,1.4,3.3,2.1L62.6,187.7z M158.8,185.1l-1.7-2.5
				c1.1-0.7,2.2-1.5,3.2-2.3l1.8,2.4C161,183.5,159.9,184.3,158.8,185.1z M55.8,183.2c-1.1-0.8-2.2-1.6-3.2-2.5l1.9-2.3
				c1,0.8,2.1,1.6,3.1,2.4L55.8,183.2z M165.3,180.2l-1.9-2.3c1-0.8,2-1.7,3-2.6l2,2.2C167.3,178.4,166.3,179.3,165.3,180.2z
				 M49.5,178.1c-1-0.9-2-1.8-3-2.8l2.1-2.1c0.9,0.9,1.9,1.8,2.9,2.7L49.5,178.1z M43.7,172.4c-0.9-1-1.8-2-2.7-3l2.3-2
				c0.8,1,1.7,2,2.6,2.9L43.7,172.4z M38.4,166.2c-0.8-1.1-1.6-2.2-2.4-3.3l2.4-1.7c0.8,1.1,1.5,2.1,2.3,3.2L38.4,166.2z
				 M33.7,159.6c-0.7-1.1-1.4-2.3-2.1-3.5l2.6-1.5c0.7,1.1,1.3,2.3,2.1,3.4L33.7,159.6z M29.6,152.6c-0.6-1.2-1.2-2.4-1.8-3.7
				l2.7-1.3c0.5,1.2,1.1,2.4,1.7,3.5L29.6,152.6z M26.2,145.2c-0.5-1.3-1-2.5-1.5-3.8l2.8-1c0.4,1.2,0.9,2.5,1.4,3.7L26.2,145.2z
				 M23.5,137.5c-0.4-1.3-0.8-2.6-1.1-3.9l2.9-0.7c0.3,1.3,0.7,2.5,1.1,3.8L23.5,137.5z M21.5,129.6c-0.3-1.3-0.5-2.7-0.7-4l3-0.5
				c0.2,1.3,0.4,2.6,0.7,3.9L21.5,129.6z M20.2,121.6c-0.1-1.3-0.3-2.7-0.4-4.1l3-0.2c0.1,1.3,0.2,2.6,0.3,3.9L20.2,121.6z
				 M19.7,113.5c0-0.6,0-1.2,0-1.8c0-0.7,0-1.5,0-2.2l3,0.1c0,0.7,0,1.4,0,2.2c0,0.6,0,1.2,0,1.8L19.7,113.5z M22.8,105.5l-3-0.2
				c0.1-1.3,0.2-2.7,0.4-4l3,0.3C23.1,102.9,22.9,104.2,22.8,105.5z M23.8,97.7l-3-0.5c0.2-1.3,0.5-2.7,0.7-4l2.9,0.6
				C24.2,95.1,24,96.4,23.8,97.7z M25.4,90l-2.9-0.8c0.3-1.3,0.7-2.6,1.1-3.9l2.9,0.9C26.1,87.5,25.7,88.8,25.4,90z M27.7,82.5
				l-2.8-1c0.5-1.3,0.9-2.5,1.5-3.8l2.8,1.1C28.6,80.1,28.1,81.3,27.7,82.5z M30.7,75.3L28,74c0.6-1.2,1.2-2.5,1.8-3.6l2.7,1.4
				C31.8,72.9,31.3,74.1,30.7,75.3z M34.4,68.3l-2.6-1.5c0.7-1.2,1.4-2.3,2.1-3.5l2.5,1.6C35.7,66.1,35,67.2,34.4,68.3z M38.6,61.7
				L36.2,60c0.8-1.1,1.6-2.2,2.4-3.3l2.4,1.9C40.2,59.6,39.4,60.7,38.6,61.7z M43.5,55.6l-2.3-2c0.9-1,1.8-2,2.7-3l2.2,2.1
				C45.2,53.6,44.3,54.6,43.5,55.6z"/>
		</g>
		<g>
			<path class="st0" d="M108.5,187.8c-41.1,0-74.5-33.4-74.5-74.5c0-41.1,33.4-74.5,74.5-74.5c41.1,0,74.5,33.4,74.5,74.5
				C183,154.4,149.6,187.8,108.5,187.8z M108.5,41.8C69.1,41.8,37,73.9,37,113.3c0,39.4,32.1,71.5,71.5,71.5
				c39.4,0,71.5-32.1,71.5-71.5C180,73.9,147.9,41.8,108.5,41.8z"/>
		</g>
		<g>
			<path class="st0" d="M73.3,68.5l-1.9-2.4c2.5-2,5.2-3.8,8-5.3l1.5,2.6C78.2,64.9,75.6,66.6,73.3,68.5z"/>
		</g>
		<g>
			<path class="st0" d="M141.8,67.1c-9.8-7.1-21.3-10.8-33.3-10.8c-7.3,0-14.4,1.4-21.1,4l-1.1-2.8c7.1-2.8,14.5-4.3,22.2-4.3
				c12.7,0,24.8,3.9,35.1,11.3L141.8,67.1z"/>
		</g>
		<g>
			<path class="st0" d="M126.1,172.5h-3v-11.8c0-4.6,3.7-8.3,8.3-8.3h10.4c2.9,0,5.3-2.4,5.3-5.3s-2.4-5.3-5.3-5.3h-24.6
				c-6.3,0-11.4-6-11.4-13.3c0-7.3,5.1-13.3,11.4-13.3h27.4c2.5,0,4.4-2.5,4.4-5.6c0-3.1-2-5.6-4.4-5.6h-7.4
				c-6.7,0-12.1-6.3-12.1-14.1s5.4-14.1,12.1-14.1h28.3v3h-28.3c-5,0-9.1,5-9.1,11.1c0,6.1,4.1,11.1,9.1,11.1h7.4
				c4.1,0,7.4,3.9,7.4,8.6c0,4.7-3.3,8.6-7.4,8.6h-27.4c-4.6,0-8.4,4.6-8.4,10.3c0,5.7,3.8,10.3,8.4,10.3h24.6
				c4.6,0,8.3,3.7,8.3,8.3s-3.7,8.3-8.3,8.3h-10.4c-2.9,0-5.3,2.4-5.3,5.3V172.5z"/>
		</g>
		<g>
			<path class="st0" d="M86.3,156.6h-3v-7.2c0-5.2-4.2-9.4-9.4-9.4H60.1c-5,0-9-4.1-9-9c0-5,4.1-9,9-9h13c7.4,0,13.3-7.8,13.8-14.9
				c-0.5-7.1-6.5-12.8-13.8-12.8H52.5v-3h20.5c8.6,0,15.7,6.5,16.7,14.8h0.1v2.1h-0.1c-1,8.3-7.8,16.8-16.7,16.8h-13
				c-3.3,0-6,2.7-6,6c0,3.3,2.7,6,6,6h13.8c6.9,0,12.4,5.6,12.4,12.4V156.6z"/>
		</g>
		<g>
			<rect x="45.6" y="35" transform="matrix(0.7071 -0.7071 0.7071 0.7071 -22.394 48.2978)" class="st0" width="3" height="32.3"/>
		</g>
		<g>
			
				<rect x="173.2" y="158.5" transform="matrix(0.7071 -0.7071 0.7071 0.7071 -72.3168 174.668)" class="st0" width="3" height="32.3"/>
		</g>
		<g>
			<rect x="119" y="206.1" class="st0" width="3" height="16"/>
		</g>
		<g>
			<rect x="93.7" y="206.1" class="st0" width="3" height="16"/>
		</g>
		<g>
			<path class="st0" d="M144.2,242.6h-73v-1.5c0-11.3,9.2-20.5,20.5-20.5h32.1c11.3,0,20.5,9.2,20.5,20.5V242.6z M74.3,239.6h66.8
				c-0.8-8.9-8.3-16-17.4-16H91.7C82.6,223.6,75.1,230.6,74.3,239.6z"/>
		</g>
	</g>
	<g>
		<g>
			<path class="st0" d="M267.5,253.7l-16.6-26.6l8.5-5.3c3.6-2.2,7.8-2.9,11.9-2c4.1,0.9,7.6,3.4,9.8,7c2.2,3.6,2.9,7.8,2,11.8
				c-0.9,4.1-3.4,7.6-7,9.8L267.5,253.7z M255.1,228.1l13.4,21.5l6-3.7c2.9-1.8,4.9-4.6,5.6-7.9c0.8-3.3,0.2-6.7-1.6-9.6
				c-1.8-2.9-4.6-4.9-7.9-5.6c-3.3-0.8-6.7-0.2-9.6,1.6L255.1,228.1z"/>
		</g>
		<g>
			
				<rect x="287.4" y="224.3" transform="matrix(0.8896 -0.4568 0.4568 0.8896 -69.9255 162.3804)" class="st0" width="26.9" height="3"/>
		</g>
		<g>
			<polygon class="st0" points="280.3,217.9 278.5,215.5 316.3,187.3 326.6,203.9 324.1,205.5 315.4,191.7 			"/>
		</g>
		<g>
			<polygon class="st0" points="340.6,217.6 339.2,215 379.2,193.8 353.9,153.2 313.4,182.7 326.7,204 324.1,205.6 309.3,181.9 
				354.7,148.8 383.5,194.9 			"/>
		</g>
		<g>
			<path class="st0" d="M386.2,205l-38.9-62.4l37.6-31.2l45.9,73.6L386.2,205z M351.2,143.2l36.2,58l39-17.6l-42.3-67.8L351.2,143.2
				z"/>
		</g>
		<g>
			<path class="st0" d="M413.1,184.8l-2.1-3.4l2.5-1.6l2.1,3.4L413.1,184.8z M408.8,178.1l-2.1-3.4l2.5-1.6l2.1,3.4L408.8,178.1z
				 M404.6,171.3l-2.1-3.4l2.5-1.6l2.1,3.4L404.6,171.3z M400.4,164.5l-2.1-3.4l2.5-1.6l2.1,3.4L400.4,164.5z M396.1,157.7l-2.1-3.4
				l2.5-1.6l2.1,3.4L396.1,157.7z M391.9,150.9l-2.1-3.4l2.5-1.6l2.1,3.4L391.9,150.9z M387.7,144.1l-2.1-3.4l2.5-1.6l2.1,3.4
				L387.7,144.1z M383.4,137.3l-2.1-3.4l2.5-1.6l2.1,3.4L383.4,137.3z M379.2,130.5l-2.1-3.4l2.5-1.6l2.1,3.4L379.2,130.5z"/>
		</g>
		<g>
			<g>
				<path class="st0" d="M326.3,233.6c-8.3,0-15.1-6.8-15.1-15.1c0-8.3,6.8-15.1,15.1-15.1c8.3,0,15.1,6.8,15.1,15.1
					C341.3,226.8,334.6,233.6,326.3,233.6z M326.3,206.5c-6.7,0-12.1,5.4-12.1,12.1c0,6.7,5.4,12.1,12.1,12.1
					c6.7,0,12.1-5.4,12.1-12.1C338.3,211.9,332.9,206.5,326.3,206.5z"/>
			</g>
			<g>
				<rect x="324.8" y="232.1" class="st0" width="3" height="33.9"/>
			</g>
			<g>
				<path class="st0" d="M358.3,317.3l-24.2-34.9v-7.1c0-4.3-3.5-7.8-7.8-7.8s-7.8,3.5-7.8,7.8v7l-14.9,19.9l-2.4-1.8l14.3-19.1v-6
					c0-6,4.8-10.8,10.8-10.8c6,0,10.8,4.8,10.8,10.8v6.2l23.7,34.1L358.3,317.3z"/>
			</g>
			<g>
				
					<ellipse transform="matrix(0.4842 -0.875 0.875 0.4842 -22.909 398.1853)" class="st0" cx="326.3" cy="218.5" rx="3.2" ry="3.2"/>
			</g>
			<g>
				<rect x="324.8" y="282.5" class="st0" width="3" height="17.8"/>
			</g>
			<g>
				<rect x="317" y="280.2" class="st0" width="17.8" height="3"/>
			</g>
		</g>
	</g>
	<g>
		<g>
			<path class="st0" d="M138.9,300.8L47,300.4l-35.2-17.5l35.3-17.3l0.4,0L139,266L138.9,300.8z M47.7,297.4l88.2,0.3L136,269
				l-88.2-0.3l-29.2,14.3L47.7,297.4z"/>
		</g>
		<g>
			
				<rect x="24.6" y="281.5" transform="matrix(3.899970e-03 -1 1 3.899970e-03 -250.7993 314.1234)" class="st0" width="15.3" height="3"/>
		</g>
		<g>
			<polygon class="st0" points="56.9,300.2 47.3,291 55.8,283 47.4,275 57,265.9 59.1,268.1 51.7,275 60.2,283.1 51.7,291.1 59,298 
							"/>
		</g>
		<g>
			<path class="st0" d="M143.3,300.8C143.2,300.8,143.2,300.8,143.3,300.8l-0.1-3c0,0,0,0,0.1,0c7.9,0,14.4-6.4,14.4-14.3
				c0-3.8-1.5-7.5-4.2-10.2c-2.7-2.7-6.3-4.2-10.2-4.3l0-3c4.6,0,9,1.8,12.3,5.1s5.1,7.7,5,12.3C160.6,293,152.8,300.8,143.3,300.8z
				"/>
		</g>
		<g>
			
				<rect x="112.6" y="281.8" transform="matrix(3.899970e-03 -1 1 3.899970e-03 -155.3329 410.714)" class="st0" width="31.8" height="3"/>
		</g>
		<g>
			
				<rect x="91.9" y="247.8" transform="matrix(3.889032e-03 -1 1 3.889032e-03 -190.1502 375.4706)" class="st0" width="3" height="70.8"/>
		</g>
	</g>
	<g>
		<rect x="351.9" y="316.9" class="st0" width="25.1" height="3"/>
	</g>
</g>
<g>
	<g>
		<path class="st0" d="M225.7,208.3c0,10.8-6.9,19.6-15.4,19.6c-8.5,0-15.4-8.8-15.4-19.6s15.4-22.1,15.4-22.1
			S225.7,197.5,225.7,208.3z"/>
	</g>
	<g>
		<path class="st0" d="M240.2,264.9c-7.6,7.6-18.7,9-24.7,3c-6-6-4.7-17.1,3-24.7c7.6-7.6,26.5-4.7,26.5-4.7
			S247.8,257.3,240.2,264.9z"/>
	</g>
	<g>
		<path class="st0" d="M201.7,258.1c7.6,7.6,9,18.7,3,24.7c-6,6-17.1,4.7-24.7-3c-7.6-7.6-4.7-26.5-4.7-26.5
			S194.1,250.4,201.7,258.1z"/>
	</g>
	<g>
		<path class="st0" d="M255.7,283.5c0,2.5,2,4.5,4.5,4.5c2.5,0,4.5-2,4.5-4.5c0-2.5-2-4.5-4.5-4.5C257.8,279,255.7,281,255.7,283.5z
			"/>
	</g>
	<path class="st0" d="M225.9,378v0.3c0,7.5-6.1,13.6-13.6,13.6c-7.5,0-13.6-6.1-13.6-13.6V378H48v17.4h138.5
		c5.6,8.4,15.1,13.9,25.8,13.9c10.8,0,20.3-5.5,25.8-13.9h124.6h16.2V378H225.9z"/>
	<g>
		<g>
			<path class="st1" d="M232.5,372.8h-3c0-9.2,3.2-17,9.6-23.1c20.6-19.7,68.6-17.5,94.4-16.3c6.7,0.3,12,0.5,14,0.2l0.5,3
				c-2.3,0.4-7.5,0.1-14.6-0.2c-25.3-1.1-72.5-3.3-92.2,15.5C235.4,357.3,232.5,364.4,232.5,372.8z"/>
		</g>
		<g>
			<path class="st1" d="M207.3,405.5c-10.6,0-20.5-5.2-26.6-13.9H41.5v-20.4h153.7v1.8c0,6.7,5.4,12.1,12.1,12.1
				c6.7,0,12.1-5.4,12.1-12.1v-1.8h156v18.9h-3v-15.9h-150c-0.6,7.8-7.1,13.9-15,13.9c-7.9,0-14.4-6.1-15-13.9H44.5v14.4h137.8
				l0.4,0.7c5.5,8.3,14.7,13.2,24.6,13.2c9.9,0,19.1-4.9,24.6-13.2l0.4-0.7h125.4v3H233.9C227.8,400.4,217.9,405.5,207.3,405.5z"/>
		</g>
		<g>
			<path class="st1" d="M348.5,372.2h-3V316c-12.3-0.5-101.4-3.3-128.9,22.8c-5.3,5-8,10.8-8,17.4h-3c0-7.4,3-14,8.9-19.6
				c30.4-28.7,128.4-23.7,132.5-23.5l1.4,0.1V372.2z"/>
		</g>
		<g>
			<path class="st1" d="M65.9,374.5h-3v-62.1l1.5,0c4.3-0.1,106.8-1.4,136.3,27.6c5.3,5.2,8,11.1,8,17.6l0.1,10.2l-3,0l-0.1-10.3
				c0-5.7-2.4-10.9-7.1-15.5c-26.8-26.3-119.8-26.8-132.7-26.8V374.5z"/>
		</g>
		<g>
			<rect x="64.4" y="353.7" class="st1" width="22.9" height="3"/>
		</g>
		<g>
			<path class="st1" d="M185.4,373.3h-3c0-8.3-2.9-15.3-8.6-20.8c-19.9-19.2-70.1-17.2-94.2-16.2c-7.1,0.3-12.2,0.5-14.5,0.1l0.5-3
				c2,0.3,7.3,0.1,13.9-0.2c26.4-1,75.5-3,96.4,17C182.2,356.5,185.4,364.2,185.4,373.3z"/>
		</g>
		<g>
			<rect x="320.2" y="353.7" class="st1" width="26.8" height="3"/>
		</g>
		<g>
			<path class="st1" d="M101.2,354.5c0,2.5,2,4.5,4.5,4.5c2.5,0,4.5-2,4.5-4.5c0-2.5-2-4.5-4.5-4.5
				C103.2,349.9,101.2,351.9,101.2,354.5z"/>
		</g>
		<g>
			<rect x="204.7" y="222.9" class="st1" width="3" height="128.4"/>
		</g>
		<g>
			<path class="st1" d="M206.2,224.4c-9.3,0-16.9-9.5-16.9-21.1c0-11.4,15.4-22.8,16-23.3l0.9-0.6l0.9,0.6c0.7,0.5,16,11.8,16,23.3
				C223.1,215,215.5,224.4,206.2,224.4z M206.2,183.2c-3.2,2.5-13.9,11.7-13.9,20.2c0,10,6.2,18.1,13.9,18.1
				c7.7,0,13.9-8.1,13.9-18.1C220.1,194.9,209.4,185.7,206.2,183.2z"/>
		</g>
		<g>
			<path class="st1" d="M221,268.2c-4.2,0-8-1.5-10.7-4.2c-3.2-3.2-4.7-7.9-4.1-13c0.6-5,3.1-9.9,7-13.9c8.1-8.1,27-5.3,27.8-5.1
				l1.1,0.2l0.2,1.1c0.1,0.8,2.9,19.7-5.1,27.8c-3.9,3.9-8.9,6.4-13.9,7C222.5,268.1,221.7,268.2,221,268.2z M232.6,234.4
				c-5.8,0-13.3,0.9-17.2,4.8c-3.5,3.5-5.7,7.8-6.2,12.1c-0.5,4.2,0.6,7.9,3.2,10.5c2.6,2.6,6.3,3.7,10.5,3.2
				c4.3-0.5,8.6-2.7,12.1-6.2c6-6,4.9-20,4.4-24.1C238.1,234.6,235.5,234.4,232.6,234.4z"/>
		</g>
		<g>
			<path class="st1" d="M226.2,304.4c-11.8,0-21.4-7.6-21.4-16.9h3c0,7.7,8.3,13.9,18.4,13.9c10.1,0,21.2-14.6,21.3-14.8l2.4,1.8
				C249.3,289.1,237.8,304.4,226.2,304.4z"/>
		</g>
		<g>
			<path class="st1" d="M190.9,283.1c-0.7,0-1.5,0-2.3-0.1c-5-0.6-9.9-3.1-13.9-7c-8.1-8.1-5.3-27-5.1-27.8l0.2-1.1l1.1-0.2
				c0.8-0.1,19.7-2.9,27.8,5.1c3.9,3.9,6.4,8.9,7,13.9c0.6,5.1-0.8,9.8-4.1,13C198.9,281.6,195.1,283.1,190.9,283.1z M172.5,249.7
				c-0.5,4.1-1.6,18.1,4.4,24.1c3.5,3.5,7.8,5.7,12.1,6.2c4.2,0.5,7.9-0.6,10.5-3.2c5.4-5.4,4.1-15.6-3-22.6
				C190.6,248.1,176.5,249.2,172.5,249.7z"/>
		</g>
		<g>
			<path class="st1" d="M251.6,278.5c0,2.5,2,4.5,4.5,4.5c2.5,0,4.5-2,4.5-4.5c0-2.5-2-4.5-4.5-4.5C253.6,274,251.6,276,251.6,278.5
				z"/>
		</g>
	</g>
</g>
</svg>
