<?xml version="1.0" encoding="utf-8"?>
<!-- Generator: Adobe Illustrator 26.0.3, SVG Export Plug-In . SVG Version: 6.00 Build 0)  -->
<svg version="1.1" id="Layer_1" xmlns="http://www.w3.org/2000/svg" xmlns:xlink="http://www.w3.org/1999/xlink" x="0px" y="0px"
	 viewBox="0 0 462.4 451.1" style="enable-background:new 0 0 462.4 451.1;" xml:space="preserve">
<style type="text/css">
	.st0{fill:#6F6F6F;}
	.st1{fill:#5E92C7;}
	.st2{fill:#6E6E6E;}
</style>
<g>
	<g>
		<polygon class="st0" points="390.3,193.5 327.7,164 329,161.3 390.3,190.2 420.7,176.2 422,178.9 		"/>
	</g>
	<g>
		
			<rect x="429.5" y="166.8" transform="matrix(0.9083 -0.4183 0.4183 0.9083 -29.951 200.0011)" class="st0" width="23.5" height="3"/>
	</g>
	<g>
		<path class="st0" d="M390.3,268.3l-63.5-29.9v-77.8l63.1-31.1l63.5,31.9v77.8L390.3,268.3z M329.8,236.5l60.5,28.5l60.1-27.7
			v-74.1l-60.5-30.4l-60.1,29.6V236.5z"/>
	</g>
	<g>
		<path class="st0" d="M391.8,224.2h-3v-4h3V224.2z M391.8,216.2h-3v-4h3V216.2z M391.8,208.2h-3v-4h3V208.2z M391.8,200.2h-3v-4h3
			V200.2z M391.8,192.2h-3v-0.4h3V192.2z"/>
	</g>
	<g>
		<rect x="388.8" y="224.2" class="st0" width="3" height="42.5"/>
	</g>
	<g>
		<path class="st1" d="M417.7,213.3l-6.7-1.4v-29.6l-65.9-30.7l22.3-11l65.7,30.6l0.8,1.7v28.9l-2.9,5.3l-4.5-0.9l-2.2,4l-4.5-0.9
			L417.7,213.3z M414,209.4l2.2,0.5l2.2-4l4.5,0.9l2.2-4l4.5,0.9l1.5-2.7v-27.5l-0.1-0.1l-63.4-29.5l-15.4,7.6l61.9,28.8v29.1H414z"
			/>
	</g>
	<g>
		<path class="st1" d="M357.8,241.8l-21.4-10.1v-14.9l21.4,10.1V241.8z M339.4,229.8l15.4,7.3v-8.2l-15.4-7.3V229.8z"/>
	</g>
</g>
<g>
	<g>
		<g>
			<rect x="317.3" y="118.6" class="st0" width="3" height="9.7"/>
		</g>
		<g>
			<rect x="324.3" y="131.5" class="st0" width="9.5" height="3"/>
		</g>
		<g>
			<rect x="317.3" y="138.9" class="st0" width="3" height="9.2"/>
		</g>
		<g>
			<rect x="303.5" y="131.5" class="st0" width="10.1" height="3"/>
		</g>
	</g>
	<g>
		<g>
			<rect x="27.8" y="378.1" class="st1" width="3" height="9.7"/>
		</g>
		<g>
			<rect x="34.8" y="391" class="st1" width="9.5" height="3"/>
		</g>
		<g>
			<rect x="27.8" y="398.4" class="st1" width="3" height="9.2"/>
		</g>
		<g>
			<rect x="14" y="391" class="st1" width="10.1" height="3"/>
		</g>
	</g>
	<g>
		<g>
			<path class="st0" d="M402.9,298.4c-0.6,0-1.1-0.1-1.7-0.2l-31.7-6.4l0.6-2.9l31.7,6.4c1.7,0.3,3.4-0.1,4.7-1.2
				c1.3-1.1,2.1-2.7,2.1-4.3c0-2.4-1.5-4.6-3.8-5.3l-25.8-8.6l-16.6-5.6c-5.7-1.9-12-0.5-16.3,3.7l-5.1,5h-12.9v-3h11.7l4.2-4.1
				c5.1-5,12.5-6.7,19.3-4.4l16.6,5.6l25.8,8.6c3.5,1.2,5.9,4.5,5.9,8.2c0,2.6-1.1,5-3.2,6.7C406.8,297.8,404.9,298.4,402.9,298.4z"
				/>
		</g>
		<g>
			<path class="st0" d="M395.4,320.9L341.8,309l0.7-2.9l52.5,11.7l55.6-31.8c1.4-0.7,2.3-1.9,2.7-3.3c0.4-1.4,0.2-2.9-0.6-4.2
				c-1.3-2.2-4-3.2-6.5-2.3l-32.4,10.9l-1-2.8l32.3-10.9c3.7-1.3,8,0.2,10,3.6c1.2,2,1.5,4.3,0.9,6.6c-0.6,2.2-2.1,4.1-4.2,5.2
				L395.4,320.9z"/>
		</g>
		<g>
			<path class="st0" d="M412.2,282.4l-1.4-2.6l20.5-11.1c5.3-2.6,11.5,1.3,14.2,6.4l0.3,0.7l-2.7,1.4l-0.3-0.7
				c-2-3.9-6.6-6.9-10.2-5.1L412.2,282.4z"/>
		</g>
	</g>
	<g>
		<g>
			<path class="st0" d="M338,103.6l-22.3-20.4l6.5-29.5l28.8-9.1L373.3,65l-6.5,29.5L338,103.6z M319,82.2l19.7,18l25.5-8.1
				l5.7-26.1l-19.7-18l-25.5,8.1L319,82.2z"/>
		</g>
		<g>
			<path class="st0" d="M344.5,88.9c-1,0-2.1-0.1-3.2-0.3c-7.9-1.7-13-9.6-11.2-17.5c0.8-3.8,3.1-7.1,6.4-9.2
				c3.3-2.1,7.3-2.8,11.1-2c3.8,0.8,7.1,3.1,9.2,6.4c2.1,3.3,2.8,7.3,2,11.1C357.3,84.2,351.2,88.9,344.5,88.9z M342,85.6
				c6.3,1.4,12.6-2.6,14-8.9c0.7-3.1,0.1-6.2-1.6-8.8c-1.7-2.6-4.3-4.5-7.4-5.1c-3.1-0.7-6.2-0.1-8.8,1.6c-2.6,1.7-4.5,4.3-5.1,7.4
				C331.6,77.9,335.6,84.2,342,85.6L342,85.6z"/>
		</g>
	</g>
	<g>
		<g>
			<g>
				<polygon class="st1" points="100.8,70.9 97.8,70.9 97.8,56.2 40.6,56.2 40.6,70.9 37.6,70.9 37.6,53.2 100.8,53.2 				"/>
			</g>
			<g>
				<rect x="163.8" y="43.5" class="st0" width="3" height="17"/>
			</g>
			<g>
				<rect x="206.6" y="43.5" class="st0" width="3" height="17"/>
			</g>
			<g>
				<path class="st1" d="M209.6,31.5h-3c0-11.5-8.8-20.9-19.7-20.9h-0.4c-10.9,0-19.7,9.4-19.7,20.9h-3c0-13.2,10.2-23.9,22.7-23.9
					h0.4C199.4,7.6,209.6,18.3,209.6,31.5z"/>
			</g>
			<g>
				<polygon class="st0" points="238.4,229.4 235.4,229.4 235.4,95.3 256.3,83.2 269.2,83.2 290,95.3 290,226.8 287,226.8 287,97.1 
					268.4,86.2 257.1,86.2 238.4,97.1 				"/>
			</g>
			<g>
				<rect x="154.3" y="33.5" class="st1" width="64.8" height="3"/>
			</g>
			<g>
				<rect x="268.9" y="173.6" class="st0" width="3" height="60.1"/>
			</g>
			<g>
				<path class="st2" d="M271.9,170.9h-3v-4h3V170.9z M271.9,162.9h-3v-4h3V162.9z M271.9,154.9h-3v-4h3V154.9z M271.9,146.9h-3v-4
					h3V146.9z M271.9,138.9h-3v-4h3V138.9z M271.9,130.9h-3v-4h3V130.9z M271.9,122.9h-3v-4h3V122.9z M271.9,114.9h-3v-4h3V114.9z
					 M271.9,106.9h-3v-4h3V106.9z"/>
			</g>
			<g>
				<g>
					<path class="st1" d="M56.4,152.3h-3v-1.4h3V152.3z M56.4,146.9h-3v-4h3V146.9z M56.4,138.9h-3v-4h3V138.9z M56.4,130.9h-3v-4h3
						V130.9z M56.4,122.9h-3v-4h3V122.9z M56.4,114.9h-3v-4h3V114.9z M56.4,106.9h-3v-4h3V106.9z"/>
				</g>
				<g>
					<path class="st1" d="M85,226.9h-3v-4h3V226.9z M85,218.9h-3v-4h3V218.9z M85,210.9h-3v-4h3V210.9z M85,202.9h-3v-4h3V202.9z
						 M85,194.9h-3v-4h3V194.9z M85,186.9h-3v-4h3V186.9z M85,178.9h-3v-4h3V178.9z M85,170.9h-3v-4h3V170.9z M85,162.9h-3v-4h3
						V162.9z M85,154.9h-3v-4h3V154.9z M85,146.9h-3v-4h3V146.9z M85,138.9h-3v-4h3V138.9z M85,130.9h-3v-4h3V130.9z M85,122.9h-3
						v-4h3V122.9z M85,114.9h-3v-4h3V114.9z M85,106.9h-3v-4h3V106.9z"/>
				</g>
			</g>
			<g>
				<g>
					<rect x="173.3" y="97.9" class="st1" width="26.8" height="3"/>
				</g>
				<g>
					<rect x="173.3" y="123.9" class="st1" width="26.8" height="3"/>
				</g>
				<g>
					<rect x="173.3" y="150" class="st1" width="26.8" height="3"/>
				</g>
				<g>
					<rect x="173.3" y="176" class="st1" width="26.8" height="3"/>
				</g>
				<g>
					<rect x="173.3" y="202.1" class="st1" width="26.8" height="3"/>
				</g>
			</g>
			<g>
				<polygon class="st1" points="111.8,233.8 108.8,233.8 108.8,72.4 29.6,72.4 29.6,183.6 26.6,183.6 26.6,69.4 111.8,69.4 				"/>
			</g>
			<g>
				<polygon class="st0" points="132.2,233.8 129.2,233.8 129.2,123.9 156.8,123.9 156.8,126.9 132.2,126.9 				"/>
			</g>
			<g>
				<polygon class="st1" points="218.1,232.2 215.1,232.2 215.1,62 158.3,62 158.3,232.2 155.3,232.2 155.3,59 218.1,59 				"/>
			</g>
		</g>
		<g>
			<rect x="260.5" y="22" class="st0" width="3" height="23.2"/>
		</g>
	</g>
	<g>
		<rect x="18.5" y="89" class="st1" width="100.8" height="3"/>
	</g>
	<g>
		<polygon class="st0" points="270.3,78 267.3,78 267.3,47.5 258.2,47.5 258.2,78 255.2,78 255.2,44.5 270.3,44.5 		"/>
	</g>
	<g>
		<polygon class="st1" points="436.1,361.4 392.4,361.4 392.4,358.4 430.6,358.4 413.3,331.2 364.9,331.2 364.9,328.2 414.9,328.2 
					"/>
	</g>
	<g>
		<polygon class="st0" points="425.1,427.4 380.3,427.4 380.3,424.4 422.1,424.4 422.1,366.8 425.1,366.8 		"/>
	</g>
</g>
<g>
	<rect x="26.6" y="303.4" class="st0" width="3" height="42"/>
</g>
<g>
	<path class="st0" d="M5.6,302c0-5.5,4.3-17,12.8-34c1.8-3.7,5.6-6,9.7-6c4.2,0,7.9,2.3,9.7,6c8.5,17,12.8,28.5,12.8,34
		c0,12.4-10.1,22.5-22.5,22.5S5.6,314.4,5.6,302z M21.1,269.3C13,285.5,8.6,297.1,8.6,302c0,10.8,8.7,19.5,19.5,19.5
		c10.7,0,19.5-8.7,19.5-19.5c0-4.9-4.4-16.5-12.5-32.7c-1.4-2.7-4-4.4-7-4.4C25.1,265,22.4,266.6,21.1,269.3z"/>
</g>
<g>
	<path class="st1" d="M16.6,213.1c0-6.3,5.2-11.5,11.5-11.5s11.5,5.2,11.5,11.5s-5.2,11.5-11.5,11.5S16.6,219.5,16.6,213.1z
		 M19.6,213.1c0,4.7,3.8,8.5,8.5,8.5s8.5-3.8,8.5-8.5s-3.8-8.5-8.5-8.5S19.6,208.4,19.6,213.1z"/>
</g>
<g>
	<g>
		<path class="st1" d="M348.1,320l-24-41.7c-9.5-17.2-27.5-27.9-47.2-27.9h-33h-11.3H105c-14.4,0-26,11.7-26,26v11.2h150.4v63.2H79
			v50.5c0,10.8,8.7,19.5,19.5,19.5l24,0.6c0-14.7,11.9-26.6,26.6-26.6c14.7,0,26.6,11.9,26.6,26.6h108.9c0-14.7,11.9-26.6,26.6-26.6
			s26.6,11.9,26.6,26.6l29.1,0.8c10.8,0,19.5-8.7,19.5-19.5v-32.8L348.1,320z M296,336.1c-16.7,0-31.2-2.6-35-18.9v-30.5
			c0-1.1,0.9-2,2-2h20.2c14.7,0,28.1,8,35.2,20.8l11.7,30.5H296V336.1z"/>
	</g>
	<g>
		<g>
			<g>
				<path class="st0" d="M305.1,444.2c-15.5,0-28.1-12.6-28.1-28.1s12.6-28.1,28.1-28.1s28.1,12.6,28.1,28.1
					S320.6,444.2,305.1,444.2z M305.1,391c-13.8,0-25.1,11.2-25.1,25.1c0,13.8,11.2,25.1,25.1,25.1c13.8,0,25.1-11.2,25.1-25.1
					C330.2,402.3,319,391,305.1,391z"/>
			</g>
			<g>
				<path class="st0" d="M143.1,444.2c-15.5,0-28.1-12.6-28.1-28.1s12.6-28.1,28.1-28.1s28.1,12.6,28.1,28.1
					C171.2,431.6,158.6,444.2,143.1,444.2z M143.1,391c-13.8,0-25.1,11.2-25.1,25.1c0,13.8,11.2,25.1,25.1,25.1s25.1-11.2,25.1-25.1
					C168.2,402.3,156.9,391,143.1,391z"/>
			</g>
			<g>
				<path class="st0" d="M305.1,427.4c-6.5,0-11.8-5.3-11.8-11.8s5.3-11.8,11.8-11.8S317,409,317,415.5S311.7,427.4,305.1,427.4z
					 M305.1,406.7c-4.9,0-8.8,4-8.8,8.8c0,4.9,4,8.8,8.8,8.8s8.8-4,8.8-8.8C314,410.7,310,406.7,305.1,406.7z"/>
			</g>
			<g>
				<path class="st0" d="M143.1,427.4c-6.5,0-11.8-5.3-11.8-11.8s5.3-11.8,11.8-11.8s11.8,5.3,11.8,11.8S149.6,427.4,143.1,427.4z
					 M143.1,406.7c-4.9,0-8.8,4-8.8,8.8c0,4.9,4,8.8,8.8,8.8s8.8-4,8.8-8.8C151.9,410.7,148,406.7,143.1,406.7z"/>
			</g>
			<g>
				<path class="st0" d="M104.4,417H92.5c-11.6,0-21-9.4-21-21V271.2c0-15.2,12.3-27.5,27.5-27.5h139v3H99
					c-13.5,0-24.5,11-24.5,24.5v124.9c0,9.9,8.1,18,18,18h11.8L104.4,417L104.4,417z"/>
			</g>
			<g>
				<path class="st0" d="M340.9,315.6l-24-41.7c-9.2-16.8-26.8-27.2-45.9-27.2h-44.3v-3H271c20.2,0,38.8,11,48.5,28.7l23.9,41.7
					L340.9,315.6z"/>
			</g>
			<g>
				<rect x="244.2" y="338.7" class="st0" width="30.8" height="3"/>
			</g>
			<g>
				<rect x="185.2" y="415.4" class="st0" width="80.3" height="3"/>
			</g>
			<g>
				<polygon class="st0" points="380.3,387.1 356.6,387.1 356.6,361.4 359.6,361.4 359.6,384.1 380.3,384.1 				"/>
			</g>
			<g>
				<path class="st0" d="M360.8,418.4h-14.5v-3h14.5c9.9,0,18-8.1,18-18v-32.3l-37.3-48.8h-60.1c-16.5,0-32.3-2.4-36.4-20V296v-30.5
					c0-1.9,1.6-3.5,3.5-3.5h20.2c15.2,0,29.2,8.3,36.5,21.6l-2.6,1.4c-6.8-12.4-19.8-20-33.9-20h-20.2c-0.3,0-0.5,0.2-0.5,0.5v30.3
					c3.5,14.6,15.9,17.6,33.5,17.6h61.6l38.8,50.8v33.3C381.8,409,372.4,418.4,360.8,418.4z"/>
			</g>
			<g>
				<rect x="227.6" y="263.5" class="st0" width="3" height="153.4"/>
			</g>
			<g>
				<rect x="73" y="313.3" class="st0" width="121" height="3"/>
			</g>
			<g>
				<path class="st0" d="M146,341.7h-4v-3h4V341.7z M138,341.7h-4v-3h4V341.7z M130,341.7h-4v-3h4V341.7z M122,341.7h-4v-3h4V341.7z
					 M114,341.7h-4v-3h4V341.7z M106,341.7h-4v-3h4V341.7z M98,341.7h-4v-3h4V341.7z M90,341.7h-4v-3h4V341.7z M82,341.7h-4v-3h4
					V341.7z"/>
			</g>
		</g>
		<g>
			<g>
				<rect x="369.8" y="441.2" class="st0" width="14.4" height="3"/>
			</g>
			<g>
				<rect x="69.1" y="441.2" class="st0" width="283.3" height="3"/>
			</g>
		</g>
	</g>
</g>
</svg>
