<?xml version="1.0" encoding="utf-8"?>
<!-- Generator: Adobe Illustrator 26.0.3, SVG Export Plug-In . SVG Version: 6.00 Build 0)  -->
<svg version="1.1" id="Layer_1" xmlns="http://www.w3.org/2000/svg" xmlns:xlink="http://www.w3.org/1999/xlink" x="0px" y="0px"
	 viewBox="0 0 430.5 422.7" style="enable-background:new 0 0 430.5 422.7;" xml:space="preserve">
<style type="text/css">
	.st0{fill:#5B91C8;}
	.st1{fill:#6F6F6F;}
	.st2{fill:#6E6E6E;}
</style>
<g>
	<g>
		<g>
			<rect x="326.8" y="121.2" class="st0" width="3" height="11.3"/>
		</g>
		<g>
			<rect x="336.5" y="137.9" class="st0" width="11.3" height="3"/>
		</g>
		<g>
			<rect x="326.8" y="148.2" class="st0" width="3" height="11.3"/>
		</g>
		<g>
			<rect x="309.2" y="137.9" class="st0" width="11.3" height="3"/>
		</g>
	</g>
	<g>
		<g>
			<rect x="108.6" y="74.2" class="st0" width="3" height="11.3"/>
		</g>
		<g>
			<rect x="118.3" y="90.9" class="st0" width="11.3" height="3"/>
		</g>
		<g>
			<rect x="108.6" y="101.2" class="st0" width="3" height="11.3"/>
		</g>
		<g>
			<rect x="91.1" y="90.9" class="st0" width="11.3" height="3"/>
		</g>
	</g>
	<g>
		<g>
			<polygon class="st0" points="106.3,349.4 5.1,349.4 5.1,175.1 8.1,175.1 8.1,346.4 106.3,346.4 			"/>
		</g>
		<g>
			<polygon class="st0" points="124.2,178.7 95.7,146.5 6.6,146.5 6.6,143.5 97.1,143.5 126.5,176.7 			"/>
		</g>
		<g>
			<polygon class="st0" points="107.7,188 94.9,188 94.9,145 97.9,145 97.9,185 107.7,185 			"/>
		</g>
		<g>
			<g>
				<path class="st0" d="M49.9,195.4H32.1l-4,10.9h-5.9l16.4-42.5h4.9l16.2,42.5h-5.9L49.9,195.4z M33.9,190.6h14.3l-7-19.4H41
					L33.9,190.6z"/>
			</g>
		</g>
		<g>
			<polygon class="st0" points="41.8,254.6 32.5,245.4 34.6,243.2 41.8,250.4 57.1,235.1 59.2,237.2 			"/>
		</g>
		<g>
			<polygon class="st0" points="62.7,264.8 23.9,264.8 23.9,226.5 61.2,226.5 61.2,229.5 26.9,229.5 26.9,261.8 59.7,261.8 
				59.7,253.4 62.7,253.4 			"/>
		</g>
		<g>
			<polygon class="st0" points="41.8,313.6 32.5,304.3 34.6,302.2 41.8,309.4 57.1,294 59.2,296.1 			"/>
		</g>
		<g>
			<polygon class="st0" points="62.7,323.8 23.9,323.8 23.9,285.5 61.2,285.5 61.2,288.5 26.9,288.5 26.9,320.8 59.7,320.8 
				59.7,312.3 62.7,312.3 			"/>
		</g>
		<g>
			<rect x="85.3" y="234.8" class="st0" width="52" height="3"/>
		</g>
		<g>
			<path class="st0" d="M129.3,258.2h-4v-3h4V258.2z M121.3,258.2h-4v-3h4V258.2z M113.3,258.2h-4v-3h4V258.2z M105.3,258.2h-4v-3h4
				V258.2z M97.3,258.2h-4v-3h4V258.2z M89.3,258.2h-4v-3h4V258.2z"/>
		</g>
		<g>
			<rect x="114.4" y="292.6" class="st0" width="23.4" height="3"/>
		</g>
		<g>
			<rect x="85.6" y="313.1" class="st0" width="17" height="3"/>
		</g>
		<g>
			<g>
				<rect x="74.3" y="182.5" class="st0" width="7.6" height="3"/>
			</g>
			<g>
				<rect x="69.1" y="188.4" class="st0" width="3" height="7.5"/>
			</g>
			<g>
				<rect x="59.8" y="182.5" class="st0" width="22.1" height="3"/>
			</g>
			<g>
				<rect x="69.1" y="172.1" class="st0" width="3" height="16.3"/>
			</g>
		</g>
		<g>
			<path class="st0" d="M3.4,161.2c0,1.8,1.4,3.2,3.2,3.2c1.8,0,3.2-1.4,3.2-3.2c0-1.8-1.4-3.2-3.2-3.2
				C4.8,157.9,3.4,159.4,3.4,161.2z"/>
		</g>
	</g>
	<g>
		<g>
			<path class="st0" d="M366.1,218.2c-18.4,0-32.6,0-57.5,0l0-3c24.9,0,39.2,0,57.5,0V218.2z"/>
		</g>
		<g>
			<rect x="303.4" y="246" class="st0" width="57.8" height="3"/>
		</g>
		<g>
			<path class="st0" d="M403.4,315h-3v-8.1h3V315z M403.4,299.1h-3v-53.5c0.4-7.1-1.2-17.7-7.2-26.2l2.5-1.7
				c6.4,9.2,8.2,20.5,7.7,28L403.4,299.1z"/>
		</g>
		<g>
			<path class="st0" d="M403.8,379.9c-9-2.5-15.3-10.8-15.3-20.2l0-114.5c0.1-0.8,1.4-20.5-15.1-26.4c-7.5-2.2-15.6,1.3-19.2,8.3
				c-2.7,5.2-1.6,11.6,2.7,15.9c2.9,2.9,6.6,4,10.2,3.1c3.4-0.9,6.1-3.5,7.1-6.9c1.2-4.1-1.1-8.4-5.2-9.6l0.8-2.9
				c5.7,1.7,8.9,7.6,7.2,13.3c-1.3,4.4-4.8,7.8-9.3,8.9c-4.6,1.2-9.4-0.2-13-3.8c-5.2-5.2-6.5-13-3.2-19.4
				c4.3-8.3,13.9-12.4,22.8-9.8c18.3,6.5,17.3,28,17.2,29.5v114.4c0,8,5.4,15.2,13.1,17.3L403.8,379.9z"/>
		</g>
		<g>
			<path class="st0" d="M406.1,379.9h-23.4v-3h23.4c8,0,14.5-6.5,14.5-14.5v-15.9h-23.8v-3h26.8v18.9
				C423.6,372.1,415.7,379.9,406.1,379.9z"/>
		</g>
		<g>
			<path class="st0" d="M326.9,379.9h-31.2c-7.9,0-15.2-4-19.4-10.7l2.5-1.6c3.7,5.8,10,9.3,16.9,9.3h31.2V379.9z"/>
		</g>
		<g>
			<path class="st0" d="M354.2,358.1c-10.1,0-18.4-8.2-18.4-18.4c0-10.1,8.2-18.4,18.4-18.4c10.1,0,18.4,8.2,18.4,18.4
				C372.6,349.8,364.3,358.1,354.2,358.1z M354.2,324.4c-8.5,0-15.4,6.9-15.4,15.4c0,8.5,6.9,15.4,15.4,15.4
				c8.5,0,15.4-6.9,15.4-15.4C369.6,331.3,362.7,324.4,354.2,324.4z"/>
		</g>
		<g>
			<circle class="st0" cx="353.9" cy="339.7" r="3.2"/>
		</g>
		<g>
			<polygon class="st0" points="351.7,400.9 346.7,354.5 349.6,354.2 353.9,393.2 361.7,382.9 372.7,392.1 368.3,358 371.3,357.6 
				376.6,399.4 362.2,387.2 			"/>
		</g>
		<g>
			<polygon class="st0" points="333,390.6 336.5,356.5 339.5,356.8 336.6,384.9 344.1,380.2 345.7,382.8 			"/>
		</g>
		<g>
			
				<rect x="341.4" y="234.7" transform="matrix(7.379562e-03 -1 1 7.379562e-03 76.6478 604.6435)" class="st0" width="3" height="58.1"/>
		</g>
		<g>
			
				<rect x="341.4" y="252.7" transform="matrix(7.379562e-03 -1 1 7.379562e-03 58.6395 622.5194)" class="st0" width="3" height="58.1"/>
		</g>
		<g>
			<path class="st0" d="M371.9,302.3h-0.3v-3h0.3V302.3z M367.6,302.3h-4v-3h4V302.3z M359.6,302.3h-4v-3h4V302.3z M351.6,302.3h-4
				v-3h4V302.3z M343.6,302.3h-4v-3h4V302.3z M335.6,302.3h-4v-3h4V302.3z M327.6,302.3h-4v-3h4V302.3z"/>
		</g>
		<g>
			
				<rect x="317.2" y="295.7" transform="matrix(4.378426e-02 -0.999 0.999 4.378426e-02 4.474 605.8524)" class="st0" width="3" height="9.8"/>
		</g>
	</g>
	<g>
		<g>
			<polygon class="st0" points="142.9,172.1 139.9,172.1 139.9,95.4 291.4,95.4 291.4,164.4 288.4,164.4 288.4,98.4 142.9,98.4 			
				"/>
		</g>
		<g>
			<path class="st0" d="M156.7,157.9l-3,0l0.1-31.4c0-6.4,5.2-11.5,11.5-11.5c6.4,0,11.5,5.2,11.5,11.5v21.3h-3v-21.3
				c0-4.7-3.8-8.5-8.5-8.5c-4.7,0-8.5,3.8-8.5,8.5L156.7,157.9z"/>
		</g>
		<g>
			<path class="st0" d="M190,142.5h-3v-15.9c0-6.4,5.2-11.5,11.5-11.5c6.4,0,11.5,5.2,11.5,11.5v6.4h-3v-6.4c0-4.7-3.8-8.5-8.5-8.5
				c-4.7,0-8.5,3.8-8.5,8.5V142.5z"/>
		</g>
		<g>
			<path class="st0" d="M243.3,140.4h-3v-13.8c0-4.7-3.8-8.5-8.5-8.5c-4.7,0-8.5,3.8-8.5,8.5v5.7h-3v-5.7c0-6.4,5.2-11.5,11.5-11.5
				c6.4,0,11.5,5.2,11.5,11.5V140.4z"/>
		</g>
		<g>
			<path class="st0" d="M276.4,153.4h-3v-26.9c0-4.7-3.8-8.5-8.5-8.5s-8.5,3.8-8.5,8.5v20.1h-3v-20.1c0-6.4,5.2-11.5,11.5-11.5
				s11.5,5.2,11.5,11.5V153.4z"/>
		</g>
		<g>
			<path class="st0" d="M154.9,90.1l-2.8-1.1c10.7-26,35.8-42.8,63.9-42.8c27.7,0,52.6,16.4,63.5,41.9l-2.8,1.2
				C266.3,65,242.4,49.2,216,49.2C189.1,49.2,165.1,65.3,154.9,90.1z"/>
		</g>
		<g>
			<polygon class="st0" points="217.5,47.7 214.5,47.7 214.5,5 259.9,5 245.8,19.1 258.9,32.2 231.2,32.2 231.2,29.2 251.7,29.2 
				241.6,19.1 252.7,8 217.5,8 			"/>
		</g>
		<g>
			<path class="st0" d="M247.9,78h-4v-3h4V78z M239.9,78h-4v-3h4V78z M231.9,78h-4v-3h4V78z M223.9,78h-4v-3h4V78z M215.9,78h-4v-3
				h4V78z M207.9,78h-4v-3h4V78z M199.9,78h-4v-3h4V78z M191.9,78h-4v-3h4V78z"/>
		</g>
	</g>
	<g>
		<path class="st0" d="M46,129.9l-2.8-1c0.3-0.9,0.6-1.7,0.9-2.6l2.8,1.1C46.6,128.2,46.3,129.1,46,129.9z M48.3,123.7l-2.8-1.1
			c0.5-1.2,1-2.5,1.5-3.7l2.8,1.2C49.3,121.2,48.8,122.5,48.3,123.7z M51.4,116.4l-2.7-1.2c0.6-1.2,1.1-2.4,1.7-3.6l2.7,1.3
			C52.5,114,52,115.2,51.4,116.4z M54.9,109.3l-2.7-1.4c0.6-1.2,1.2-2.4,1.9-3.6l2.6,1.4C56.1,107,55.5,108.1,54.9,109.3z
			 M58.7,102.4l-2.6-1.5c0.7-1.2,1.4-2.3,2-3.5l2.6,1.6C60,100.1,59.3,101.2,58.7,102.4z M62.8,95.6L60.2,94
			c0.7-1.1,1.5-2.3,2.2-3.4l2.5,1.7C64.2,93.4,63.5,94.5,62.8,95.6z M67.2,89l-2.5-1.7c0.8-1.1,1.6-2.2,2.4-3.3l2.4,1.8
			C68.7,86.9,68,87.9,67.2,89z M71.9,82.6l-2.4-1.8c0.8-1.1,1.7-2.1,2.5-3.2l2.3,1.9C73.5,80.6,72.7,81.6,71.9,82.6z M76.9,76.5
			l-2.3-2c0.9-1,1.8-2,2.7-3l2.2,2C78.6,74.5,77.8,75.5,76.9,76.5z M82.2,70.6L80,68.5c0.9-1,1.9-1.9,2.8-2.9l2.1,2.1
			C84,68.7,83.1,69.6,82.2,70.6z M87.8,64.9l-2.1-2.2c1-0.9,1.9-1.9,2.9-2.8l2,2.2C89.7,63.1,88.7,64,87.8,64.9z M93.6,59.6l-2-2.2
			c1-0.9,2-1.8,3.1-2.6l1.9,2.3C95.6,57.8,94.6,58.7,93.6,59.6z M99.6,54.4l-1.9-2.3c1-0.8,2.1-1.7,3.2-2.5l1.8,2.4
			C101.7,52.8,100.7,53.6,99.6,54.4z M105.9,49.6l-1.8-2.4c1.1-0.8,2.2-1.6,3.3-2.3l1.7,2.5C108.1,48.1,107,48.8,105.9,49.6z
			 M112.5,45.1l-1.7-2.5c1.1-0.7,2.3-1.5,3.4-2.2l1.6,2.5C114.7,43.6,113.6,44.4,112.5,45.1z M119.2,40.9l-1.5-2.6
			c1.2-0.7,2.3-1.4,3.5-2l1.5,2.6C121.5,39.5,120.3,40.2,119.2,40.9z M126.1,37l-1.4-2.6c1.2-0.6,2.4-1.3,3.6-1.9l1.4,2.7
			C128.4,35.7,127.3,36.3,126.1,37z M133.2,33.4l-1.3-2.7c1.2-0.6,2.4-1.1,3.7-1.7l1.2,2.7C135.6,32.2,134.4,32.8,133.2,33.4z
			 M140.4,30.1l-1.2-2.8c1.2-0.5,2.5-1,3.7-1.5l1.1,2.8C142.9,29.1,141.6,29.6,140.4,30.1z M147.8,27.2l-1-2.8
			c1.3-0.5,2.5-0.9,3.8-1.3l1,2.8C150.3,26.3,149.1,26.8,147.8,27.2z M155.3,24.7l-0.9-2.9c1.3-0.4,2.6-0.8,3.9-1.2l0.8,2.9
			C157.9,23.9,156.6,24.3,155.3,24.7z M163,22.5l-0.8-2.9c1.3-0.3,2.6-0.7,3.9-1l0.7,2.9C165.6,21.8,164.3,22.1,163,22.5z
			 M170.7,20.7l-0.6-2.9c1.3-0.3,2.6-0.5,4-0.8l0.6,2.9C173.3,20.1,172,20.4,170.7,20.7z M178.5,19.2l-0.5-3c1.3-0.2,2.7-0.4,4-0.6
			l0.4,3C181.1,18.8,179.8,19,178.5,19.2z M186.4,18.1l-0.3-3c1.3-0.2,2.7-0.3,4-0.4l0.3,3C189,17.8,187.7,17.9,186.4,18.1z
			 M194.3,17.4l-0.2-3c1.3-0.1,2.7-0.2,4-0.2l0.1,3C196.9,17.2,195.6,17.3,194.3,17.4z M202.2,17l-0.1-3c1.3,0,2.7,0,4,0v3
			C204.8,17,203.5,17,202.2,17z"/>
	</g>
	<g>
		<path class="st0" d="M379,193.5l-3-0.1c0-1.3,0.1-2.6,0.1-4l3,0C379.1,190.8,379.1,192.2,379,193.5z M376.1,185.5
			c0-1.3,0-2.6-0.1-4l3-0.1c0,1.3,0.1,2.7,0.1,4L376.1,185.5z M375.9,177.5c-0.1-1.3-0.2-2.6-0.3-4l3-0.2c0.1,1.3,0.2,2.7,0.3,4
			L375.9,177.5z M375.3,169.6c-0.1-1.3-0.3-2.6-0.4-3.9l3-0.4c0.2,1.3,0.3,2.7,0.5,4L375.3,169.6z M374.3,161.8
			c-0.2-1.3-0.4-2.6-0.6-3.9l3-0.5c0.2,1.3,0.4,2.7,0.6,4L374.3,161.8z M372.9,154c-0.3-1.3-0.5-2.6-0.8-3.9l2.9-0.6
			c0.3,1.3,0.6,2.6,0.8,4L372.9,154z M371.2,146.2c-0.3-1.3-0.6-2.6-1-3.9l2.9-0.8c0.4,1.3,0.7,2.6,1,3.9L371.2,146.2z M369.1,138.5
			c-0.4-1.3-0.8-2.5-1.2-3.8l2.9-0.9c0.4,1.3,0.8,2.6,1.2,3.9L369.1,138.5z M366.7,131c-0.4-1.3-0.9-2.5-1.4-3.7l2.8-1.1
			c0.5,1.3,0.9,2.5,1.4,3.8L366.7,131z M363.9,123.5c-0.5-1.2-1-2.5-1.5-3.7l2.8-1.2c0.5,1.2,1.1,2.5,1.6,3.7L363.9,123.5z
			 M360.8,116.2c-0.6-1.2-1.1-2.4-1.7-3.6l2.7-1.3c0.6,1.2,1.2,2.4,1.7,3.7L360.8,116.2z M357.3,109.1c-0.6-1.2-1.2-2.3-1.9-3.5
			l2.6-1.4c0.6,1.2,1.3,2.4,1.9,3.6L357.3,109.1z M353.5,102.1c-0.7-1.1-1.3-2.3-2-3.4l2.6-1.6c0.7,1.2,1.4,2.3,2.1,3.5L353.5,102.1
			z M349.4,95.3c-0.7-1.1-1.4-2.2-2.2-3.3l2.5-1.7c0.8,1.1,1.5,2.2,2.2,3.4L349.4,95.3z M344.9,88.8c-0.8-1.1-1.5-2.1-2.3-3.2
			l2.4-1.8c0.8,1.1,1.6,2.2,2.4,3.3L344.9,88.8z M340.2,82.4c-0.8-1-1.6-2.1-2.5-3.1l2.3-1.9c0.9,1,1.7,2.1,2.5,3.2L340.2,82.4z
			 M335.2,76.3c-0.9-1-1.7-2-2.6-3l2.2-2c0.9,1,1.8,2,2.7,3L335.2,76.3z M329.8,70.4c-0.9-1-1.8-1.9-2.8-2.9l2.1-2.1
			c0.9,1,1.9,1.9,2.8,2.9L329.8,70.4z M324.3,64.7c-1-0.9-1.9-1.8-2.9-2.7l2-2.2c1,0.9,2,1.8,2.9,2.8L324.3,64.7z M318.4,59.3
			c-1-0.9-2-1.7-3-2.6l1.9-2.3c1,0.9,2,1.7,3.1,2.6L318.4,59.3z M312.4,54.2c-1-0.8-2.1-1.6-3.1-2.4l1.8-2.4
			c1.1,0.8,2.1,1.6,3.2,2.5L312.4,54.2z M306.1,49.4c-1.1-0.8-2.1-1.5-3.2-2.3l1.7-2.5c1.1,0.8,2.2,1.5,3.3,2.3L306.1,49.4z
			 M299.6,44.9c-1.1-0.7-2.2-1.4-3.3-2.1l1.6-2.5c1.1,0.7,2.3,1.4,3.4,2.2L299.6,44.9z M292.9,40.7c-1.1-0.7-2.3-1.3-3.4-2l1.5-2.6
			c1.2,0.7,2.3,1.3,3.5,2L292.9,40.7z M286,36.8c-1.2-0.6-2.3-1.2-3.5-1.8l1.3-2.7c1.2,0.6,2.4,1.2,3.6,1.9L286,36.8z M278.9,33.3
			c-1.2-0.6-2.4-1.1-3.6-1.7l1.2-2.7c1.2,0.5,2.4,1.1,3.7,1.7L278.9,33.3z M271.7,30c-1.2-0.5-2.4-1-3.7-1.5l1.1-2.8
			c1.3,0.5,2.5,1,3.7,1.5L271.7,30z"/>
	</g>
	<g>
		<polygon class="st0" points="160,376.9 36.4,376.9 36.4,354.2 39.4,354.2 39.4,373.9 160,373.9 		"/>
	</g>
</g>
<g>
	<g>
		<g>
			<polygon class="st0" points="134.8,188.6 102.8,203.8 221.2,259.9 253,244.8 			"/>
		</g>
		<g>
			<polygon class="st0" points="264.2,239.5 339.5,203.8 221.2,147.6 147.8,182.4 			"/>
		</g>
	</g>
	<g>
		<rect x="221.2" y="321.2" class="st0" width="44.7" height="47.2"/>
	</g>
	<g>
		<polygon class="st0" points="235.4,415.6 216.6,399.5 197.8,415.6 197.8,368.4 235.4,368.4 		"/>
	</g>
	<g>
		<g>
			<path class="st0" d="M115.9,294.4c0,5.3-9.5,14.9-9.5,14.9s-9.5-9.7-9.5-14.9c0-5.3,4.3-9.5,9.5-9.5
				C111.6,284.9,115.8,289.2,115.9,294.4z"/>
		</g>
		<g>
			<path class="st1" d="M101.8,307.2l-1.1-1.1c-1-1-10-10.3-10-16c0-6.1,4.9-11,11-11c3,0,5.7,1.1,7.8,3.2c2.1,2.1,3.2,4.9,3.2,7.8
				c0,5.7-8.9,15-10,16L101.8,307.2z M101.8,282c-4.4,0-8,3.6-8,8c0,3.1,4.6,9,8,12.8c3.5-3.8,8-9.7,8-12.8c0-2.1-0.8-4.2-2.4-5.7
				C105.9,282.9,103.9,282,101.8,282z"/>
		</g>
		<g>
			<path class="st1" d="M220.2,254.3L98.3,196.5l121.9-57.8L342,196.5L220.2,254.3z M105.3,196.5L220.2,251L335,196.5L220.2,142
				L105.3,196.5z"/>
		</g>
		<g>
			<path class="st1" d="M220.2,306c-50.9,0-79.6-27.5-79.9-27.7l-0.5-0.4v-45.9h3v44.7c3.8,3.4,31.2,26.5,77.3,26.5
				c46.2,0,77.3-23.1,81.7-26.5V230h3v47.9l-0.5,0.4C304,278.6,271,306,220.2,306z"/>
		</g>
		<g>
			<rect x="100.3" y="196.5" class="st1" width="3" height="84.7"/>
		</g>
		<g>
			<path class="st1" d="M318.8,360.7H130.9v-3h186.8c1.7-1.4,9.1-8.3,9.1-20.2c0-12-7.3-18.8-9.1-20.2H130.9v-3h187.9l0.4,0.3
				c0.4,0.3,10.7,7.9,10.7,23c0,15.1-10.2,22.6-10.7,23L318.8,360.7z"/>
		</g>
		<g>
			<rect x="214.2" y="315.8" class="st1" width="3" height="24.7"/>
		</g>
		<g>
			<rect x="253.2" y="315.7" class="st1" width="3" height="43.5"/>
		</g>
		<g>
			<polygon class="st1" points="231.5,406.1 210.5,386.9 189.5,406.1 189.5,359.2 192.5,359.2 192.5,399.3 210.5,382.9 228.5,399.3 
				228.5,359.2 231.5,359.2 			"/>
		</g>
		<g>
			<path class="st1" d="M132.1,360.7c-12.8,0-23.2-10.4-23.2-23.2c0-12.8,10.4-23.2,23.2-23.2c12.8,0,23.2,10.4,23.2,23.2
				C155.4,350.3,144.9,360.7,132.1,360.7z M132.1,317.2c-11.2,0-20.2,9.1-20.2,20.2c0,11.2,9.1,20.2,20.2,20.2
				c11.2,0,20.2-9.1,20.2-20.2C152.4,326.3,143.3,317.2,132.1,317.2z"/>
		</g>
		<g>
			<rect x="163.3" y="244" class="st1" width="3" height="48.3"/>
		</g>
		<g>
			
				<rect x="183" y="148.1" transform="matrix(0.4285 -0.9035 0.9035 0.4285 -87.4934 288.6863)" class="st2" width="3" height="130.9"/>
		</g>
	</g>
</g>
</svg>
