<?xml version="1.0" encoding="utf-8"?>
<!-- Generator: Adobe Illustrator 26.0.3, SVG Export Plug-In . SVG Version: 6.00 Build 0)  -->
<svg version="1.1" id="Layer_1" xmlns="http://www.w3.org/2000/svg" xmlns:xlink="http://www.w3.org/1999/xlink" x="0px" y="0px"
	 viewBox="0 0 500 500" style="enable-background:new 0 0 500 500;" xml:space="preserve">
<style type="text/css">
	.st0{fill:#5991CB;}
	.st1{fill:#6E6E6E;}
</style>
<g>
	<g>
		<path class="st0" d="M24.9,273.6c-6.6,0-12-5.4-12-12c0-6.6,5.4-12,12-12s12,5.4,12,12C36.9,268.2,31.5,273.6,24.9,273.6z
			 M24.9,254.4c-4,0-7.2,3.2-7.2,7.2c0,4,3.2,7.2,7.2,7.2s7.2-3.2,7.2-7.2C32.1,257.6,28.8,254.4,24.9,254.4z"/>
	</g>
	<g>
		<path class="st1" d="M258.3,125.7l-12.1-26.8l31.9,4L258.3,125.7z M253.6,104.2l6,13.3l9.8-11.3L253.6,104.2z"/>
	</g>
	<g>
		<path class="st0" d="M296.8,66.6l-15.3-5c-1.1-0.4-1.8-1.6-1.4-2.7l3.9-14.5l-29.8,2c-0.9,0.1-1.7-0.4-2.1-1.2
			c-0.4-0.8-0.3-1.7,0.2-2.4l21.3-26.3l3.5,2.8l-18.1,22.4l27.9-1.8c0.7-0.1,1.4,0.3,1.9,0.8c0.5,0.6,0.6,1.3,0.4,2L284.9,58
			l13.3,4.4L296.8,66.6z"/>
	</g>
	<g>
		<path class="st0" d="M245.3,483.5H136c-18.1,0-32.8-10.9-32.8-24.4V451h142V483.5z"/>
		<path class="st0" d="M246.8,212.8h-73c-22,0-39.4,17.6-39.4,38l1.6,188.4h29.4l1.7-189.4h79.7V212.8z"/>
		<rect x="199.4" y="288.2" class="st0" width="39.9" height="53.3"/>
		<g>
			<path class="st1" d="M242.3,483.5H135.4c-19.4,0-35.1-15.8-35.1-35.1v-12.2h137.6v4.4H104.7v7.8c0,16.9,13.8,30.7,30.7,30.7
				h106.9V483.5z"/>
		</g>
		<g>
			<path class="st1" d="M243.8,440.6h-111V253.4c0-22.4,18.2-40.6,40.6-40.6h70.4v4.4h-70.4c-19.9,0-36.2,16.2-36.2,36.2v182.8
				h106.5V440.6z"/>
		</g>
		<g>
			<path class="st1" d="M115.1,279.3h-4.4v-27.1c0-34.8,28.3-63.1,63.1-63.1h47.9v4.4h-47.9c-32.4,0-58.7,26.3-58.7,58.7V279.3z"/>
		</g>
		<g>
			<path class="st1" d="M487.9,485H255.7V156.5H422l65.9,57.4V485z M260.1,480.6h223.4V216l-63.2-55H260.1V480.6z"/>
		</g>
		<g>
			<path class="st0" d="M311.9,193.5h10.4v32.1c0,4.4-1.6,7.9-4.9,10.5c-3.3,2.6-7.4,3.9-12.4,3.9c-5.4,0-9.7-1.2-12.8-3.5
				c-3.2-2.3-4.7-5.8-4.6-10.3l0.1-0.2h10.1c0,2.4,0.7,4.2,2,5.3c1.3,1.1,3.1,1.7,5.3,1.6c1.1,0,2.1-0.2,3.1-0.7
				c2.5-1.3,3.8-3.5,3.8-6.7V193.5z"/>
			<path class="st0" d="M368.1,221c0,5.9-1.9,10.7-5.6,14.6c-3.7,3.8-8.5,5.8-14.5,5.8c-5.9,0-10.7-1.9-14.4-5.8
				c-3.7-3.8-5.5-8.7-5.5-14.6v-8.6c0-5.9,1.8-10.7,5.5-14.5c3.7-3.8,8.5-5.8,14.4-5.8c5.9,0,10.8,1.9,14.5,5.8
				c3.7,3.8,5.6,8.7,5.6,14.5V221z M357.7,212.7c0-3.5-0.9-6.3-2.6-8.5c-1.7-2.2-4.1-3.3-7.1-3.3c-3,0-5.4,1.1-7,3.3
				c-1.7,2.2-2.5,5-2.5,8.5v8c0,3.5,0.8,6.4,2.5,8.6c1.7,2.2,4,3.3,7,3.3c3,0,5.4-1.1,7.1-3.3c1.7-2.2,2.6-5.1,2.6-8.6V212.7z"/>
			<path class="st0" d="M374,239.4v-45.9h15.5c5.4,0,9.6,1.1,12.6,3.2c3,2.1,4.5,5.2,4.5,9.4c0,2.1-0.6,4-1.7,5.7
				c-1.1,1.7-2.8,2.9-4.9,3.8c2.8,0.6,4.8,1.8,6.2,3.8c1.4,1.9,2.1,4.2,2.1,6.7c0,4.4-1.4,7.7-4.3,10c-2.9,2.3-7,3.4-12.3,3.4H374z
				 M384.4,212.8h7.3c2.7,0,4.8-0.6,6.2-1.7c1.5-1.1,2.2-2.7,2.2-4.8c0-2.3-0.7-4-2.2-5.2c-1.5-1.1-3.6-1.7-6.6-1.7h-6.9V212.8z
				 M384.4,220.2v13.3h8.5c2.5,0,4.3-0.5,5.6-1.6c1.3-1.1,1.9-2.6,1.9-4.7c0-2.3-0.5-4-1.7-5.2s-2.8-1.8-5.2-1.8H384.4z"/>
		</g>
		<g>
			<rect x="294.1" y="266" class="st1" width="158.3" height="4.4"/>
		</g>
		<g>
			<rect x="294.1" y="291.2" class="st1" width="158.3" height="4.4"/>
		</g>
		<rect x="295.6" y="322.3" class="st0" width="56.2" height="56.2"/>
		<g>
			<rect x="372.5" y="320.8" class="st1" width="79.9" height="4.4"/>
		</g>
		<g>
			<rect x="372.5" y="347.4" class="st1" width="50.3" height="4.4"/>
		</g>
		<g>
			<rect x="372.5" y="377" class="st1" width="45.9" height="4.4"/>
		</g>
		<g>
			<path class="st1" d="M456.9,440.6H291.2v-34h165.7V440.6z M295.6,436.2h156.8V411H295.6V436.2z"/>
		</g>
		<g>
			<polygon class="st1" points="482,217.2 419.9,217.2 419.9,159.5 424.3,159.5 424.3,212.8 482,212.8 			"/>
		</g>
		<g>
			<polygon class="st1" points="166.9,431.7 162.4,431.7 162.4,248.3 242.3,248.3 242.3,252.7 166.9,252.7 			"/>
		</g>
		<g>
			<rect x="198" y="371.1" class="st1" width="39.9" height="4.4"/>
		</g>
		<g>
			<rect x="198" y="397.7" class="st1" width="39.9" height="4.4"/>
		</g>
		<g>
			<polygon class="st1" points="234.9,343 196.5,343 196.5,285.3 234.9,285.3 234.9,289.7 200.9,289.7 200.9,338.5 234.9,338.5 			
				"/>
		</g>
		<g>
			<rect x="440.6" y="347.4" class="st1" width="11.8" height="4.4"/>
		</g>
		<g>
			<rect x="110.7" y="291.2" class="st1" width="4.4" height="11.8"/>
		</g>
	</g>
	<g>
		<g>
			<g>
				<path class="st0" d="M36.3,210.1c-11.2,0-20.4-9.1-20.4-20.4v-67.2h4.4v67.2c0,8.8,7.1,15.9,15.9,15.9V210.1z"/>
			</g>
			<g>
				<rect x="214.2" y="95.9" class="st0" width="4.4" height="75.5"/>
			</g>
			<g>
				<rect x="84" y="135.8" class="st0" width="66.6" height="4.4"/>
			</g>
			<g>
				<path class="st0" d="M180.8,131.9l-2.2-3.9c0.2-0.1,21.8-12.3,28.3-17c4.5-3.2,7.2-9.1,7.2-15.7V67.4c0-8.8-7.1-15.9-15.9-15.9
					H36.3c-8.8,0-15.9,7.1-15.9,15.9V94c0,6.7,3.4,13,9,16.7l26.7,17.5l-2.4,3.7L27,114.4c-6.9-4.5-11-12.1-11-20.4V67.4
					c0-11.2,9.1-20.4,20.4-20.4h161.9c11.2,0,20.4,9.1,20.4,20.4v27.9c0,8.1-3.4,15.3-9.1,19.4C202.8,119.5,181.7,131.4,180.8,131.9
					z"/>
			</g>
			<g>
				<path class="st0" d="M166.1,42.6c-10.7-12.4-28.7-19.8-48-19.8c-19.4,0-37.3,7.4-48,19.8l-3.4-2.9C78.2,26.4,97.4,18.4,118,18.4
					s39.8,8,51.4,21.3L166.1,42.6z"/>
			</g>
		</g>
		<g>
			<path class="st1" d="M76.5,158H60.5c-5,0-9-4.1-9-9V133c0-5,4.1-9,9-9h15.9c5,0,9,4.1,9,9V149C85.5,154,81.5,158,76.5,158z
				 M60.5,128.4c-2.5,0-4.6,2.1-4.6,4.6V149c0,2.5,2.1,4.6,4.6,4.6h15.9c2.5,0,4.6-2.1,4.6-4.6V133c0-2.5-2.1-4.6-4.6-4.6H60.5z"/>
		</g>
		<g>
			<path class="st1" d="M172.6,158h-15.9c-5,0-9-4.1-9-9V133c0-5,4.1-9,9-9h15.9c5,0,9,4.1,9,9V149C181.7,154,177.6,158,172.6,158z
				 M156.7,128.4c-2.5,0-4.6,2.1-4.6,4.6V149c0,2.5,2.1,4.6,4.6,4.6h15.9c2.5,0,4.6-2.1,4.6-4.6V133c0-2.5-2.1-4.6-4.6-4.6H156.7z"
				/>
		</g>
	</g>
	<g>
		<g>
			<g>
				<g>
					
						<rect x="101.8" y="382.9" transform="matrix(0.9999 -1.513160e-02 1.513160e-02 0.9999 -5.8158 1.6184)" class="st0" width="4.4" height="4.4"/>
				</g>
				<g>
					
						<rect x="100.3" y="334.1" transform="matrix(0.9999 -1.609791e-02 1.609791e-02 0.9999 -5.4006 1.6946)" class="st0" width="4.4" height="4.4"/>
				</g>
				<g>
					<path class="st0" d="M102.7,383.1c-7,0-11.9-4.4-13.2-5.9l3.2-3.1c0.8,0.8,5.2,5,11.2,4.5c2.7-0.3,8.2-1.8,9.5-5.9
						c0.7-2.4-0.1-5.6-2-7.8c-2.3-2.6-5.6-2.9-9.1-3.3c-3.9-0.4-8.3-0.9-11.3-4.8c-2.4-3.2-3.1-7.8-1.7-11.4
						c2.1-5.5,8.5-7.8,13.6-7.6c6,0.2,9.9,4.1,11.3,5.7l-3.4,2.9c-0.8-0.9-3.7-4-8.1-4.2c-3.5-0.1-8,1.5-9.2,4.8
						c-0.9,2.2-0.4,5.2,1.1,7.1c1.8,2.4,4.8,2.7,8.3,3.1c4,0.4,8.5,0.9,12,4.8c3,3.4,4.1,8.1,2.9,12.1c-1.8,5.9-8.3,8.5-13.3,9
						C103.8,383,103.3,383.1,102.7,383.1z"/>
				</g>
			</g>
			<g>
				<path class="st0" d="M124,408.1H18.2c-1.2,0-2.2-1-2.2-2.2v-90.3c0-1.2,1-2.2,2.2-2.2H124v4.4H20.4v85.8H124V408.1z"/>
			</g>
			<g>
				<rect x="18.9" y="424.3" class="st0" width="106.5" height="4.4"/>
			</g>
			<g>
				<rect x="18.9" y="452.5" class="st0" width="71" height="4.4"/>
			</g>
			<g>
				<path class="st0" d="M18.2,345.1c-1.2,0-2.2-1-2.2-2.2v-27.2c0-1.2,1-2.2,2.2-2.2h27.2c1.2,0,2.2,1,2.2,2.2
					C47.7,331.8,34.4,345.1,18.2,345.1z M20.4,317.8v22.7c12-1.1,21.6-10.7,22.7-22.7H20.4z"/>
			</g>
			<g>
				<path class="st0" d="M45.4,408.1H18.2c-1.2,0-2.2-1-2.2-2.2v-27.2c0-1.2,1-2.2,2.2-2.2c16.2,0,29.5,13.2,29.5,29.5
					C47.7,407.1,46.7,408.1,45.4,408.1z M20.4,403.6h22.7c-1.1-12-10.7-21.6-22.7-22.7V403.6z"/>
			</g>
			<g>
				<path class="st1" d="M76,398.7c-1.5-1.4-2.9-2.9-4.2-4.5l3.4-2.8c1.2,1.4,2.5,2.8,3.9,4.1L76,398.7z M68.1,389.2
					c-1.1-1.7-2.2-3.5-3.1-5.4l4-2c0.8,1.7,1.8,3.3,2.8,4.9L68.1,389.2z M62.6,378.2c-0.7-1.9-1.3-3.9-1.7-5.9l4.3-1
					c0.4,1.8,0.9,3.7,1.6,5.4L62.6,378.2z M59.9,366.2c-0.2-1.9-0.3-3.8-0.3-5.7l0-0.5l4.4,0l0,0.5c0,1.7,0.1,3.5,0.3,5.2
					L59.9,366.2z M64.4,354.4l-4.4-0.6c0.3-2,0.6-4.1,1.1-6.1l4.3,1.1C65,350.7,64.6,352.5,64.4,354.4z M67.1,343.4l-4.2-1.6
					c0.7-1.9,1.6-3.8,2.5-5.6l3.9,2.1C68.5,339.9,67.8,341.7,67.1,343.4z M72.3,333.4l-3.7-2.5c1.2-1.7,2.4-3.3,3.8-4.9l3.4,2.9
					C74.5,330.4,73.4,331.9,72.3,333.4z"/>
			</g>
		</g>
	</g>
	<g>
		<g>
			<path class="st0" d="M86.8,264.7c-15,0-29.6-8.2-36.9-22.5c-10.4-20.3-2.4-45.3,17.9-55.7c9.8-5,21.1-6,31.6-2.6
				c10.5,3.4,19.1,10.7,24.2,20.5l-3.9,2c-4.5-8.8-12.2-15.3-21.6-18.3c-9.4-3-19.4-2.2-28.2,2.3c-18.1,9.3-25.3,31.6-16,49.8
				c9.3,18.1,31.6,25.3,49.8,16l2,3.9C99.6,263.2,93.2,264.7,86.8,264.7z"/>
		</g>
		<g>
			
				<rect x="84.1" y="199.5" transform="matrix(0.9999 -1.049942e-02 1.049942e-02 0.9999 -2.1205 0.9171)" class="st1" width="4.4" height="5.9"/>
		</g>
		<g>
			
				<rect x="84.1" y="240.9" transform="matrix(0.9999 -1.049942e-02 1.049942e-02 0.9999 -2.5554 0.9194)" class="st1" width="4.4" height="5.9"/>
		</g>
		<g>
			<path class="st1" d="M86.2,243.5c-6.2,0-10.5-3.9-11.7-5.2l3.2-3.1c0.7,0.7,4.4,4.3,9.5,3.8c2.3-0.2,7-1.5,8-4.9
				c0.6-2-0.1-4.7-1.7-6.5c-1.9-2.2-4.6-2.5-7.7-2.8c-3.5-0.4-7.4-0.8-10.1-4.3c-2.2-2.8-2.8-6.9-1.6-10.2c1.9-4.9,7.6-7,12.1-6.8
				c5.4,0.2,8.8,3.6,10,5.1l-3.4,2.9c-0.7-0.8-3.1-3.4-6.8-3.5c-3-0.1-6.7,1.2-7.8,4c-0.7,1.8-0.3,4.3,0.9,5.9
				c1.4,1.9,3.6,2.2,7,2.5c3.5,0.4,7.5,0.8,10.6,4.3c2.7,3,3.7,7.2,2.6,10.8c-1.6,5.2-7.4,7.6-11.8,8
				C87.2,243.4,86.7,243.5,86.2,243.5z"/>
		</g>
	</g>
	<g>
		<g>
			<path class="st0" d="M460.6,160.8l0-4.4c3.7,0,6.8-3.1,6.7-6.9V49.3c0-3.8-4.3-6.7-7.9-6.7c-0.1,0-96.1,0-96.1,0
				c-10.1,0-10.1,5.4-10.1,11.7h-4.4c0-6,0-16.2,14.6-16.2h96c5.7-0.1,12.4,4.7,12.4,11.1v100.2
				C471.7,155.7,466.7,160.8,460.6,160.8z"/>
		</g>
		<g>
			<path class="st0" d="M443.9,159.1l-4.4-0.5l10.3-82.7c0.2-1.8-0.3-3.6-1.4-5c-1.1-1.4-2.7-2.3-4.5-2.6l-99.4-11.9
				c-1.8-0.2-3.6,0.3-5,1.4c-1.4,1.1-2.3,2.7-2.6,4.5l-10.4,83.6l-4.4-0.5l10.4-83.6c0.4-3,1.9-5.6,4.3-7.5c2.4-1.8,5.3-2.6,8.3-2.3
				l99.4,11.9c3,0.4,5.6,1.9,7.5,4.3c1.8,2.4,2.6,5.3,2.3,8.3L443.9,159.1z"/>
		</g>
		<g>
			<g>
				<g>
					<path class="st1" d="M392.8,143.7L387,143l0.5-4.4l5.9,0.7L392.8,143.7z M381.1,142.3l-5.9-0.7l0.5-4.4l5.9,0.7L381.1,142.3z
						 M369.3,140.8l-5.9-0.7l0.5-4.4l5.9,0.7L369.3,140.8z M357.6,139.4l-5.9-0.7l0.5-4.4l5.9,0.7L357.6,139.4z"/>
				</g>
			</g>
			<g>
				<g>
					
						<rect x="385.8" y="85.8" transform="matrix(0.1211 -0.9926 0.9926 0.1211 222.3386 490.2831)" class="st1" width="4.4" height="67.5"/>
				</g>
			</g>
			<g>
				<g>
					
						<rect x="366.4" y="85.4" transform="matrix(0.1212 -0.9926 0.9926 0.1212 228.3291 450.5474)" class="st1" width="4.4" height="21.9"/>
				</g>
			</g>
		</g>
		<g>
			<path class="st0" d="M391.8,58.9h-4.4V36.3c0-0.6,0-1.4,0.1-2.2c1.3-13,12-18.5,21.4-18.1c9.4,0.4,19.6,6.7,19.9,19.8l0,0.5v10.7
				h-4.4l0-11.1c-0.3-10.3-8-15.2-15.7-15.5c-7.6-0.3-15.7,4-16.8,14.2c-0.1,0.7-0.1,1.2-0.1,1.7V58.9z"/>
		</g>
		<g>
			<path class="st0" d="M402.9,92.9h-1c-9.6,0-14.6-7-14.6-13.9V47.1h4.4V79c0,4.6,3.2,9.5,10.2,9.5h1c8.6,0,9.6-6.6,9.6-9.5V35.2
				h4.4V79C416.9,87.5,411.4,92.9,402.9,92.9z"/>
		</g>
	</g>
</g>
</svg>
