<?xml version="1.0" encoding="utf-8"?>
<!-- Generator: Adobe Illustrator 26.0.3, SVG Export Plug-In . SVG Version: 6.00 Build 0)  -->
<svg version="1.1" xmlns="http://www.w3.org/2000/svg" xmlns:xlink="http://www.w3.org/1999/xlink" x="0px" y="0px"
	 viewBox="0 0 1000 1000" style="enable-background:new 0 0 1000 1000;" xml:space="preserve">
<style type="text/css">
	.st0{opacity:5.000000e-02;fill:#161616;}
	.st1{fill:none;stroke:#6E6E6E;stroke-width:2.5;stroke-linejoin:round;stroke-miterlimit:10;}
	.st2{fill:none;stroke:#6E6E6E;stroke-width:1.5;stroke-linejoin:round;stroke-miterlimit:10;}
	.st3{fill:#EA687E;}
	.st4{fill:none;stroke:#5991CB;stroke-width:1.5;stroke-linejoin:round;stroke-miterlimit:10;}
	.st5{fill:none;stroke:#5991CB;stroke-width:2.5;stroke-linejoin:round;stroke-miterlimit:10;}
	.st6{fill:#5991CB;stroke:#5991CB;stroke-width:2.5;stroke-linejoin:round;stroke-miterlimit:10;}
	.st7{fill-rule:evenodd;clip-rule:evenodd;fill:none;stroke:#6E6E6E;stroke-width:2.5;stroke-linejoin:round;stroke-miterlimit:10;}
	.st8{clip-path:url(#SVGID_00000032633210316011392510000007330327039211870385_);}
	.st9{fill:#5991CB;}
	.st10{fill:#5991CB;stroke:#5991CB;stroke-width:1.5;stroke-linejoin:round;stroke-miterlimit:10;}
	.st11{fill:#EBF0F6;}
	.st12{fill:#FFFFFF;}
	.st13{fill:#5991CB;stroke:#5991CB;stroke-miterlimit:10;}
	.st14{fill:none;stroke:#1C3E58;stroke-width:2.5;stroke-linejoin:round;stroke-miterlimit:10;}
	.st15{fill:none;stroke:#18B8FF;stroke-width:1.5;stroke-linejoin:round;stroke-miterlimit:10;stroke-dasharray:3,3;}
	.st16{fill:none;stroke:#5991CB;stroke-width:1.5;stroke-linejoin:round;stroke-miterlimit:10;stroke-dasharray:3,3;}
	.st17{fill:none;stroke:#6E6E6E;stroke-width:1.5;stroke-linejoin:round;stroke-miterlimit:10;stroke-dasharray:3,3;}
	
		.st18{fill-rule:evenodd;clip-rule:evenodd;fill:none;stroke:#6E6E6E;stroke-width:1.5;stroke-linejoin:round;stroke-miterlimit:10;}
	
		.st19{fill-rule:evenodd;clip-rule:evenodd;fill:none;stroke:#6E6E6E;stroke-width:1.5;stroke-linejoin:round;stroke-miterlimit:10;stroke-dasharray:3,3;}
	.st20{fill:#6E6E6E;}
</style>
<g id="background">
</g>
<g id="illustration">
	<g>
		<g>
			<path class="st0" d="M301.6,466.9l-10.7-2.3l-11.7-3.3l-3.9-1.2v23c20.9,10.4,46.7,9.7,73.9,8l-40.5-23.2L301.6,466.9z"/>
			<g>
				<path class="st1" d="M474.7,214.1c11.6,20.7,21.4,51.7,23.3,73.2"/>
				<path class="st1" d="M227.1,170.9c28.6-22.9,64.6-36.6,103.9-36.6c31,0,60.1,8.4,85,23.1"/>
				<path class="st1" d="M164.4,284.7c2.7-24.3,10.5-47.1,22.5-67.3"/>
				<path class="st1" d="M307.9,467.9c-11.1-1.5-21.9-4.1-32.2-7.7"/>
				<g>
					<path class="st2" d="M187.8,331l18-13.7c4.7-3.6,11.4-2.5,14.8,2.3l8.7,12.5c1.1,1.6,2.7,2.9,4.6,3.7l30.9,12.6
						c2.3,0.9,4.9,1,7.2,0.2l17.3-5.9c2.5-0.8,4.6-2.6,5.8-5l7.5-14.1c1.4-2.6,1.6-5.6,0.6-8.3L292.7,285c-1.5-4.4,0-9.3,3.9-11.9
						l15.3-10.7c1.7-1.2,3.8-1.9,5.9-1.9l14.8,0c5.7,0,10.4-4.6,10.4-10.4v-11.5c0-2.7-1.1-5.3-2.9-7.2l-13.5-13.9
						c-1.7-1.8-2.8-4.1-2.9-6.6l-0.8-14c-0.1-2.2-0.9-4.2-2.3-5.9l-12.1-14.9c-1.8-2.2-2.6-5-2.2-7.8l1.3-10.6
						c0.5-4.1-1.5-8.2-5-10.3l-13.4-7.8"/>
					<path class="st2" d="M344,419.2c-1.3-1.9-2.2-4-2.6-6.3c0-0.2-0.1-0.4-0.1-0.6l-2-11.7c-1.1-6.3-5.5-11.5-11.5-13.6l-11.3-3.9
						c-3.5-1.2-7.4-1.3-10.9-0.2l-25,7.8"/>
					<path class="st2" d="M408.6,153.4l9.7,43.9c0.2,0.9,0.2,1.8-0.1,2.7l-6.1,22.1c-0.4,1.5-0.2,3.1,0.6,4.4l4.9,8.2
						c1.2,2,3.6,3.1,5.9,2.7l11.9-2.2c3.3-0.6,6.3,1.7,6.7,5l2.2,19.9c0.1,0.7,0,1.5-0.2,2.2l-8.6,30c-0.5,1.6-1.6,3-3.2,3.6
						l-22.1,9.8c-2.1,0.9-3.4,3-3.4,5.2v14.9c0,2.3,1.4,4.4,3.5,5.3l13.2,5.5"/>
				</g>
			</g>
			<g>
				<polygon class="st3" points="466.8,222.2 467.2,222.2 467.1,222 466.8,222 				"/>
				<path class="st4" d="M493.1,109.5c0,0-7-4.1-13.5-7.8c-6.5-3.7-15.4-3.2-25.3,2.5c-19.8,11.4-35.8,39.2-35.8,62
					c0,3.1,0.8,6.4,1.9,9.5c2.1,6.2,5.4,11.3,9.4,15.2c0,0,24.7,24.2,24.7,24.2c0.1,0.1,0.1,0.1,0.2,0.2l11.9,6.9
					c0.3,0.2,0.7,0,0.7-0.4 M470.8,136.1c1.1,11.6-7.7,26.9-18.3,31.8"/>
				<path class="st4" d="M431.5,173.7c0,3.1,0.8,6.4,1.9,9.5c2.1,6.2,5.4,11.3,9.4,15.2l24.1,23.7c0.2,0.2,0.6,0.2,0.8-0.1
					l24.3-51.9c0.5-1.1,1-2.2,1.5-3.3c3.4-7.8,6.1-15.4,7.9-22.8c1.2-4.8,2-9.5,1.7-14.5c-1.3-20.7-16.8-28.7-35.7-17.7
					C447.5,123.1,431.5,150.9,431.5,173.7z M449.1,164.1c0-5.3,1.9-11.2,4.9-16.5c3-5.2,7.1-9.7,11.6-12.3
					c8.9-5.2,16.8-0.7,16.7,9.7c-0.1,10.5-7.4,23.3-16.5,28.6C457,178.7,449.2,174.3,449.1,164.1z"/>
			</g>
			<g>
				<polygon class="st3" points="199.9,221.2 200.2,221.2 200.1,221 199.9,221 				"/>
				<path class="st5" d="M161.1,176.3c0,2.5,0.6,5.2,1.5,7.6c1.7,5,4.3,9,7.5,12.2c0,0,19.8,19.4,19.8,19.4c0,0.1,0.1,0.1,0.2,0.2
					l9.5,5.5c0.3,0.1,0.6,0,0.6-0.3c0,0,15.1-60.6,16.8-67.6c0.8-3.4,3.9-22.4,3.9-22.4s-5.6-3.3-10.9-6.3c-5.2-3-12.4-2.5-20.3,2
					C174,135.7,161.1,157.9,161.1,176.3z M191.3,145.3c5.7-2.6,11.2,0.6,11.8,6.8c0.9,9.3-6.2,21.6-14.7,25.5
					c-5.7,2.6-11.2-0.6-11.8-6.8C175.7,161.4,182.8,149.1,191.3,145.3z"/>
				<path class="st6" d="M171.5,182.3c0,2.5,0.6,5.2,1.5,7.6c1.7,5,4.3,9,7.5,12.2l19.3,19c0.2,0.2,0.5,0.1,0.6-0.1l19.5-41.6
					c0.4-0.9,0.8-1.8,1.2-2.7c2.8-6.2,4.9-12.4,6.4-18.3c1-3.9,1.6-7.7,1.4-11.6c-1.1-16.6-13.5-23-28.6-14.2
					C184.4,141.7,171.5,164,171.5,182.3z M185.7,174.6c0-4.3,1.5-9,3.9-13.3c2.4-4.1,5.7-7.7,9.3-9.9c7.2-4.2,13.5-0.5,13.4,7.7
					c-0.1,8.4-5.9,18.6-13.2,22.9C192,186.3,185.7,182.7,185.7,174.6z"/>
			</g>
		</g>
		<g>
			<path class="st0" d="M621.2,515.3l-8.7,4.5c-2.5,1.3-2.6,4.8-0.2,6.3l59.3,35.3l8.6-5l-59-34.5V515.3z"/>
			<g>
				<g>
					<g>
						<path class="st7" d="M683,545.8l-60.1-34.9c-2.3-1.3-2.3-4.7,0-6l40.4-23.7c3.1-1.8,7-1.8,10.1,0l24.9,14.5"/>
					</g>
					<path class="st7" d="M673.6,552.7l-50.7-29.5c-1.2-0.7-1.8-2-1.7-3.2v-12"/>
					<g>
						<path class="st7" d="M711.9,530l-15-8.7c-0.5-0.3-1-0.8-0.9-1.6l4-35.8"/>
					</g>
					<g>
						<path class="st7" d="M595,174.5c-7.1-4.1-12.9-0.8-12.9,7.4v33.6v38v142.7c0,8.2,5.8,18.2,12.9,22.3l141,81.5"/>
						<path class="st1" d="M876,561.8V351.5c0-1.6-0.2-3.2-0.6-4.9c-1.2-5.2-4.3-10.5-8.1-14.2c-1.3-1.3-2.7-2.4-4.2-3.2l-178.9-104
							"/>
						<path class="st1" d="M693.4,215.7L876.6,322c1.2,0.7,2.4,1.5,3.4,2.5c4.1,3.6,7.3,9,8.7,14.3c0.5,1.8,0.8,3.7,0.8,5.5v214.2
							c0,4.3-1.6,7.2-4.1,8.5c0,0-1,0.6-2.4,1.3"/>
						<path class="st1" d="M643.1,203.2L595,174.5c-2.9-1.7-5.5-2.1-7.6-1.5l12.3-6.8c2.4-1.1,5.5-0.9,8.9,1.1l44.6,25.8"/>
					</g>
					<g>
						<g>
							<defs>
								<line id="SVGID_1_" x1="875.9" y1="366.1" x2="582.1" y2="195.7"/>
							</defs>
							<defs>
								<polyline id="SVGID_00000070825551018355511530000003532390813789912749_" points="582.1,382.6 619.6,404.7 744.7,477.2 
																	"/>
							</defs>
							<clipPath id="SVGID_00000008848861553525175600000010412286071888474523_">
								<use xlink:href="#SVGID_1_"  style="overflow:visible;"/>
							</clipPath>
							
								<clipPath id="SVGID_00000152254296483656863250000017831386521745385093_" style="clip-path:url(#SVGID_00000008848861553525175600000010412286071888474523_);">
								<use xlink:href="#SVGID_00000070825551018355511530000003532390813789912749_"  style="overflow:visible;"/>
							</clipPath>
							
								<use xlink:href="#SVGID_1_"  style="overflow:visible;fill:none;stroke:#6E6E6E;stroke-width:1.5;stroke-linejoin:round;stroke-miterlimit:10;"/>
							
								<use xlink:href="#SVGID_00000070825551018355511530000003532390813789912749_"  style="overflow:visible;fill:none;stroke:#6E6E6E;stroke-width:1.5;stroke-linejoin:round;stroke-miterlimit:10;"/>
						</g>
					</g>
				</g>
			</g>
			<polyline class="st2" points="845.4,493 845.4,387.4 709.1,308.6 709.1,428.3 767.8,462.2 			"/>
			<g>
				<path class="st9" d="M725.2,392.3l5.4-1.5c1.5,4.2,3.6,6.8,5.8,8.1c3.5,2,5.3,0.9,5.3-5.3v-29.9l7.9,4.5v30.7
					c0,8.5-3.7,13.3-12.2,8.4C731.7,404,727.8,399.1,725.2,392.3z"/>
				<path class="st9" d="M757.1,395c0-14.7,7.2-19.1,17.6-13.1c10.4,6,17.6,18.8,17.6,33.4c0,14.7-7.2,19.5-17.6,13.5
					C764.3,422.8,757.1,409.7,757.1,395z M784.2,410.7c0-9.7-3.7-17.7-9.6-21c-5.8-3.4-9.6,0.3-9.6,10c0,9.7,3.7,18,9.6,21.3
					C780.5,424.4,784.2,420.4,784.2,410.7z"/>
				<path class="st9" d="M800,397.3l13,7.5c8.1,4.7,14.2,11,14.2,19.4c0,4.2-2,7.3-5.4,6.7v0.3c4.3,3.6,7.4,8.9,7.4,15
					c0,9.1-6.6,9.5-15.2,4.5l-14-8.1V397.3z M812.4,422.9c5,2.9,7.2,1.8,7.2-1.8c0-4-2.3-6.9-7.1-9.6l-4.7-2.7v11.5L812.4,422.9z
					 M813.3,443.3c5.4,3.1,8.3,2.6,8.3-2.1c0-4.4-2.9-7.9-8.3-11.1l-5.5-3.2v13.2L813.3,443.3z"/>
			</g>
			<g>
				<g>
					<line class="st2" x1="635.8" y1="365.3" x2="690.6" y2="396.9"/>
				</g>
				<g>
					<line class="st2" x1="607.4" y1="348.6" x2="621" y2="356.7"/>
				</g>
				<g>
					<line class="st2" x1="641.1" y1="342.1" x2="690.6" y2="371"/>
				</g>
				<g>
					<line class="st2" x1="658.2" y1="326.2" x2="690.6" y2="345"/>
				</g>
				<g>
					<line class="st2" x1="657" y1="299.9" x2="690.6" y2="319.1"/>
				</g>
			</g>
			<g>
				<path class="st4" d="M630.2,330.6l18.3-10.5c0,0,0.1-0.1,0.1-0.1l0.2-0.1c2.7-1.7,4.3-5.1,4.3-9.9v-3.6c0-9.9-7-22-15.6-27
					c-4.4-2.6-8.4-2.7-11.3-0.9c0,0-17.4,10.1-17.4,10.1"/>
				<path class="st10" d="M620.2,289.3c-8.6-5-15.6-0.9-15.6,9v3.6c0,9.9,7,22,15.6,27c8.6,5,15.6,0.9,15.6-9v-3.6
					C635.8,306.3,628.8,294.2,620.2,289.3z"/>
				<path class="st4" d="M595.3,156.2l17.3-10.1c0,0,0.1,0,0.1-0.1c1.8-1.1,3.1-3.2,3.7-6c0.5-2.6,1.2-4.8,2-6.8"/>
				<path class="st4" d="M664.5,236.8l17.5-10.1c5.9-3.6,9.9-7.6,12.1-12.3c3.3-7.2,5-15.3,5-24.4c0-18.4-4.8-35.8-14.5-52.2
					c-9.7-16.4-22.8-29.4-39.4-39c-17.4-10-30.9-12.1-40.4-6.2c0,0-17.5,10.1-17.5,10.1"/>
				<path class="st4" d="M635.4,276.9l17.5-10.1c0-0.1-0.1-8.7-0.1-8.7c0-7.4,0.9-12.9,2.7-16.3"/>
				<path class="st10" d="M667,148c-9.7-16.4-22.8-29.4-39.4-39c-30.4-17.5-48.7-10.8-55.1,20.2c-1.6,7.5,3.4,18.6,10.7,24.5
					c7.4,6,14.2,4.1,15.9-3.5c3.7-17.4,12.6-22,26.7-13.8c7.5,4.3,13.4,10.4,17.8,18.1c4.3,7.7,6.5,16.7,6.5,26.9
					c0,8.9-1.6,15.4-4.7,19.4c-3.1,4-8.8,7.7-17,11.1c-8.3,3.5-13.6,7.7-15.7,12.6c-2.1,4.9-3.2,15.2-3.2,30.8l-0.1,6.6l26.1,15.1
					l-0.1-8.7c0-7.4,0.9-12.9,2.7-16.3c1.8-3.4,6.9-6.7,15.2-9.8c12.2-4.5,20-10.4,23.3-17.5c3.3-7.2,5-15.3,5-24.4
					C681.5,181.8,676.7,164.4,667,148z"/>
			</g>
		</g>
		<g>
			<polyline class="st4" points="828.1,797.6 828.1,724.4 860.7,705.6 860.7,778.8 			"/>
			<g>
				<polygon class="st0" points="888.3,788.4 893.6,791.4 893.6,796.3 839.1,827.9 816.3,814.7 784.7,832.9 633.5,745.6 
					633.5,738.8 620.3,745 784.7,839.9 816.2,821.7 839.1,834.9 905.3,796.6 888.3,785.7 				"/>
				<polygon class="st11" points="891.7,764.2 891.7,771.3 879.5,777.9 886,781.7 903.7,771.4 				"/>
			</g>
			<line class="st1" x1="891.7" y1="640.9" x2="891.7" y2="761.1"/>
			<polyline class="st1" points="784.7,713.1 784.7,822.6 633.5,735.3 633.5,596.8 			"/>
			<line class="st1" x1="784.7" y1="832.9" x2="816.2" y2="814.7"/>
			<polyline class="st1" points="633.5,735.3 633.5,745.6 784.7,832.9 784.7,822.6 891.7,761.1 891.7,771.3 880.2,777.9 			"/>
			<polyline class="st1" points="789.9,699.4 914.5,627.8 867.1,558.2 			"/>
			<line class="st1" x1="747.8" y1="540.6" x2="700.4" y2="567.9"/>
			<polyline class="st1" points="610,596.8 733.1,525.8 742.8,522.7 			"/>
			<g>
				<polygon class="st1" points="784.9,702.9 697.9,575.1 611.8,602.6 610,596.8 700.4,567.9 789.9,699.4 				"/>
			</g>
			<g>
				<polygon class="st2" points="673.6,732.7 698,746.8 698,703.2 673.6,689.2 				"/>
				<polygon class="st2" points="720.1,759.6 744.5,773.7 744.5,730.1 720.1,716 				"/>
				<polygon class="st4" points="673.6,660.1 698,674.2 698,630.7 673.6,616.6 				"/>
				<polygon class="st2" points="720.1,687 744.5,701.1 744.5,657.5 720.1,643.4 				"/>
			</g>
			<g>
				<path class="st2" d="M816.3,804.4v5.4c0,0,0,4.9,0,4.9l22.8,13.2"/>
				<polygon class="st2" points="839.1,823 893.6,791.4 888.3,788.4 833.8,819.9 				"/>
				<polyline class="st2" points="816.3,804.4 833.8,814.5 888.3,783 870.7,772.9 				"/>
				<polyline class="st2" points="893.6,791.4 893.6,796.3 839.1,827.9 839.1,823 				"/>
				<line class="st2" x1="833.8" y1="819.9" x2="833.8" y2="814.5"/>
				<line class="st2" x1="888.3" y1="783" x2="888.3" y2="788.4"/>
			</g>
			<g>
				<polygon class="st3" points="795.6,643.6 795.1,643.6 795.2,643.2 795.6,643.2 				"/>
				<path class="st4" d="M814.2,468.9c-14.6-8.4-27.8-9.2-37.4-3.7c-9.6,5.5-20,11.6-20,11.6s5.6,35,7.1,41.4
					c3.2,12.8,31.1,124.7,31.1,124.7c0,0.5,0.6,0.9,1.1,0.6l17.6-10.2c0.1-0.1,0.2-0.2,0.3-0.3c0,0,36.6-35.8,36.6-35.8
					c6-5.9,10.7-13.4,13.9-22.5c1.6-4.5,2.7-9.5,2.7-14C867.1,526.9,843.4,485.8,814.2,468.9z M838.6,550.5
					c-1.1,11.5-11.2,17.4-21.8,12.6c-15.7-7.1-28.8-29.8-27.1-47c1.1-11.5,11.2-17.4,21.8-12.6C827.2,510.7,840.3,533.4,838.6,550.5
					z"/>
				<path class="st10" d="M794.9,480.1c-28-16.1-50.9-4.3-52.8,26.3c-0.5,7.4,0.8,14.4,2.5,21.5c2.7,10.9,6.6,22.2,11.7,33.7
					c0.7,1.6,1.5,3.3,2.2,4.9l35.9,76.8c0.2,0.4,0.8,0.5,1.1,0.2l35.6-35c6-5.9,10.7-13.4,13.9-22.5c1.6-4.5,2.7-9.5,2.7-14
					C847.9,538,824.2,497,794.9,480.1z M797.1,571.5c-13.4-7.9-24.3-26.7-24.4-42.3c-0.1-15.3,11.6-22,24.8-14.3
					c6.7,3.9,12.8,10.6,17.2,18.2c4.4,7.8,7.2,16.6,7.2,24.4C821.7,572.6,810.2,579.2,797.1,571.5z"/>
			</g>
		</g>
		<g>
			<g>
				<path class="st0" d="M177.5,636.9l80.5-47.4c5.5-3.2,6.2-10.5,2.1-14.8l-6.6,6.4l-62.9,36.6l-11.3,5.7l-8.8,0.8l-6.3-3.8l-7.4,8
					l-5.6-1.6l-4.7-4.7l-0.4-4.6l2.6-5.5l-31.2-17.8l-5.4,5.9l-2.9,0.7l-5.3-2.5l-3.4-3.8l-0.4-4.4l2.1-4.7l-2.1-1.3l-2.6-3
					l-1.1-2.7l-4.8,2.8c-6.3,3.7-6.3,12.8,0,16.4l68.3,39.4C165.5,640,172.1,640,177.5,636.9z"/>
				<g>
					<path class="st1" d="M163.5,620.7c-1.9,3.9-4.9,7.8-7.2,7.8c-4.8,0-8.7-4.6-9.1-5.1c-0.6-0.8-1-1.9-1-3.4
						c0-2.5,1.1-5.3,2.7-7.5"/>
					<path class="st1" d="M163.4,621.1c-0.9,2-2.3,3.8-4,4.8c-2.6,1.5-4.8,0.3-4.8-2.7c0-2,0.9-4.3,2.3-6.1"/>
				</g>
				<g>
					<path class="st1" d="M116.9,594.3c-1.9,3.4-4.5,6.5-6.6,6.5c-4.8,0-8.7-4.6-9.1-5.1c-0.6-0.8-1-1.9-1-3.4
						c0-2.1,0.8-4.5,2.1-6.6"/>
					<path class="st1" d="M117.1,594.1c-0.9,1.7-2.2,3.2-3.6,4c-2.6,1.5-4.8,0.3-4.8-2.7c0-1.6,0.6-3.5,1.6-5.1"/>
				</g>
				<g>
					<g>
						<path class="st2" d="M129,377.3c1.3,0,2.4-1.1,2.4-2.4v-55.6c0-6.9,5.1-15.7,11.1-19.1l13.9-8c2.5-1.4,4.8-1.7,6.3-0.9
							c1.5,0.9,2.4,3,2.4,5.8v55.6c0,1.3,1.1,2.4,2.4,2.4c1.3,0,2.4-1.1,2.4-2.4V297c0-4.7-1.7-8.2-4.8-10
							c-3.1-1.8-7.1-1.5-11.2,0.9l-13.9,8c-7.6,4.4-13.5,14.6-13.5,23.4v55.6C126.5,376.2,127.6,377.3,129,377.3z"/>
					</g>
					<g>
						<path class="st9" d="M129,335c2.7,0,4.9-2.2,4.9-4.9v-10.9c0-4.1,2.1-9.3,5.4-13.2c1.4-1.7,2.9-3,4.5-3.9l13.9-8
							c1.3-0.8,2.2-1,2.8-1c0.8-0.1,1.1,0.2,1.2,0.3c0.5,0.4,1,1.6,1,3.6v10.9c0,2.7,2.2,4.9,4.9,4.9c2.7,0,4.9-2.2,4.9-4.9V297
							c0-5.8-2.3-9-4.1-10.8c-2.3-2.1-5.4-3.1-8.7-2.8c-2.2,0.2-4.5,1-6.8,2.3l-13.9,8c-2.5,1.5-4.9,3.5-7,6
							c-4.8,5.6-7.7,13.1-7.7,19.5v10.9C124.1,332.8,126.3,335,129,335z"/>
					</g>
				</g>
				<path class="st1" d="M126.2,371.1l-5.9,3.4c-14.2,8.2-25.7,28.1-25.7,44.4v149.8c0,8,2.8,13.7,7.3,16.4
					c4.7,2.8,64.8,37.1,64.8,37.1"/>
				<line class="st1" x1="164.5" y1="349" x2="131.6" y2="368"/>
				<path class="st1" d="M268.1,373.3c0,0-61.3-35.7-66.4-38.1c-4.6-2.2-10.7-1.6-17.3,2.3l-14.1,8.2"/>
				<g>
					<path class="st2" d="M167.8,387.6c1.1,0.6,2.3,0.6,3.4,0l0.2-0.1c1.3-0.7,2.3-1.9,2.9-3.3l0.2-0.4c2.5-5.6,6.6-10.5,11-13
						l5.5-3.1c4.4-2.5,8.5-2.4,11,0.3c0,0,1.4,1,2.2,0.6c0.3-0.2,0.6-0.3,0.9-0.5c0.8-0.5,0.1-1.2,0.1-1.2l-1.7-1.9
						c-1.4-1.5-6.8-4.5-7.7-4.9c-2.7-1.2-6.2-0.8-9.9,1.3l-7.4,4.2c-4.9,2.8-9.4,8.2-12.2,14.5l-1.8,4c-0.3,0.7,0,1.6,0.7,2
						L167.8,387.6z"/>
					<path class="st2" d="M169.7,388.1c-0.2,0,0-0.9,0.1-1.1c0.4-1.5,0.6-2.4,2.5-5.8c0.9-1.7,4-6.5,5.9-9c2-2.5,13.1-8.3,15.8-9.2
						c2.8-1,5-0.4,7.2,0.6c0.3,0.1,0.6,0.3,0.9,0.4"/>
				</g>
				<path class="st5" d="M185.4,620.8l64.1-37c14.2-8.2,25.7-28.1,25.7-44.4V389.6c0-16.3-11.5-22.9-25.7-14.7l-64.1,37
					c-14.2,8.2-25.7,28.1-25.7,44.4v149.8C159.7,622.4,171.3,629,185.4,620.8z"/>
				<g>
					<path class="st4" d="M268.6,461v71.2c0,13.4-9.4,29.7-21.1,36.4l-52.6,30.4c-11.6,6.7-21.1,1.3-21.1-12.1v-71.2L268.6,461z"/>
					<path class="st4" d="M177.2,598.2c-4.5-1.9-7.3-6.8-7.3-14.1v-71.2l94.7-54.7l3.9,2.8l-94.7,54.7l-3.9-2.8"/>
				</g>
				<polygon class="st2" points="176.1,468.5 258.5,420.9 258.5,415.6 176.1,463.2 				"/>
			</g>
		</g>
		<g>
			<path class="st0" d="M537.2,552l-4.2-2.4l-2.4,5.6l-3.4,4L409.9,627l-6-1.2l-2.3-3.4v-7.3L322.6,661v-5.2l-8.9,5.1l10.2,5.9
				l73.5-42.5c0.2,1,0.9,1.9,2.1,2.6l4.2,2.4c2.9,1.7,7.6,1.7,10.5,0l122.9-71.2C540.1,556.4,540.1,553.7,537.2,552z"/>
			<polyline class="st2" points="349.2,431.2 349.2,386.4 504.5,296.7 504.5,366.6 			"/>
			<line class="st2" x1="349.2" y1="550.2" x2="349.2" y2="498.1"/>
			<g>
				<polyline class="st2" points="401.2,480.2 365.1,501.1 365.1,474.1 				"/>
				<polyline class="st2" points="403.6,393.4 435.5,374.9 435.5,410.5 				"/>
				<polygon class="st2" points="488.6,351.6 446.6,376.1 446.6,370.2 488.6,345.7 				"/>
				<polyline class="st2" points="446.6,399.7 446.6,393.8 488.6,369.3 488.6,373.3 				"/>
				<polygon class="st12" points="488.6,397 446.6,421.4 446.6,415.5 488.6,391.1 				"/>
				<polyline class="st2" points="401.2,505 365.1,526 365.1,520.1 401.1,499.2 				"/>
			</g>
			<g>
				<polyline class="st1" points="401,615.7 322.6,661 322.6,566.1 401.2,520.7 				"/>
				<g>
					<polygon class="st9" points="380.6,612.7 338.6,637.2 338.6,631.3 380.6,606.8 					"/>
				</g>
				<g>
					<polygon class="st9" points="401.2,580.3 338.6,616.6 338.6,610.7 401.2,574.4 					"/>
				</g>
				<g>
					<polyline class="st2" points="401.2,562.5 338.6,598.8 338.6,574.2 401.2,537.8 					"/>
				</g>
			</g>
			<g>
				<g>
					<path class="st5" d="M401.5,621.8V434.4c0-1.4,0.7-2.7,1.9-3.3l109.2-68.9c3.8-2.2,7-0.4,7.3,3.6"/>
					<path class="st4" d="M526.7,369.6c0,0-8.1-4.7-8.3-4.8c-1.3-0.6-3.1-0.5-5,0.6L405.5,432c-1.2,0.7-1.9,2-1.9,3.3"/>
					<path class="st5" d="M525.6,560.5l-114.1,65.9l-1.6,0.7V437l115.7-66.8c4.1-2.3,7.4-0.5,7.4,4.2v173.4
						C532.9,552.5,529.6,558.1,525.6,560.5z"/>
					<g>
						<path class="st9" d="M431.7,475.7v-13.5l3.9-2.2c0.9-0.5,1.7-0.8,2.4-1c0.7-0.1,1.2,0,1.6,0.4c0.4,0.4,0.6,1,0.6,2
							c0,0.6-0.1,1.3-0.2,1.8c-0.1,0.6-0.4,1.2-0.7,1.8c-0.3,0.6-0.8,1.2-1.4,1.7c-0.6,0.6-1.3,1.1-2.2,1.6
							c-0.7,0.4-1.3,0.7-1.8,0.9v5.2L431.7,475.7z M435.4,466.7c0.4-0.3,0.8-0.5,1.2-0.8c0.3-0.3,0.6-0.6,0.8-0.8
							c0.2-0.3,0.3-0.5,0.4-0.8c0.1-0.3,0.2-0.5,0.2-0.8c0-0.2,0.1-0.5,0.1-0.7c0-0.7-0.2-1.2-0.6-1.3c-0.4-0.1-1,0-1.8,0.4l-1.8,1
							v4.7C433.9,467.5,434.4,467.2,435.4,466.7z"/>
						<path class="st9" d="M439.5,471.2l4.3-15.9l2.4-1.4l4.2,11l-2.2,1.3L447,463l-4.1,2.4l-1.2,4.5L439.5,471.2z M443.5,463.2
							l3-1.7c-1-3-1.4-4.5-1.5-4.6L443.5,463.2z"/>
						<path class="st9" d="M454.9,462.5c-1.4,0.8-2.7,1.2-3.8,1.1l0.5-2.3c0.5,0,1,0,1.6-0.2c0.6-0.1,1.2-0.4,1.7-0.7
							c0.7-0.4,1.2-0.9,1.6-1.4c0.4-0.5,0.5-1.1,0.5-1.8c0-0.8-0.5-1.1-1.5-0.9c-0.1,0-0.3,0.1-0.6,0.1c-0.3,0.1-0.6,0.1-0.9,0.2
							c-0.3,0.1-0.5,0.1-0.6,0.1c-1.6,0.3-2.4-0.5-2.4-2.2c0-1.2,0.4-2.4,1.1-3.5c0.8-1.1,1.8-2,3-2.7c1.4-0.8,2.6-1.2,3.6-1.1
							l-0.7,2.2c-1,0.1-2,0.4-2.9,0.9c-0.6,0.4-1.1,0.8-1.5,1.2c-0.3,0.4-0.5,1-0.5,1.6c0,0.7,0.3,1,1,0.9c0.1,0,0.4-0.1,0.9-0.2
							c0.5-0.1,0.8-0.2,1-0.2c1.1-0.2,1.8-0.2,2.3,0.2c0.5,0.3,0.7,1,0.7,2.1c0,1.3-0.4,2.5-1.2,3.6
							C457.3,460.7,456.3,461.7,454.9,462.5z"/>
						<path class="st9" d="M464.4,457c-1.4,0.8-2.7,1.2-3.8,1.1l0.5-2.3c0.5,0,1,0,1.6-0.2c0.6-0.1,1.2-0.4,1.7-0.7
							c0.7-0.4,1.2-0.9,1.6-1.4c0.4-0.5,0.5-1.1,0.5-1.8c0-0.8-0.5-1.1-1.5-0.9c-0.1,0-0.3,0.1-0.6,0.1c-0.3,0.1-0.6,0.1-0.9,0.2
							c-0.3,0.1-0.5,0.1-0.6,0.1c-1.6,0.3-2.4-0.5-2.4-2.2c0-1.2,0.4-2.4,1.1-3.5c0.8-1.1,1.8-2,3-2.7c1.4-0.8,2.6-1.2,3.6-1.1
							l-0.7,2.2c-1,0.1-2,0.4-2.9,0.9c-0.6,0.4-1.1,0.8-1.5,1.2c-0.3,0.4-0.5,1-0.5,1.6c0,0.7,0.3,1,1,0.9c0.1,0,0.4-0.1,0.9-0.2
							c0.5-0.1,0.8-0.2,1-0.2c1.1-0.2,1.8-0.2,2.3,0.2c0.5,0.3,0.7,1,0.7,2.1c0,1.3-0.4,2.5-1.2,3.6
							C466.8,455.3,465.7,456.2,464.4,457z"/>
						<path class="st9" d="M470.5,453.2v-13.5l3.9-2.2c0.9-0.5,1.7-0.8,2.4-1c0.7-0.1,1.2,0,1.6,0.4c0.4,0.4,0.6,1,0.6,2
							c0,0.6-0.1,1.3-0.2,1.8c-0.1,0.6-0.4,1.2-0.7,1.8c-0.3,0.6-0.8,1.2-1.4,1.7c-0.6,0.6-1.3,1.1-2.2,1.6
							c-0.7,0.4-1.3,0.7-1.8,0.9v5.2L470.5,453.2z M474.2,444.2c0.4-0.3,0.8-0.5,1.2-0.8c0.3-0.3,0.6-0.6,0.8-0.8
							c0.2-0.3,0.3-0.5,0.4-0.8c0.1-0.3,0.2-0.5,0.2-0.8c0-0.2,0.1-0.5,0.1-0.7c0-0.7-0.2-1.2-0.6-1.3c-0.4-0.1-1,0-1.8,0.4l-1.8,1
							v4.7C472.7,445.1,473.3,444.8,474.2,444.2z"/>
						<path class="st9" d="M485.7,444.7c-1.8,1-3.1,1.2-4.2,0.6c-1-0.6-1.5-2-1.5-4.2c0-2.2,0.5-4.2,1.5-6c1-1.8,2.4-3.2,4.2-4.2
							c1.8-1,3.1-1.2,4.2-0.6c1,0.6,1.5,2,1.5,4.2c0,2.1-0.5,4.1-1.5,5.9C488.9,442.2,487.5,443.7,485.7,444.7z M483.2,442.8
							c0.6,0.5,1.4,0.4,2.6-0.2c1.1-0.7,2-1.6,2.6-2.8c0.6-1.2,0.9-2.5,0.9-4.1c0-1.6-0.3-2.6-0.9-3.1c-0.6-0.5-1.4-0.5-2.6,0.2
							c-1.1,0.7-2,1.6-2.6,2.8c-0.6,1.2-0.9,2.6-0.9,4.1C482.3,441.3,482.6,442.3,483.2,442.8z"/>
						<path class="st9" d="M493.4,440v-13.5l4.3-2.5c0.6-0.3,1.1-0.6,1.5-0.8c0.4-0.2,0.8-0.3,1.2-0.4c0.4-0.1,0.7,0,0.9,0.1
							c0.2,0.1,0.4,0.4,0.6,0.7c0.1,0.4,0.2,0.8,0.2,1.4c0,1.8-0.7,3.4-2.1,4.7c0.3,0.2,0.6,0.7,1.1,1.5l1.7,3.1l-2.4,1.4l-1.4-2.7
							c-0.5-1-0.8-1.5-1-1.7c-0.1,0-0.4,0.2-0.9,0.5l-1.8,1v5.8L493.4,440z M498,429.9c0.8-0.5,1.4-1,1.8-1.5
							c0.4-0.5,0.5-1.2,0.5-1.9c0-0.7-0.2-1-0.5-1.1c-0.4-0.1-0.9,0.1-1.7,0.5l-2.5,1.4v4.1c0.1,0,0.5-0.3,1.2-0.7
							C497.5,430.2,497.9,429.9,498,429.9z"/>
						<path class="st9" d="M506.9,432.3v-11.4l-3.4,2v-2l9-5.2v2l-3.4,2V431L506.9,432.3z"/>
					</g>
					<g>
						<g>
							<path class="st13" d="M443.5,556.7c-4.9-4.4-7.5-11.6-7.5-20.7c0-22.1,15.7-49.2,34.9-60.3c8.4-4.8,16.6-6.1,23-3.5l-0.6,1.6
								c-6-2.4-13.6-1.1-21.5,3.4C453,488,437.7,514.4,437.7,536c0,8.6,2.4,15.4,6.9,19.5L443.5,556.7z"/>
						</g>
						<g>
							<path class="st13" d="M455.9,561.3c-2.5,0-5-0.4-7.2-1.3l0.6-1.6c6,2.4,13.6,1.2,21.6-3.4c18.8-10.8,34.1-37.2,34.1-58.8
								c0-8.6-2.4-15.4-6.9-19.5l1.1-1.3c4.9,4.4,7.5,11.6,7.5,20.7c0,22.1-15.7,49.2-34.9,60.3
								C466.3,559.6,460.8,561.3,455.9,561.3z"/>
						</g>
						<g>
							<path class="st13" d="M466.6,558c-1.5,0-3-0.4-4.3-1.2c-6.3-3.6-10.1-15.1-10.1-30.1c0-22.1,8.4-45,18.8-51
								c3.3-1.9,6.6-2,9.5-0.3c6.3,3.6,10.1,15.1,10.1,30.1c0,22.1-8.4,45-18.8,51C470.1,557.5,468.3,558,466.6,558z M476.2,475.8
								c-1.4,0-2.9,0.4-4.4,1.3c-9.9,5.7-18,28-18,49.5c0,14.3,3.6,25.3,9.3,28.6c2.4,1.4,5,1.3,7.8-0.3c9.9-5.7,18-27.9,18-49.5
								c0-14.3-3.6-25.3-9.3-28.6C478.5,476.2,477.4,475.8,476.2,475.8z"/>
						</g>
						<g>
							<rect x="470.5" y="476.4" class="st13" width="1.7" height="79.3"/>
						</g>
						<g>
							<path class="st13" d="M447.7,546c-2.9,0-5.3-0.5-7.2-1.6c-2.9-1.7-4.4-4.6-4.4-8.3c0-11.9,15.7-30.7,34.9-41.8
								c13.1-7.5,25.1-10,31.3-6.4c2.9,1.7,4.4,4.6,4.4,8.3c0,11.9-15.7,30.7-34.9,41.8C462.8,543.2,454.2,546,447.7,546z
								 M495,487.8c-6.1,0-14.4,2.7-23.2,7.8c-18.8,10.8-34.1,28.9-34.1,40.3c0,3.2,1.2,5.5,3.6,6.9c5.7,3.3,17.1,0.9,29.6-6.4
								c18.8-10.8,34.1-28.9,34.1-40.3c0-3.2-1.2-5.5-3.6-6.9C499.8,488.3,497.6,487.8,495,487.8z"/>
						</g>
						<g>
							
								<rect x="431.6" y="515.2" transform="matrix(0.8658 -0.5004 0.5004 0.8658 -194.9686 305.1349)" class="st13" width="79.7" height="1.7"/>
						</g>
						<path class="st9" d="M497.5,472.7c0.4,0.4,0.3,1.4-0.3,2.2c-0.6,0.8-1.4,1.2-1.8,0.7c-0.4-0.4-0.3-1.4,0.3-2.2
							C496.3,472.6,497.1,472.3,497.5,472.7z"/>
						<path class="st9" d="M447.3,556.6c0.4,0.4,0.3,1.4-0.3,2.2c-0.6,0.8-1.4,1.2-1.8,0.7c-0.4-0.4-0.3-1.4,0.3-2.2
							C446.1,556.5,446.9,556.2,447.3,556.6z"/>
					</g>
					<path class="st1" d="M401.5,622.5c0,0,0.2,1.6,2,3.2c1.1,0.9,3.2,1.3,4.7,1.5c0.8,0.1,1.6-0.1,1.6-0.1V437c0,0-3-0.3-5.1-1.3
						c-0.9-0.5-3.6-2-2.3-3.8c-1.1,1.2-0.9,3.1-0.9,3.1V622.5z"/>
				</g>
			</g>
			<g>
				<g>
					<polyline class="st5" points="388.4,392.6 378.9,387.3 340,454.7 					"/>
					<polyline class="st5" points="309.6,468.6 300.1,463.2 313.5,440.1 323,445.5 					"/>
				</g>
				<polygon class="st5" points="362.8,467.9 401.8,400.3 388.4,392.6 349.3,460.3 323,445.5 309.6,468.6 341.9,486.7 349.4,491 
					352.6,485.4 362.8,467.9 				"/>
			</g>
		</g>
		<g>
			<polygon class="st0" points="238.7,771.6 224,781.1 467.1,924.7 650.2,814.9 636.8,806.8 636.8,810.3 464.6,908.5 461.1,908.1 
				239.5,780.1 238.7,775.8 			"/>
			<g>
				<g>
					<path class="st14" d="M636.8,794.9c0,0.1,0,0.2,0,0.3L636.8,794.9L636.8,794.9z"/>
					<g>
						<path class="st1" d="M431,674.7l-14.8-8.4c-2.6-1.5-6.4-1.6-8.6-0.4l-32,18.8"/>
						<path class="st1" d="M278.3,740.3l-38.1,22.3c-2.2,1.3-1.9,3.5,0.6,5l218.5,126.2c2.6,1.5,6.4,1.6,8.6,0.4l167.4-96.6
							c2.2-1.3,1.9-3.5-0.6-5l-72.1-41.6"/>
					</g>
					<g>
						<g>
							<polyline class="st2" points="419.2,687.5 403.7,678.5 383.1,690.4 							"/>
							<polyline class="st2" points="287.5,745.6 260.9,760.9 456.8,874 599.5,791.6 561.9,769.8 							"/>
						</g>
					</g>
					<g>
						<path class="st4" d="M271.3,730.1l0,5.4c0.1,0.5,0.4,1,1.1,1.4l17.1,9.8c1.5,0.8,3.8,0.8,5.3,0l86.8-50.1
							c0.7-0.4,1-0.9,1.1-1.5V690 M288.8,703.4c0,0,0,8,0,8c0,2.2,0.9,4.4,2.4,6.4 M307.5,707.6c0.4-0.3,0.8-0.6,1.3-0.9
							c4.2-2.4,11.1-2.4,15.3,0c0.5,0.3,0.9,0.6,1.3,0.9"/>
						<g>
							<path class="st4" d="M272.4,731.8l17.1,9.8c1.5,0.8,3.8,0.8,5.3,0l86.8-50.1c1.5-0.8,1.5-2.2,0-3l-17.1-9.8
								c-1.5-0.8-3.8-0.8-5.3,0l-23.7,13.7c-11-5.8-27.9-5.6-38.5,0.5c-10.6,6.1-10.9,15.9-0.9,22.2l-23.7,13.7
								C270.9,729.6,270.9,731,272.4,731.8z M308.8,708.5c-4.2-2.4-4.2-6.4,0-8.9c4.2-2.4,11.1-2.4,15.3,0c4.2,2.4,4.2,6.4,0,8.9
								C319.9,710.9,313,711,308.8,708.5z"/>
						</g>
					</g>
					<path class="st1" d="M636.8,796.8c0,0,0,12.2,0,12.2c-0.1,0.7-0.5,1.5-1.5,2l-167.4,96.6c-0.4,0.2-0.8,0.4-1.2,0.5
						c-1.7,0.5-3.8,0.5-5.6-0.1c-0.6-0.2-1.3-0.4-1.8-0.8L240.8,781.1c-1.4-0.8-2.1-1.8-2.1-2.8v-13.8"/>
					<g>
						<g>
							<line class="st2" x1="400.1" y1="706.9" x2="358.3" y2="731"/>
						</g>
						<g>
							<line class="st2" x1="418.1" y1="712.9" x2="316.4" y2="771.6"/>
						</g>
						<g>
							<line class="st2" x1="426" y1="724.8" x2="330.6" y2="779.8"/>
						</g>
						<g>
							<line class="st2" x1="411.3" y1="751.5" x2="392.6" y2="762.2"/>
						</g>
						<g>
							<line class="st2" x1="457.3" y1="820.7" x2="433.7" y2="834.3"/>
							<line class="st2" x1="441.4" y1="811.8" x2="417.8" y2="825.5"/>
							<line class="st2" x1="424.4" y1="803.5" x2="400.8" y2="817.1"/>
						</g>
					</g>
				</g>
			</g>
			<g>
				<path class="st0" d="M553.7,780.6l-1.3,4.3l-4.4,7.6l-6.6,6.2l-9.3,5.5l-16.6,6l-15,1.6l-14.6-0.1l-16.2-3.1l-10.2-3.5l-9.6-5.2
					l-8-7l-3.2-4.5c-0.8,1.7-1.2,3.5-1.2,5.4c0,15.1,27.7,27.4,61.9,27.4s61.9-12.3,61.9-27.4C561.2,789,558.5,784.5,553.7,780.6z"
					/>
				<g>
					<g>
						<path class="st4" d="M543.5,694.8v9c1.1,8.4-3.1,17-13,24c-20.5,14.6-57.7,16.8-82.9,4.9c-13.4-6.3-20.8-15.3-21.6-24.6
							l-0.1-13.4"/>
						<path class="st4" d="M447.7,723.3c-25.2-11.8-29-33.3-8.6-47.8c20.5-14.6,57.7-16.8,82.9-4.9c25.2,11.8,29,33.3,8.6,47.8
							C510.1,732.9,472.9,735.1,447.7,723.3z M517.3,673.8c-22-10.3-54.5-8.4-72.4,4.3c-17.9,12.7-14.5,31.5,7.5,41.8
							c22,10.3,54.5,8.4,72.4-4.3C542.7,702.9,539.3,684.2,517.3,673.8z"/>
					</g>
					<g>
						<path class="st10" d="M512.9,694.1c0,0.7-0.2,1.5-0.5,2.2l-0.3,0.7l-7.6-1.7l0.1-0.5c0.3-2.2-1.9-5.1-5.4-7.1
							c-5.6-3.3-10.8-4-14.1-2.1c-2,1.2-1.9,2.6-0.6,4.1c1,1.2,2.7,2.5,4.7,3.9c5.7,4.2,10.4,8.2,8.5,12.1c-0.6,1.2-1.8,2.4-3.8,3.6
							c-7.2,4.1-17,2.6-23.7-0.7l-0.3-0.2l-5.2,3l-6.2-3.6l2.2-1.3l2.8-1.6l-0.3-0.2c-2.5-1.7-6.2-4.9-6.4-8.7v-0.6
							c0-0.9,0.3-1.9,0.8-2.9l0.3-0.6l8.1,1.9l-0.2,0.5c-0.4,1.1-0.3,2.2,0.2,3.4c0.9,2.1,3.1,4.2,5.5,5.5
							c5.9,3.4,11.9,4.2,15.7,2.1c0.3-0.2,0.6-0.4,0.8-0.6c2-1.8,0.4-4.4-4.9-8.3c-4.7-3.4-8.5-6.5-8.5-9.6c0-0.1,0-0.1,0-0.2
							c0.1-1.7,1.3-3.3,4.2-5c8.4-4.8,19.4-0.5,22.6,1l0.3,0.1l4.5-2.6l6.2,3.6l-3.3,1.9l-1.3,0.7l0.2,0.2c0.9,0.7,1.7,1.4,2.3,2.1
							c1.6,1.7,2.4,3.3,2.5,5C512.9,694,512.9,694.1,512.9,694.1z"/>
					</g>
				</g>
				<g>
					<g>
						<path class="st4" d="M569.7,711.5v9c1.1,8.4-3.1,17-13,24c-20.5,14.6-57.7,16.8-82.9,4.9c-7.8-3.6-13.5-8.2-17.1-13.2"/>
						<path class="st4" d="M539.2,683.7c3.1,1,6.1,2.1,8.9,3.5c25.2,11.8,29,33.3,8.6,47.8c-20.5,14.6-57.7,16.8-82.9,4.9"/>
					</g>
				</g>
				<g>
					<g>
						<path class="st4" d="M553.6,746.5c0.3,7.8-4,15.6-13.1,22.1c-20.5,14.6-57.7,16.8-82.9,4.9c-13.4-6.3-20.8-15.3-21.6-24.6
							h-0.1v-13.4"/>
						<path class="st4" d="M551,747.8c-2.2,4-5.7,7.8-10.5,11.3c-20.5,14.6-57.7,16.8-82.9,4.9c-19.2-9-26-23.7-19.1-36.6"/>
					</g>
				</g>
				<g>
					<g>
						<path class="st4" d="M536.1,771.4c-2.2,3.4-5.3,6.6-9.5,9.5c-20.5,14.6-57.7,16.8-82.9,4.9c-13.4-6.3-20.8-15.3-21.6-24.6H422
							v-13.4"/>
						<path class="st4" d="M507.2,780.4c-20.1,5.8-45,4.6-63.4-4c-23.8-11.2-28.5-30.9-11.8-45.3"/>
					</g>
				</g>
				<g>
					<g>
						<path class="st4" d="M553.5,766.4v9c1.1,8.4-3.1,17-13,24c-20.5,14.6-57.7,16.8-82.9,4.9c-12.4-5.8-19.6-13.9-21.3-22.4"/>
						<path class="st4" d="M550.7,757.8c6.1,10.6,2.9,22.8-10.2,32.1c-20.5,14.6-57.7,16.8-82.9,4.9c-5.1-2.4-9.3-5.2-12.6-8.2"/>
					</g>
				</g>
			</g>
		</g>
		<path class="st15" d="M202.1,242.9c6.9,11.2,18.3,21.6,34.1,30.6c56.3,31.9,147.6,31.9,203.9,0c12.3-7,22-14.9,28.9-23.4"/>
		<ellipse class="st9" cx="200.9" cy="233.8" rx="11.6" ry="6.7"/>
		<path class="st9" d="M460.8,242.5c4.5,2.6,11.9,2.6,16.4,0c4.5-2.6,4.5-6.9,0-9.5c-4.5-2.6-11.9-2.6-16.4,0
			C456.2,235.6,456.2,239.9,460.8,242.5z"/>
		<path class="st16" d="M635.4,560.2l-91.9,53c-22.5,13-58.9,13-81.3,0"/>
		<line class="st17" x1="625.6" y1="630.2" x2="542.8" y2="678"/>
		<line class="st16" x1="310.1" y1="590.8" x2="192.3" y2="658.8"/>
		<polygon class="st9" points="197.7,661.4 188.1,654.7 186.9,662.3 		"/>
		<polygon class="st9" points="629.5,557.3 639.7,563.2 641.2,556.4 		"/>
		<g>
			<line class="st18" x1="100.2" y1="244.9" x2="100.2" y2="254.3"/>
			<line class="st18" x1="100.2" y1="264.4" x2="100.2" y2="273.8"/>
			<line class="st18" x1="85.7" y1="259.4" x2="95.2" y2="259.4"/>
			<line class="st18" x1="105.2" y1="259.4" x2="114.7" y2="259.4"/>
		</g>
		<line class="st19" x1="755.5" y1="206.4" x2="755.5" y2="96"/>
		<polygon class="st20" points="751.4,90.2 761.6,96 756.5,86.4 		"/>
		<line class="st19" x1="811" y1="273" x2="811" y2="202.6"/>
		<polygon class="st20" points="806.9,196.7 817,202.6 811.9,193 		"/>
		<g>
			<line class="st17" x1="254" y1="672.9" x2="175.3" y2="718.3"/>
			<line class="st17" x1="314.7" y1="637.9" x2="266.1" y2="665.9"/>
			<polygon class="st20" points="180.7,720.9 171.1,714.2 169.9,721.8 			"/>
			<path class="st2" d="M254.5,672.9c3.2,1.8,8.3,1.8,11.5,0c3.2-1.8,3.2-4.8,0-6.6c-3.2-1.8-8.3-1.8-11.5,0
				C251.3,668.1,251.3,671.1,254.5,672.9z"/>
		</g>
	</g>
</g>
</svg>
