<?xml version="1.0" encoding="utf-8"?>
<!-- Generator: Adobe Illustrator 26.0.3, SVG Export Plug-In . SVG Version: 6.00 Build 0)  -->
<svg version="1.1" id="Layer_1" xmlns="http://www.w3.org/2000/svg" xmlns:xlink="http://www.w3.org/1999/xlink" x="0px" y="0px"
	 viewBox="0 0 516.3 509.2" style="enable-background:new 0 0 516.3 509.2;" xml:space="preserve">
<style type="text/css">
	.st0{fill:none;stroke:#6F6F6F;stroke-width:3;stroke-linejoin:round;stroke-miterlimit:10;}
	.st1{fill:none;stroke:#6F6F6F;stroke-width:3;stroke-miterlimit:10;}
	.st2{fill:none;stroke:#5D91C7;stroke-width:3;stroke-miterlimit:10;}
	.st3{fill:none;stroke:#5D91C7;stroke-width:3;stroke-miterlimit:10;stroke-dasharray:4,4;}
	.st4{fill:#5D91C7;}
	.st5{fill:none;stroke:#6F6F6F;stroke-width:4;stroke-miterlimit:10;}
	.st6{fill:none;stroke:#6F6F6F;stroke-width:4;stroke-miterlimit:9.9999;}
	.st7{fill:#FFFFFF;stroke:#5D91C7;stroke-miterlimit:10;}
	.st8{fill:none;stroke:#6F6F6F;stroke-width:3;stroke-miterlimit:10;stroke-dasharray:4,4;}
</style>
<g>
	<g>
		<line class="st0" x1="41.6" y1="326.3" x2="41.6" y2="336.3"/>
		<line class="st0" x1="58.1" y1="341.8" x2="48.1" y2="341.8"/>
		<line class="st0" x1="41.6" y1="357.3" x2="41.6" y2="348.3"/>
		<line class="st0" x1="26.1" y1="341.8" x2="36.1" y2="341.8"/>
	</g>
	<g>
		<g>
			<polyline class="st1" points="440.6,375.3 440.6,476.8 327.1,476.8 			"/>
			<polyline class="st1" points="337.1,344.2 372.9,314.2 385.5,325.2 			"/>
			<polyline class="st1" points="387.6,312.6 372.9,299.5 344.8,323.1 			"/>
			<rect x="326.6" y="379.8" class="st1" width="38" height="53"/>
			<line class="st1" x1="345.6" y1="380.3" x2="345.6" y2="416.3"/>
			<line class="st1" x1="326.1" y1="415.8" x2="364.1" y2="415.8"/>
			<polyline class="st1" points="403.1,379.8 381.6,379.8 381.6,432.8 419.6,432.8 419.6,392.3 			"/>
			<line class="st1" x1="419.1" y1="415.8" x2="381.1" y2="415.8"/>
			<line class="st1" x1="326.1" y1="453.8" x2="440.1" y2="453.8"/>
			<circle class="st1" cx="373.1" cy="348.3" r="10.5"/>
			<polyline class="st1" points="440.1,463.8 478.6,463.8 478.6,476.8 440.1,476.8 			"/>
			<line class="st1" x1="448.8" y1="377.9" x2="478.3" y2="388.4"/>
			<line class="st1" x1="471.6" y1="386.3" x2="471.6" y2="464.3"/>
			<polyline class="st2" points="406.6,365.3 406.6,329.8 452.6,329.8 452.6,365.3 			"/>
			<polyline class="st2" points="444.6,329.3 444.6,316.8 414.6,316.8 414.6,329.3 			"/>
			<line class="st2" x1="429.6" y1="316.3" x2="429.6" y2="304.3"/>
			<polyline class="st2" points="453.1,343.8 484.6,343.8 484.6,365.3 			"/>
			<line class="st2" x1="419.1" y1="341.8" x2="440.1" y2="341.8"/>
			<line class="st3" x1="419.1" y1="354.8" x2="440.1" y2="354.8"/>
			<path class="st1" d="M490.2,284.8H400c-3.5,0-6.4,2.9-6.4,6.4v67.2c0,3.5,2.9,6.4,6.4,6.4h10.6v22.5l26.4-22.5h53.3
				c3.5,0,6.4-2.9,6.4-6.4v-67.2C496.6,287.7,493.7,284.8,490.2,284.8z"/>
		</g>
	</g>
	<g>
		<g>
			<path class="st2" d="M393.1,161.8h108.5c2.8,0,5,2.2,5,5v3h-118v-6.5"/>
			<line class="st2" x1="447.6" y1="169.3" x2="447.6" y2="260.3"/>
			<path class="st2" d="M435.9,260.4c0,0,0-5.7-1.9-7.6c-1.9-1.9-11.5,0-13.4-5.7v-2.7"/>
			<path class="st2" d="M409.6,244.3v6.5c-1,3.3-1.7,7.2-0.7,9.5"/>
			<path class="st2" d="M395.4,98.7c-0.1,0.2-0.3,0.5-0.5,0.7L393,102c-0.3,0.4-0.5,1-0.4,1.5l0.5,3.2c0.1,0.4-0.2,0.9-0.6,1.1
				l-1.7,0.8l-3.6,5.4c-0.3,0.5-0.9,0.8-1.4,0.9c-0.6,0.1-1.3,0-1.8-0.3l-1.2-0.8c-1-0.6-2.3-0.5-3.1,0.4c-0.7,0.7-2.1,4.6-2.5,5.6"
				/>
			<path class="st2" d="M369.3,107c-1.2-0.2-2.1-1.2-2-2.5c0-3.1,0.1-7.8,1-10.2c1.2-3.2,2-4.9,4.7-7.2c6-5.1,14.2-3.1,17.2-1.4
				c4.9,2.8,7.7,8.5,6.4,12.5c-3,1.1-7,0.7-9.7,0.9c-0.9-0.6-2.3-2.5-4.5-1.4c-1,0.5-4.1,3-2,5.6l-2.6,3.4c-1,1.3-2.7,1.9-4.2,1.4
				L369.3,107z"/>
			<line class="st2" x1="365.1" y1="116.3" x2="369.3" y2="105.7"/>
			<path class="st2" d="M427,155.1c0,0,0-3.2-3.2-4.8c-4.5-2.3-11.6-4.2-14.6-2.2c-2.7,1.7-16.7,2.3-26.5,4.9
				c-1.3,0.3-2.5-0.7-2.4-2c0.7-6,0.9-18.9-0.1-24.6c-1-5.4-5.3-11.3-10.7-11.2c-7.2,0.2-14.4,6.2-16.9,23.8c-0.5,3.3-1,10-1.6,16.8
				"/>
			<path class="st2" d="M363.9,126.9c0.4,12.4,7,38.8,12.2,38.1c8.8,0.4,33.3-8.8,37.2-10.5"/>
			<line class="st2" x1="406" y1="148.2" x2="407.9" y2="155.8"/>
			<polyline class="st2" points="349.1,175.8 375.1,175.8 377.3,165.1 			"/>
			<path class="st2" d="M375.1,175.5l34.8,5.8c4.5,0.8,8,4.5,8.6,9.1l4.3,53.5H408l-4.8-41.3"/>
			<line class="st2" x1="366.6" y1="253.3" x2="366.6" y2="204.3"/>
			<line class="st2" x1="374.6" y1="204.3" x2="374.6" y2="253.3"/>
			<path class="st2" d="M394.6,260.3v-3.5c0-1.6-1.3-3-3-3h-43c-1.6,0-3,1.3-3,3v3.5"/>
			<path class="st2" d="M343.6,188.1c-3.5,0.4-6.7-2.2-7.1-5.7l-7.4-68.1c-0.1-0.8,0.5-1.4,1.2-1.5l1.4-0.2
				c5.5-0.6,10.5,3.4,11.1,8.9l6.5,59.5C349.7,184.5,347.1,187.7,343.6,188.1z"/>
			<path class="st2" d="M393.6,191.8h-42.9c-5.6,0-10.2,4.6-10.2,10.2c0,1.6,1.2,2.8,2.7,2.8h58c1.4,0,2.6-1.1,2.6-2.5
				C403.9,196.5,399.3,191.8,393.6,191.8z"/>
			<line class="st2" x1="344.7" y1="188.1" x2="345.9" y2="193.3"/>
			<line class="st2" x1="450.8" y1="121.7" x2="438.1" y2="161.5"/>
			<line class="st2" x1="413.1" y1="154.8" x2="441.1" y2="154.8"/>
			<path class="st2" d="M452.6,161.3v-3.6c0-1.6,1.3-2.9,2.9-2.9h23.2c1.6,0,2.9,1.3,2.9,2.9v3.6"/>
			<path class="st2" d="M466.6,153.3v-32.8c0-2.2-1.3-4.2-3.3-5.1l-46-20.8"/>
			<path class="st2" d="M443.1,106.6l-1.4,3.2c-0.7,1.4-2.3,2.1-3.8,1.4l-18-8.1c-1.4-0.7-2.1-2.3-1.4-3.8l1.4-3.2"/>
			<line class="st1" x1="341.1" y1="259.8" x2="473.1" y2="259.8"/>
		</g>
	</g>
	<g>
		<g>
			<path class="st4" d="M311.9,222.3H207.2c-4,0-7.2,3.2-7.2,7.2v68.7c0,4,3.2,7.2,7.2,7.2h7.8V332l6-5.7v-75.7l7.2-5.3l90.8-1
				v-14.8C319.1,225.5,315.9,222.3,311.9,222.3z"/>
			<path class="st4" d="M313.8,501.3H135.3c-5.1,0-9.3-4.2-9.3-9.3v-7.7h197v7.7C323.1,497.2,318.9,501.3,313.8,501.3z"/>
			<path class="st4" d="M310.1,485.3h-167c-3.3,0-6-2.7-6-6v-97c0-3.3,2.7-6,6-6h167c3.3,0,6,2.7,6,6v97
				C316.1,482.6,313.4,485.3,310.1,485.3z"/>
			<path class="st4" d="M82.9,199.6c0,0,1.2-23.3,19.5-27.8s33.1-2.7,45.7,11c12.5,13.7,12.6,31.7,12.6,31.7L82.9,199.6z"/>
			<path class="st4" d="M52.1,273.1c0,0-1.9-39.1,5.8-50.5c7.6-11.3,18.6-32.3,47-33.5s57.3,7.2,67.7,31.2
				c10.4,24.1,4.2,58.5,4.2,58.5l-11.4-5.8l-9-0.5l-27.2-21.8l-5.2-7.9l-23.7,17.6l-16.4,7.1l-15,2.9l-13.7,2L52.1,273.1z"/>
			<path class="st5" d="M158.1,272.3h8.1c5.7,0,10,5.2,8.9,10.7l-1.8,9.6c-0.8,4.3-3.6,8-7.6,9.9l-6.8,1.5"/>
			<path class="st5" d="M119.3,309.7c-2.1-2-5.1-3.3-8.4-3.3s-6.3,1.2-8.4,3.3"/>
			<path class="st5" d="M118.5,334.3c-1.9,1.5-4.4,2.4-7.1,2.4c-2.8,0-5.4-1-7.3-2.6"/>
			<path class="st5" d="M93.6,324.7c6.4,1.5,11.7-1.1,11.7-1.1l6,2.9l6.1-2.9c0,0,5.2,2.7,11.7,1"/>
			<line class="st5" x1="134.1" y1="358.3" x2="134.1" y2="346.3"/>
			<path class="st5" d="M63.1,272.3h-7.9c-5.7,0-10,5.2-8.9,10.7l1.8,9.6c0.8,4.3,3.6,8,7.6,9.9l6.8,1.5"/>
			<path class="st5" d="M147.5,195.5c0-16.7-13.5-30.2-30.2-30.2h-12.1c-16.7,0-30.2,12-30.2,28.7"/>
			<path class="st5" d="M173.1,275.3v-28.7c0-31.9-23.7-59.3-55.4-62.8C80,179.7,48.1,209.1,48.1,246v29.4"/>
			<path class="st5" d="M144,216.2c0,0-23.7,50.4-83.1,56.4"/>
			<path class="st5" d="M125.4,242.9c0,0,11.9,20.8,35.6,29.7v19.9c-0.9,17.7-8,34.5-20.1,47.4l-12.4,11.5
				c-5.3,4.9-12.3,7.7-19.5,7.3c-6.6-0.4-12.1-3.2-17.1-7.8L80.2,340c-12.1-13-19.2-29.8-20.1-47.4v-23.2"/>
			<path class="st5" d="M86.1,347.3V358c0,9.4-5.6,17.9-14.3,21.5l-5,2.1c-4.8,2-11.2,4.6-17.8,7.6c-21.8,9.7-35.9,31.2-35.9,55.1
				v23"/>
			<ellipse class="st5" cx="87.6" cy="281.3" rx="13.5" ry="12"/>
			<ellipse class="st5" cx="132.6" cy="281.3" rx="13.5" ry="12"/>
			<path class="st5" d="M102.4,281.5c5.9-3,11.9-3,17.8,0"/>
			<polyline class="st5" points="81.7,373.5 112.8,397.2 121.8,389.6 128.6,383.9 			"/>
			<polyline class="st5" points="69.8,382.4 90.6,409.1 111.3,397.2 			"/>
			<line class="st5" x1="128.6" y1="407" x2="111.5" y2="397.2"/>
			<path class="st5" d="M129.1,477.3V373.6c0-3.5,2.8-6.3,6.3-6.3h165.4c3.5,0,6.3,2.8,6.3,6.3v103.7"/>
			<path class="st5" d="M316.1,476.3h-196v4.8c0,7.3,5.9,13.2,13.2,13.2h169.5c7.3,0,13.2-5.9,13.2-13.2v-4.8H316.1z"/>
			<path class="st5" d="M310.1,233.3v-10.8c0-4-3.2-7.2-7.2-7.2H198.2c-4,0-7.2,3.2-7.2,7.2v68.7c0,4,3.2,7.2,7.2,7.2h7.8v27.2
				l14.3-13.9"/>
			<path class="st5" d="M221.1,321.2v-68.7c0-4,3.2-7.2,7.2-7.2H333c4,0,7.2,3.2,7.2,7.2v68.7c0,4-3.2,7.2-7.2,7.2h-7.8V355
				l-27.6-26.7h-69.2C224.3,328.3,221.1,325.1,221.1,321.2z"/>
		</g>
		<g>
			
				<rect x="204.6" y="412" transform="matrix(0.7071 -0.7071 0.7071 0.7071 -236.6215 277.9542)" class="st6" width="25.2" height="25.2"/>
			<g>
				<path class="st7" d="M254.9,269.4h7.9V285h15v-15.6h7.9V309h-7.9v-17.1h-15V309h-7.9V269.4z"/>
				<path class="st7" d="M294,270c0-2.6,1.9-4.3,4.6-4.3s4.5,1.7,4.5,4.3c0,2.6-1.9,4.3-4.5,4.3C295.9,274.3,294,272.6,294,270z
					 M294.6,279.1h7.9V309h-7.9V279.1z"/>
			</g>
		</g>
	</g>
	<g>
		<g>
			<g>
				<path class="st4" d="M55.6,42.4h3.7l9.1,26.7h-3.6L62.3,61h-9.7L50,69.1h-3.4L55.6,42.4z M53.4,58.3h8.1l-1.3-4.1
					c-1-3-1.8-5.9-2.7-9h-0.1c-0.8,3.1-1.7,6-2.7,9L53.4,58.3z"/>
			</g>
		</g>
		<g>
			<polyline class="st1" points="164.1,124.8 31.6,124.8 31.6,25.8 175.6,25.8 175.6,89.3 			"/>
			<line class="st1" x1="32.1" y1="113.8" x2="163.1" y2="113.8"/>
			<path class="st1" d="M134.6,159.8h-59v-4c0-3.3,2.7-6,6-6h47.1c3.3,0,6,2.7,6,6v4H134.6z"/>
			<path class="st1" d="M89.6,150.3c0,0,5.6-2.5,5.6-10.7c0-8.3-5.6-14-5.6-14"/>
			<path class="st1" d="M119.8,125.5c0,0-5.6,7.2-5.6,14s5.6,10.7,5.6,10.7"/>
			<polyline class="st1" points="75.1,159.8 25.6,159.8 25.6,177.8 71.1,177.8 			"/>
			<polygon class="st1" points="136.6,89.2 128.4,59.8 156.5,71.7 148.1,76.4 158.4,88.1 152.7,93.2 142.4,81.4 			"/>
			<path class="st2" d="M114.6,47.2c-3.5,6.9-12.1,19-22.5,20.7"/>
			<path class="st2" d="M99.1,53.1c4.4,6.4,11.2,13.5,18.9,14.8"/>
			<line class="st2" x1="90.1" y1="47.8" x2="120.1" y2="47.8"/>
			<line class="st2" x1="106.6" y1="41.3" x2="106.6" y2="47.3"/>
			<line class="st2" x1="84.8" y1="43.1" x2="75" y2="69.6"/>
			<line class="st8" x1="47.1" y1="83.8" x2="108.1" y2="83.8"/>
			<line class="st1" x1="88.1" y1="96.8" x2="47.1" y2="96.8"/>
		</g>
	</g>
	<g>
		<g>
			<polyline class="st1" points="329.1,179.8 160.6,179.8 160.6,165.8 329.1,165.8 			"/>
			<polyline class="st1" points="278.6,166.3 278.6,5.8 233.6,5.8 233.6,166.3 			"/>
			<line class="st1" x1="302.1" y1="45.8" x2="278.1" y2="45.8"/>
			<polyline class="st1" points="338.6,103.3 338.6,23.8 301.6,23.8 301.6,166.3 			"/>
			<polygon class="st1" points="231.9,39.2 204.2,30.2 164.5,155.1 192.1,164.1 			"/>
			<line class="st1" x1="239.1" y1="45.8" x2="270.1" y2="45.8"/>
			<line class="st8" x1="239.1" y1="54.8" x2="270.1" y2="54.8"/>
			<line class="st1" x1="278.1" y1="23.8" x2="233.1" y2="23.8"/>
			<line class="st8" x1="245.1" y1="127.8" x2="267.1" y2="127.8"/>
			<line class="st1" x1="278.1" y1="148.8" x2="233.1" y2="148.8"/>
			<line class="st1" x1="337.1" y1="88.8" x2="302.1" y2="88.8"/>
			<line class="st1" x1="172.3" y1="129.7" x2="200" y2="138.7"/>
			<line class="st1" x1="224" y1="64.5" x2="196.4" y2="55.5"/>
			<polyline class="st1" points="186.6,180.3 186.6,195.8 204.6,195.8 204.6,180.3 			"/>
			<polyline class="st1" points="325.6,180.3 325.6,195.8 307.6,195.8 307.6,180.3 			"/>
		</g>
		<ellipse class="st1" cx="319.6" cy="55.3" rx="8" ry="11.5"/>
		<line class="st8" x1="206" y1="70.8" x2="187.5" y2="128.4"/>
	</g>
	<path class="st1" d="M473,31.6c-1.2,0-2.3,0.1-3.4,0.3c-5.8-8.4-15.5-13.9-26.4-13.9c-11.1,0-20.9,5.6-26.6,14.2
		c-1.5-0.4-3-0.6-4.6-0.6c-10.2,0-18.5,8.3-18.5,18.5s8.3,18.5,18.5,18.5c1.6,0,3.1-0.2,4.6-0.6c5.8,8.6,15.5,14.2,26.6,14.2
		c11,0,20.7-5.5,26.4-13.9c1.1,0.2,2.2,0.3,3.4,0.3c10.2,0,18.5-8.3,18.5-18.5S483.3,31.6,473,31.6z"/>
	<line class="st8" x1="425.1" y1="46.8" x2="464.1" y2="46.8"/>
	<line class="st1" x1="432.1" y1="59.8" x2="453.1" y2="59.8"/>
</g>
</svg>
