<?xml version="1.0" encoding="utf-8"?>
<!-- Generator: Adobe Illustrator 26.0.3, SVG Export Plug-In . SVG Version: 6.00 Build 0)  -->
<svg version="1.1" id="Layer_1" xmlns="http://www.w3.org/2000/svg" xmlns:xlink="http://www.w3.org/1999/xlink" x="0px" y="0px"
	 viewBox="0 0 1000 1000" style="enable-background:new 0 0 1000 1000;" xml:space="preserve">
<style type="text/css">
	.st0{opacity:5.000000e-02;fill:#161616;enable-background:new    ;}
	.st1{opacity:5.000000e-02;}
	.st2{fill:#161616;}
	.st3{fill:#EBF0F6;}
	.st4{opacity:5.000000e-02;enable-background:new    ;}
	.st5{fill:#6E6E6E;}
	.st6{fill:#1C3E58;}
	.st7{fill:#5A91CA;}
	.st8{fill:#FFFFFF;}
</style>
<g id="background">
</g>
<g id="illustration">
	<g>
		<path class="st0" d="M583.2,797.1c-5-4-12.8-9.1-12.8-9.1l-1.5,5.4l-61,34.5l-2.1,0.6l-20-11.4l-6,4.6l8,6.8l20.2,5.6l5.3,1.7
			l64.1-37.5c6.5,5.1,12.2,12.9,12.2,12.9l2-3.2C591.6,808,588.2,801.1,583.2,797.1z"/>
		<g>
			<path class="st0" d="M485.8,793.5c0,0-13.1,2.1-22.9,16.6l-2.9-3.9l4.5-6l10.2-9l11.1-5.9L485.8,793.5z"/>
		</g>
		<g>
			<polygon class="st0" points="648.1,801.1 648.1,807.7 638.1,813.1 633.3,809.5 			"/>
		</g>
		<g>
			<polygon class="st0" points="588.6,870.9 606.4,861.5 632.5,863 634.5,856.1 602,855.2 588.6,864.2 588.6,870.2 			"/>
		</g>
		<g>
			<polygon class="st0" points="463,880 458.1,889.9 493,898.3 519,882.6 533.1,882.8 554.3,899.7 588.6,893.5 588.6,881.6 
				557.5,889.6 536.4,875.3 514.4,874.2 493.9,887.4 			"/>
		</g>
		<g>
			<path class="st0" d="M404.1,834.1l-10.2,3.7l18.3,24.6l35.7-0.6c0,0,8.7,6.4,15.1,8.4l-0.5-9.9l-14-8.5l-31.7,0.4L404.1,834.1z"
				/>
		</g>
		<g>
			<polygon class="st0" points="404.6,796.9 395,801.8 410.2,810 418.9,805.2 			"/>
		</g>
		<g>
			<path class="st0" d="M168.4,747.6l-7.7,7.9l-8.2,7.6l-4.2-0.2c0,0-2.5,2.5-2.8,2.7c-0.2,0.2-4.9,0.8-5.1,0.9
				c-0.2,0.1-4.8-1.8-4.8-1.8l-4.3-3l-4.5-5.4l-2-5.1l0.4-3.6l1.6-2.5V742c-9.4,3-15.8,8.7-15.8,15.3c0,9.7,14,17.6,31.3,17.6
				s31.3-7.9,31.3-17.6C173.5,753.7,171.7,750.4,168.4,747.6z"/>
		</g>
		<path class="st0" d="M509.6,600.8l-6.8,20l-10.7,19.1L474.7,663l-16,15.1l-19.3,13c0,0-16.1,5-16.5,5c-0.3,0-13.7,1.3-13.7,1.3
			l-10-1.8l-12.1-7.2l-10.5-13.7l-1-2.1l-3.5-10.9c-0.2,0.7-0.3,1.3-0.4,1.9l-2.1-9.3l-14.1-21l-5.6,0.1l-7.4-3.3l-9.5-7.4l-3.8,8.9
			l0.6,0.4l-0.6,0.7l-14.1,27.7L299,679.9l-15.8,11.3l-15.6,4.8c51.2-8.7,66.1-46.7,69.6-58.8l8.1,5.8c1.8,1.3,4,2,6.2,2l21,47.5
			c0.7,2,1.5,3.9,2.5,5.7l0.1,0.1l0,0c6.1,11,17.8,17.3,34,16.5c34.6-1.7,76.6-35.2,93.8-74.8C509.2,625.4,511.3,611.9,509.6,600.8z
			"/>
		<g class="st1">
			<path class="st2" d="M554,639.3c-2.3,0.8-3.1,3.5-1.7,5.4l3.6,4.6c2.6,3.4,5.8,6.3,9.5,8.4l134.1,78.6c2.4,1.4,5.4,1.4,7.8-0.1
				c3.1-2,3-6.6-0.2-8.4l-4.3,3.5h-2.4L561.9,650L554,639.3z"/>
		</g>
		<g>
			<path class="st3" d="M608.5,536.2c0,2.7,4.6,4.9,10.3,4.9s10.3-2.2,10.3-4.9s-4.6-4.9-10.3-4.9S608.5,533.5,608.5,536.2z"/>
		</g>
		<g class="st1">
			<polygon class="st2" points="548.2,600.3 537.3,606.8 755.5,732.6 920.6,633.6 908.5,627 755.5,716.3 749.4,716.7 737.2,710.6 
							"/>
		</g>
		<g>
			<polygon class="st0" points="632.4,424.4 758.8,497.9 773.6,488.5 761.9,482.1 755.3,485.4 632.4,413.9 			"/>
		</g>
		<g>
			<path class="st0" d="M433.3,434.2l-7.9,4.3c-3.1,1.7-3.2,6.1-0.1,7.9l144,83.6c5,2.9,11.1,2.9,16.1,0l56.5-32.5
				c2.7-1.6,2.6-5.6-0.3-6.9l-10.6-5l-53.6,31.2l-2,1l-25.8-13.3l-115.2-68L433.3,434.2z"/>
		</g>
		<g>
			<polygon class="st0" points="372.2,458.1 384.4,464.5 332.5,494.3 318.8,488.4 370.5,459.8 			"/>
		</g>
		<g>
			<polygon class="st4" points="187.7,512.2 172.6,521.7 218.8,549.3 226.9,535.1 189.9,514.3 			"/>
		</g>
		<g>
			<g>
				<g>
					
						<rect x="788.5" y="276.7" transform="matrix(0.5 -0.866 0.866 0.5 133.5306 834.2969)" class="st5" width="1.5" height="49.6"/>
				</g>
				<g>
					<rect x="587" y="248.2" class="st6" width="1.5" height="11.7"/>
				</g>
				<g>
					<path class="st5" d="M605.2,196.1l-17.8-10.3c-0.2-0.1-0.4-0.4-0.4-0.6v-25.7l-11.7,6.7l-0.7-1.3l12.9-7.3
						c0.2-0.1,0.5-0.1,0.7,0s0.4,0.4,0.4,0.6v26.5l17.5,10.1L605.2,196.1z"/>
				</g>
				<g>
					<path class="st5" d="M810.8,404.1c-0.1,0-0.3,0-0.4-0.1c-0.2-0.1-0.4-0.4-0.4-0.6v-26.5l-42.6-24.6l0.8-1.3l43,24.8
						c0.2,0.1,0.4,0.4,0.4,0.6v25.7l42.4-24.3l-42.4-73.3v24.2c0,0.3-0.1,0.5-0.4,0.6c-0.2,0.1-0.5,0.1-0.8,0l-43-24.8l0.8-1.3
						l41.8,24.2v-25.6c0-0.3,0.2-0.6,0.6-0.7c0.3-0.1,0.7,0.1,0.8,0.3l44.2,76.3c0.1,0.2,0.1,0.4,0.1,0.6c-0.1,0.2-0.2,0.4-0.4,0.5
						L811.2,404C811.1,404.1,811,404.1,810.8,404.1z"/>
				</g>
				<g>
					<path class="st5" d="M574.9,267.9c-0.3,0-0.5-0.1-0.6-0.4L530,191.2c-0.1-0.2-0.1-0.4-0.1-0.6c0.1-0.2,0.2-0.4,0.4-0.5
						l44.2-25.3c0.2-0.1,0.5-0.1,0.7,0s0.4,0.4,0.4,0.6v26.5l31.8,18.3l-0.8,1.3l-32.1-18.6c-0.2-0.1-0.4-0.4-0.4-0.6v-25.7
						l-42.4,24.3l42.4,73.3V240c0-0.3,0.1-0.5,0.4-0.6c0.2-0.1,0.5-0.1,0.8,0l30.7,17.7l-0.8,1.3l-29.6-17.1v25.6
						c0,0.3-0.2,0.6-0.6,0.7C575,267.9,575,267.9,574.9,267.9z"/>
				</g>
				<g>
					<path class="st5" d="M855.4,378.7l-0.7-1.3l12.2-7l-43.5-75l-12.2,7l-0.7-1.3l12.9-7.3c0.4-0.2,0.8-0.1,1,0.3l44.2,76.3
						c0.1,0.2,0.1,0.4,0.1,0.6c-0.1,0.2-0.2,0.4-0.4,0.5L855.4,378.7z"/>
				</g>
				<g>
					<path class="st5" d="M574.9,193.2c-0.1,0-0.3,0-0.4-0.1c-0.2-0.1-0.4-0.4-0.4-0.6v-26.9c0-0.3,0.1-0.5,0.4-0.7l12.9-7.3
						c0.2-0.1,0.5-0.1,0.7,0s0.4,0.4,0.4,0.6v26.9c0,0.3-0.1,0.5-0.4,0.7l-12.9,7.3C575.2,193.2,575,193.2,574.9,193.2z M575.7,166
						v25.2l11.4-6.5v-25.2L575.7,166z"/>
				</g>
				<g>
					<path class="st5" d="M574.9,267.9c-0.1,0-0.3,0-0.4-0.1c-0.2-0.1-0.4-0.4-0.4-0.6v-26.9h1.5V266l11.4-6.5v-11.7h1.5V260
						c0,0.3-0.1,0.5-0.4,0.7l-12.9,7.3C575.2,267.9,575,267.9,574.9,267.9z"/>
				</g>
			</g>
		</g>
		<g>
			<g>
				<path class="st5" d="M756.4,486.2l-0.7-1.3l4.9-2.8V241.6l-145.6-84l0.8-1.3l146,84.3c0.2,0.1,0.4,0.4,0.4,0.6v241.3
					c0,0.3-0.1,0.5-0.4,0.7L756.4,486.2z"/>
			</g>
			<g>
				<path class="st5" d="M756,486.3c-0.1,0-0.3,0-0.4-0.1l-114.9-66.4l0.8-1.3l113.8,65.7V245.1l-144.6-83.5v175.5h-1.5V160.2
					c0-0.3,0.1-0.5,0.4-0.6c0.2-0.1,0.5-0.1,0.8,0l146,84.4c0.2,0.1,0.4,0.4,0.4,0.6v240.9c0,0.3-0.1,0.5-0.4,0.6
					C756.3,486.3,756.2,486.3,756,486.3z"/>
			</g>
			<g>
				<g>
					<g>
						<g>
							<g>
								
									<rect x="691.3" y="264.7" transform="matrix(0.5007 -0.8656 0.8656 0.5007 104.9018 737.847)" class="st5" width="1.5" height="26.6"/>
							</g>
						</g>
						<g>
							<g>
								<path class="st5" d="M704,272.2c-0.1,0-0.3,0-0.4-0.1l-47.4-27c-0.2-0.1-0.4-0.4-0.4-0.7v-10.3c0-0.3,0.1-0.5,0.4-0.6
									c0.2-0.1,0.5-0.1,0.7,0l47.4,27c0.2,0.1,0.4,0.4,0.4,0.7v10.3c0,0.3-0.1,0.5-0.4,0.6C704.3,272.1,704.2,272.2,704,272.2z
									 M657.4,244l45.9,26.1v-8.6l-45.9-26.1V244z"/>
							</g>
						</g>
						<g>
							<g>
								
									<rect x="664.4" y="252.3" transform="matrix(0.5 -0.866 0.866 0.5 105.4855 707.1254)" class="st5" width="1.5" height="19.8"/>
							</g>
						</g>
					</g>
					<g>
						<path class="st7" d="M735,304.9c-0.1,0-0.3,0-0.4-0.1l-18.4-10.6c-0.2-0.1-0.4-0.4-0.4-0.6v-21.2c0-0.3,0.1-0.5,0.4-0.6
							c0.2-0.1,0.5-0.1,0.8,0l18.4,10.6c0.2,0.1,0.4,0.4,0.4,0.6v21.2c0,0.3-0.1,0.5-0.4,0.6C735.2,304.9,735.1,304.9,735,304.9z
							 M717.3,293.1l16.9,9.8v-19.5l-16.9-9.8V293.1z"/>
					</g>
				</g>
				<g>
					<path class="st5" d="M648.1,264.6c-0.2,0-0.4-0.1-0.6-0.2l-25-14.4c-0.4-0.2-0.6-0.6-0.6-1.1v-11.7c0-3.5,1-6.3,2.9-8.1
						c1-0.9,2.2-1.6,3.5-1.8c-1.9-3.3-3-6.8-3-10c0-3.4,1.2-5.9,3.4-7.2s5-1,8,0.7c5.7,3.3,10.1,11,10.1,17.5c0,3.4-1.3,6-3.4,7.2
						c3.7,4.9,6,11,6,16.2v11.7c0,0.4-0.2,0.9-0.6,1.1C648.5,264.5,648.3,264.6,648.1,264.6z M624.3,248.2l22.5,13v-9.6
						c0-5.1-2.5-11.2-6.5-15.9c-0.3-0.3-0.4-0.8-0.2-1.2c0.1-0.4,0.5-0.7,1-0.8c2.1-0.4,3.2-2.4,3.2-5.4c0-5.6-4-12.5-8.9-15.3
						c-2.1-1.2-4.1-1.5-5.5-0.7s-2.1,2.6-2.1,5c0,3.2,1.4,7.1,3.7,10.3c0.3,0.4,0.3,0.9,0.1,1.3c-0.2,0.4-0.7,0.7-1.2,0.6
						c-1.6-0.1-2.9,0.4-3.9,1.3c-1.4,1.3-2.1,3.5-2.1,6.3L624.3,248.2L624.3,248.2z"/>
				</g>
			</g>
			<g>
				<g>
					<g>
						<g>
							<g>
								
									<rect x="691.4" y="327.3" transform="matrix(0.5008 -0.8656 0.8656 0.5008 50.7649 769.1248)" class="st5" width="1.5" height="26.6"/>
							</g>
						</g>
						<g>
							<g>
								<path class="st5" d="M704,334.7c-0.1,0-0.3,0-0.4-0.1l-47.4-27c-0.2-0.1-0.4-0.4-0.4-0.7v-10.3c0-0.3,0.1-0.5,0.4-0.6
									c0.2-0.1,0.5-0.1,0.7,0l47.4,27c0.2,0.1,0.4,0.4,0.4,0.7V334c0,0.3-0.1,0.5-0.4,0.6C704.3,334.7,704.2,334.7,704,334.7z
									 M657.4,306.6l45.9,26.1v-8.6L657.4,298V306.6z"/>
							</g>
						</g>
						<g>
							<g>
								
									<rect x="664.4" y="314.9" transform="matrix(0.5 -0.866 0.866 0.5 51.2922 738.4377)" class="st5" width="1.5" height="19.8"/>
							</g>
						</g>
					</g>
					<g>
						<path class="st7" d="M735,367.6c-0.1,0-0.3,0-0.4-0.1l-18.4-10.6c-0.2-0.1-0.4-0.4-0.4-0.6v-12.7h1.5v12.2l16.9,9.8v-12.8h1.5
							v14.1c0,0.3-0.1,0.5-0.4,0.6C735.2,367.5,735.1,367.6,735,367.6z"/>
					</g>
					<g>
						<rect x="723.6" y="333.7" transform="matrix(0.5 -0.866 0.866 0.5 68.012 797.1842)" class="st7" width="1.5" height="12"/>
					</g>
				</g>
				<g>
					<path class="st5" d="M648.1,327.2c-0.2,0-0.4-0.1-0.6-0.2l-25-14.4c-0.4-0.2-0.6-0.6-0.6-1.1v-11.7c0-3.5,1-6.3,2.9-8.1
						c1-0.9,2.2-1.6,3.5-1.8c-1.9-3.3-3-6.8-3-10c0-3.4,1.2-5.9,3.4-7.2c2.2-1.3,5-1,8,0.7c5.7,3.3,10.1,11,10.1,17.5
						c0,3.4-1.3,6-3.4,7.2c3.7,4.9,6,11,6,16.2V326c0,0.4-0.2,0.9-0.6,1.1C648.5,327.1,648.3,327.2,648.1,327.2z M624.3,310.8
						l22.5,13v-9.6c0-5.1-2.5-11.2-6.5-15.9c-0.3-0.3-0.4-0.8-0.2-1.2c0.1-0.4,0.5-0.7,1-0.8c2.1-0.4,3.2-2.4,3.2-5.4
						c0-5.6-4-12.5-8.9-15.3c-2.1-1.2-4.1-1.5-5.5-0.7s-2.1,2.6-2.1,5c0,3.2,1.4,7.1,3.7,10.3c0.3,0.4,0.3,0.9,0.1,1.3
						s-0.7,0.7-1.2,0.6c-1.6-0.1-2.9,0.4-3.9,1.3c-1.4,1.3-2.1,3.5-2.1,6.3L624.3,310.8L624.3,310.8z"/>
				</g>
			</g>
			<g>
				<g>
					<g>
						<g>
							<g>
								
									<rect x="691.3" y="389.9" transform="matrix(0.5007 -0.8656 0.8656 0.5007 -3.4663 800.3958)" class="st5" width="1.5" height="26.6"/>
							</g>
						</g>
						<g>
							<g>
								<path class="st5" d="M704,397.3c-0.1,0-0.3,0-0.4-0.1l-47.4-27c-0.2-0.1-0.4-0.4-0.4-0.7v-10.3c0-0.3,0.1-0.5,0.4-0.6
									c0.2-0.1,0.5-0.1,0.7,0l47.4,27c0.2,0.1,0.4,0.4,0.4,0.7v10.3c0,0.3-0.1,0.5-0.4,0.6C704.3,397.3,704.2,397.3,704,397.3z
									 M657.4,369.2l45.9,26.1v-8.6l-45.9-26.1V369.2z"/>
							</g>
						</g>
						<g>
							<g>
								
									<rect x="664.3" y="377.4" transform="matrix(0.5 -0.866 0.866 0.5 -2.9332 769.6031)" class="st5" width="1.5" height="19.8"/>
							</g>
						</g>
					</g>
					<g>
						<path class="st7" d="M735,430.1c-0.1,0-0.3,0-0.4-0.1l-18.4-10.6c-0.2-0.1-0.4-0.4-0.4-0.6v-21.2c0-0.3,0.1-0.5,0.4-0.6
							c0.2-0.1,0.5-0.1,0.8,0l18.4,10.6c0.2,0.1,0.4,0.4,0.4,0.6v21.2c0,0.3-0.1,0.5-0.4,0.6C735.2,430.1,735.1,430.1,735,430.1z
							 M717.3,418.3l16.9,9.8v-19.5l-16.9-9.8V418.3z"/>
					</g>
				</g>
				<g>
					<path class="st5" d="M648.1,389.8c-0.2,0-0.4-0.1-0.6-0.2l-10.6-6.1l1.2-2.2l8.7,5v-9.6c0-5.1-2.5-11.2-6.5-15.9
						c-0.3-0.3-0.4-0.8-0.2-1.2c0.1-0.4,0.5-0.7,1-0.8c2.1-0.4,3.2-2.4,3.2-5.4c0-5.6-4-12.5-8.9-15.3c-2.1-1.2-4.1-1.5-5.5-0.7
						s-2.1,2.6-2.1,5h-2.5c0-3.4,1.2-5.9,3.4-7.2c2.2-1.3,5-1,8,0.7c5.7,3.3,10.1,11,10.1,17.5c0,3.4-1.3,6-3.4,7.2
						c3.7,4.9,6,11,6,16.2v11.7c0,0.4-0.2,0.9-0.6,1.1C648.5,389.7,648.3,389.8,648.1,389.8z"/>
				</g>
			</g>
			<g>
				<path class="st5" d="M756.3,245.3l-0.8-1.3l4.4-2.8l-144.5-83.4l-5.1,3.3l-0.8-1.3l5.4-3.5c0.2-0.2,0.5-0.2,0.8,0l146,84.3
					c0.2,0.1,0.4,0.4,0.4,0.6c0,0.3-0.1,0.5-0.3,0.6L756.3,245.3z"/>
			</g>
			<g>
				<path class="st7" d="M746.7,345.4l-5.2-9l-17,9.7L714,328l-5.2,3l10.4,18l2.2,3.9l3,5.1l5.2-3
					C729.6,355.1,746.7,345.4,746.7,345.4z"/>
			</g>
		</g>
		<g>
			<g>
				<path class="st5" d="M574.7,519c-1,0-2-0.3-2.9-0.8L437,439.6c-3.1-1.8-5-5.1-5-8.7v-75.7h2.5v75.7c0,2.7,1.4,5.2,3.8,6.5
					L573.1,516c0.9,0.5,2,0.6,2.9,0.2c1-0.4,1.7-1.2,1.9-2.2l2.4,0.7c-0.5,1.8-1.7,3.2-3.4,3.8C576.2,518.9,575.5,519,574.7,519z"/>
			</g>
			<g>
				<path class="st5" d="M566.2,436.3c-2.3,0-4.5-0.6-6.6-1.8l-43.1-25l1.3-2.2l43.1,25c3.3,1.9,7.3,1.9,10.6,0s5.3-5.3,5.3-9.1
					v-20.6c0-17.8,12.6-39.5,28.1-48.5c3.9-2.2,7.6-3.5,11.2-3.8c-7.2-4.3-19.4-11.5-33.7-19.9l1.3-2.2
					c17.8,10.5,32.4,19.1,38.1,22.5c0.5,0.3,0.7,1,0.5,1.5c-0.2,0.6-0.8,0.9-1.4,0.8c-4.3-0.9-9.3,0.2-14.6,3.3
					c-14.8,8.5-26.8,29.3-26.8,46.3v20.6c0,4.7-2.4,9-6.5,11.3C570.7,435.7,568.5,436.3,566.2,436.3z"/>
			</g>
			<g>
				<path class="st5" d="M481.4,389.1l-34.1-19.8c-9.4-5.5-15.2-15.6-15.2-26.4v-24.3c0-17.8,12.6-39.5,28.1-48.5
					c7.2-4.2,14.1-5,19.6-2.5c1.2,0.5,7.7,4.3,19.9,11.4l-1.3,2.2c-14.9-8.7-19-10.9-19.7-11.3c-4.7-2.2-10.8-1.3-17.3,2.4
					c-14.8,8.5-26.8,29.3-26.8,46.3v24.3c0,10,5.3,19.3,14,24.3l34.1,19.8L481.4,389.1z"/>
			</g>
			<g>
				<g>
					<path class="st5" d="M552.1,415.3c-1.2-0.2-2.4-0.7-3.5-1.3l-0.5-0.3l0.7-1.2l0.5,0.3c1,0.6,2,0.9,3,1.2L552.1,415.3z
						 M556.4,415.3l-0.3-1.3c1.2-0.3,2.4-0.8,3.5-1.5l0.8,1.1C559.2,414.4,557.8,415,556.4,415.3z M544.6,411.7l-3.5-2l0.7-1.2
						l3.5,2L544.6,411.7z M563.4,410.6l-1.1-0.7c0.7-1.1,1.2-2.2,1.4-3.5l1.3,0.3C564.8,408,564.2,409.3,563.4,410.6z M537.6,407.6
						l-3.5-2l0.7-1.2l3.5,2L537.6,407.6z M530.6,403.5l-3.5-2l0.7-1.2l3.5,2L530.6,403.5z M565.2,402.4h-1.4v-4.1h1.4V402.4z
						 M523.6,399.4l-3.5-2l0.7-1.2l3.5,2L523.6,399.4z M516.6,395.3l-3.5-2l0.7-1.2l3.5,2L516.6,395.3z M563.9,394.3
						c0.1-1.4,0.2-2.8,0.4-4.1l1.3,0.2c-0.2,1.3-0.3,2.7-0.4,3.9H563.9z M566.3,386.4l-1.3-0.3c0.3-1.3,0.6-2.6,1-4l1.3,0.4
						C566.9,383.8,566.6,385.1,566.3,386.4z M568.6,378.7l-1.3-0.5c0.5-1.3,1-2.5,1.5-3.8l1.2,0.5
						C569.5,376.2,569,377.4,568.6,378.7z M481.4,374.8l-3.5-2l0.7-1.2l3.5,2L481.4,374.8z M571.8,371.3l-1.2-0.6
						c0.6-1.2,1.3-2.4,1.9-3.6l1.2,0.7C573,368.9,572.4,370.1,571.8,371.3z M474.4,370.7l-3.5-2l0.7-1.2l3.5,2L474.4,370.7z
						 M467.4,366.6l-3.5-2l0.7-1.2l3.5,2L467.4,366.6z M575.8,364.3l-1.1-0.7c0.8-1.2,1.5-2.3,2.3-3.4l1.1,0.8
						C577.2,362,576.5,363.1,575.8,364.3z M460.4,362.6l-3.5-2.1l0.7-1.2l3.5,2L460.4,362.6z M453.5,358.1c-1.1-0.9-2-1.9-3-2.9
						l1-0.9c0.9,1,1.8,1.9,2.8,2.8L453.5,358.1z M580.4,357.7l-1.1-0.9c0.9-1.1,1.8-2.1,2.7-3.1l1,0.9
						C582.2,355.6,581.3,356.6,580.4,357.7z M585.9,351.8l-0.9-1c1.1-1,2.2-1.9,3.2-2.6l0.8,1.1C588,350.1,587,350.9,585.9,351.8z
						 M448.1,351.7c-0.7-1.2-1.4-2.4-1.9-3.7l1.3-0.5c0.5,1.2,1.1,2.4,1.8,3.5L448.1,351.7z M444.9,344.1c-0.3-1.4-0.5-2.7-0.6-4.1
						l1.3-0.1c0.1,1.3,0.3,2.6,0.6,3.9L444.9,344.1z M445.5,335.8h-1.4v-4.1h1.4V335.8z M445.5,327.7h-1.4v-4.1h1.4V327.7z
						 M445.5,319.6h-1.4c0-1.3,0.2-2.7,0.4-4.1l1.3,0.2C445.7,317,445.6,318.3,445.5,319.6z M446.6,311.7l-1.3-0.3
						c0.3-1.3,0.7-2.6,1.1-4l1.3,0.4C447.3,309.1,446.9,310.4,446.6,311.7z M449.1,304.1l-1.3-0.5c0.5-1.2,1.1-2.5,1.7-3.7l1.2,0.6
						C450.2,301.6,449.6,302.9,449.1,304.1z M452.7,296.9l-1.2-0.7c0.7-1.2,1.4-2.3,2.2-3.5l1.1,0.8
						C454.1,294.6,453.4,295.8,452.7,296.9z M457.2,290.3l-1.1-0.8c0.9-1.1,1.8-2.1,2.7-3.1l1,0.9
						C459,288.2,458.1,289.2,457.2,290.3z M462.7,284.4l-0.9-1c1-0.9,2.1-1.8,3.2-2.6l0.8,1.1C464.7,282.7,463.7,283.5,462.7,284.4z
						"/>
				</g>
			</g>
			<g>
				<g>
					<path class="st7" d="M506.5,417.8c-0.7,0-1.6-0.2-2.4-0.7l-10.2-5.9c-2.7-1.6-4.8-5.2-4.8-8.4v-8.7h1.5v8.7
						c0,2.5,1.9,5.8,4.1,7.1l10.2,5.9c1,0.6,1.8,0.7,2.4,0.3c0.6-0.3,0.9-1.1,0.9-2.2v-8.7h1.5v8.7c0,1.6-0.6,2.9-1.7,3.5
						C507.6,417.6,507.1,417.8,506.5,417.8z"/>
				</g>
				<g>
					<path class="st7" d="M509.2,422.8c-1,0-2-0.3-3.1-0.9l-14-8.1c-3.6-2.1-6.5-7-6.5-11.2v-24c0-2.2,0.8-3.8,2.2-4.6
						c1.4-0.8,3.2-0.7,5.1,0.4l14,8.1c3.6,2.1,6.5,7,6.5,11.2v24c0,2.2-0.8,3.8-2.2,4.6C510.5,422.7,509.9,422.8,509.2,422.8z
						 M489.7,375c-0.5,0-0.9,0.1-1.2,0.3c-0.9,0.5-1.4,1.7-1.4,3.3v24c0,3.6,2.6,8.1,5.7,9.9l14,8.1c1.4,0.8,2.7,1,3.6,0.4
						c0.9-0.5,1.4-1.7,1.4-3.3v-24c0-3.6-2.6-8.1-5.7-9.9l-14-8.1C491.2,375.3,490.4,375,489.7,375z"/>
				</g>
				<g>
					<path class="st7" d="M487.6,397.2l23.7,13.7c2,1.2,3.7,0.2,3.7-2.1v-3.2c0-2.3-1.6-5.2-3.7-6.4l-23.7-13.7
						c-2-1.2-3.7-0.2-3.7,2.1v3.2C483.9,393.2,485.6,396,487.6,397.2z"/>
					<path class="st7" d="M512.9,412.1c-0.6,0-1.3-0.2-2-0.6l-23.7-13.7c-2.3-1.3-4.1-4.4-4.1-7v-3.2c0-1.4,0.5-2.5,1.4-3
						s2.1-0.4,3.4,0.3l23.7,13.7c2.3,1.3,4.1,4.4,4.1,7v3.2c0,1.4-0.5,2.5-1.4,3C513.9,412,513.4,412.1,512.9,412.1z M486,385.7
						c-0.2,0-0.4,0-0.6,0.1c-0.4,0.3-0.7,0.9-0.7,1.7v3.2c0,2.1,1.5,4.7,3.3,5.7l23.7,13.7c0.7,0.4,1.4,0.5,1.9,0.3
						c0.4-0.3,0.7-0.9,0.7-1.7v-3.2c0-2.1-1.5-4.7-3.3-5.7l-23.7-13.7C486.8,385.9,486.3,385.7,486,385.7z"/>
				</g>
			</g>
			<g>
				<g>
					<path class="st5" d="M577.6,518c-0.2,0-0.4-0.1-0.6-0.2c-0.4-0.2-0.6-0.6-0.6-1.1v-83.5h2.5v81.3l49.4-28.6
						c1.8-1,2.9-3,2.9-5.1V371.3c0-9.8-4.5-17.2-11.1-18.3l0.4-2.5c7.9,1.3,13.2,9.7,13.2,20.8v109.6c0,3-1.6,5.8-4.2,7.3
						l-51.3,29.7C578,517.9,577.8,518,577.6,518z"/>
				</g>
			</g>
			<g>
				<g>
					<path class="st5" d="M571.7,338.9c-1.5,0-3-0.4-4.3-1.1l-0.6-0.3c-3.2-1.8-5.6-4.5-7.1-7.9l-0.4-0.9c-5.7-12.8-15-23.9-25-29.7
						l-12.8-7.2c-9.8-5.7-19-5.4-24.4,0.6l-0.1,0.1c-0.4,0.3-3.7,2.7-6,1.4l-0.6-0.3c-0.5-0.3-1-0.6-1.5-0.8
						c-0.9-0.6-1.2-1.3-1.3-1.8c-0.1-1.2,0.7-2.1,0.8-2.2l3.9-4.3c3.2-3.6,16-10.6,18.1-11.6c6.5-3,14.9-1.8,23.5,3.2l17,9.7
						c11.4,6.6,22.1,19.2,28.5,33.8l4.1,9.3c0.9,2.1,0.1,4.5-1.8,5.6l-5.8,3.4C574.7,338.6,573.2,338.9,571.7,338.9z M508.2,286.2
						c4.3,0,9.2,1.4,14.2,4.3l12.8,7.2c10.3,5.9,19.9,17.3,25.7,30.4l0.4,0.9c1.3,3,3.6,5.5,6.4,7.2l0.6,0.3c2.2,1.3,4.9,1.3,7.1,0
						l5.8-3.4c1.3-0.7,1.8-2.3,1.2-3.7l-4.1-9.3c-6.3-14.3-16.7-26.6-27.9-33.1l-17-9.7c-8.2-4.8-16.1-5.8-22.1-3.1
						c-1.9,0.9-14.5,7.8-17.6,11.2l-3.9,4.3c-0.1,0.1-0.5,0.6-0.4,1c0,0.2,0.2,0.5,0.6,0.7c0.4,0.3,0.9,0.5,1.4,0.8l0.6,0.3
						c1.2,0.7,3.5-0.6,4.3-1.2C499.2,287.9,503.4,286.2,508.2,286.2z"/>
				</g>
				<g>
					<path class="st5" d="M571.3,338.9L571.3,338.9c-0.2,0-0.4,0-0.5-0.1c-0.7-0.1-1.7-0.2-3.3-1.1l-0.6-0.3
						c-3.2-1.8-5.6-4.5-7.1-7.9l-0.4-0.9c-5.7-12.8-15-23.9-25-29.7l-12.8-7.2c-9.8-5.7-19-5.4-24.4,0.6l-0.1,0.1
						c-0.4,0.3-3.7,2.7-6,1.4l-0.6-0.3c-0.5-0.3-1-0.6-1.5-0.9c-0.9-0.6-1.2-1.3-1.3-1.8c-0.1-1.2,0.7-2.1,0.8-2.2l3.9-4.3
						c0.7-0.8,1.8-1.7,3.4-2.8c0.8-0.5,1.5-0.8,2.2-1.1c5-2.1,10.5-3.7,17.3-1.3c6,2.1,32.1,15.5,36.9,21.6
						c4.6,5.8,11.6,16.9,13.8,21c4.3,7.8,4.9,10,5.7,13.3l0.1,0.4c0.1,0.4,0.6,2.6,0,3.3C571.8,338.8,571.5,338.9,571.3,338.9z
						 M508.2,286.2c4.3,0,9.2,1.4,14.2,4.3l12.8,7.2c10.3,5.9,19.9,17.3,25.7,30.4l0.4,0.9c1.3,3,3.6,5.5,6.4,7.2l0.6,0.3
						c1.2,0.7,1.9,0.8,2.5,0.9c0-0.5-0.1-1.2-0.2-1.6l-0.1-0.4c-0.8-3.3-1.3-5.3-5.6-12.9c-2.3-4.2-9.3-15.2-13.7-20.8
						c-4.4-5.5-29.7-18.8-36.3-21.1c-6-2.1-10.8-1-16.2,1.3c-0.6,0.3-1.3,0.6-2,1c-1.4,1-2.5,1.9-3.1,2.6l-3.9,4.3
						c-0.1,0.1-0.5,0.6-0.4,1c0,0.2,0.2,0.5,0.6,0.7c0.4,0.3,0.9,0.5,1.4,0.8l0.6,0.3c1.2,0.7,3.5-0.6,4.3-1.2
						C499.2,287.9,503.4,286.2,508.2,286.2z"/>
				</g>
			</g>
		</g>
		<g>
			<g>
				<g>
					<path class="st5" d="M557.5,889.7c-0.2,0-0.5-0.1-0.7-0.2l-20.7-13.7c-7.1,0.3-14.3,0.2-21.4-0.4l-21.1,13
						c-0.3,0.2-0.6,0.2-1,0.1l-30-7.4c-0.6-0.1-1-0.6-1-1.2v-18.6c-5.3-2.7-9.9-5.4-13.7-8.2l-31.2,0.4c-0.4,0-0.8-0.2-1-0.5
						l-12.6-18.2c-0.1-0.2-0.2-0.5-0.2-0.7V813h2.5v20.7l12,17.3l31-0.4c0.3,0,0.5,0.1,0.8,0.3c3.9,2.9,8.7,5.8,14.3,8.6
						c0.4,0.2,0.7,0.6,0.7,1.1V879l28.6,7l21-12.9c0.2-0.1,0.5-0.2,0.8-0.2c7.2,0.6,14.6,0.7,21.8,0.4c0.3,0,0.5,0.1,0.8,0.2
						l20.6,13.7l29.6-6.6v-18c0-0.5,0.3-0.9,0.7-1.1c5.7-2.5,9.5-4.6,14.1-7.9c0.2-0.2,0.5-0.2,0.8-0.2l31,1.4l12.4-16.8l-0.1-20.7
						h2.5l0.1,21.1c0,0.3-0.1,0.5-0.2,0.8l-13.1,17.7c-0.2,0.3-0.6,0.5-1.1,0.5l-31.2-1.5c-4.3,3-8.2,5.2-13.5,7.5v18.2
						c0,0.6-0.4,1.1-1,1.2l-31.1,6.9C557.6,889.7,557.6,889.7,557.5,889.7z"/>
				</g>
				<g>
					<path class="st5" d="M461.3,806.5l-1.3-0.7c0.8-1.6,1.8-3.2,3-4.7c4.5-6.1,11.6-11.4,20.5-15.4l0.6,1.4
						c-8.7,3.9-15.5,9-19.9,14.9C463,803.5,462,805,461.3,806.5z"/>
				</g>
				<g>
					<path class="st5" d="M591.2,808.9c-3.3-7.3-10.1-13.9-19.7-19.1l0.7-1.3c9.9,5.3,17,12.2,20.4,19.8L591.2,808.9z"/>
				</g>
				<g>
					<rect x="588.9" y="734.8" class="st5" width="2.5" height="19.2"/>
				</g>
				<g>
					<rect x="462.4" y="732.6" class="st5" width="2.5" height="18.9"/>
				</g>
				<g>
					<rect x="633.3" y="834.9" class="st5" width="2.5" height="21.1"/>
				</g>
				<g>
					<rect x="601.7" y="833.5" class="st5" width="2.5" height="21.1"/>
				</g>
				<g>
					<rect x="556.2" y="867.4" class="st5" width="2.5" height="21.1"/>
				</g>
				<g>
					<rect x="535.2" y="853.4" class="st5" width="2.5" height="21.1"/>
				</g>
				<g>
					<rect x="513.1" y="853.1" class="st5" width="2.5" height="21.1"/>
				</g>
				<g>
					<rect x="491.7" y="866.3" class="st5" width="2.5" height="21.1"/>
				</g>
				<g>
					<rect x="447.2" y="830.8" class="st5" width="2.5" height="21.1"/>
				</g>
				<g>
					<rect x="415.5" y="831.2" class="st5" width="2.5" height="21.1"/>
				</g>
				<g>
					<path class="st5" d="M633.1,810.2L632,808l14.9-7.6l-0.2-20.3h2.5l0.2,21.1c0,0.5-0.3,0.9-0.7,1.1L633.1,810.2z"/>
				</g>
				<g>
					<path class="st5" d="M557.5,868.6c-0.2,0-0.5-0.1-0.7-0.2l-20.7-13.7c-7.1,0.3-14.3,0.2-21.4-0.4l-21.1,13
						c-0.3,0.2-0.6,0.2-1,0.1l-30-7.4c-0.6-0.1-1-0.7-0.9-1.3l0.9-18c-5.4-2.6-10.2-5.6-14.6-8.8l-31.2,0.4c-0.4,0-0.8-0.2-1-0.5
						l-12.6-18.2c-0.2-0.3-0.3-0.7-0.2-1c0.1-0.4,0.3-0.6,0.7-0.8l23.1-11.6v-11.1L404.2,777l1.2-2.2l23.1,12.6
						c0.4,0.2,0.7,0.6,0.7,1.1v12.7c0,0.6-0.5,1.2-1.1,1.2L406,813.5l11.4,16.4l31-0.4c0.3,0,0.5,0.1,0.8,0.3
						c4.5,3.4,9.6,6.4,15.2,9.1c0.5,0.2,0.7,0.7,0.7,1.2l-0.9,17.8l28.5,7l21-12.9c0.2-0.1,0.5-0.2,0.8-0.2
						c7.2,0.6,14.6,0.7,21.8,0.4c0.3,0,0.5,0.1,0.8,0.2l20.6,13.7l29.6-6.6l-1.3-17.2c0-0.5,0.3-1,0.7-1.2
						c5.7-2.5,10.9-5.4,15.5-8.6c0.2-0.2,0.5-0.2,0.8-0.2l30.9,1.4l11.7-16l-22-12c-0.5-0.3-0.7-0.8-0.6-1.4
						c0.8-4.1,0.9-8.2,0.1-12.2c-0.1-0.5,0.2-1.1,0.7-1.3l22.2-11.2l-11.3-16.4l-31,0.4c-0.3,0-0.5-0.1-0.8-0.2
						c-4.5-3.4-9.6-6.4-15.2-9.1c-0.5-0.2-0.8-0.7-0.7-1.3l1.7-17.2l-29.9-7.7l0.6-2.4l31,8c0.6,0.2,1,0.7,0.9,1.3l-1.7,17.4
						c5.3,2.6,10.2,5.5,14.5,8.7l31.2-0.4c0.4,0,0.8,0.2,1,0.5l12.5,18.2c0.2,0.3,0.3,0.7,0.2,1s-0.3,0.6-0.6,0.8l-22.7,11.4
						c0.6,3.8,0.5,7.6-0.1,11.4l22.4,12.2c0.3,0.2,0.5,0.5,0.6,0.8c0.1,0.4,0,0.7-0.2,1l-12.9,17.7c-0.2,0.3-0.7,0.5-1.1,0.5
						l-31.2-1.5c-4.4,3-9.3,5.8-14.7,8.2l1.3,17.4c0,0.6-0.4,1.2-1,1.3l-31.1,6.9C557.6,868.6,557.6,868.6,557.5,868.6z"/>
				</g>
				<g>
					<path class="st5" d="M419.2,806.3L404,798c-0.4-0.2-0.7-0.6-0.7-1.1l0.2-21c0-0.3,0.1-0.5,0.2-0.7l12.9-17.8
						c0.2-0.3,0.7-0.5,1.1-0.5l31.2,1.5c4.4-3,9.4-5.8,14.7-8.2l-1.3-17.4c0-0.6,0.4-1.2,1-1.3l27.5-6.1l0.5,2.4l-26.5,5.9l1.3,17.2
						c0,0.5-0.3,1-0.7,1.2c-5.7,2.5-10.9,5.4-15.5,8.6c-0.2,0.2-0.5,0.2-0.8,0.2l-30.9-1.4L406,776.4l-0.2,19.9l14.6,7.9
						L419.2,806.3z"/>
				</g>
				<g>
					<path class="st5" d="M527.5,837c-9.4,0-19-1.1-28.1-3.5c-21-5.4-36.3-16.5-41-29.6c-2.9-8.2-1.5-16.6,4.2-24.3
						c0.3-0.4,7.5-10.1,26-13.2l0.4,2.5c-17.5,2.9-24.4,12.1-24.4,12.2c-5.1,7-6.5,14.6-3.8,22c4.4,12.3,19.1,22.8,39.3,28
						c34.1,8.8,73.5,0.1,87.8-19.2c4.5-6.1,6.1-12.7,4.6-19.2c-2-8.9-9.5-17.3-21.1-23.5l1.2-2.2c12.3,6.6,20.2,15.5,22.4,25.2
						c1.6,7.3-0.1,14.6-5,21.3C578.8,828.2,553.8,837,527.5,837z"/>
				</g>
			</g>
			<g>
				<g>
					<path class="st7" d="M507.4,830.4l-21.9-12.7c-0.2-0.1-0.4-0.4-0.4-0.6v-29.4c0-13.3,6.2-29,16.3-41.2
						c-0.8-0.5-2.1-1.2-2.9-1.7c-4.4-2.8-6.9-8.4-6.9-15.7c0-15.3,10.8-34.1,24.2-41.7c7-4.1,13.8-4.5,18.5-1.1
						c3.7,2.6,20.9,12,21.1,12.1l-0.7,1.3c-0.7-0.4-17.5-9.6-21.2-12.2c-4.3-3-10.4-2.6-16.9,1.2c-12.9,7.5-23.4,25.6-23.4,40.5
						c0,6.8,2.2,11.9,6.2,14.4c1.2,0.8,3.6,2.1,3.6,2.1c0.2,0.1,0.3,0.3,0.4,0.5c0,0.2,0,0.4-0.2,0.6c-10.2,12.1-16.5,27.8-16.5,41
						v28.9l21.6,12.5L507.4,830.4z"/>
				</g>
				<g>
					<path class="st7" d="M507.7,830.5c-0.1,0-0.3,0-0.4-0.1l-21.9-12.7c-0.2-0.1-0.4-0.4-0.4-0.6v-29.4c0-13.5,6.5-29.6,16.9-41.9
						c0.2-0.3,0.6-0.3,0.9-0.2l18.1,10.4c1.2,0.8,2.6,1.3,4,1.6c0.3,0,0.5,0.2,0.6,0.5s0,0.5-0.1,0.7c-10.3,12-16.9,28.4-16.9,42
						v28.9c0,0.3-0.1,0.5-0.4,0.6C508,830.5,507.9,830.5,507.7,830.5z M486.5,816.7l20.4,11.8v-27.6c0-13.5,6.4-29.9,16.5-42
						c-1.2-0.3-2.3-0.9-3.3-1.5l-17.5-10.1c-9.9,12-16.1,27.5-16.1,40.5L486.5,816.7L486.5,816.7z"/>
				</g>
				<g>
					<path class="st7" d="M552,742c5.9-8.4,9.8-18.6,9.8-27.7c0-15.1-10.7-21.2-23.8-13.6c-13.1,7.6-23.8,26-23.8,41.1
						c0,9.5,4.2,15.5,10.7,16.6c-10.2,11.8-17.1,28-17.1,42v29.4l62.7-36.2v-29.4C570.4,749.6,562.9,741.4,552,742z"/>
					<path class="st7" d="M507.7,830.5c-0.1,0-0.3,0-0.4-0.1c-0.2-0.1-0.4-0.4-0.4-0.6v-29.4c0-13.4,6.3-29.2,16.5-41.5
						c-6.3-1.8-10-8.1-10-17.1c0-15.3,10.8-34.1,24.2-41.7c6.6-3.8,12.9-4.4,17.6-1.7c4.7,2.7,7.3,8.4,7.3,15.9
						c0,8.6-3.3,18.3-9.1,26.9c4.4,0.1,8.2,1.6,11.2,4.4c4.3,4,6.5,10.5,6.5,18.6v29.4c0,0.3-0.1,0.5-0.4,0.6L508,830.4
						C508,830.5,507.9,830.5,507.7,830.5z M548.7,698.1c-3.1,0-6.6,1.1-10.3,3.2c-12.9,7.5-23.4,25.6-23.4,40.5
						c0,8.8,3.8,14.7,10,15.9c0.3,0,0.5,0.2,0.6,0.5s0,0.5-0.1,0.7c-10.5,12.2-17,28.1-17,41.5v28.1l61.2-35.3v-28.9
						c0-7.7-2.1-13.7-6.1-17.5c-3-2.8-7-4.2-11.5-4c-0.3,0-0.6-0.1-0.7-0.4c-0.1-0.3-0.1-0.6,0-0.8c6-8.6,9.6-18.8,9.6-27.3
						c0-7-2.3-12.2-6.6-14.6C552.8,698.6,550.8,698.1,548.7,698.1z"/>
				</g>
			</g>
		</g>
		<g>
			<g>
				<g>
					<g>
						<g>
							<g>
								<path class="st7" d="M268.3,493.1l-1.2-0.9c4.7-6.4,10.3-11.6,16.2-15c8.9-5.2,17.7-5.8,24.6-1.8c4.3,2.5,7.5,6.5,9.2,11.7
									l-1.4,0.5c-1.6-4.8-4.6-8.6-8.5-10.9c-6.5-3.7-14.7-3.1-23.1,1.8C278.3,481.8,272.9,486.8,268.3,493.1z"/>
							</g>
						</g>
					</g>
				</g>
				<g>
					<g>
						<path class="st5" d="M352.8,634.4c-4.3,0-8.8-1.9-13.1-5.4l-5.4-4.4l1-1.2l5.4,4.4c5.2,4.3,10.7,5.9,15.4,4.6l0.4,1.4
							C355.3,634.2,354.1,634.4,352.8,634.4z M349.1,624c-1.1-0.5-2.3-1.3-3.4-2.3l-8-6.5l1-1.2l8,6.5c1.1,0.9,2.1,1.6,3.1,2.1
							L349.1,624z"/>
					</g>
				</g>
				<g>
					<path class="st5" d="M370,657.3c-9.3-15.9-19.7-31.3-30.8-45.8l2-1.5c11.2,14.6,21.7,30.1,31,46L370,657.3z"/>
				</g>
				<g>
					<path class="st5" d="M453.9,517.2c-57.7-2.2-93.9-7.5-143.9-31.6l-6.8-3.4c-4.3-2-9.8-1.3-15.7,2.1c-3.2,1.8-6.3,4.3-9.2,7.4
						l-1.8-1.7c3.1-3.2,6.4-5.9,9.7-7.8c6.6-3.8,13-4.6,18.1-2.2l6.8,3.4c49.9,24.1,84.4,29.2,142.9,31.4L453.9,517.2z"/>
				</g>
				<g>
					<path class="st5" d="M331.9,518.3l-1.1-1.1c3.6-3.6,7.4-6.6,11.2-8.8c7.9-4.5,17.5-5.4,23-4l-0.4,1.4
						c-5.2-1.4-14.3-0.5-21.9,3.8C339.1,511.9,335.4,514.8,331.9,518.3z"/>
				</g>
				<g>
					<path class="st5" d="M343.8,545.2l-1.3-0.8c6.9-11.7,16.1-21.2,25.7-26.8c7.8-4.5,19.3-9.1,25.9-7.3l-0.4,1.4
						c-5.8-1.6-16.6,2.4-24.8,7.1C359.5,524.4,350.6,533.7,343.8,545.2z"/>
				</g>
				<g>
					<path class="st7" d="M387.4,606.9c2.6,0.7,5.2,1.1,8,1.2c19.2,0.5,35.2-14.6,35.8-33.8c0.3-9.3-3.2-17.9-9-24.3
						c0,0-16.6,18.2-21.1,25.1C394.5,584.9,387.4,606.9,387.4,606.9z"/>
					<path class="st7" d="M396.3,608.8c-0.3,0-0.7,0-1,0c-2.8-0.1-5.5-0.5-8.2-1.2c-0.2-0.1-0.4-0.2-0.5-0.4s-0.1-0.4-0.1-0.6
						c0.3-0.9,7.3-22.2,13.7-32.1c4.5-6.8,20.5-24.4,21.2-25.2c0.1-0.2,0.3-0.2,0.6-0.2c0.2,0,0.4,0.1,0.6,0.2
						c6.2,6.8,9.4,15.6,9.2,24.8c-0.3,9.5-4.2,18.3-11.1,24.9C414.1,605.4,405.5,608.8,396.3,608.8z M388.3,606.4
						c2.3,0.6,4.7,0.9,7,0.9c9.1,0.2,17.7-3.1,24.4-9.3c6.6-6.3,10.4-14.7,10.6-23.8c0.2-8.5-2.7-16.7-8.3-23.1
						c-2.9,3.2-16.5,18.3-20.5,24.4C396,584.1,389.7,602.4,388.3,606.4z"/>
				</g>
				<g>
					<g>
						<g>
							<g>
								<path class="st5" d="M412.5,698.5c-7.6,0-14.6-1.8-20.7-5.4c-14.7-8.5-22.8-25.9-22.8-49c0-45.1,31.9-100.3,71.2-123
									c20.2-11.7,39.5-13.4,54.3-4.8c14.7,8.5,22.8,25.9,22.8,49c0,45.1-31.9,100.3-71.2,123C434.3,695,423,698.5,412.5,698.5z
									 M473.7,513.5c-10,0-21,3.3-32.3,9.9c-38.6,22.3-70,76.5-70,120.8c0,22.2,7.7,38.8,21.6,46.8c5.8,3.3,12.3,5,19.5,5
									c10.1,0,21-3.3,32.3-9.9c38.6-22.3,70-76.5,70-120.8c0-22.2-7.7-38.8-21.6-46.8C487.3,515.1,480.8,513.5,473.7,513.5z
									 M412.5,689.1c-5.9,0-11.3-1.4-16.1-4.1c-11.7-6.8-18.2-21.3-18.2-40.9c0-42.2,29.8-93.7,66.5-114.8
									c10.3-5.9,20-8.9,28.8-8.9c6,0,11.4,1.4,16.1,4.1c11.7,6.8,18.2,21.3,18.2,40.9c0,42.2-29.8,93.7-66.5,114.8
									C431.1,686.1,421.3,689.1,412.5,689.1z M473.6,522.8c-8.3,0-17.9,3-27.6,8.6c-36,20.8-65.3,71.3-65.3,112.7
									c0,18.7,6,32.4,16.9,38.7c11,6.3,26,4.6,42.4-4.8c36-20.8,65.3-71.3,65.3-112.7c0-18.7-6-32.4-16.9-38.7
									C484.1,524.1,479.2,522.8,473.6,522.8z"/>
							</g>
						</g>
					</g>
				</g>
				<g>
					<path class="st8" d="M423.6,578.1c-1.6,5.3-5.7,8.7-9.2,7.7s-5.2-6.2-3.6-11.5s5.7-8.7,9.2-7.7
						C423.5,567.7,425.1,572.8,423.6,578.1z"/>
				</g>
			</g>
		</g>
		<g>
			<g>
				<g>
					<g>
						<g>
							<path class="st5" d="M317.8,479.1l-0.8-1.3l53.1-30.9c0.8-0.5,1.3-1.3,1.3-2.3s-0.5-1.8-1.3-2.3l-39.9-23.4
								c-2.9-1.7-6.4-1.7-9.3,0l-24.6,14.3l-0.8-1.3l24.6-14.3c3.3-1.9,7.5-1.9,10.8,0l39.9,23.4c1.3,0.8,2.1,2.1,2.1,3.6
								s-0.8,2.9-2.1,3.6L317.8,479.1z"/>
						</g>
						<g>
							<path class="st5" d="M226.2,524.3l-36.7-21.5c-1.6-1-2.6-2.7-2.6-4.6s1-3.6,2.6-4.6l47.6-27.6l0.8,1.3l-47.6,27.6
								c-1.2,0.7-1.9,1.9-1.9,3.3s0.7,2.6,1.9,3.3L227,523L226.2,524.3z"/>
						</g>
					</g>
					<g>
						<path class="st5" d="M325.6,486.8l-0.8-1.3l45.3-26.4c0.9-0.5,1.4-1.4,1.3-2.5v-11.9h1.5v11.8c0.1,1.5-0.7,3-2.1,3.8
							L325.6,486.8z"/>
					</g>
					<g>
						<path class="st5" d="M222,534l-32.5-19c-1.3-0.8-2.6-2.3-2.6-4.5v-12.2h1.5v12.2c0,1.5,1,2.7,1.9,3.2l32.5,19.1L222,534z"/>
					</g>
					<g>
						<g>
							<path class="st5" d="M252.5,484.3c-0.7,0-1.4-0.2-1.9-0.5l-12-6.9c-0.6-0.4-1.1-0.8-1.1-1.9l0.4-22.3h1.5L239,475
								c0,0.4,0,0.4,0.3,0.6l0.2,0.1l11.8,6.8c0.4,0.2,0.9,0.3,1.4,0.3c0.3,0,0.5-0.1,0.6-0.1l43.7-25.2c0.4-0.3,0.5-0.5,0.5-0.8
								l-4-35.4l1.5-0.2l4,35.4c0.1,0.7-0.1,1.6-1.2,2.3L254.1,484c-0.3,0.2-0.7,0.3-1.2,0.3C252.8,484.3,252.6,484.3,252.5,484.3z"
								/>
						</g>
					</g>
					<g>
						<g>
							<path class="st5" d="M412.1,149h-2.5v-26.4c0-3.5-1.1-6-3.1-7.1c-2-1.2-4.8-0.8-7.8,0.9l-1.2-2.2c3.8-2.2,7.5-2.5,10.3-0.9
								s4.4,4.9,4.4,9.3L412.1,149L412.1,149z"/>
						</g>
						<g>
							<path class="st5" d="M127.5,512.2c-1.4,0-2.8-0.3-3.9-1c-2.8-1.6-4.4-4.9-4.4-9.3h2.5c0,3.5,1.1,6,3.1,7.2s4.8,0.8,7.8-0.9
								l264.9-152.9c6.7-3.9,12.1-13.3,12.1-21V232.5h2.5v101.7c0,8.5-6,18.9-13.4,23.1l-264.9,153
								C131.6,511.6,129.4,512.2,127.5,512.2z"/>
						</g>
						<g>
							<path class="st5" d="M124.8,511.8c-0.2,0-0.3,0-0.5-0.1c-0.3-0.1-0.5-0.3-0.8-0.4c-1.2-0.6-3.7-2-6.2-3.3
								c-1.7-0.9-3.4-1.8-4.7-2.5c-1-0.5-1.6-0.9-2.1-1.2c-3-1.5-4.7-4.9-4.7-9.5V283.1c0-1.9,0.3-3.8,0.8-5.7
								c1.4-5.5,4.8-11,9-14.8c1.2-1.1,2.4-1.9,3.6-2.7l183-105.7l1.2,2.2l-183,105.7c-1.1,0.6-2.2,1.4-3.2,2.3
								c-3.8,3.4-6.9,8.5-8.2,13.5c-0.5,1.7-0.7,3.5-0.7,5.1v211.7c0,3.6,1.2,6.2,3.3,7.3c0.1,0,0.1,0.1,0.2,0.1
								c0.5,0.3,4.2,2.3,8.1,4.4c-0.5-1.4-0.7-2.9-0.7-4.6V290.2c0-1.6,0.2-3.3,0.6-5.1c1.3-5.3,4.4-10.8,8.4-14.7
								c1.4-1.4,2.9-2.5,4.4-3.4l178.3-103l1.2,2.2l-178.3,103c-1.3,0.8-2.6,1.8-3.9,3c-3.7,3.5-6.5,8.6-7.7,13.5
								c-0.4,1.6-0.6,3.1-0.6,4.5v211.7c0,3.4,1.1,6,3.1,7.2c0.2,0.1,0.4,0.2,0.6,0.3c0.6,0.3,0.8,1,0.5,1.7
								C125.7,511.5,125.2,511.8,124.8,511.8z"/>
						</g>
						<g>
							<path class="st5" d="M388.1,122.4l-1.2-2.2l10.6-6.1c1.2-0.7,2.4-1.2,3.6-1.5l-8.1-4.5c-2-0.9-4.8-0.6-7.6,1.1l-8.4,4.9
								l-1.2-2.2l8.4-4.9c3.6-2.1,7.1-2.5,10-1.1l12.2,6.8c0.6,0.3,0.8,1,0.6,1.6c-0.2,0.6-0.9,0.9-1.5,0.7c-1.9-0.5-4.2,0-6.6,1.4
								L388.1,122.4z"/>
						</g>
					</g>
					<g>
						<g>
							
								<rect x="101.8" y="234.7" transform="matrix(0.8653 -0.5013 0.5013 0.8653 -85.741 151.8846)" class="st6" width="275.8" height="1.5"/>
						</g>
						<g>
							<g>
								
									<rect id="SVGID_1_" x="101.8" y="234.7" transform="matrix(0.8653 -0.5013 0.5013 0.8653 -85.741 151.8846)" class="st2" width="275.8" height="1.5"/>
							</g>
							<g>
								<polygon id="SVGID_00000112615253392222164080000001555170997256058541_" class="st5" points="120.8,490.2 120,488.9 
									373.4,342.1 410.4,320.2 411.2,321.5 374.2,343.4 								"/>
							</g>
							<g>
								<g>
									
										<rect id="SVGID_00000093899288627809688060000003678370023200827305_" x="101.8" y="234.7" transform="matrix(0.8653 -0.5013 0.5013 0.8653 -85.741 151.8846)" class="st5" width="275.8" height="1.5"/>
								</g>
							</g>
						</g>
					</g>
				</g>
			</g>
			<g>
				<path class="st5" d="M150.6,444.6c-0.1,0-0.3,0-0.4-0.1c-0.2-0.1-0.4-0.4-0.4-0.6V325.6c0-0.3,0.1-0.5,0.4-0.6l134.7-77.8
					c0.2-0.1,0.5-0.1,0.8,0c0.2,0.1,0.4,0.4,0.4,0.6V366c0,0.3-0.1,0.5-0.4,0.6L151,444.5C150.9,444.5,150.7,444.6,150.6,444.6z
					 M151.3,326v116.5l133.2-76.9V249.1L151.3,326z"/>
			</g>
			<g>
				<g>
					<path class="st7" d="M166.6,389.9l5.3-7.6c1.5,2.4,3.6,2.6,5.8,1.3c3.4-2,5.2-5.1,5.2-11.3v-29.6l7.8-4.5v30.3
						c0,8.4-3.7,17.4-12,22.2C172.9,394.1,169.1,393.6,166.6,389.9z"/>
				</g>
				<g>
					<path class="st7" d="M198,356.2c0-14.5,7.1-27.1,17.4-33c10.3-5.9,17.4-1.5,17.4,13s-7.1,27.4-17.4,33.4
						C205.1,375.5,198,370.7,198,356.2z M224.9,340.7c0-9.6-3.7-13.2-9.5-9.9c-5.8,3.3-9.4,11.2-9.4,20.8c0,9.5,3.7,13.5,9.4,10.2
						C221.2,358.5,224.9,350.3,224.9,340.7z"/>
				</g>
				<g>
					<path class="st7" d="M240.4,309.5l12.9-7.4c8-4.6,14.1-5.4,14.1,2.9c0,4.1-2,9.5-5.3,12.7v0.3c4.2-1.3,7.3,0.3,7.3,6.3
						c0,9-6.5,16.9-15.1,21.9l-13.9,8V309.5z M252.7,320.7c4.9-2.9,7.1-6.4,7.1-9.9c0-3.9-2.3-4.2-7-1.5l-4.6,2.7v11.3L252.7,320.7z
						 M253.6,339.8c5.3-3.1,8.2-6.9,8.2-11.5c0-4.3-2.8-4.6-8.2-1.5l-5.4,3.1v13L253.6,339.8z"/>
				</g>
			</g>
			<g>
				<g>
					<g>
						
							<rect x="301.4" y="326.2" transform="matrix(0.866 -0.5001 0.5001 0.866 -120.9309 202.7097)" class="st5" width="32.6" height="1.5"/>
					</g>
				</g>
				<g>
					<g>
						
							<rect x="371.3" y="290.6" transform="matrix(0.86 -0.5103 0.5103 0.86 -95.593 234.2703)" class="st5" width="15.7" height="1.5"/>
					</g>
				</g>
				<g>
					<g>
						
							<rect x="377.2" y="262.9" transform="matrix(0.8631 -0.5051 0.5051 0.8631 -80.8913 228.9444)" class="st5" width="9.2" height="1.5"/>
					</g>
					<g>
						
							<rect x="299.7" y="294.4" transform="matrix(0.8631 -0.5051 0.5051 0.8631 -104.1583 206.1199)" class="st5" width="56.7" height="1.5"/>
					</g>
				</g>
				<g>
					<g>
						
							<rect x="301.1" y="273.7" transform="matrix(0.8645 -0.5026 0.5026 0.8645 -94.6232 197.8485)" class="st5" width="37.1" height="1.5"/>
					</g>
				</g>
				<g>
					<g>
						
							<rect x="301.1" y="247.9" transform="matrix(0.8683 -0.496 0.496 0.8683 -81.1535 191.59)" class="st5" width="38.3" height="1.5"/>
					</g>
				</g>
			</g>
			<g>
				<g>
					<path class="st7" d="M356.2,338.4l-0.8-1.3l18.4-10.6c2.5-1.6,3.9-4.9,3.9-9.2v-3.6c0-9.6-6.7-21.3-15-26.1
						c-4-2.3-7.7-2.6-10.3-0.9c0,0,0,0-0.1,0c-0.5,0.3-11.4,6.6-17.2,9.9l-0.8-1.3c12.7-7.3,16.1-9.3,17.2-9.9v-0.1
						c3.2-2,7.4-1.7,11.9,0.9c8.7,5,15.8,17.3,15.8,27.4v3.6c0,4.8-1.6,8.6-4.6,10.5L356.2,338.4z"/>
				</g>
				<g>
					<path class="st7" d="M345.9,297c-8.5-4.9-15.4-0.9-15.4,8.9v3.6c0,9.8,6.9,21.8,15.4,26.7c8.5,4.9,15.4,0.9,15.4-8.9v-3.6
						C361.4,313.8,354.5,301.9,345.9,297z"/>
					<path class="st7" d="M352.8,339c-2.2,0-4.7-0.7-7.3-2.2c-8.7-5-15.8-17.3-15.8-27.4v-3.6c0-5,1.7-8.8,4.9-10.6
						c3.2-1.8,7.3-1.4,11.7,1.1c8.7,5,15.8,17.3,15.8,27.4v3.6c0,5-1.7,8.8-4.9,10.6C355.9,338.7,354.4,339,352.8,339z M339.1,295.6
						c-1.3,0-2.6,0.3-3.6,0.9c-2.7,1.5-4.1,4.9-4.1,9.3v3.6c0,9.6,6.7,21.3,15,26.1c3.9,2.2,7.5,2.6,10.2,1.1s4.1-4.9,4.1-9.3v-3.6
						c0-9.6-6.7-21.3-15-26.1C343.3,296.3,341,295.6,339.1,295.6z"/>
				</g>
				<g>
					<path class="st7" d="M321.7,166.1l-0.8-1.3l17.1-9.9c1.7-1.1,2.9-3,3.4-5.5c0.5-2.6,1.2-4.9,2-6.9l1.4,0.5
						c-0.7,1.9-1.4,4.2-1.9,6.7c-0.6,2.9-2,5.1-4,6.4c0,0-0.1,0-0.1,0.1L321.7,166.1z"/>
				</g>
				<g>
					<path class="st7" d="M390.1,245.8l-0.8-1.3l17.3-10c5.7-3.4,9.6-7.4,11.6-11.8c3.2-7,4.8-15,4.8-23.8
						c0-17.9-4.8-35.1-14.2-51.2c-9.4-16-22.5-28.9-38.7-38.3c-16.8-9.7-30-11.8-39.1-6.1c-0.4,0.2-17.1,9.9-17.3,10L313,112l8.6-5
						c5.8-3.3,7.8-4.5,8.7-4.9V102c9.6-6,23.3-3.9,40.7,6.1c16.5,9.5,29.7,22.6,39.3,38.8c9.6,16.3,14.4,33.7,14.4,51.9
						c0,9.1-1.7,17.3-5,24.5c-2.2,4.7-6.3,8.9-12.2,12.5L390.1,245.8z"/>
				</g>
				<g>
					<path class="st7" d="M361.4,285.4l-0.8-1.3l16.9-9.8c0-1.3-0.1-5.4-0.1-8.2c0-7.4,0.9-13,2.7-16.5l1.3,0.7
						c-1.7,3.3-2.6,8.6-2.6,15.7c0.1,8.7,0.1,8.7,0,9c-0.1,0.1-0.2,0.2-0.3,0.3L361.4,285.4z"/>
				</g>
				<g>
					<path class="st7" d="M392.2,157.4c-9.5-16.2-22.5-29.1-39-38.6c-30-17.3-48.2-10.7-54.5,20c-1.5,7.4,3.3,18.4,10.6,24.2
						c7.3,5.9,14.1,4.1,15.7-3.4c3.7-17.2,12.4-21.7,26.4-13.7c7.4,4.3,13.3,10.2,17.6,17.9c4.3,7.6,6.5,16.5,6.5,26.5
						c0,8.8-1.5,15.2-4.6,19.1c-3.1,3.9-8.7,7.6-16.8,11c-8.2,3.4-13.4,7.6-15.5,12.5s-3.1,15-3.1,30.5l-0.1,6.5l25.8,14.9l-0.1-8.6
						c0-7.3,0.9-12.7,2.7-16.1c1.8-3.4,6.8-6.6,15.1-9.7c12.1-4.5,19.8-10.2,23-17.3c3.3-7.1,4.9-15.1,4.9-24.2
						C406.5,190.8,401.7,173.6,392.2,157.4z"/>
					<path class="st7" d="M361,285.5c-0.1,0-0.3,0-0.4-0.1l-25.8-14.9c-0.2-0.1-0.4-0.4-0.4-0.7l0.1-6.5c0-15.6,1-25.7,3.2-30.7
						c2.1-5,7.5-9.4,15.9-12.9c8-3.3,13.6-6.9,16.5-10.7c3-3.8,4.5-10.1,4.5-18.7c0-9.9-2.1-18.7-6.4-26.2
						c-4.2-7.5-10.1-13.4-17.3-17.6c-6.4-3.7-11.7-4.7-15.8-2.9c-4.5,2-7.6,7.4-9.5,16.1c-0.8,3.6-2.7,6.1-5.4,7.1
						c-3.3,1.2-7.4,0-11.4-3.2c-7.6-6.1-12.4-17.3-10.8-25c3-14.7,8.9-24.1,17.4-28c9.4-4.2,22.3-1.7,38.2,7.5
						c16.5,9.5,29.7,22.6,39.3,38.8c9.6,16.3,14.4,33.7,14.4,51.9c0,9.1-1.7,17.3-5,24.5s-11.2,13.2-23.5,17.7
						c-8.1,3-13,6.2-14.7,9.4c-1.7,3.3-2.6,8.6-2.6,15.7l0.1,8.6c0,0.3-0.1,0.5-0.4,0.7C361.2,285.5,361.1,285.5,361,285.5z
						 M336,269.5l24.2,14l-0.1-7.3c0-7.4,0.9-13,2.7-16.5c1.9-3.6,6.9-6.9,15.5-10.1c11.8-4.4,19.4-10.1,22.6-16.9
						c3.2-7,4.8-15,4.8-23.8c0-17.9-4.8-35.1-14.2-51.2c-9.4-16-22.5-28.9-38.7-38.3C337.3,110.5,325,108,316,112
						c-8.1,3.6-13.6,12.7-16.6,26.9c-1.5,7.1,3.3,17.8,10.3,23.5c3.6,2.9,7.2,4,10,3c2.2-0.8,3.8-2.9,4.5-6
						c1.9-9.2,5.4-14.9,10.3-17.1c4.5-2,10.3-1,17.2,2.9c7.5,4.3,13.5,10.4,17.9,18.2c4.3,7.7,6.5,16.8,6.5,26.9
						c0,8.9-1.6,15.5-4.8,19.6c-3.1,4-8.9,7.8-17.2,11.2c-8,3.3-13.1,7.4-15.1,12.1c-2,4.8-3.1,14.9-3.1,30.2L336,269.5z"/>
				</g>
			</g>
		</g>
		<g>
			<g>
				<path class="st6" d="M908.5,613.6c-0.4,0-0.8-0.3-0.8-0.8v-0.1c0,0,0,0,0-0.1c0-0.2,0-0.4,0.2-0.6c0.1-0.2,0.3-0.3,0.6-0.3
					c0.4,0,0.8,0.3,0.8,0.8v0.3C909.3,613.2,909,613.6,908.5,613.6z"/>
			</g>
			<g>
				<path class="st5" d="M752.1,704.4c-1.8,0-3.6-0.4-5-1.3l-198-114.3c-1.6-0.9-2.5-2.3-2.5-3.6c0-1.2,0.7-2.3,2-3l32.8-18.9
					l1.2,2.2l-32.8,18.9c-0.3,0.2-0.7,0.5-0.7,0.9c0,0.3,0.3,0.9,1.3,1.5l198,114.3c1.9,1.1,4.9,1.3,6.6,0.3l151.7-87.6
					c0.3-0.2,0.7-0.5,0.7-0.9c0-0.3-0.3-0.9-1.3-1.5L708,497.1c-1.9-1.1-4.9-1.3-6.6-0.3l-27.6,15.9l-1.2-2.2l27.6-15.9
					c2.4-1.4,6.4-1.2,9.1,0.3l198,114.3c1.6,0.9,2.5,2.3,2.5,3.6c0,1.2-0.7,2.3-2,3l-151.7,87.6
					C755.1,704.1,753.6,704.4,752.1,704.4z"/>
			</g>
			<g>
				<g>
					<path class="st5" d="M745.4,684.9c-0.1,0-0.3,0-0.4-0.1L567.6,582.4c-0.2-0.1-0.4-0.4-0.4-0.6c0-0.3,0.1-0.5,0.4-0.6l22-12.7
						l0.8,1.3l-20.9,12l175.9,101.6l127.8-73.8L697.3,507.9l-16.9,9.8l-0.8-1.3l17.3-10c0.2-0.1,0.5-0.1,0.8,0l177.4,102.4
						c0.2,0.1,0.4,0.4,0.4,0.6s-0.1,0.5-0.4,0.6l-129.3,74.7C745.7,684.9,745.5,684.9,745.4,684.9z"/>
				</g>
			</g>
			<g>
				<path class="st5" d="M752.1,718.4c-1,0-2.1-0.2-3.1-0.5c-0.7-0.2-1.4-0.5-1.9-0.8l-198-114.3c-1.6-0.9-2.5-2.2-2.5-3.5v-12
					c0-2.9,0-3.5,1.3-3.5v1.2l1.2,0.1c0,0.5,0,8.7,0,14.1c0,0.4,0.5,1,1.3,1.4l198,114.3c0.4,0.2,0.9,0.4,1.4,0.6
					c1.4,0.4,3.1,0.5,4.4,0.1c0.3-0.1,0.6-0.2,0.8-0.3l151.7-87.6c0.3-0.1,0.7-0.4,0.7-0.8c0-0.6,0-8.7,0-14.1h2.5v11.9
					c0,1,0,1.8-0.1,2.3c0,1.1-0.7,2.1-1.9,2.8l-151.6,87.6c-0.4,0.2-0.9,0.4-1.4,0.6C754,718.2,753.1,718.4,752.1,718.4z"/>
			</g>
			<g>
				<g>
					
						<rect x="662.8" y="537.5" transform="matrix(0.866 -0.5 0.5 0.866 -177.4089 414.4271)" class="st5" width="43.7" height="1.5"/>
				</g>
			</g>
			<g>
				<g>
					
						<rect x="610.7" y="562.3" transform="matrix(0.866 -0.5001 0.5001 0.866 -192.1273 409.2396)" class="st5" width="113.4" height="1.5"/>
				</g>
			</g>
			<g>
				<g>
					
						<rect x="623.5" y="569.7" transform="matrix(0.866 -0.5001 0.5001 0.866 -194.1158 416.625)" class="st5" width="113.4" height="1.5"/>
				</g>
			</g>
			<g>
				<g>
					
						<rect x="684.3" y="576.6" transform="matrix(0.866 -0.5 0.5 0.866 -195.6837 424.3961)" class="st5" width="19.6" height="1.5"/>
				</g>
			</g>
			<g>
				<g>
					
						<rect x="711.7" y="557" transform="matrix(0.8661 -0.4999 0.4999 0.8661 -181.3283 438.6394)" class="st5" width="32.7" height="1.5"/>
				</g>
			</g>
			<g>
				<g>
					
						<rect x="745.8" y="580.4" transform="matrix(0.866 -0.5 0.5 0.866 -188.1445 460.1215)" class="st5" width="37.5" height="1.5"/>
				</g>
			</g>
			<g>
				<g>
					
						<rect x="770.4" y="584.6" transform="matrix(0.8697 -0.4935 0.4935 0.8697 -186.8907 462.5836)" class="st5" width="24.9" height="1.5"/>
				</g>
			</g>
			<g>
				<g>
					<rect x="783.5" y="592.1" transform="matrix(0.866 -0.5 0.5 0.866 -189.8 477.3484)" class="st5" width="24.7" height="1.5"/>
				</g>
			</g>
			<g>
				<path class="st5" d="M562.3,651.9l-8.9-12.1c-0.2-0.2-0.2-0.6,0-0.8l0.7-1.1c0.2-0.2,0.4-0.4,0.7-0.3l14.6,1.7l-0.2,1.5
					l-14.2-1.6l-0.2,0.2l8.6,11.7L562.3,651.9z"/>
			</g>
			<g>
				<path class="st5" d="M700.3,716l-130.2-75.1c-0.7-0.5-1.7-0.4-2.7,0.3c-1.2,0.7-2.3,1.8-3.1,3.2l-1.3-0.8c1-1.6,2.2-3,3.6-3.8
					c1.6-0.9,3.1-1,4.3-0.2L701,714.7L700.3,716z"/>
			</g>
			<g>
				<path class="st5" d="M557.7,645.6c-0.5-0.5-0.7-1.1-0.7-2c0-1.9,1.3-4,2.9-5c0.8-0.5,1.6-0.6,2.3-0.3l-0.6,1.4
					c-0.2-0.1-0.6,0-1,0.2c-1.1,0.7-2.1,2.3-2.1,3.7c0,0.4,0.1,0.7,0.3,0.9L557.7,645.6z"/>
			</g>
			<g>
				<path class="st5" d="M693.4,727.8l-130-75.1c-1.2-0.6-2-2-2-3.9c0-1.6,0.5-3.5,1.5-5.2c0.2-0.4,0.7-0.5,1-0.3l130.4,75.1
					l-0.7,1.3L563.8,645c-0.6,1.3-1,2.6-1,3.8c0,1.3,0.4,2.2,1.2,2.5l130.1,75.1L693.4,727.8z"/>
			</g>
			<g>
				<path class="st7" d="M717.4,656.1c1.7,0.1,3,0,4.1-0.3c1.7-0.5,2.4-1.7,1.8-2.7l-3.3,0.5c0,0.1-0.1,0.3-0.4,0.4
					c-0.4,0.1-1.1,0.2-2,0.1c-3.8-0.3-7.5-2.1-9-4.3c-1.4-2.1-0.9-4.4,1.2-6.1c8.1,2.4,17,3.8,25.8,4.1c4.4,0.1,10,0.1,14.3-1.8
					c0,0,0.1,0,0.1-0.1c1.4-0.6,2.2-1.6,2.3-2.5c0.1-0.8-0.2-1.5-0.7-2.1h0.1c0.5,0.1,1.7,0.2,2.8-0.2c1.3-0.5,1.6-1.5,0.8-2.7
					c-1.3-1.9-3.4-3.8-6.5-5.8c1.3,0,2.6,0,4,0c1.3,0,2.7,0,4,0c2.7,0,4.4-0.8,4.4-2c0-0.6-0.5-1-0.9-1.4c-1.2-1-2.7-1.9-4.2-2.7
					c-1.2-0.7-2.4-1.3-3.3-2.1l-0.1-0.1c0.3-0.1,0.9-0.1,1.6,0l9.7,0.9l0.5-2c-10.1-2-20.6-3.2-30.8-4.5c-7-0.9-14.2-1.7-21.3-2.8
					l-1.8-0.3c-1.1-0.2-1.3-0.7-1.3-0.9s0-0.7,1-0.9c2.2-0.4,4.6-0.5,6.5-0.6c10.3-0.5,20.8-0.1,31.4,0.6c9.4,2.1,18.9,4,28.5,5.5
					c5.9,1,12.8,2,19.7,1.9c2.4,0,4-0.7,4-1.7v-0.6l-0.9-0.4c-4.1-1.5-8.7-2.4-12.6-3.1c-4.9-0.8-10.1-1.4-15.6-1.9
					c-2-0.2-3.9-0.3-5.9-0.5c-5.5-0.5-11.1-0.9-16.6-1.3c-5.5-1.3-11-2.6-16.4-4.1l-1.9-0.5c-4.3-1.2-8.8-2.4-13.5-3.2l-0.6,2
					c4.4,0.7,8.7,1.9,12.9,3l1.9,0.5c2,0.5,4,1,5.9,1.6c-7-0.3-14-0.3-20.9,0c-2,0.1-4.5,0.3-7,0.7c-2.2,0.3-3.5,1.5-3.2,2.8
					c0.2,1.4,1.9,2.5,4.2,2.9l1.8,0.3c7.1,1.1,14.4,2,21.5,2.9c5.4,0.7,11,1.3,16.5,2.1c-0.6,0.3-0.8,0.8-0.8,1.3
					c0.1,0.6,0.6,1,1,1.4c1.1,0.9,2.5,1.6,3.8,2.4c1.4,0.8,2.7,1.5,3.7,2.3c0.1,0,0.1,0.1,0.1,0.1c-0.2,0.1-0.6,0.1-1.2,0.1
					c-1.3,0-2.5,0-3.8,0c-2.3,0-4.6,0-6.9,0.1c-5.8-3.3-12.7-5.7-19.7-7c-9-1.7-18.5-1.5-26.1,0.5c-4.1,1.1-6.9,2.6-8.1,4.4
					c-1.5,2.3-0.7,5.2,2.2,7.8c3,2.6,7.4,4.4,10.9,5.7c0.6,0.2,1.1,0.4,1.7,0.6c-2.4,2.2-2.9,5.2-1.2,7.8
					C707.3,653.4,712.2,655.7,717.4,656.1z M764.5,615.2c0.2,0,0.3,0,0.5,0c2,0.2,3.9,0.3,5.9,0.5c5.3,0.4,10.4,1.1,15.1,1.8
					c2.6,0.4,5.5,0.9,8.2,1.7c-5.3-0.1-10.7-0.8-17.1-1.8C772.9,616.7,768.7,616,764.5,615.2z M741.5,635.4
					c-0.8-0.6-1.4-1.3-1.1-1.7c0.2-0.1,0.5-0.3,0.9-0.4c1-0.3,2.1-0.5,3.3-0.6c0.5,0.3,1,0.6,1.5,1c2.8,1.8,4.7,3.5,5.8,5.2
					c0.1,0.1,0.1,0.2,0.2,0.3H752C748,638.8,744.2,637.4,741.5,635.4z M712.3,642.2c2.7-1.1,6.5-1.9,11.6-2.2
					c5.4-0.3,11.3-0.3,17.8,0.2c3,0.2,5.4,0.7,6.5,1.5c0.5,0.4,0.8,0.8,0.7,1.4c-0.1,0.5-0.4,0.9-1.2,1.3c-3.5,1.5-8.1,1.6-12.2,1.4
					C727.5,645.5,719.6,644.2,712.3,642.2z M696.8,635.3c-2.2-2-2.9-4.2-1.8-5.8c0.9-1.4,3.1-2.5,6.5-3.4c6.8-1.8,15.4-2,23.6-0.5
					c5.8,1.1,11.4,3,16.4,5.5c-0.7,0.1-1.3,0.3-2,0.5c-0.4,0.1-0.8,0.2-1.2,0.4c-0.3,0.1-0.6,0.3-0.8,0.5c-1.2,1.1-0.7,2.6,1.4,4.1
					c0.7,0.5,1.5,1,2.4,1.5c-6.6-0.4-12.5-0.5-18.1-0.1c-6.5,0.4-11.3,1.4-14.4,3.1c-0.8-0.3-1.5-0.5-2.3-0.8
					C703.2,639.1,699.3,637.5,696.8,635.3z"/>
			</g>
			<g>
				<path class="st7" d="M677.2,516.1l-15.5-8.9c-1.3-0.8-3.5-0.8-4.8,0l-21.5,12.4c-9.9-5.2-25.3-5.1-34.9,0.5
					c-9.6,5.5-9.8,14.4-0.8,20.1l-21.5,12.4c-1.3,0.8-1.3,2,0,2.8l15.5,8.9c1.3,0.8,3.5,0.8,4.8,0l78.7-45.4
					C678.6,518.1,678.6,516.8,677.2,516.1z M618,539.2c-6.6,0-11.9-3-11.9-6.7s5.3-6.7,11.9-6.7c6.6,0,11.9,3,11.9,6.7
					C629.8,536.2,624.5,539.2,618,539.2z"/>
				<path class="st7" d="M596.2,565.6c-1,0-2-0.2-2.8-0.7l-15.5-8.9c-0.9-0.5-1.4-1.2-1.4-2s0.5-1.5,1.4-2l20.5-11.8
					c-3.9-2.8-6-6.3-5.9-10c0.1-4.1,2.8-7.9,7.8-10.8c9.6-5.6,25-5.8,35.2-0.7l21.1-12.2c1.6-0.9,4-0.9,5.5,0l15.5,8.9
					c0.9,0.5,1.4,1.2,1.4,2s-0.5,1.5-1.4,2l-78.7,45.4C598.2,565.4,597.2,565.6,596.2,565.6z M618.5,516.5c-6.3,0-12.7,1.4-17.5,4.2
					c-4.5,2.6-6.9,5.9-7,9.5c-0.1,3.4,2.1,6.8,6.2,9.4c0.2,0.1,0.4,0.4,0.3,0.6c0,0.3-0.1,0.5-0.4,0.6l-21.5,12.4
					c-0.4,0.2-0.6,0.5-0.6,0.7s0.2,0.5,0.6,0.7l15.5,8.9c1.1,0.6,2.9,0.6,4,0l78.7-45.4c0.4-0.2,0.6-0.5,0.6-0.7s-0.2-0.5-0.6-0.7
					l-15.5-8.9c-1.1-0.6-2.9-0.6-4,0l-21.5,12.4c-0.2,0.1-0.5,0.1-0.7,0C630.4,517.7,624.4,516.5,618.5,516.5z M618,539.9
					c-7.1,0-12.6-3.3-12.6-7.4c0-4.2,5.5-7.4,12.6-7.4s12.6,3.3,12.6,7.4C630.6,536.7,625.1,539.9,618,539.9z M618,526.6
					c-6,0-11.1,2.7-11.1,5.9s5.1,5.9,11.1,5.9s11.1-2.7,11.1-5.9S624,526.6,618,526.6z"/>
			</g>
			<g>
				<path class="st7" d="M596.2,570.2c-1,0-2-0.2-2.8-0.7l-15.5-8.9c-0.8-0.5-1.3-1.1-1.3-1.8v-0.2v-4.7h1.5v4.8
					c0,0.2,0.2,0.5,0.6,0.7l15.5,8.9c1.1,0.6,2.9,0.6,4,0l78.7-45.4c0.5-0.3,0.6-0.6,0.6-0.8v-4.5h1.5v4.6c0,0.6-0.3,1.4-1.4,2
					l-78.7,45.4C598.2,569.9,597.2,570.2,596.2,570.2z M594.8,543.1c-1.5-2-2.3-4.1-2.3-6.3h0.1c-0.1-0.6-0.1-1.6-0.1-3.7v-3.6h1.5
					c0,2.7,0,6.9,0,7.2c0,1.9,0.7,3.7,2,5.4L594.8,543.1z M609.2,536.4l-1.5-0.1c0.1-1.7,1.3-3.3,3.2-4.4c4-2.3,10.6-2.3,14.6,0
					c1.8,1,2.9,2.4,3.2,3.9l-1.5,0.3c-0.2-1.1-1.1-2.1-2.5-2.9c-3.6-2.1-9.5-2.1-13.1,0C610.2,534.1,609.3,535.3,609.2,536.4z"/>
			</g>
			<g>
				<g>
					<path class="st7" d="M697.2,715.7c1.4-0.8,2.6-0.8,3.5-0.3l6.9,3.9l-6.9,11.7l-6.9-3.9c-0.9-0.5-1.4-1.6-1.4-3.1
						C692.4,721,694.5,717.2,697.2,715.7z"/>
					<path class="st7" d="M700.7,731.8c-0.1,0-0.3,0-0.4-0.1l-6.9-3.9c-1.2-0.7-1.8-2-1.8-3.8c0-3.4,2.3-7.3,5.2-9
						c1.5-0.9,3.1-1,4.2-0.3l6.9,3.9c0.2,0.1,0.3,0.3,0.4,0.5c0.1,0.2,0,0.4-0.1,0.6l-6.9,11.7C701.2,731.6,700.9,731.8,700.7,731.8
						z M697.6,716.3c-2.4,1.4-4.4,4.9-4.4,7.7c0,1.2,0.4,2.1,1,2.5l6.2,3.5l6.1-10.4l-6.2-3.5C699.6,715.6,698.6,715.7,697.6,716.3
						L697.6,716.3z"/>
				</g>
				<g>
					<path class="st8" d="M699.3,727.9c0,3.1,2.2,4.3,4.8,2.8c2.7-1.5,4.8-5.3,4.8-8.3c0-3.1-2.2-4.3-4.8-2.8
						C701.5,721.1,699.3,724.9,699.3,727.9z"/>
					<path class="st7" d="M702,732.1c-0.6,0-1.1-0.1-1.6-0.4c-1.1-0.7-1.8-2-1.8-3.8c0-3.4,2.3-7.3,5.2-9c1.5-0.9,3-1,4.1-0.3
						c1.2,0.7,1.8,2,1.8,3.8c0,3.4-2.3,7.3-5.2,9C703.6,731.9,702.7,732.1,702,732.1z M706.2,719.7c-0.5,0-1.1,0.2-1.8,0.6
						c-2.4,1.4-4.4,4.9-4.4,7.7c0,1.2,0.4,2.1,1,2.5c0.7,0.4,1.6,0.3,2.6-0.3c2.4-1.4,4.4-4.9,4.4-7.7c0-1.2-0.4-2.1-1-2.5
						C706.9,719.8,706.6,719.7,706.2,719.7z"/>
				</g>
			</g>
		</g>
		<g>
			<g>
				<path class="st5" d="M142.1,767.2c-0.8,0-1.7-0.1-2.7-0.3c-6.4-1.5-13.1-7.8-15-14c-1.1-3.6-0.2-7,2.5-9l0.9,1.2
					c-2.2,1.7-2.9,4.4-2,7.4c1.8,5.8,8,11.6,13.9,13c3.4,0.8,6-0.1,6.9-2.4l1.4,0.6C147.1,766,145,767.2,142.1,767.2z"/>
			</g>
			<path class="st7" d="M149.6,764.3c-1.1,0-2.2-0.1-3.3-0.4c-8.2-1.9-16.8-10-19.2-18c-1.1-3.6-0.8-6.8,0.7-9c0,0,0-0.1,0.1-0.1
				l59.4-63.4l1.1,1L129,737.8c-1.3,1.8-1.4,4.5-0.5,7.7c2.3,7.5,10.4,15.1,18.1,16.9c3.2,0.7,5.9,0.4,7.6-1.1l0.1-0.1
				c0.3-0.3,0.6-0.6,0.9-0.9l58.4-62.4l1.1,1l-58.3,62.3c-0.3,0.4-0.6,0.8-1,1.1c0,0-0.1,0.1-0.2,0.1
				C153.6,763.7,151.7,764.3,149.6,764.3z"/>
			<g>
				<g>
					<path class="st7" d="M204.9,700.7c-7.9-1.8-16.3-9.7-18.6-17.5c-1.3-4.1-0.6-7.4,1.5-9.3l0,0l-59.4,63.4
						c-1.4,2-1.7,4.9-0.6,8.4c2.4,7.8,10.7,15.6,18.6,17.5c3.5,0.8,6.4,0.3,8.3-1.2l0.1-0.1c0.4-0.3,0.7-0.7,1-1.1l57.5-61.4
						C211.4,701,208.5,701.5,204.9,700.7z"/>
				</g>
				<path class="st7" d="M208.1,701.8c-1.1,0-2.2-0.1-3.4-0.4c-8.1-1.9-16.8-10-19.2-18c-1.2-4-0.7-7.5,1.3-9.7
					c2.1-2.2,5.5-2.9,9.6-2c1.6,0.4,3.3,1,5,1.9l-0.7,1.3c-1.6-0.8-3.1-1.4-4.6-1.7c-3.6-0.8-6.5-0.3-8.2,1.5s-2.1,4.8-1,8.3
					c2.3,7.6,10.4,15.1,18.1,16.9c3.6,0.8,6.5,0.3,8.2-1.5s2.1-4.8,1-8.3c-0.5-1.5-1.2-3-2.1-4.6l1.3-0.8c1,1.6,1.7,3.3,2.2,4.9
					c1.2,4,0.7,7.5-1.3,9.7C212.8,701,210.7,701.8,208.1,701.8z"/>
			</g>
			<g>
				<path class="st5" d="M204,693.6c-0.5,0-1-0.1-1.6-0.2c-3.8-0.9-7.7-4.5-8.8-8.2c-0.6-1.9-0.3-3.6,0.6-4.7l16.8-18l1.1,1
					l-16.8,18c-0.6,0.7-0.7,1.9-0.3,3.3c1,3.2,4.4,6.5,7.7,7.2c1.5,0.3,2.6,0.1,3.3-0.7l13.5-14.5l1.1,1l-13.5,14.4
					C206.5,693.2,205.3,693.6,204,693.6z"/>
			</g>
			<g>
				<path class="st5" d="M264.2,697.4c-3.5,0-6.9-0.5-10.3-1.5l-12.3-3l0.6-2.4l12.4,3c27,8.2,59.4-20.2,75.5-66.2
					c18-51.6,9.8-107.3-18.3-124.2c-2.6-1.5-5.4-2.7-8.4-3.5h-0.1c-0.8-0.2-8.7-2.2-13.8-3.5l0.6-2.4c0,0,3.5,0.9,7,1.7
					c1.8,0.4,3.5,0.9,4.8,1.2c1,0.3,1.7,0.4,2.2,0.6c3.2,0.8,6.3,2.1,9,3.8c29.1,17.4,37.7,74.5,19.4,127.1c-8,23-20.4,42.6-34.8,55
					C286.7,692.5,275.2,697.4,264.2,697.4z"/>
			</g>
			<g>
				<path class="st5" d="M261.2,669.5c-3.1-0.6-6.1-1.7-8.8-3.4c-21.6-12.9-28-55.3-14.3-94.5c11-31.5,31.7-52.2,51.5-51.5v1.5
					c-0.3,0-0.5,0-0.8,0c-18.7,0-38.8,20.6-49.3,50.5c-13.4,38.6-7.3,80.2,13.7,92.8c2.6,1.6,5.4,2.6,8.3,3.2L261.2,669.5z"/>
			</g>
			<g>
				<path class="st6" d="M254.4,670.1c-4.6-0.1-9-1.5-13-3.9c-22-13.2-28.6-56.5-14.6-96.5c11.9-34.1,35.7-56.1,56.6-52.2l-0.3,1.5
					c-20.2-3.8-43.3,17.8-55,51.2c-13.7,39.4-7.5,81.9,14,94.7c3.8,2.3,8,3.5,12.3,3.7L254.4,670.1z"/>
			</g>
			<g>
				<path class="st5" d="M251.2,694.2c-6.5,0-12.7-1.7-18.4-5.2c-29.1-17.4-37.7-74.5-19.4-127.1c11.8-33.8,32-58.7,54.2-66.8
					c11.5-4.2,22.7-3.3,32.5,2.6c29.1,17.4,37.7,74.5,19.4,127.1c-11.8,33.8-32,58.7-54.2,66.8C260.5,693.3,255.8,694.2,251.2,694.2
					z M281.6,495.1c-4.3,0-8.7,0.8-13.2,2.4c-21.1,7.6-41.3,32.6-52.7,65.2c-18,51.6-9.8,107.3,18.3,124.2
					c9.1,5.4,19.6,6.3,30.3,2.4c21.1-7.6,41.3-32.6,52.7-65.2l1.2,0.4L317,624c18-51.6,9.8-107.3-18.3-124.2
					C293.4,496.7,287.7,495.1,281.6,495.1z M254.9,670.1c-4.9,0-9.6-1.3-13.9-3.9c-22.2-13.3-28.9-56.7-14.9-96.7
					c8.9-25.6,24.3-44.4,41-50.5c8.8-3.2,17.3-2.5,24.7,2c22,13.2,28.6,56.4,14.7,96.2c-8.9,25.5-24.7,45-41.2,51
					C261.9,669.5,258.3,670.1,254.9,670.1z M277.9,519.6c-3.2,0-6.5,0.6-9.8,1.8c-15.8,5.7-31,24.5-39.5,49c-6.6,18.8-8.7,39-6,56.9
					c2.7,17.7,9.7,30.8,19.8,36.8c6.7,4,14.4,4.6,22.2,1.7c15.8-5.7,31.1-24.7,39.7-49.5c13.5-38.8,7.4-80.6-13.6-93.3
					C286.7,520.7,282.4,519.6,277.9,519.6z"/>
			</g>
		</g>
		<g>
			<g>
				<path class="st5" d="M280.6,822.7c-0.2,0-0.4-0.1-0.6-0.2l-66.5-38.4c-0.4-0.2-0.6-0.6-0.6-1.1s0.2-0.9,0.6-1.1l21.5-12.4
					l1.2,2.2L216.6,783l64,36.9l41.8-24.1l-43.1-24.9l1.2-2.2l45,26c0.4,0.2,0.6,0.6,0.6,1.1c0,0.4-0.2,0.9-0.6,1.1l-44.3,25.6
					C281,822.6,280.8,822.7,280.6,822.7z"/>
			</g>
			<g>
				<path class="st5" d="M317.7,801.1l-51.3-8.8c-0.4-0.1-0.7-0.3-0.9-0.7l-6.6-13.7l2.3-1.1l6.3,13.1l50.6,8.7L317.7,801.1z"/>
			</g>
			<g>
				
					<rect x="240.9" y="761.2" transform="matrix(0.1584 -0.9874 0.9874 0.1584 -568.3981 897.2725)" class="st5" width="2.5" height="41.7"/>
			</g>
			<g>
				
					<rect x="283" y="798" transform="matrix(0.889 -0.4578 0.4578 0.889 -338.3198 219.7652)" class="st5" width="2.5" height="19.8"/>
			</g>
			<g>
				<path class="st7" d="M258.3,771.3h-0.2v-1.5h0.2c0.9,0,1.9,0,2.8-0.1l0.1,1.5C260.3,771.2,259.3,771.3,258.3,771.3z
					 M255.1,771.1c-1-0.1-2.1-0.3-3-0.5l0.3-1.5c0.9,0.2,1.9,0.3,2.9,0.4L255.1,771.1z M264.3,770.7l-0.3-1.5c1-0.2,1.9-0.4,2.8-0.7
					l0.4,1.4C266.3,770.3,265.3,770.5,264.3,770.7z M249.1,769.9c-1-0.3-2-0.7-2.9-1.2l0.7-1.3c0.8,0.4,1.7,0.8,2.7,1.1L249.1,769.9
					z M270.2,768.9l-0.6-1.4c0.5-0.2,1-0.5,1.4-0.7s0.7-0.4,1.1-0.7l0.9,1.2c-0.4,0.3-0.8,0.5-1.2,0.7
					C271.2,768.3,270.7,768.6,270.2,768.9z M243.5,767.1c-0.9-0.7-1.7-1.4-2.3-2.2l1.2-1c0.6,0.7,1.2,1.3,2.1,1.9L243.5,767.1z
					 M275.3,765.2l-1.1-1c0.6-0.7,1.1-1.5,1.4-2.3l1.4,0.5C276.6,763.4,276,764.4,275.3,765.2z M239.6,762.1
					c-0.2-0.7-0.4-1.5-0.4-2.2c0-0.4,0-0.7,0.1-1.1l1.5,0.2c0,0.3-0.1,0.6-0.1,0.9c0,0.6,0.1,1.2,0.3,1.7L239.6,762.1z M275.9,759.3
					c-0.1-0.9-0.4-1.7-0.9-2.5l1.3-0.8c0.6,1,1,2,1.1,3.1L275.9,759.3z M241.8,756.6l-1.3-0.8c0.6-0.8,1.3-1.6,2.1-2.4l1,1.1
					C242.9,755.2,242.2,755.8,241.8,756.6z M273.3,754.7c-0.7-0.6-1.4-1.1-2.3-1.6c-0.7-0.4-1.5-0.8-2.3-1.1l0.6-1.4
					c0.9,0.4,1.7,0.8,2.5,1.2c1,0.6,1.8,1.2,2.6,1.8L273.3,754.7z M246,752.9l-0.7-1.3c0.9-0.5,1.8-0.9,2.8-1.3l0.5,1.4
					C247.7,752.1,246.8,752.5,246,752.9z M265.9,751c-0.9-0.2-1.9-0.4-2.9-0.6l0.2-1.5c1,0.2,2,0.4,3,0.6L265.9,751z M251.4,750.9
					l-0.4-1.5c1-0.2,2-0.4,3-0.6l0.2,1.5C253.3,750.5,252.3,750.6,251.4,750.9z M260.1,750.1c-1-0.1-2-0.1-2.9,0l-0.1-1.5
					c1,0,2,0,3.1,0L260.1,750.1z"/>
			</g>
		</g>
		<g>
			<path class="st7" d="M276.4,748.4l-0.8-1.3l2.6-1.5l0.8,1.3L276.4,748.4z M281.6,745.4l-0.8-1.3l2.6-1.5l0.8,1.3L281.6,745.4z
				 M286.8,742.4l-0.8-1.3l2.6-1.5l0.8,1.3L286.8,742.4z M292,739.4l-0.8-1.3l2.6-1.5l0.8,1.3L292,739.4z M297.2,736.4l-0.8-1.3
				l2.6-1.5l0.8,1.3L297.2,736.4z M302.4,733.4l-0.8-1.3l2.6-1.5l0.8,1.3L302.4,733.4z M307.6,730.4l-0.8-1.3l2.6-1.5l0.8,1.3
				L307.6,730.4z M312.8,727.4l-0.8-1.3l2.6-1.5l0.8,1.3L312.8,727.4z M318,724.4l-0.8-1.3l2.6-1.5l0.8,1.3L318,724.4z M323.2,721.4
				l-0.8-1.3l2.6-1.5l0.8,1.3L323.2,721.4z M328.4,718.4l-0.8-1.3l2.6-1.5l0.8,1.3L328.4,718.4z M333.6,715.4l-0.8-1.3l2.6-1.5
				l0.8,1.3L333.6,715.4z M338.8,712.4l-0.8-1.3l2.6-1.5l0.8,1.3L338.8,712.4z M344,709.4l-0.8-1.3l2.6-1.5l0.8,1.3L344,709.4z
				 M349.2,706.4l-0.8-1.3l2.6-1.5l0.8,1.3L349.2,706.4z M354.4,703.4l-0.8-1.3l2.6-1.5l0.8,1.3L354.4,703.4z M359.6,700.4l-0.8-1.3
				l2.6-1.5l0.8,1.3L359.6,700.4z M364.8,697.4l-0.8-1.3l2.6-1.5l0.8,1.3L364.8,697.4z"/>
		</g>
		<g>
			<path class="st7" d="M377,765.5l-0.8-1.3l2.6-1.5l0.8,1.3L377,765.5z M382.2,762.5l-0.8-1.3l2.6-1.5l0.8,1.3L382.2,762.5z
				 M387.4,759.5l-0.8-1.3l2.6-1.5l0.8,1.3L387.4,759.5z M392.6,756.5l-0.8-1.3l2.6-1.5l0.8,1.3L392.6,756.5z M397.8,753.5l-0.8-1.3
				l2.6-1.5l0.8,1.3L397.8,753.5z M403,750.5l-0.8-1.3l2.6-1.5l0.8,1.3L403,750.5z M408.1,747.5l-0.8-1.3l2.6-1.5l0.8,1.3
				L408.1,747.5z M413.3,744.5l-0.8-1.3l2.6-1.5l0.8,1.3L413.3,744.5z M418.5,741.5l-0.8-1.3l2.6-1.5l0.8,1.3L418.5,741.5z
				 M423.7,738.5l-0.8-1.3l2.6-1.5l0.8,1.3L423.7,738.5z M428.9,735.5l-0.8-1.3l2.6-1.5l0.8,1.3L428.9,735.5z M434.1,732.5l-0.8-1.3
				l2.6-1.5l0.8,1.3L434.1,732.5z M439.3,729.5l-0.8-1.3l2.6-1.5l0.8,1.3L439.3,729.5z M444.5,726.5l-0.8-1.3l2.6-1.5l0.8,1.3
				L444.5,726.5z M449.7,723.5l-0.8-1.3l2.6-1.5l0.8,1.3L449.7,723.5z M454.9,720.5l-0.8-1.3l2.6-1.5l0.8,1.3L454.9,720.5z
				 M460.1,717.5l-0.8-1.3l2.6-1.5l0.8,1.3L460.1,717.5z M465.3,714.5l-0.8-1.3l2.6-1.5l0.8,1.3L465.3,714.5z"/>
		</g>
		<g>
			<path class="st7" d="M718.4,771.8l-2.6-1.5l0.8-1.3l2.6,1.5L718.4,771.8z M713.2,768.8l-2.6-1.5l0.8-1.3l2.6,1.5L713.2,768.8z
				 M708,765.8l-2.6-1.5l0.8-1.3l2.6,1.5L708,765.8z M702.8,762.8l-2.6-1.5l0.8-1.3l2.6,1.5L702.8,762.8z M697.6,759.8l-2.6-1.5
				l0.8-1.3l2.6,1.5L697.6,759.8z M692.4,756.8l-2.6-1.5l0.8-1.3l2.6,1.5L692.4,756.8z M687.2,753.8l-2.6-1.5l0.8-1.3l2.6,1.5
				L687.2,753.8z M682,750.8l-2.6-1.5l0.8-1.3l2.6,1.5L682,750.8z M676.8,747.8l-2.6-1.5l0.8-1.3l2.6,1.5L676.8,747.8z M671.6,744.8
				l-2.6-1.5l0.8-1.3l2.6,1.5L671.6,744.8z M666.4,741.8l-2.6-1.5l0.8-1.3l2.6,1.5L666.4,741.8z M661.2,738.8l-2.6-1.5l0.8-1.3
				l2.6,1.5L661.2,738.8z M656,735.8l-2.6-1.5l0.8-1.3l2.6,1.5L656,735.8z M650.8,732.8l-2.6-1.5l0.8-1.3l2.6,1.5L650.8,732.8z
				 M645.6,729.8l-2.6-1.5l0.8-1.3l2.6,1.5L645.6,729.8z M640.5,726.8l-2.6-1.5l0.8-1.3l2.6,1.5L640.5,726.8z M635.3,723.8l-2.6-1.5
				l0.8-1.3l2.6,1.5L635.3,723.8z M630.1,720.8l-2.6-1.5l0.8-1.3l2.6,1.5L630.1,720.8z M624.9,717.8l-2.6-1.5l0.8-1.3l2.6,1.5
				L624.9,717.8z M619.7,714.8l-2.6-1.5l0.8-1.3l2.6,1.5L619.7,714.8z M614.5,711.8l-2.6-1.5l0.8-1.3l2.6,1.5L614.5,711.8z
				 M609.3,708.8l-2.6-1.5l0.8-1.3l2.6,1.5L609.3,708.8z M604.1,705.8l-1.5-0.9l0.8-1.3l1.5,0.9L604.1,705.8z"/>
		</g>
		<g>
			<polygon class="st7" points="368,763.1 381.4,770.8 364.9,772.6 			"/>
		</g>
		<g>
			<polygon class="st7" points="593.3,705.8 606.6,698.1 590.2,696.3 			"/>
		</g>
		<g>
			<g>
				<path class="st5" d="M757.1,840.9c-0.1,0-0.3,0-0.4-0.1l-59.5-34.4c-0.2-0.1-0.4-0.4-0.4-0.6c0-0.3,0.1-0.5,0.4-0.6l35.1-20.3
					l0.8,1.3l-34,19.6l58,33.5l82-47.3l-58-33.5l-30.6,17.7l-0.8-1.3l31-17.9c0.2-0.1,0.5-0.1,0.8,0l59.5,34.4
					c0.2,0.1,0.4,0.4,0.4,0.6c0,0.3-0.1,0.5-0.4,0.6l-83.5,48.2C757.3,840.8,757.2,840.9,757.1,840.9z"/>
			</g>
			<g>
				<path class="st5" d="M736.4,790.9l-0.8-1.3l14.2-8.2l-0.1-0.1l-15.2-8.8c-1.6-0.9-4.4-0.9-6,0l-5.6,3.2c-0.7,0.4-1,0.9-1,1.3
					s0.4,0.9,1,1.3l11.9,6.9l-0.8,1.3l-11.9-6.9c-1.1-0.7-1.8-1.6-1.8-2.6s0.6-1.9,1.8-2.6l5.6-3.2c2.1-1.2,5.4-1.2,7.5,0l16.4,9.5
					c0.2,0.1,0.4,0.4,0.4,0.6c0,0.3-0.1,0.5-0.4,0.6L736.4,790.9z"/>
			</g>
			<g>
				<path class="st5" d="M731.5,779.3c-0.7,0-1.5-0.2-2-0.5c-0.7-0.4-1.1-1-1.1-1.6s0.4-1.2,1.1-1.6c1.1-0.7,2.9-0.7,4.1,0
					c0.7,0.4,1.1,1,1.1,1.6s-0.4,1.2-1.1,1.6C733,779.1,732.2,779.3,731.5,779.3z M730.2,776.9c-0.2,0.1-0.3,0.3-0.3,0.3
					s0.1,0.2,0.3,0.3c0.7,0.4,1.9,0.4,2.6,0c0.2-0.1,0.3-0.3,0.3-0.3s-0.1-0.2-0.3-0.3C732.1,776.5,730.9,776.5,730.2,776.9z"/>
			</g>
			<g>
				
					<rect x="766.7" y="765.4" transform="matrix(0.866 -0.5001 0.5001 0.866 -278.9166 491.6191)" class="st5" width="22" height="1.5"/>
			</g>
			<g>
				
					<rect x="773" y="783.3" transform="matrix(0.866 -0.5001 0.5001 0.866 -287.0056 497.1606)" class="st5" width="22" height="1.5"/>
			</g>
			<g>
				<rect x="781.3" y="790.4" transform="matrix(0.866 -0.5 0.5 0.866 -289.4292 502.1383)" class="st5" width="22" height="1.5"/>
			</g>
			<g>
				
					<rect x="701.3" y="798.8" transform="matrix(0.866 -0.5001 0.5001 0.866 -303.3617 467.1949)" class="st5" width="37.2" height="1.5"/>
			</g>
			<g>
				
					<rect x="745.2" y="811.7" transform="matrix(0.866 -0.5001 0.5001 0.866 -299.9687 505.6776)" class="st5" width="96.4" height="1.5"/>
			</g>
			<g>
				<path class="st7" d="M754.2,826.8c-2,0-3.9-0.4-5.4-1.3L727,813c-1.6-0.9-2.5-2.2-2.5-3.6c0-1.4,0.9-2.7,2.5-3.6l11.8-6.8
					c3-1.8,7.8-1.8,10.9,0l21.7,12.5c1.6,0.9,2.5,2.2,2.5,3.6s-0.9,2.7-2.5,3.6l-11.8,6.8l-0.4-0.6l0.4,0.6
					C758.1,826.4,756.1,826.8,754.2,826.8z M744.3,799.2c-1.7,0-3.4,0.4-4.7,1.1l-11.8,6.8c-1.1,0.6-1.7,1.4-1.7,2.3
					c0,0.8,0.6,1.6,1.7,2.3l21.7,12.5c2.6,1.5,6.8,1.5,9.4,0l11.8-6.8c1.1-0.6,1.7-1.4,1.7-2.3s-0.6-1.6-1.7-2.3L749,800.3
					C747.6,799.6,746,799.2,744.3,799.2z"/>
			</g>
		</g>
		<g>
			<path class="st5" d="M466.1,222.6c-0.2,0-0.4-0.1-0.5-0.2l-11.3-11.3c-0.3-0.3-0.3-0.8,0-1.1l11.3-11.3c0.3-0.3,0.8-0.3,1.1,0
				L478,210c0.1,0.1,0.2,0.3,0.2,0.5s-0.1,0.4-0.2,0.5l-11.3,11.3C466.5,222.5,466.3,222.6,466.1,222.6z M455.9,210.5l10.3,10.3
				l10.3-10.3l-10.3-10.3L455.9,210.5z"/>
		</g>
		<g>
			<g>
				<rect x="520.4" y="128.6" class="st5" width="1.5" height="9.2"/>
			</g>
			<g>
				<rect x="520.4" y="147.6" class="st5" width="1.5" height="9.2"/>
			</g>
			<g>
				<rect x="507.1" y="142" class="st5" width="9.2" height="1.5"/>
			</g>
			<g>
				<rect x="526.1" y="142" class="st5" width="9.2" height="1.5"/>
			</g>
		</g>
	</g>
</g>
</svg>
