<?xml version="1.0" encoding="utf-8"?>
<!-- Generator: Adobe Illustrator 26.0.3, SVG Export Plug-In . SVG Version: 6.00 Build 0)  -->
<svg version="1.1" id="Layer_1" xmlns="http://www.w3.org/2000/svg" xmlns:xlink="http://www.w3.org/1999/xlink" x="0px" y="0px"
	 viewBox="0 0 500 500" style="enable-background:new 0 0 500 500;" xml:space="preserve">
<style type="text/css">
	.st0{fill:none;stroke:#5991CB;stroke-width:3;stroke-linejoin:round;stroke-miterlimit:10;}
	.st1{fill:#5991CB;}
	.st2{fill:none;stroke:#6E6E6E;stroke-width:4;stroke-miterlimit:10;}
	.st3{fill:#6E6E6E;}
	.st4{fill:none;stroke:#6E6E6E;stroke-width:4;stroke-miterlimit:10;stroke-dasharray:4,4;}
	.st5{fill:none;stroke:#5991CB;stroke-width:3;stroke-miterlimit:10;}
	.st6{fill:none;stroke:#5991CB;stroke-width:3;stroke-miterlimit:10;stroke-dasharray:4,4;}
</style>
<g>
	<g>
		<line class="st0" x1="246.9" y1="111.5" x2="246.9" y2="127.5"/>
		<line class="st0" x1="270.4" y1="135" x2="255.4" y2="135"/>
		<line class="st0" x1="246.9" y1="158.5" x2="246.9" y2="144.5"/>
		<line class="st0" x1="222.4" y1="135" x2="238.4" y2="135"/>
	</g>
	<g>
		<line class="st0" x1="47.9" y1="337.5" x2="47.9" y2="346.5"/>
		<line class="st0" x1="60.4" y1="350" x2="52.4" y2="350"/>
		<line class="st0" x1="47.9" y1="362.5" x2="47.9" y2="354.5"/>
		<line class="st0" x1="35.4" y1="350" x2="43.4" y2="350"/>
	</g>
	<g>
		<path class="st1" d="M322.2,392.6c-0.4-4.7-10.1-31.1-12.5-34c-2.4-2.9-9.4-0.8-14.8,0.3c-5.4,1.1-8.5,3.2-12.4,3.8
			c-3.9,0.6-5.3,0-8.8-3.7c-3.5-3.7-6.5-3.8-8.3-10.1c-1.8-6.3-2.5-19.7-2.6-21.3c-0.1-1.5,4.2-4.7,5.7-8.1c1.5-3.4,1-3.8,2.1-7
			c0.9-2.5,4.9-3.8,7.8-5.2c0.1-0.1,0.2-0.1,0.2-0.1c0,0,0.1,0,0.1,0c4.8-2.2,8.5-6.2,10.4-11.3c2.8-7.4,6.7-17.4,7.1-17.8
			c0.9-2.2-0.5-4.9-0.7-6.5c-0.3-2.1,0.5-11.5,6.5-17c4.4-4.1,16-5.9,21.9-6.6l2.9-1l20.5,23.6l13.3,27l4.8,19.2v34.4l-8.7,32.4
			L343,408l-7.8,9.2C335.1,417.2,322.7,397.3,322.2,392.6z"/>
		<path class="st1" d="M191.1,378.6l-7.4-2.9c-9.7,14.8-28.6,24.9-50.3,24.9c-21.7,0-40.6-10.1-50.3-24.9l-7.4,2.9
			c-24.3,9.7-60.3,38.4-60.3,77.1v42.9h236v-42.9C251.4,416.9,215.4,388.2,191.1,378.6z"/>
		<path class="st1" d="M187.5,311.8c2.9,3.6,7.6,5.7,12.7,4.9c5.2-0.8,9.5-4.8,10.8-9.9c0.4-1.8,0.5-4.2,0.5-6.1
			c0-1.4,1-2.6,2.4-2.9c6.2-1.2,10.9-6.6,10.9-13.2c0-2.5-0.7-4.8-1.9-6.7c-0.7-1.2-0.3-2.6,0.8-3.3c3.8-2.4,6.4-6.5,6.4-11.4
			c0-4.6-2.3-8.7-5.9-11c-1.3-0.9-1.5-2.8-0.4-4c2.2-2.4,3.6-5.6,3.6-9.1c0-5.5-3.4-10.3-8.1-12.3c-1.3-0.6-1.9-2.1-1.2-3.4
			c0.7-1.5,1.2-3.2,1.3-5c0.2-3.9-1.6-7.7-4.6-10.3c-3.3-2.9-6.1-3.8-8.7-3.9c-1.5,0-2.8-1.3-2.8-2.8c0-2.7-1.1-5.7-4.4-9.2
			c-2.5-2.7-6.1-4.3-9.8-4c-0.8,0-1.5,0.2-2.2,0.3c-1.3,0.3-2.6-0.4-3-1.7c-1.7-5.4-6.7-9.4-12.7-9.4c-2.4,0-4.6,0.7-6.6,1.8
			c-1.2,0.7-2.8,0.4-3.5-0.8c-2.4-3.8-6.5-6.4-11.4-6.4c-3.4,0-6.5,1.3-8.9,3.4c-1,0.9-2.6,0.9-3.7,0c-2.4-2.1-5.5-3.4-8.9-3.4
			c-4.8,0-9,2.6-11.4,6.4c-0.7,1.2-2.3,1.4-3.5,0.8c-1.9-1.1-4.2-1.8-6.6-1.8c-6,0-11,3.9-12.7,9.4c-0.4,1.3-1.7,2-3,1.7
			c-0.7-0.2-1.4-0.3-2.2-0.3c-3.7-0.2-7.2,1.4-9.8,4c-3.3,3.5-4.4,6.5-4.4,9.2c0,1.5-1.3,2.8-2.8,2.8c-2.6,0-5.4,1-8.7,3.9
			c-3,2.6-4.8,6.4-4.6,10.3c0.1,1.8,0.6,3.5,1.3,5c0.6,1.3,0.1,2.8-1.2,3.4c-4.8,2-8.1,6.8-8.1,12.3c0,3.5,1.4,6.7,3.6,9.1
			c1.1,1.2,1,3.1-0.4,4c-3.6,2.4-5.9,6.4-5.9,11c0,4.8,2.6,9,6.4,11.4c1.2,0.7,1.5,2.2,0.8,3.3c-1.2,2-1.9,4.3-1.9,6.7
			c0,6.6,4.7,12,10.9,13.2c1.4,0.3,2.4,1.4,2.4,2.9c0,1.8,0.1,4.3,0.5,6c1.3,5.1,5.7,9.2,10.9,9.9c1.3,0.2,2.6,0.2,3.8,0.1
			l-2.3-14.6l0-49.1l7.7-11.2l13.6-2.1l14.6,4.1l18.3,1.3l31-5.2l7.2,4.5l4.5,9.8v51.6l10.7,3.4L187.5,311.8z"/>
		<path class="st2" d="M318,240.2c-5.9,0.7-17.4,2.6-21.9,6.6c-5.9,5.5-6.7,14.8-6.5,17c0.2,1.6,1.6,4.3,0.7,6.5
			c-0.4,0.4-4.3,10.4-7.1,17.8c-1.9,5.1-5.6,9.1-10.4,11.3c0,0-0.1,0-0.1,0c-0.1,0.1-0.2,0.1-0.2,0.1c-2.9,1.3-6.9,2.6-7.8,5.2
			c-1.1,3.2-0.6,3.6-2.1,7c-1.5,3.4-5.7,6.6-5.7,8.1c0,1.5,0.8,15,2.6,21.3c1.8,6.3,4.7,6.4,8.3,10.1c3.5,3.8,5,4.3,8.8,3.7
			c3.9-0.6,6.9-2.7,12.4-3.8c5.4-1.1,9.1-2.6,11.5,0.3c2.4,2.9,12,30,12.4,34.7c0.4,4.7,9.5,19.6,11.1,23.4"/>
		<circle class="st3" cx="150.4" cy="277.5" r="5"/>
		<circle class="st3" cx="105.4" cy="277.5" r="5"/>
		<circle class="st3" cx="267.9" cy="387" r="7.5"/>
		<path class="st2" d="M164.1,364.4c-4.9,14.4-19.4,24.8-36.5,24.8c-16.5,0-30.5-9.6-35.9-23.1"/>
		<path class="st2" d="M79.4,270.5h-6.8c-5,0-8.8,4.5-7.9,9.5l1.6,8.5c0.7,3.8,3.2,7.1,6.7,8.7l5.8,2.7"/>
		<path class="st2" d="M175.4,270.5h8.4c5,0,8.8,4.5,7.9,9.5l-1.6,8.4c-0.7,3.8-3.2,7.1-6.7,8.7l-5.8,2.7"/>
		<path class="st2" d="M114.4,318.7c0,0,7.2,0.7,13.4,0.7c5.6,0,13.4-0.7,13.4-0.7"/>
		<path class="st2" d="M117.1,305.7c2.7-1.2,6.5-2,10.7-2c4.2,0,8,0.8,10.7,2"/>
		<path class="st2" d="M122.4,332.8c1.4-0.4,3.3-0.6,5.3-0.6c2.1,0,4,0.2,5.4,0.6"/>
		<path class="st2" d="M99.7,239.6c-10.7-3-21.3,5.1-21.3,16.2l0,44.8c0,8.7,3.4,17,9.4,23.1l16.5,16.7c2.2,2.2,4.7,4.2,7.5,5.6
			c13.7,7.1,29.3,3.9,39-6.2l15.9-16.6c5.6-5.8,8.7-13.6,8.7-21.6v-45.8c0-11.1-10.6-19.2-21.3-16.2l-14.7,4.1
			c-8.2,2.3-16.8,2.3-25,0L99.7,239.6z"/>
		<path class="st2" d="M176.1,304c2.9,3.6,7.6,5.7,12.7,4.9c5.2-0.8,9.5-4.8,10.8-9.9c0.5-1.8,0.5-4.2,0.5-6.1c0-1.4,1-2.5,2.4-2.8
			c6.2-1.2,10.9-6.6,10.9-13.1c0-2.4-0.7-4.7-1.8-6.7c-0.7-1.1-0.3-2.7,0.8-3.4c3.8-2.3,6.3-6.5,6.3-11.3c0-4.6-2.3-8.6-5.9-11
			c-1.3-0.9-1.5-2.7-0.4-3.9c2.3-2.4,3.7-5.6,3.7-9.1c0-5.5-3.3-10.2-8.1-12.3c-1.3-0.5-1.9-2.1-1.3-3.3c0.8-1.7,1.3-3.6,1.4-5.6
			c0.1-4.1-2.1-7.8-5.3-10.3c-3-2.4-5.6-3.2-7.9-3.3c-1.6,0-2.8-1.2-2.8-2.8c0-2.5-0.9-5.3-3.7-8.4c-2.6-2.9-6.2-4.9-10.1-4.8
			c-0.9,0-1.7,0.2-2.5,0.3c-1.4,0.3-2.7-0.6-3.1-1.9c-1.8-5.3-6.7-9.1-12.6-9.1c-2.4,0-4.7,0.7-6.6,1.8c-1.2,0.7-2.8,0.3-3.5-0.9
			c-2.4-3.8-6.5-6.3-11.3-6.3c-3.4,0-6.5,1.3-8.9,3.4c-1.1,1-2.6,1-3.7,0c-2.4-2.1-5.5-3.4-8.9-3.4c-4.8,0-8.9,2.5-11.3,6.3
			c-0.7,1.2-2.3,1.6-3.5,0.9c-1.9-1.1-4.2-1.8-6.6-1.8c-5.9,0-10.9,3.8-12.6,9.1c-0.4,1.3-1.7,2.2-3.1,1.9c-0.8-0.2-1.7-0.3-2.5-0.3
			c-3.9-0.1-7.5,1.8-10.1,4.8c-2.8,3.2-3.7,5.9-3.7,8.4c0,1.6-1.2,2.8-2.8,2.8c-2.4,0-5,0.8-7.9,3.3c-3.2,2.6-5.4,6.3-5.3,10.3
			c0,2,0.5,3.9,1.4,5.6c0.6,1.2,0,2.8-1.3,3.3c-4.8,2-8.1,6.8-8.1,12.3c0,3.5,1.4,6.7,3.7,9.1c1.1,1.2,0.9,3-0.4,3.9
			c-3.6,2.4-5.9,6.4-5.9,11c0,4.8,2.5,9,6.3,11.3c1.1,0.7,1.5,2.2,0.8,3.4c-1.2,2-1.8,4.2-1.8,6.7c0,6.5,4.7,12,10.9,13.1
			c1.4,0.3,2.4,1.4,2.4,2.8c0,1.8,0.1,4.3,0.5,6.1c1.3,5.1,5.6,9.1,10.9,9.9c5.2,0.8,9.9-1.4,12.8-5.1"/>
		<line class="st2" x1="142.4" y1="261.5" x2="157.4" y2="261.5"/>
		<line class="st2" x1="97.4" y1="261.5" x2="112.4" y2="261.5"/>
		<path class="st2" d="M139.9,275.3c3.5,0,5.8-3,10.8-3c5,0,8.6,2.7,11.6,2.7"/>
		<path class="st2" d="M116,275.3c-3.5,0-5.8-3-10.8-3c-5,0-8.6,2.7-11.6,2.7"/>
		<path class="st2" d="M154.4,336.5v11c0,8.8,5.4,16.8,13.6,20l16.9,6.7c24.4,9.7,60.5,38.5,60.5,77.3v43"/>
		<path class="st2" d="M292.9,225.9c43.5,17.4,74.2,59.9,74.2,109.6c0,62.4-48.4,113.4-109.7,117.7"/>
		<path class="st2" d="M222.7,220.5c5.5-1.2,11.1-2.1,16.8-2.6"/>
		<path class="st2" d="M299.4,205c0,17.3-31.3,56.4-31.3,56.4s-31.3-39.1-31.3-56.4c0-17.3,14-31.3,31.3-31.3
			C285.3,173.7,299.4,187.7,299.4,205z"/>
		<circle class="st2" cx="267.9" cy="205" r="10.5"/>
		<circle class="st2" cx="267.9" cy="387" r="16.5"/>
		<path class="st4" d="M245.4,255.3c-24.2,24.2-30.3,87.7-3,118"/>
		<line class="st2" x1="194.4" y1="451.5" x2="194.4" y2="494.5"/>
		<path class="st2" d="M100.4,336.5v11c0,8.8-5.4,16.8-13.6,20l-16.9,6.7c-24.4,9.7-60.5,38.5-60.5,77.3v43"/>
		<line class="st2" x1="60.4" y1="451.5" x2="60.4" y2="494.5"/>
	</g>
	<g>
		<g>
			<path class="st5" d="M441.6,47.3c-2.2,2.2-22.3,22.3-8.9,24.6s26.8-4.5,26.8,8.9c0,13.4,11.2,11.2,11.2,11.2"/>
		</g>
		<g>
			<path class="st5" d="M379.1,36.4c0,26.6-30.2,54.3-30.2,54.3S318.8,63,318.8,36.4c0-16.7,13.5-30.2,30.2-30.2
				C365.6,6.2,379.1,19.7,379.1,36.4z"/>
			<circle class="st5" cx="349.4" cy="34.5" r="12.5"/>
			<path class="st5" d="M258.9,97.5V49.6c0-11.4,8.9-21.2,20.3-21.5c11.9-0.4,21.7,9.2,21.7,21v140.5"/>
			<line class="st5" x1="321.4" y1="47" x2="300.4" y2="47"/>
			<polyline class="st5" points="470.9,105.5 470.9,47 377.4,47 			"/>
			<line class="st5" x1="308.4" y1="210" x2="356.4" y2="210"/>
			<path class="st5" d="M484.2,210H374.6c-3.7,0-6.7-3-6.7-6.7v-82.6c0-3.7,3-6.7,6.7-6.7h109.6c3.7,0,6.7,3,6.7,6.7v82.6
				C490.9,207,487.9,210,484.2,210z"/>
			<path class="st5" d="M452.9,114.5v-11.7c0-7-5.7-12.8-12.8-12.8h-21.5c-7,0-12.8,5.7-12.8,12.8v11.7"/>
			<path class="st5" d="M416.9,114.5v-10.2c0-1.8,1.5-3.3,3.3-3.3h18.5c1.8,0,3.3,1.5,3.3,3.3v10.2"/>
			<path class="st5" d="M419.4,161h-40.3c-6.2,0-11.2-5-11.2-11.2v-6.3"/>
			<path class="st5" d="M490.9,143.5v6.3c0,6.2-5,11.2-11.2,11.2h-40.3"/>
			<path class="st5" d="M435.3,168h-12.9c-2,0-3.6-1.6-3.6-3.6v-5.9c0-2,1.6-3.6,3.6-3.6h12.9c2,0,3.6,1.6,3.6,3.6v5.9
				C438.9,166.4,437.3,168,435.3,168z"/>
			<line class="st6" x1="347.9" y1="167.5" x2="347.9" y2="98.5"/>
			<path class="st5" d="M300.9,89.8c0,0,26.7,6,26.8,29.8c0,23.8-11.1,30.5-8.9,42.8c2.2,12.3,24.4,19,21.1,48"/>
		</g>
	</g>
	<g>
		<g>
			<polyline class="st5" points="382.4,323 466.9,323 466.9,331.5 			"/>
			<polyline class="st5" points="350.4,480 335.9,480 335.9,427.5 			"/>
			<polyline class="st5" points="382.4,339 488.9,339 488.9,496 357.9,496 357.9,407.5 			"/>
			<rect x="375.9" y="418" class="st5" width="95" height="16"/>
			<line class="st5" x1="430.4" y1="466" x2="376.4" y2="466"/>
			<line class="st5" x1="470.4" y1="466" x2="450.4" y2="466"/>
			<line class="st6" x1="376.4" y1="450" x2="470.4" y2="450"/>
			<line class="st6" x1="422.4" y1="383" x2="376.4" y2="383"/>
			<line class="st5" x1="422.4" y1="365" x2="398.4" y2="365"/>
			<path class="st5" d="M438.9,401.5v-8.8c0-7.1,4.5-13.2,10.7-15.7"/>
			<path class="st5" d="M460.1,377.1c6.3,2.4,10.7,8.5,10.7,15.7v8.8"/>
			<circle class="st5" cx="454.9" cy="369" r="10"/>
		</g>
	</g>
	<g>
		<g>
			<g>
				<path class="st1" d="M108.7,63.3l3.6-2.7c1,1.9,2.4,2.7,3.9,2.7c2.3,0,3.5-1.2,3.5-4.9V41.1h5.3V59c0,4.9-2.5,9-8.1,9
					C113,67.9,110.4,66.4,108.7,63.3z"/>
				<path class="st1" d="M129.9,54.2c0-8.6,4.8-13.5,11.8-13.5c7,0,11.8,5,11.8,13.5c0,8.5-4.8,13.8-11.8,13.8
					C134.7,67.9,129.9,62.7,129.9,54.2z M148.1,54.2c0-5.7-2.5-9-6.4-9c-3.9,0-6.4,3.4-6.4,9c0,5.6,2.5,9.2,6.4,9.2
					C145.6,63.4,148.1,59.8,148.1,54.2z"/>
				<path class="st1" d="M158.6,41.1h8.7c5.4,0,9.5,1.6,9.5,6.5c0,2.4-1.4,4.9-3.6,5.7v0.2c2.8,0.7,4.9,2.7,4.9,6.2
					c0,5.3-4.4,7.7-10.2,7.7h-9.4V41.1z M166.9,51.8c3.3,0,4.8-1.3,4.8-3.4c0-2.3-1.6-3.2-4.7-3.2h-3.1v6.7H166.9z M167.5,63.4
					c3.6,0,5.5-1.3,5.5-4c0-2.6-1.9-3.7-5.5-3.7h-3.7v7.7H167.5z"/>
			</g>
		</g>
		<g>
			<line class="st5" x1="85.4" y1="22" x2="205.4" y2="22"/>
			<path class="st5" d="M122.1,157l11.2,1.6c3.3,0.1,6-2.8,5.6-6.1l-1.1-11.3c-0.4-3.7-4.1-6-7.6-4.6l-15.4,7L76.2,168L48,127.8"/>
			<path class="st5" d="M31.2,142.5c7.6,12.3,18.1,26.5,26.5,37.4"/>
			<path class="st5" d="M68.7,157.5c-0.2-4.5,2.6-7.3,0.2-14.3c-3.3-9.5-18.9-31.5-31-32.4"/>
			<path class="st5" d="M64.5,62.2c0.3-1.6,0.2-2.3-0.1-4.4c-0.3-2.1-12.9-9.8-24.7-7.8c-14.6,2.5-20,14.6-21.2,22.2
				C15.9,88.3,22,99,20.1,108.9c-1.5,7.7-7.9,21.7-5.9,43.4c9.5,0.8,18.5-8.3,21.1-20.9c2.6-12.6-1.4-18.5,9.9-41.2l-2.4-5.4
				c-1.4-2.7,0-7.7,2.6-9.4c4-2.6,7.8,0,7.8,0c6-4.4,7.4-7.1,11.2-14.6c4.5,5.2,2.6,16,2.6,16c-0.3,1.1-0.1,2.4,0.5,3.4l3.7,6.1
				c0.5,0.8,0.4,1.9-0.2,2.7l-2.7,3.1l-2.6,9.5c-0.3,1.2-1.1,2.3-2.1,3.1c-1.2,0.8-2.6,1.1-4,0.9l-3.2-0.6c-2.6-0.5-5.1,1-6,3.4
				c-0.5,1.3-1.6,4.5-1.9,6.6"/>
			<line class="st5" x1="21.9" y1="150.5" x2="21.9" y2="203.5"/>
			<line class="st5" x1="44.2" y1="161.6" x2="62.4" y2="147.8"/>
			
				<ellipse transform="matrix(0.9643 -0.2647 0.2647 0.9643 -22.0297 37.5637)" class="st5" cx="128.4" cy="100.5" rx="25.5" ry="25.5"/>
			<line class="st5" x1="132.9" y1="126.5" x2="132.9" y2="136.5"/>
			<line class="st5" x1="124.9" y1="126.5" x2="124.9" y2="138.5"/>
			<path class="st5" d="M85.9,161.5V13.8c0-4.3,3.5-7.7,7.7-7.7h104.5c4.3,0,7.7,3.5,7.7,7.7v173.8"/>
			<line class="st5" x1="118.4" y1="95" x2="142.4" y2="95"/>
			<line class="st6" x1="114.4" y1="109" x2="142.4" y2="109"/>
			<line class="st6" x1="160.4" y1="101" x2="189.4" y2="101"/>
			<line class="st5" x1="160.4" y1="115" x2="182.4" y2="115"/>
			<line class="st5" x1="146.4" y1="140" x2="185.4" y2="140"/>
			<line class="st6" x1="146.4" y1="154" x2="178.4" y2="154"/>
		</g>
	</g>
	<polyline class="st5" points="393.9,240.5 393.9,234 364.9,234 364.9,263 393.9,263 393.9,255.5 	"/>
	<line class="st6" x1="410.4" y1="249" x2="479.4" y2="249"/>
	<line class="st6" x1="436.4" y1="293" x2="499.4" y2="293"/>
	<polyline class="st5" points="372.9,247.6 384.6,256.3 408.7,232.6 	"/>
	<polyline class="st5" points="411.9,283.5 411.9,277 382.9,277 382.9,306 411.9,306 411.9,298.5 	"/>
	<polyline class="st5" points="391,291 402.7,299.6 426.7,275.9 	"/>
</g>
</svg>
