<?xml version="1.0" encoding="utf-8"?>
<!-- Generator: Adobe Illustrator 26.0.3, SVG Export Plug-In . SVG Version: 6.00 Build 0)  -->
<svg version="1.1" id="Layer_1" xmlns="http://www.w3.org/2000/svg" xmlns:xlink="http://www.w3.org/1999/xlink" x="0px" y="0px"
	 viewBox="0 0 343.5 326.3" style="enable-background:new 0 0 343.5 326.3;" xml:space="preserve">
<style type="text/css">
	.st0{fill:#5A91C8;}
	.st1{fill:#6E6E6E;}
</style>
<g>
	<g>
		<path class="st0" d="M312.1,308.4l-14-20l23-0.5L312.1,308.4z M303.7,291.2l7.8,11.1l5-11.3L303.7,291.2z"/>
	</g>
	<g>
		<polygon class="st0" points="323.4,210.5 320.8,208.9 331.1,192.4 310.5,196.3 312.3,183.6 303,181.7 303.6,178.8 315.6,181.2 
			314,192.6 337.2,188.1 		"/>
	</g>
	<g>
		<path class="st0" d="M174,27.1c-4.1,0-7.5-3.4-7.5-7.5c0-4.1,3.4-7.5,7.5-7.5s7.5,3.4,7.5,7.5C181.5,23.7,178.1,27.1,174,27.1z
			 M174,15.1c-2.5,0-4.5,2-4.5,4.5c0,2.5,2,4.5,4.5,4.5s4.5-2,4.5-4.5C178.5,17.1,176.5,15.1,174,15.1z"/>
	</g>
	<g>
		<g>
			<path class="st0" d="M275.1,237.2c0.3,0.5,3.3,5.3,1.3,9.9c-2.6,6.1-11.2,5.5-12.8,5.3c-1.4-0.1-2.2-0.4-2.9-1
				c-1.1-1.1-0.9-2.9-1.7-5c-1.2-3.2-1-5.1-4.7-7.9c0,3.7-2.1-3.2,0.2,12c0.6,4.5,4.9,4.5,5.1,4.5c0,0,8,0.3,9.1,0.6
				c1.1,0.3,0,4.3-2.3,7.8c-2.3,3.4-5.4,6.7-9,10.3c-3.6,3.6-0.9,3.4-1.1,6.4c-0.2,3.1-1.8,5.9-3.6,8.4c-1.9,2.6-3.3,5.2-6.3,8.5
				c-3.1,3.4-5.1,3.6-8.2,3.6c-3.1,0-3.6-0.4-4.4-2.9c-0.7-2.5-4.3-7.6-4.2-10.6c0.1-3,1-8.3,0.9-12.3c-0.1-4-2.5-2-4.1-3.8
				c-1.6-1.8-0.6-4.4-2-6.4c-1.3-2-3.7-1.4-7.3-1.1c-3.5,0.3-5.6,1.4-8.1,1.4c-2.5,0.1-3.3-0.4-5.3-3c-2-2.6-3.8-2.9-4.5-6.9
				c-0.6-4-0.1-12.5,0-13.4c0.1-1,3-2.6,4.2-4.6c1.2-2,0.9-2.3,1.9-4.2c0.7-1.5,3.4-2,5.3-2.6c0.1,0,0.1,0,0.2-0.1
				c2.4-0.7,2.3-1.1,5-1.6c2.8-0.6,3.1-1.5,7.5-2.8c4.4-1.2,3.6,1,5.8,3.3c2.1,2.3,3.3,3.4,7.2,4.2c3.8,0.8,13.4-0.5,13.4-0.5
				s0.5-1.9-1.2-2.6c-1.7-0.7-3-2.1-3-2.4c0-0.3-1.9-1.2-3.3-1.2c-1.4,0-0.3,2.2-0.3,2.2s-0.7,1.5-2.2-0.4c-0.3-0.4-0.6-0.8-0.8-1.3
				c-0.4-0.8-1.3-1.1-2.1-0.7c-0.7,0.3-2,0.5-3.9,0.2c-2.1-0.3-3.6-1.6-4.9-3.2c-2.1-0.1-4-0.2-4.4-0.2c-1,0-4.7,1.4-6.9,3
				c-1.3,1-4.1,1.5-6.9,1.7c-1.4-0.4-3.7-1-3.9-1.8c-0.3-1.1,1.5-4.1,2.4-5.4c1-1.2,2.7,0.6,5.2,0c2.5-0.6,2-1.5,2.1-2.8
				c0.2-1.2-0.6-3.7-1.5-4.1c-0.8-0.4-3.2,1.4-4.9,1.6c-1.8,0.3-3.5-2.9-3.3-4c0.1-1.1,1.8-0.9,3.1-1.2c1.3-0.4,4.7-4.7,5.7-5.2
				c0.9-0.5,2,2,2.1,3c0.2,0.7,0.4,3.1,0.6,4.9c0.1,0.6-0.1,1.2,0.2,1.5c1.4,1.5,2.9,1.2,4.2,0.5c0.1-0.1,0.3-0.2,0.4-0.2
				c0.8-0.5,1.5-1.1,2-1.4c0.7-1.3,0.1-3.1,0.1-4.1c0-1.4-0.7-1.5-1.2-2.2c-0.6-0.7,2.4-4.9,6.6-7.9c4.2-3,12.7-3,15.5-2.7
				c2.8,0.3,1.2,5.1,2,5.9c0.7,0.8,2.2,0,2.2,0s3.7-1.8,5.5-3.3c0.3-0.2,0.6-0.5,1.1-0.6c4.3,4.4,10.2,11.6,14.6,21.9
				C272.9,226.8,274.3,232.6,275.1,237.2z"/>
			<path class="st0" d="M199.6,319.4C199.6,319.4,199.6,319.4,199.6,319.4c1.3-0.3,2-0.7,2.1-1.2c0-0.4-0.6-1.1-3.6-2.1
				c-4-1.5-7-3.2-9.1-4.5c-4.1-2.6-4.9-4.1-5.1-4.6c-1.2-2.6,0.3-3.6-0.4-7.8c-0.8-4.7-3-5.7-2-8.1c0.4-1.1,1.4-2.3,2.1-4.7
				c0.2-0.6,0.3-1.3,0-1.9c-0.2-0.4-0.7-0.6-1.4-1.2c-1.5-1.1-0.2-2.6-0.4-5.2c-0.2-2.6,1-1.9,0.8-4.8c-0.2-2.9-0.1-1.7-1.6-3.2
				c-0.8-0.8-1.3-1.2-1.9-1.4c-0.9-0.3-1.2,0.2-1.8-0.1c-0.7-0.4-0.5-1.6-0.9-3.3c-0.2-1.2-0.6-3.3-1.9-4.2
				c-1.2-0.9-2.2-0.2-4.6-0.4c-3.2-0.3-3.3-1.7-5.9-2.1c-4.3-0.7-6.3,2.9-9,1.9c-1.2-0.4-2.7-1.8-3.6-5.9c-1.8-2.3-4.3-6.7-2.9-8.7
				c0.8-1.2,2-0.4,3.9-1.7c2.2-1.5,1.4-3,4.2-6.4c2.7-3.3,4.8-3.7,5.4-3.4c0,0,0.1,0,0.1,0c0.5-0.1,0.6-2.3,0.6-4.8
				c0.2-0.4,0.4-0.9,0.8-0.9c0.5,0,0.7,0.8,1.4,1.1c0.8,0.4,1.8-0.2,2.2-0.4c3.4-1.9,5.2-0.8,8.5-3.3c1.3-1,4.2-3.1,4.7-6.5
				c0.3-2.1-0.5-2.7,0-5.3c0.5-2.5,1.4-2.7,2-5.1c0.2-0.8,1.1-4.1-0.2-7c-2-4.2-7.7-4.6-8.1-4.7c-1.8-2.6-3.5-5.3-5.3-7.9
				c-1.3,0.6-2.6,1.2-3.9,1.7c-0.5,0.2-1,0.4-1.5,0.7c-3,2.7-5.5,5.2-7.5,7.3c-1,1-1.8,1.9-2.6,2.7c-3.6,3.9-4.8,5.7-5.4,6.6
				c-1.7,2.6-2.7,4.7-4.2,8.3c-0.1,0.1-0.1,0.2-0.1,0.3c-0.1,0.3-0.2,0.6-0.4,0.8c-1,2.3-1.9,4.6-3.6,9c0,0.1,0,0.1-0.1,0.2
				l-2.9,14.5c0,0.1,0,0.2,0,0.3c0.4,2.7,1.3,6,3.2,8.8c0,0,1,0.3,2.3,0.7c1.3,0.5,2.9,1.2,4.1,2c2.4,1.7,3.4,4.5,3.4,5.6
				c0,2.5-1,3.3-0.7,6.6c0.2,1.7,0.5,1.6,0.7,3.1c0.2,2.8-0.9,4.2-1.3,6.5c-0.5,2.2-0.1,3.9,0.7,7.2c1.9,8.1,8.4,15.3,9.7,16.7
				c3.4,4.1,6.7,6.8,9.1,8.5c0.2,0.1,0.4,0.2,0.5,0.4c1.3,0.9,2.6,1.7,4,2.4c2.4,1.3,4.6,2.3,6.4,3.1c2.8,1.2,3.4,1.3,6.3,2.6
				c0.1,0,0.1,0,0.2,0.1L199.6,319.4z"/>
		</g>
		<g>
			<path class="st0" d="M164.5,115.3v-4.2c0-11.4-9.4-20.8-20.8-20.8H48.8c-11.4,0-20.8,9.4-20.8,20.8v4.2H164.5z"/>
			<path class="st0" d="M140.2,297.3H28v2c0,11.4,9.4,20.8,20.8,20.8H142c6,0,11.4-2.7,15.2-6.9
				C149.9,308.9,144.6,304.2,140.2,297.3z"/>
		</g>
		<g>
			<rect x="9.5" y="141.5" class="st1" width="3" height="12.1"/>
		</g>
		<g>
			<rect x="9.5" y="165" class="st1" width="3" height="117.5"/>
		</g>
		<g>
			<path class="st1" d="M142.7,320.5h-95c-12.3,0-22.3-10-22.3-22.3V110c0-12.3,10-22.3,22.3-22.3h94.9c12.3,0,22.3,10,22.3,22.3
				v8.8h-3V110c0-10.6-8.7-19.3-19.3-19.3H47.7c-10.6,0-19.3,8.7-19.3,19.3v188.2c0,10.6,8.7,19.3,19.3,19.3h95
				c5.2,0,10.1-2.1,13.8-5.9l2.2,2.1C154.5,318,148.8,320.5,142.7,320.5z"/>
		</g>
		<polygon class="st0" points="41.7,220.3 41.7,247.3 69,247.3 69,238.2 50.8,238.2 50.8,220.6 		"/>
		<polygon class="st0" points="150.9,165 150.9,138.1 123.6,138.1 123.6,147.2 141.8,147.2 141.8,164.8 		"/>
		<g>
			<g>
				<path class="st1" d="M80.7,179.4H59.5v-21.2h21.2V179.4z M62.5,176.4h15.2v-15.2H62.5V176.4z"/>
			</g>
			<g>
				<path class="st1" d="M80.7,229.5H59.5v-21.2h21.2V229.5z M62.5,226.5h15.2v-15.2H62.5V226.5z"/>
			</g>
			<g>
				<path class="st1" d="M133,179.4h-21.2v-21.2H133V179.4z M114.8,176.4H130v-15.2h-15.2V176.4z"/>
			</g>
			<g>
				<rect x="91.4" y="160.8" class="st1" width="3" height="15.9"/>
			</g>
			<g>
				<polygon class="st1" points="130.4,229.5 102.7,229.5 102.7,195 105.7,195 105.7,226.5 130.4,226.5 				"/>
			</g>
			<g>
				<rect x="59.9" y="192.3" class="st1" width="11.4" height="3"/>
			</g>
			<g>
				<rect x="82.6" y="192.3" class="st1" width="11.4" height="3"/>
			</g>
			<g>
				<polygon class="st1" points="123.9,211.3 112.2,211.3 112.2,208.3 120.9,208.3 120.9,192.3 132.7,192.3 132.7,195.3 
					123.9,195.3 				"/>
			</g>
		</g>
		<g>
			<path class="st1" d="M206.3,319.7c-39.8,0-72.2-32.4-72.2-72.2s32.4-72.2,72.2-72.2c39.8,0,72.2,32.4,72.2,72.2
				S246.1,319.7,206.3,319.7z M206.3,178.2c-38.2,0-69.2,31.1-69.2,69.2s31.1,69.2,69.2,69.2c38.2,0,69.2-31.1,69.2-69.2
				S244.5,178.2,206.3,178.2z"/>
		</g>
		<g>
			<path class="st1" d="M263.6,314.5l-1.9-2.3c19-16.2,29.9-39.8,29.9-64.8c0-12.5-2.6-24.5-7.8-35.7l2.7-1.3
				c5.4,11.6,8.1,24.1,8.1,37C294.5,273.3,283.2,297.7,263.6,314.5z"/>
		</g>
		<g>
			<path class="st1" d="M277.9,201.3c-2.6-3.9-5.5-7.7-8.6-11.2l2.2-2c3.3,3.6,6.3,7.5,8.9,11.6L277.9,201.3z"/>
		</g>
		<g>
			<path class="st0" d="M248,152.4c0-25-18.6-41.6-41.5-41.6c0,0,0,0-0.1,0c-23,0-41.6,16.6-41.6,41.6c0,26,41.6,72.7,41.6,72.7
				s0,0,0.1-0.1C208.6,222.7,248,177.7,248,152.4z M206.4,167.7c-10.9,0-19.3-11-14.6-22.5c2.3-5.7,8.1-9.3,14.3-9.3h0.4
				c8.7,0,15.8,7.2,15.8,15.9C222.3,160.5,215.3,167.6,206.4,167.7C206.5,167.7,206.5,167.7,206.4,167.7z"/>
		</g>
		<g>
			<path class="st1" d="M206.4,226.1l-1-1.2c-1.7-1.9-42-47.4-42-73.7c0-25,18.1-43.1,43.1-43.1c25,0,43.1,18.2,43.1,43.1
				c0,25.2-37.6,68.7-41.9,73.6L206.4,226.1z M206.5,111.1c-23.3,0-40.2,16.9-40.2,40.1c0,22.8,33.5,62.8,40.1,70.4
				c15.4-17.7,40.1-51.3,40.1-70.4C246.5,128.1,229.7,111.2,206.5,111.1z M206.5,170.3L206.5,170.3c-5.9,0-11.3-2.9-14.5-7.7
				c-3.3-4.9-3.9-11.1-1.5-16.9c2.5-6.2,8.7-10.2,15.6-10.2h0.4c9.6,0,17.3,7.9,17.3,17.4C223.8,162.4,216.1,170.3,206.5,170.3
				L206.5,170.3z M206.5,138.5h-0.4c-5.6,0-10.8,3.4-12.9,8.4c-2,4.9-1.6,10,1.2,14.1c2.7,4,7.2,6.4,12,6.4h0.1
				c7.9,0,14.3-6.5,14.3-14.4C220.8,145,214.4,138.5,206.5,138.5z"/>
		</g>
		<g>
			<path class="st1" d="M117.6,272.7h-4v-3h4V272.7z M109.6,272.7h-4v-3h4V272.7z M101.6,272.7h-4v-3h4V272.7z M93.6,272.7h-4v-3h4
				V272.7z M85.6,272.7h-4v-3h4V272.7z M77.6,272.7h-4v-3h4V272.7z M69.6,272.7h-4v-3h4V272.7z"/>
		</g>
	</g>
	<g>
		<g>
			<rect x="96.8" y="51.8" class="st0" width="69.4" height="3"/>
		</g>
		<g>
			<polygon class="st0" points="116.5,82 115.1,79.4 163,53.4 89.5,13.4 98.9,53.4 93.4,76.7 90.5,76 95.8,53.4 85,7.6 169.2,53.4 
							"/>
		</g>
	</g>
	<g>
		<g>
			<polygon class="st0" points="278.6,19.9 275.6,19.9 275.6,8.5 249.6,8.5 249.6,19.9 246.6,19.9 246.6,5.5 278.6,5.5 			"/>
		</g>
		<g>
			<path class="st1" d="M313.4,119.8l-2.6-1.5c0.7-1.1,1.3-2.3,1.8-3.4l2.7,1.3C314.8,117.4,314.1,118.6,313.4,119.8z M317.1,112.4
				l-2.8-1.1c0.5-1.2,0.9-2.4,1.3-3.7l2.9,0.9C318,109.9,317.6,111.2,317.1,112.4z M319.6,104.6l-2.9-0.7c0.3-1.3,0.6-2.5,0.8-3.8
				l3,0.5C320.2,102,319.9,103.3,319.6,104.6z M321,96.6l-3-0.3c0.1-1.3,0.2-2.6,0.3-3.9l3,0.1C321.3,93.8,321.2,95.2,321,96.6z
				 M318.3,88.5c0-1.3-0.1-2.6-0.3-3.9l3-0.3c0.1,1.4,0.2,2.7,0.3,4.1L318.3,88.5z M317.5,80.7c-0.2-1.3-0.5-2.6-0.8-3.8l2.9-0.7
				c0.3,1.3,0.6,2.7,0.9,4L317.5,80.7z M315.6,73.2c-0.4-1.2-0.9-2.5-1.3-3.7l2.8-1.1c0.5,1.3,1,2.6,1.4,3.9L315.6,73.2z M312.7,66
				c-0.6-1.2-1.2-2.3-1.8-3.4l2.6-1.5c0.7,1.2,1.3,2.4,1.9,3.6L312.7,66z M308.8,59.3c-0.7-1.1-1.5-2.1-2.3-3.1l2.4-1.9
				c0.8,1.1,1.7,2.2,2.4,3.3L308.8,59.3z M303.9,53.2c-0.6-0.6-1.2-1.3-1.8-1.9c-0.3-0.3-0.6-0.6-0.9-0.9l2.1-2.2
				c0.3,0.3,0.7,0.6,1,1c0.6,0.6,1.3,1.3,1.9,2L303.9,53.2z M298.3,47.8c-1-0.8-2-1.6-3.1-2.4L297,43c1.1,0.8,2.2,1.6,3.3,2.5
				L298.3,47.8z M292,43.3c-1.1-0.7-2.2-1.3-3.4-1.9l1.4-2.7c1.2,0.6,2.4,1.3,3.6,2L292,43.3z M236.2,42l-1.5-2.6
				c1.2-0.7,2.4-1.3,3.7-1.9l1.3,2.7C238.5,40.8,237.4,41.4,236.2,42z M285.1,39.7c-1.2-0.5-2.4-1-3.6-1.4l1-2.8
				c1.3,0.5,2.6,1,3.8,1.5L285.1,39.7z M243.3,38.7l-1.1-2.8c1.3-0.5,2.6-0.9,3.9-1.3l0.9,2.9C245.8,37.8,244.5,38.3,243.3,38.7z
				 M277.7,37.1c-1.2-0.3-2.5-0.6-3.8-0.9l0.6-2.9c1.3,0.3,2.7,0.6,4,0.9L277.7,37.1z M250.8,36.5l-0.7-2.9c1.3-0.3,2.7-0.6,4-0.8
				l0.5,3C253.3,35.9,252,36.2,250.8,36.5z M270.1,35.6c-1.3-0.2-2.6-0.3-3.9-0.4l0.2-3c1.4,0.1,2.7,0.2,4.1,0.4L270.1,35.6z
				 M258.4,35.3l-0.2-3c1.4-0.1,2.7-0.2,4.1-0.2l0,3C261,35.1,259.7,35.2,258.4,35.3z"/>
		</g>
		<g>
			<path class="st1" d="M263.4,148.7l0-3c1.3,0,2.6-0.1,3.9-0.2l0.2,3C266.1,148.7,264.7,148.7,263.4,148.7z M271.5,148.1l-0.4-3
				c1.3-0.2,2.6-0.4,3.8-0.7l0.6,2.9C274.2,147.7,272.9,147.9,271.5,148.1z M279.5,146.4l-0.8-2.9c1.2-0.4,2.5-0.8,3.7-1.2l1,2.8
				C282.2,145.5,280.9,146,279.5,146.4z"/>
		</g>
		<g>
			
				<rect x="270.7" y="70.9" transform="matrix(0.7071 -0.7071 0.7071 0.7071 31.0503 219.8538)" class="st0" width="20.5" height="3"/>
		</g>
		<g>
			
				<rect x="237.4" y="105.7" transform="matrix(0.7071 -0.7071 0.7071 0.7071 -3.7412 205.4471)" class="st0" width="17.4" height="3"/>
		</g>
		<g>
			<path class="st0" d="M263.5,162.8v-3c38.7,0,70.1-31.5,70.1-70.1c0-38.7-31.5-70.1-70.1-70.1c-36.1,0-66.8,28.1-69.9,64l-3-0.3
				c1.6-18.2,9.9-35,23.3-47.4c13.5-12.5,31.1-19.3,49.6-19.3c40.3,0,73.1,32.8,73.1,73.1S303.8,162.8,263.5,162.8z"/>
		</g>
		<g>
			<polygon class="st1" points="246.7,93.9 220,47.2 263.4,74.4 261.8,77 228.6,56.1 249.3,92.5 			"/>
		</g>
		<g>
			<polygon class="st1" points="305.2,132.5 260.3,106.8 261.7,104.2 296.4,124 276.2,91.4 278.7,89.8 			"/>
		</g>
		<g>
			<path class="st1" d="M262.6,107c-4.4,0-8.5-1.7-11.6-4.8c-6.4-6.4-6.4-16.8,0-23.2c3.1-3.1,7.2-4.8,11.6-4.8s8.5,1.7,11.6,4.8
				c6.4,6.4,6.4,16.8,0,23.2C271.1,105.3,267,107,262.6,107z M253.1,100.1c2.5,2.5,5.9,3.9,9.5,3.9c3.6,0,6.9-1.4,9.5-3.9
				c5.2-5.2,5.2-13.7,0-18.9c-2.5-2.5-5.9-3.9-9.5-3.9c-3.6,0-6.9,1.4-9.5,3.9C247.9,86.3,247.9,94.8,253.1,100.1L253.1,100.1z"/>
		</g>
	</g>
	<g>
		<path class="st1" d="M88.3,54.8h-4v-3h4V54.8z M80.3,54.8h-4v-3h4V54.8z M72.3,54.8h-4v-3h4V54.8z M64.3,54.8h-4v-3h4V54.8z
			 M56.3,54.8h-4v-3h4V54.8z M48.3,54.8h-4v-3h4V54.8z M40.3,54.8h-4v-3h4V54.8z M32.3,54.8h-4v-3h4V54.8z"/>
	</g>
	<g>
		<rect x="57.6" y="35" class="st1" width="24.3" height="3"/>
	</g>
</g>
</svg>
