<?xml version="1.0" encoding="utf-8"?>
<!-- Generator: Adobe Illustrator 26.0.3, SVG Export Plug-In . SVG Version: 6.00 Build 0)  -->
<svg version="1.1" id="Layer_1" xmlns="http://www.w3.org/2000/svg" xmlns:xlink="http://www.w3.org/1999/xlink" x="0px" y="0px"
	 viewBox="0 0 512 512" style="enable-background:new 0 0 512 512;" xml:space="preserve">
<style type="text/css">
	.st0{fill:#6E6E6E;}
</style>
<path class="st0" d="M0,144v288c0,25.6,22.4,48,48,48h48V96H48C22.4,96,0,118.4,0,144z M336,0H176c-25.6,0-48,22.4-48,48v432h256V48
	C384,22.4,361.6,0,336,0z M336,96H176V48h160V96z M464,96h-48v384h48c25.6,0,48-22.4,48-48V144C512,118.4,489.6,96,464,96z"/>
</svg>
