<?xml version="1.0" encoding="utf-8"?>
<!-- Generator: Adobe Illustrator 26.0.3, SVG Export Plug-In . SVG Version: 6.00 Build 0)  -->
<svg version="1.1" id="Layer_1" xmlns="http://www.w3.org/2000/svg" xmlns:xlink="http://www.w3.org/1999/xlink" x="0px" y="0px"
	 viewBox="0 0 500 500" style="enable-background:new 0 0 500 500;" xml:space="preserve">
<style type="text/css">
	.st0{fill:#5991CB;}
	.st1{fill:none;stroke:#6E6E6E;stroke-width:3;stroke-linecap:round;stroke-linejoin:round;stroke-miterlimit:10;}
	
		.st2{fill:none;stroke:#6E6E6E;stroke-width:3;stroke-linecap:round;stroke-linejoin:round;stroke-miterlimit:10;stroke-dasharray:2.1967,7.3225;}
	.st3{fill:none;stroke:#5991CB;stroke-width:3;stroke-linecap:round;stroke-linejoin:round;stroke-miterlimit:10;}
	.st4{fill:#6E6E6E;}
</style>
<g>
	<g>
		<path class="st0" d="M244,451.7H96.3v5.3c0,9.9,8.4,18,18.6,18h304c10.3,0,18.6-8.1,18.6-18v-5.3H278.1c-3.6,3.7-8.7,5.8-13.9,5.8
			h-5.9c-5.3,0-10.3-2.1-13.9-5.8H244z"/>
		<path class="st1" d="M233.6,445.3H85.2v1.6c0,12,9.8,21.8,21.8,21.8h300c12,0,21.8-9.8,21.8-21.8v-1.6H268
			c-3.6,3.7-8.7,5.8-14.1,5.8h-6c-5.3,0-10.4-2.1-14.1-5.8H233.6z"/>
		<path class="st0" d="M338.9,258.9c-21.3,0-38.6,17.3-38.6,38.6c0,21.3,17.3,38.6,38.6,38.6c21.3,0,38.6-17.3,38.6-38.6
			C377.4,276.1,360.2,258.9,338.9,258.9z M356.1,299.3l-12.6,8.8l-10.7,7.5c-2.2,1.6-5-0.4-5-3.5v-14.9v-14.9c0-3.1,2.8-5.1,5-3.5
			l10.7,7.5l12.6,8.8C357.6,296,357.6,298.3,356.1,299.3z"/>
		<path class="st1" d="M333.6,251.9c-21.3,0-38.6,17.3-38.6,38.6c0,21.3,17.3,38.6,38.6,38.6c21.3,0,38.6-17.3,38.6-38.6
			C372.2,269.1,354.9,251.9,333.6,251.9z M350.8,292.3l-12.6,8.8l-10.7,7.5c-2.2,1.6-5-0.4-5-3.5v-14.9v-14.9c0-3.1,2.8-5.1,5-3.5
			l10.7,7.5l12.6,8.8C352.3,289,352.3,291.3,350.8,292.3z"/>
		<path class="st1" d="M414.8,441.8V231.1c0-6.9-5.6-12.5-12.5-12.5H111.7c-6.9,0-12.5,5.6-12.5,12.5v210.7"/>
		<rect x="283.9" y="390.4" class="st1" width="102.8" height="23.4"/>
		<line class="st2" x1="286.2" y1="358.8" x2="386.7" y2="358.8"/>
	</g>
	<path class="st1" d="M271,152h19.9v-50.3c4.5,1.3,9.4,1.6,14.5,0.5c12.1-2.7,21.4-13,22.4-25.4c1.5-17-12-31.2-28.7-31.2
		c-3.9,0-7.7,0.8-11.1,2.2c-5.6-13.3-18.8-22.7-34.2-22.7c-15.4,0-28.6,9.4-34.2,22.7c-5.1-2.1-10.9-2.8-16.9-1.6
		C191,48.4,181.8,57.9,180,69.6c-2.8,17.8,11.1,33.2,28.5,33.2c1.4,0,2.8-0.1,4.1-0.3v33.1"/>
	<line class="st1" x1="217.3" y1="128.6" x2="290.9" y2="128.6"/>
	<g>
		<circle class="st3" cx="393.1" cy="172.4" r="32.1"/>
		<path class="st3" d="M428.2,227.4l10.8,10.8l19.5-19.5l-10.8-10.8c4-6.3,7-13.3,8.7-20.9H472v-28h-14.4
			c-1.7-7.5-4.7-14.6-8.8-20.8l11-10.8L440,107.8l-11,10.8c-6.4-4-13.6-7-21.2-8.7V94.7h-28v14.4c-7.5,1.7-14.6,4.7-20.8,8.8
			l-10.8-11l-19.5,19.8l10.8,11c-4,6.4-7,13.6-8.7,21.2h-15.3v28h15.4c1.6,7.5,4.6,14.6,8.7,20.9"/>
	</g>
	<g>
		<path class="st1" d="M92.8,240.7c-3.8-2.7-4.9-7.9-2.4-11.8l49.4-77.8"/>
		<line class="st1" x1="160.4" y1="165.4" x2="127.3" y2="209.1"/>
		<path class="st3" d="M71.7,211.7c-4.8-1.3-9.5-3.2-14.1-5.8c-30.2-17.4-39.4-57.9-20.6-90.4C55.9,83,95.5,70.7,125.7,88.1
			c13.1,7.6,22.3,19.5,26.9,33.2"/>
		<circle class="st3" cx="109.2" cy="114" r="14.6"/>
		<circle class="st3" cx="79.9" cy="180.6" r="14.6"/>
		<circle class="st3" cx="67.1" cy="135" r="14.6"/>
		<path class="st1" d="M180.8,147.5c-3.8,10.2-15.7,15.1-26.5,11c-10.8-4.1-16.5-15.6-12.6-25.8c3.8-10.2,24.2-15.6,34-30.8
			C184.9,120.5,184.7,137.4,180.8,147.5z"/>
	</g>
	<path class="st2" d="M382.5,87.1c-14-11.5-29.5-21.2-46.2-28.7"/>
	<path class="st2" d="M421.2,369.2c23.9-34,38-75.5,38-120.2c0-5.5-0.2-10.9-0.6-16.2"/>
	<path class="st2" d="M44.2,211.4c-2.2,12.2-3.4,24.7-3.4,37.6c0,53.8,20.3,102.8,53.7,139.9"/>
	<path class="st2" d="M174.5,53.8c-16.9,6.5-32.8,15.2-47.2,25.7c-2.6,1.9-5.2,3.9-7.7,5.9"/>
	<polyline class="st3" points="199.5,162.6 214.7,188.1 222.2,162.5 231.6,169.2 241.4,159.1 	"/>
</g>
<g>
	<g>
		<g>
			<path class="st0" d="M167.9,249.4l-12.9,3.5l-10.3,11.8l-5,17v33.6l0.8,62l9.4-7.3l18.7-10.9l4.8-7.9v-8.3l-9.3-7.6l-9.4-15.3
				l-3.5-17.1l1.1-13.7l11.8-12.4l6.5-2.4l9.8,4.8l19,5.2l14.8,2.6l8.5,3.9l2,7.6l-2.4,19.6l-4.6,10.3l-7.2,8.6l-6,5.2
				c0,0-2.3,1.4-1.6,5.8c0.7,4.3,3,9.2,3,9.2l11.5,8.3c0,0,13.7,7.3,13.9,7.5c0.3,0.2,7.4,6.8,7.4,6.8l-0.1-97.7l-3.8-17.2l-11-12.8
				l-17.4-7.7l-15.3-1.3l-14.3,3.7L167.9,249.4z"/>
		</g>
		<g>
			<ellipse class="st4" cx="205.1" cy="302.3" rx="3.6" ry="3.3"/>
		</g>
		<g>
			<ellipse class="st4" cx="171.3" cy="302.3" rx="3.6" ry="3.3"/>
		</g>
		<g>
			<g>
				<path class="st4" d="M141.2,377.2h-3.6v-90.4c0-11,3.3-20.5,9.7-28.1c7.8-9.2,19.1-11,21.3-11.3c2.1-1,13.6-6.4,25.2-6.4
					c28.7,0.5,46.5,17.2,46.5,43.4v84.3h-3.6v-84.3c0-24.3-16.4-39.7-42.9-40.1c-11.6,0-23.6,6.1-23.7,6.2c-0.2,0.1-0.5,0.2-0.7,0.2
					c-0.1,0-11.7,1.1-19.2,10.1c-6,7.1-9,15.9-9,26.2V377.2z"/>
			</g>
			<g>
				<path class="st4" d="M198.8,302.1l-2.3-2.5c5.5-4.2,11.4-2.6,15.3-1.6c1.2,0.3,2.4,0.6,3,0.6v3.3c-1.2,0-2.5-0.3-4-0.8
					C207,300.2,202.8,299,198.8,302.1z"/>
			</g>
			<g>
				<path class="st4" d="M178.4,302.1c-4-3.1-8.2-2-12-1c-1.5,0.4-2.8,0.8-4,0.8v-3.3c0.7,0,1.8-0.3,3-0.6c3.9-1,9.8-2.6,15.3,1.6
					L178.4,302.1z"/>
			</g>
			<g>
				<path class="st4" d="M193,319.3c-1.1-1-2.6-1.6-4.1-1.6c-1.6,0-3,0.6-4.1,1.6l-2.6-2.3c1.8-1.6,4.1-2.6,6.7-2.6
					c2.5,0,4.9,0.9,6.7,2.6L193,319.3z"/>
			</g>
			<g>
				<path class="st4" d="M188.6,400c-0.3,0-0.5-0.1-0.8-0.2c-26.4-11.6-31.6-33.3-31.9-34.2l3.5-0.7l-1.8,0.3l1.8-0.3
					c0,0.2,5,20.6,29.1,31.6c4.2-2.1,24.2-12.8,29.8-30.8l3.5,0.9c-6.8,21.5-31.4,32.7-32.5,33.2C189.2,400,188.9,400,188.6,400z"/>
			</g>
			<g>
				<path class="st4" d="M188.8,351.2c-5.6,0-11.4-2-15.5-5.5c-0.3-0.2-7.4-6.1-10-8.7c-11.2-10.7-13.6-25.4-13.6-35.8v-4.9
					c0-18.2,20.1-23.7,20.3-23.7c0.5-0.1,1-0.1,1.5,0.2c12.3,7.4,24.7,9.3,34.6,10.9c11.4,1.8,20.5,3.2,20.5,12.6v4.9
					c0,10.4-2.4,25.1-13.6,35.8c-2.6,2.5-9.7,8.4-10,8.7C198.6,349.5,194.1,351.2,188.8,351.2z M170.3,276
					c-3.4,1.1-16.9,6.3-16.9,20.4v4.9c0,9.8,2.2,23.7,12.6,33.6c2.5,2.4,9.7,8.4,9.8,8.5c3.4,2.8,8.4,4.6,13.1,4.6
					c4.3,0,8.1-1.5,11.8-4.6c0.1-0.1,7.3-6.1,9.8-8.5c10.4-9.9,12.6-23.7,12.6-33.6v-4.9c0-6.4-5.7-7.5-17.5-9.4
					C195.5,285.4,183,283.4,170.3,276z"/>
			</g>
			<g>
				<path class="st4" d="M226.2,423.8l-3.3-1.2c1.6-3.5,1.6-8-0.1-13.6l3.5-0.8C228.1,414.4,228.1,419.6,226.2,423.8z"/>
			</g>
			<g>
				<path class="st4" d="M256.2,425.4H119.8c-0.5,0-1-0.2-1.3-0.5c-0.3-0.3-0.5-0.7-0.5-1.2c0.6-13,1.6-17.1,3.4-23.2c0,0,0,0,0-0.1
					c7.6-21.8,23.8-30.4,35.6-36.7c4.6-2.5,8.6-4.6,11.2-7c4.8-4.4,3.4-12.8,3.4-12.9l3.5-0.5c0.1,0.4,1.7,10.1-4.3,15.7
					c-2.9,2.7-7.1,4.9-11.9,7.5c-11.9,6.4-26.8,14.3-33.9,34.8c-1.6,5.6-2.6,9.5-3.2,20.8h132.7c-0.6-11.3-1.5-15.2-3.2-20.8
					c-7.2-20.5-22-28.5-33.9-34.8c-4.8-2.6-9-4.8-11.9-7.5c-4.9-4.5-4.6-13.1-4.4-15.6l3.6,0.2c-0.1,1.5-0.5,9.4,3.4,13.1
					c2.6,2.4,6.6,4.5,11.2,7c11.8,6.3,28,14.9,35.6,36.7c0,0,0,0,0,0.1c1.8,6.1,2.8,10.2,3.4,23.2c0,0.4-0.2,0.9-0.5,1.2
					C257.2,425.2,256.7,425.4,256.2,425.4z"/>
			</g>
			<g>
				<path class="st4" d="M150.5,424.1c-3.4-4.6-3.4-9.9-0.1-16.2l3.2,1.4c-2.7,5.2-2.7,9.4-0.1,13L150.5,424.1z"/>
			</g>
			<g>
				<path class="st4" d="M188.3,338.5c-1.9,0-3.6-0.6-5-1.8l2.4-2.4c0.7,0.6,1.6,0.9,2.6,0.9c0.9,0,1.8-0.3,2.5-0.8l2.3,2.5
					C191.8,337.9,190.1,338.5,188.3,338.5z"/>
			</g>
			<g>
				<path class="st4" d="M188.2,331.9c-0.3,0-0.6-0.1-0.8-0.2l-2.5-1.2c-1.6,0.3-5.2,0.8-8.3-0.6l1.6-2.9c2.7,1.2,6.4,0.3,6.5,0.3
					c0.5-0.1,0.9-0.1,1.3,0.1l2.3,1.1l2.4-1.1c0.4-0.2,0.9-0.2,1.3-0.1c0,0,3.9,1,6.6-0.3l1.6,2.9c-3.1,1.4-6.9,0.9-8.5,0.6
					l-2.6,1.2C188.8,331.8,188.5,331.9,188.2,331.9z"/>
			</g>
		</g>
	</g>
</g>
</svg>
