<?xml version="1.0" encoding="utf-8"?>
<!-- Generator: Adobe Illustrator 26.0.3, SVG Export Plug-In . SVG Version: 6.00 Build 0)  -->
<svg version="1.1" id="Layer_1" xmlns="http://www.w3.org/2000/svg" xmlns:xlink="http://www.w3.org/1999/xlink" x="0px" y="0px"
	 viewBox="0 0 339 343.3" style="enable-background:new 0 0 339 343.3;" xml:space="preserve">
<style type="text/css">
	.st0{fill:#6F6F6F;}
	.st1{fill:#5D91C7;}
</style>
<g>
	<g>
		<path class="st0" d="M160.4,80.5l-2.7-1.3c0.5-1.2,1.1-2.4,1.5-3.6l2.8,1.1C161.5,78,161,79.2,160.4,80.5z M163.3,72.8l-2.9-0.8
			c0.4-1.2,0.7-2.5,0.9-3.8l2.9,0.6C164,70.1,163.7,71.5,163.3,72.8z M164.9,64.7l-3-0.4c0.2-1.3,0.3-2.6,0.3-3.9l3,0.1
			C165.2,62,165.1,63.4,164.9,64.7z M162.3,56.6c0-1.3-0.1-2.6-0.3-3.9l3-0.3c0.1,1.4,0.2,2.7,0.3,4.1L162.3,56.6z M161.5,48.9
			c-0.2-1.3-0.5-2.5-0.9-3.8l2.9-0.8c0.4,1.3,0.7,2.7,0.9,4L161.5,48.9z M159.4,41.4c-0.4-1.2-0.9-2.4-1.5-3.6l2.7-1.2
			c0.6,1.2,1.1,2.5,1.6,3.8L159.4,41.4z M156.2,34.4c-0.6-1.1-1.3-2.2-2-3.3l2.5-1.7c0.8,1.1,1.5,2.3,2.1,3.5L156.2,34.4z
			 M151.9,27.9c-0.8-1-1.6-2-2.5-3l2.2-2c0.9,1,1.8,2.1,2.7,3.1L151.9,27.9z M146.7,22.1c-0.9-0.9-1.9-1.7-2.9-2.5l1.9-2.3
			c1.1,0.9,2.1,1.8,3.1,2.7L146.7,22.1z M79.4,21.7l-1.8-2.4l1.7-1.2c0.5-0.4,1-0.8,1.5-1.2l1.8,2.4c-0.5,0.4-1,0.8-1.4,1.2
			l-0.1,0.1L79.4,21.7z M140.7,17.3c-1.1-0.7-2.2-1.4-3.3-2.1l1.5-2.6c1.2,0.7,2.4,1.4,3.5,2.2L140.7,17.3z M85.7,17l-1.7-2.5
			c1.1-0.8,2.3-1.5,3.5-2.1l1.5,2.6C87.9,15.6,86.8,16.3,85.7,17z M133.9,13.5c-1.2-0.5-2.4-1.1-3.6-1.5l1.1-2.8
			c1.3,0.5,2.6,1,3.8,1.6L133.9,13.5z M92.5,13.2l-1.2-2.7c1.2-0.6,2.5-1.1,3.8-1.6l1,2.8C94.9,12.2,93.7,12.7,92.5,13.2z
			 M126.7,10.7c-1.2-0.4-2.5-0.7-3.8-0.9l0.6-2.9c1.3,0.3,2.7,0.6,4,1L126.7,10.7z M99.8,10.6L99,7.7c1.3-0.4,2.7-0.7,4-0.9l0.6,2.9
			C102.3,9.9,101.1,10.2,99.8,10.6z M119.1,9.2c-1.3-0.2-2.6-0.3-3.9-0.3l0.1-3c1.4,0.1,2.7,0.2,4.1,0.3L119.1,9.2z M107.4,9.1
			l-0.3-3c1.4-0.2,2.7-0.2,4.1-0.3l0.1,3C110,8.9,108.7,9,107.4,9.1z"/>
	</g>
	<g>
		<path class="st1" d="M106.7,70.1c0-1.9,0.1-3.6,0.3-5.1c0.2-1.5,0.6-2.9,1.1-4.1c0.5-1.3,1.2-2.4,2-3.5c0.8-1.1,1.8-2.2,3-3.2
			c0.9-0.8,1.8-1.7,2.6-2.4c0.8-0.8,1.5-1.6,2.1-2.4c0.6-0.8,1-1.6,1.4-2.5c0.3-0.9,0.5-1.8,0.5-2.8c0-2.4-0.5-4.1-1.7-5.3
			c-1.1-1.2-2.7-1.8-4.9-1.8c-0.9,0-1.7,0.1-2.5,0.4c-0.8,0.3-1.6,0.7-2.2,1.3c-0.6,0.6-1.2,1.3-1.5,2.2c-0.4,0.9-0.6,2-0.6,3.2
			H94.1c0-2.9,0.5-5.5,1.5-7.6c1-2.1,2.4-3.9,4.1-5.3c1.7-1.4,3.7-2.4,6-3.1c2.3-0.7,4.8-1,7.4-1c2.9,0,5.5,0.4,7.9,1.1
			c2.3,0.7,4.3,1.8,5.9,3.2c1.6,1.4,2.8,3.1,3.7,5.1c0.8,2,1.3,4.4,1.3,7c0,1.8-0.3,3.5-0.8,5c-0.6,1.5-1.3,2.9-2.3,4.2
			c-0.9,1.3-2,2.6-3.3,3.8c-1.2,1.2-2.5,2.4-3.9,3.7c-0.8,0.7-1.4,1.5-1.9,2.2c-0.5,0.7-0.9,1.5-1.3,2.3c-0.3,0.8-0.5,1.6-0.7,2.5
			c-0.1,0.9-0.2,1.9-0.2,3H106.7z M105.6,83c0-0.9,0.2-1.7,0.5-2.5c0.3-0.8,0.8-1.4,1.3-2c0.6-0.6,1.3-1,2.1-1.3
			c0.8-0.3,1.7-0.5,2.8-0.5c1,0,1.9,0.2,2.8,0.5c0.8,0.3,1.5,0.8,2.1,1.3c0.6,0.6,1,1.2,1.3,2c0.3,0.8,0.5,1.6,0.5,2.5
			c0,0.9-0.2,1.7-0.5,2.5c-0.3,0.8-0.8,1.4-1.3,2c-0.6,0.6-1.3,1-2.1,1.3c-0.8,0.3-1.7,0.5-2.8,0.5c-1,0-1.9-0.2-2.8-0.5
			c-0.8-0.3-1.5-0.8-2.1-1.3c-0.6-0.6-1-1.2-1.3-2C105.8,84.7,105.6,83.9,105.6,83z"/>
	</g>
	<g>
		<g>
			<g>
				<path class="st1" d="M195.1,85.1h-3V43.2c0-5.2,4.4-9.4,9.8-9.4h26.6v3h-26.6c-3.8,0-6.8,2.9-6.8,6.4V85.1z"/>
			</g>
			<g>
				<path class="st1" d="M318.6,204.5h-61.2v-3h61.2c3.8,0,6.8-2.9,6.8-6.4V43.2c0-3.5-3.1-6.4-6.8-6.4h-15.9v-3h15.9
					c5.4,0,9.8,4.2,9.8,9.4v151.9C328.4,200.3,324,204.5,318.6,204.5z"/>
			</g>
			<g>
				<polygon class="st1" points="314.4,190.5 262.3,190.5 262.3,187.5 311.4,187.5 311.4,57.2 209.1,57.2 209.1,92.8 206.1,92.8 
					206.1,54.2 314.4,54.2 				"/>
			</g>
			<g>
				<path class="st1" d="M292.9,57.2h-66.4V37.9c0-5.8,4.8-10.6,10.6-10.6h45.2c5.8,0,10.6,4.8,10.6,10.6V57.2z M229.5,54.2h60.4
					V37.9c0-4.2-3.4-7.6-7.6-7.6h-45.2c-4.2,0-7.6,3.4-7.6,7.6V54.2z"/>
			</g>
			<g>
				<path class="st1" d="M279,30.3h-38.5v-9.2c0-4.3,3.5-7.8,7.8-7.8h22.9c4.3,0,7.8,3.5,7.8,7.8V30.3z M243.5,27.3H276v-6.2
					c0-2.6-2.1-4.8-4.8-4.8h-22.9c-2.6,0-4.8,2.1-4.8,4.8V27.3z"/>
			</g>
		</g>
		<g>
			<polygon class="st0" points="290.7,94 282.2,86 284.3,83.8 290.2,89.4 298.4,77.6 300.9,79.3 			"/>
		</g>
		<g>
			<polygon class="st0" points="290.7,130.5 282.2,122.5 284.3,120.3 290.2,125.9 298.4,114.1 300.9,115.8 			"/>
		</g>
		<g>
			<polygon class="st0" points="290.7,167 282.2,159 284.3,156.8 290.2,162.4 298.4,150.6 300.9,152.3 			"/>
		</g>
		<g>
			<rect x="223.2" y="81.1" class="st1" width="49.5" height="3"/>
		</g>
		<g>
			<rect x="240.3" y="90.7" class="st1" width="32.3" height="3"/>
		</g>
		<g>
			<rect x="242" y="117.6" class="st1" width="30.6" height="3"/>
		</g>
		<g>
			<rect x="255.4" y="127.3" class="st1" width="17.2" height="3"/>
		</g>
		<g>
			<rect x="255.4" y="154.2" class="st1" width="17.2" height="3"/>
		</g>
		<g>
			<rect x="255.4" y="162.8" class="st1" width="17.2" height="3"/>
		</g>
	</g>
	<g>
		<polygon class="st0" points="29.6,209.3 26.7,209.1 27.3,197.2 38.3,197.2 30.9,175.7 54.2,185.9 53,188.6 35.9,181.2 42.6,200.2 
			30.1,200.2 		"/>
	</g>
	<g>
		<path class="st0" d="M299.5,235c-3.9,0-7-3.2-7-7s3.2-7,7-7c3.9,0,7,3.2,7,7S303.3,235,299.5,235z M299.5,223.9c-2.2,0-4,1.8-4,4
			c0,2.2,1.8,4,4,4c2.2,0,4-1.8,4-4C303.5,225.7,301.7,223.9,299.5,223.9z"/>
	</g>
	<g>
		<path class="st0" d="M184.2,308.4l-8.2-18.1l21.6,2.7L184.2,308.4z M181,293.9l4,9l6.6-7.6L181,293.9z"/>
	</g>
	<g>
		<path class="st1" d="M141.6,265.3c-17.2-3.5-30.9-11-43-23c-2.5-2.5-5.4-5.4-7.5-7.6H31.2c-5.3,0-9.6,3.9-9.6,9.5v68.5
			c0,5.5,4.3,9.4,9.6,9.4h97.9h1.9h32.6l-22-23.5V265.3z"/>
		<g>
			<path class="st0" d="M169.2,324.9H19.9c-6.7,0-12.1-5.4-12.1-12.1v-71.5c0-6.7,5.4-12.1,12.1-12.1H72v3H19.9
				c-5,0-9.1,4.1-9.1,9.1v71.5c0,5,4.1,9.1,9.1,9.1h142l-23.2-23.2V277h3v20.5L169.2,324.9z"/>
		</g>
		<g>
			<rect x="33.8" y="297.4" class="st1" width="79.1" height="3"/>
		</g>
		<g>
			<rect x="33.8" y="253.7" class="st1" width="38.2" height="3"/>
		</g>
		<g>
			<rect x="94.4" y="275.5" class="st1" width="15.9" height="3"/>
		</g>
		<g>
			<rect x="33.8" y="275.5" class="st1" width="46.4" height="3"/>
		</g>
		<g>
			<path class="st1" d="M63.8,153H10.5v-16.2c0-0.8-0.2-19.8,16.4-28.7c3.5-2.3,8.9-4.3,9.2-4.4l0.7-0.3l0.6,0.4
				c0.1,0.1,9.6,5.7,20.5,5.7c10.9,0,20.5-5.5,20.6-5.5l0.6-0.3l0.6,0.2c0.3,0.1,6.6,2.2,10,4.4l-1.6,2.5c-2.5-1.6-7.1-3.3-8.7-3.9
				c-2.4,1.3-11.3,5.6-21.5,5.6c-10.2,0-18.9-4.4-21.4-5.7c-1.5,0.6-5.4,2.2-8,3.9l-0.1,0.1c-15.1,8-14.9,25.8-14.9,26l0,13.2h50.3
				V153z"/>
		</g>
		<g>
			<rect x="35.1" y="129.7" class="st1" width="3" height="21.8"/>
		</g>
		<g>
			<path class="st1" d="M84.1,63.2l-1.3-4.6c-1.7-6.1-4.1-9.8-7-11c-2-0.8-3.7,0.1-6.7,1.8c-2.6,1.5-5.8,3.3-9.9,3.5
				c-0.4,0-0.8,0-1.2,0c-0.4,0-0.8,0-1.2,0c-4.1-0.2-7.3-2.1-9.9-3.5c-3-1.7-4.8-2.6-6.7-1.8c-3,1.2-5.4,5-7.1,11l-1.3,4.6l-1.6-4.5
				c-0.7-2-2.8-9.1-0.6-17.2c0.8-2.9,2.8-8.4,7.7-12.7c7.2-6.3,16.4-6.4,19.9-6.4l0.4,0l0.5,0l0.4,0l0.4,0c3.5,0,12.7,0.1,19.9,6.4
				c4.8,4.3,6.9,9.8,7.7,12.7c2.2,8.1,0.1,15.2-0.6,17.2L84.1,63.2z M74.3,44.3c0.8,0,1.7,0.2,2.6,0.5c2.9,1.2,5.3,3.9,7.1,8.1
				c0.4-2.8,0.5-6.6-0.6-10.6c-0.7-2.6-2.5-7.5-6.8-11.2c-6.3-5.6-14.5-5.6-17.9-5.7l-0.3,0l-0.4,0l-0.5,0l-0.3,0
				c-3.5,0-11.6,0.1-17.9,5.7c-4.3,3.8-6.1,8.6-6.8,11.2c-1.1,4-1,7.8-0.6,10.6c1.8-4.2,4.2-6.9,7.1-8.1c3.4-1.4,6.3,0.3,9.3,2
				c2.5,1.4,5.2,2.9,8.6,3.1c0.4,0,0.7,0,1.1,0c0.4,0,0.7,0,1.1,0c3.4-0.2,6.1-1.7,8.6-3.1C69.9,45.5,72,44.3,74.3,44.3z"/>
		</g>
		<g>
			<path class="st1" d="M57.3,96.4c-5.2,0-10.8-2.4-16.2-6.9c-6.3-5.4-8.8-12-9.8-15.7c-1.2-1.1-2.9-3.2-3.9-6.2
				c-0.3-0.8-2.5-8,1.7-10.8c0.7-0.4,1.4-0.7,2.2-0.8l0.5,3c-0.4,0.1-0.7,0.2-1,0.4c-1.8,1.2-1.1,5.5-0.5,7.4
				c0.8,2.7,2.4,4.4,3.3,5.2l0.4,0.3l0.1,0.5c0.8,3.3,3.1,9.6,8.9,14.6c4.9,4.2,10,6.4,14.7,6.2l0.5,0c4.7,0.1,9.7-2,14.7-6.2
				c5.9-5,8.1-11.3,8.9-14.6l0.1-0.5l0.4-0.3c0.9-0.8,2.5-2.5,3.3-5.2c0.6-1.9,1.3-6.2-0.5-7.4c-0.3-0.2-0.6-0.3-1-0.4l0.5-3
				c0.9,0.1,1.7,0.4,2.3,0.9c4.1,2.8,1.9,10,1.6,10.8c-0.9,3-2.7,5.1-3.9,6.2c-1,3.7-3.5,10.4-9.8,15.7c-5.5,4.7-11.3,7.1-16.7,7
				l-0.4,0C57.6,96.4,57.5,96.4,57.3,96.4z"/>
		</g>
		<path class="st1" d="M312.4,323c-10.7,10.7-28.1,10.7-38.8,0l-30.2-30.2c-6.3-6.3-6.3-16.4,0-22.7l27.4-27.4l41.5,41.5
			C323.1,295,323.1,312.3,312.4,323z"/>
		<path class="st1" d="M194,203c-2.9-1.9-7.9-4-10.6-4.7c-5.8,4.2-12.1,6.5-18.2,5h-0.7c-6.2,1.6-12.7,2.4-18.7-2.7
			c-2.7,1.4-5.8,2.5-8.8,4.5c-10.5,6.7-15,30.6-15,30.6c10.3,11.4,26.2,12.3,42.7,12.3c16.3,0,31-6.9,41.2-18
			C205.4,223.5,204.8,209.9,194,203z"/>
		<g>
			<path class="st0" d="M160.2,250.9c-31.8,0-47.8-20.7-48.4-21.5l-0.4-0.5l0.1-0.7c0.2-0.8,4.1-20.7,16.5-28.6
				c3.4-2.3,9.8-5.6,10.1-5.7l1-0.5l0.8,0.8c0.1,0.1,7.4,7.7,20.1,7.7c12.7,0,20.2-7.6,20.2-7.7l0.8-0.8l1,0.6
				c0.3,0.1,6.5,3.6,9.8,5.7c12.7,8.1,15.8,21.8,16.5,29.3l0.1,0.6l-0.4,0.5C207.4,230.7,192,250.9,160.2,250.9z M114.6,228
				c2.7,3.2,18.2,19.8,45.6,19.8c27.7,0,42.7-16.4,45.1-19.3c-0.9-8.4-4.4-19.6-15.1-26.5c-2.5-1.6-6.8-4-8.7-5.1
				c-2.4,2.2-10,7.8-21.6,7.8c-11.6,0-19.1-5.7-21.5-7.9c-1.9,1-6.4,3.4-8.9,5.1C119.5,208.5,115.4,224.6,114.6,228z"/>
		</g>
		<g>
			<rect x="133.3" y="227.9" class="st0" width="3" height="15.4"/>
		</g>
		<g>
			<rect x="185.1" y="227.9" class="st0" width="3" height="15.2"/>
		</g>
		<g>
			<path class="st0" d="M159.7,189.2c-9.1,0-21-7.7-23.5-18.8l-1.9-7.3c-7.1-4.9-8.3-10.4-7-13.9c0.7-1.7,2-3,3.5-3.6
				c-0.8-2.9-3.2-13.3,0.3-22.2c0.1-0.2,0.1-0.4,0.2-0.6c0.9-2.3,2.7-7.2,7.4-11.1c7.1-5.9,16.4-5.9,19.9-6l0.4,0l0.5,0l0.4,0l0.4,0
				c3.5,0,12.7,0.1,19.9,6c4.9,4,6.9,9.1,7.7,11.8c1.8,6.3,0.7,17.3-0.3,21.9c1.5,0.5,2.6,1.6,3.2,3.3c1.4,4.1-0.8,10.4-6.8,14.2
				l-0.9,7.3C180.7,181.7,167.4,189.2,159.7,189.2z M132.6,148.3c-1,0-2,0.7-2.5,2c-0.9,2.4,0.2,6.6,6.3,10.6l0.5,0.3l2.2,8.5
				c2.1,9.5,12.6,16.5,20.6,16.5c6.8,0,18.4-6.9,20.5-16.4l1-8.6l0.7-0.4c5.6-3.2,6.9-8.5,6.1-11c-0.5-1.5-1.5-1.5-1.9-1.5l-0.1,0
				c-0.6,0.1-15.2,1.5-25.2-6.4c-3.9-3.1-6.2-5.7-7.9-7.5c-2.5-2.8-3.3-3.7-6.1-3.4c-3.4,0.4-9.2,9.9-12.2,16.5l-0.5,1l-1.1-0.2
				C132.8,148.3,132.7,148.3,132.6,148.3z M147.7,128c3.4,0,5,1.8,7.4,4.4c1.6,1.8,3.8,4.3,7.5,7.2c7.6,6,18.6,6,22,5.9
				c0.8-3.6,2.2-15,0.4-21c-0.7-2.4-2.5-6.9-6.7-10.4c-6.3-5.2-14.8-5.3-18-5.3l-0.3,0l-0.4,0l-0.5,0l-0.3,0c-3.2,0-11.6,0.1-18,5.3
				c-4.1,3.4-5.7,7.7-6.5,9.9c-0.1,0.2-0.2,0.5-0.2,0.6c-2.6,6.7-1.5,14.6-0.6,18.5c2.7-5.3,8.1-14.5,13.1-15.1
				C146.9,128,147.3,128,147.7,128z"/>
		</g>
		<g>
			<path class="st0" d="M160.1,267.9c-23.7,0-46-9.2-62.8-26c-16.8-16.8-26-39-26-62.8c0-23.7,9.2-46,26-62.8
				c16.8-16.8,39-26,62.8-26c23.7,0,46,9.2,62.8,26c34.6,34.6,34.6,90.9,0,125.5C206.1,258.6,183.8,267.9,160.1,267.9z M160.1,93.4
				c-22.9,0-44.4,8.9-60.6,25.1c-16.2,16.2-25.1,37.7-25.1,60.6c0,22.9,8.9,44.4,25.1,60.6c16.2,16.2,37.7,25.1,60.6,25.1
				c22.9,0,44.4-8.9,60.6-25.1c33.4-33.4,33.4-87.8,0-121.3C204.5,102.3,183,93.4,160.1,93.4z"/>
		</g>
		<g>
			<path class="st0" d="M226,201.4l-2.8-1c0.4-1.2,0.8-2.5,1.1-3.7l2.9,0.8C226.9,198.8,226.5,200.1,226,201.4z M228.2,193.5
				l-2.9-0.6c0.3-1.3,0.5-2.6,0.7-3.8l3,0.4C228.7,190.9,228.5,192.2,228.2,193.5z M229.4,185.5l-3-0.3c0.1-1.3,0.2-2.6,0.2-3.9
				l3,0.1C229.6,182.7,229.5,184.1,229.4,185.5z M226.7,177.4c0-1.3-0.1-2.6-0.2-3.9l3-0.3c0.1,1.4,0.2,2.7,0.2,4.1L226.7,177.4z
				 M226,169.6c-0.2-1.3-0.4-2.6-0.7-3.9l2.9-0.6c0.3,1.3,0.5,2.7,0.7,4L226,169.6z"/>
		</g>
		<g>
			<path class="st0" d="M99.3,212.9c-0.7-1.2-1.3-2.4-1.9-3.6l2.7-1.3c0.6,1.2,1.2,2.3,1.8,3.5L99.3,212.9z M95.7,205.6
				c-0.5-1.3-1-2.5-1.4-3.8l2.8-1c0.4,1.2,0.9,2.5,1.4,3.7L95.7,205.6z M93.1,197.8c-0.4-1.3-0.7-2.6-1-4l2.9-0.6
				c0.3,1.3,0.6,2.6,0.9,3.8L93.1,197.8z M91.4,189.8c-0.2-1.3-0.4-2.7-0.5-4.1l3-0.3c0.1,1.3,0.3,2.6,0.5,3.9L91.4,189.8z
				 M90.6,181.7c0-0.9-0.1-1.8-0.1-2.7c0-0.5,0-0.9,0-1.4l3,0.1c0,0.4,0,0.9,0,1.3c0,0.9,0,1.7,0,2.6L90.6,181.7z M93.8,173.8
				l-3-0.2c0.1-1.4,0.3-2.7,0.4-4.1l3,0.4C94,171.2,93.9,172.5,93.8,173.8z M94.8,166l-2.9-0.6c0.3-1.3,0.6-2.7,0.9-4l2.9,0.8
				C95.4,163.5,95.1,164.7,94.8,166z M96.8,158.5l-2.9-0.9c0.4-1.3,0.9-2.6,1.4-3.8l2.8,1.1C97.6,156,97.2,157.2,96.8,158.5z
				 M99.6,151.2l-2.7-1.3c0.6-1.2,1.2-2.5,1.8-3.7l2.6,1.4C100.8,148.8,100.2,150,99.6,151.2z M103.3,144.3l-2.6-1.6
				c0.7-1.2,1.5-2.3,2.2-3.4l2.5,1.7C104.7,142.1,104,143.2,103.3,144.3z M107.8,137.9l-2.4-1.9c0.8-1.1,1.7-2.1,2.6-3.1l2.2,2
				C109.5,135.9,108.6,136.9,107.8,137.9z"/>
		</g>
		<g>
			
				<rect x="213.5" y="249.4" transform="matrix(0.7071 -0.7071 0.7071 0.7071 -121.651 228.5144)" class="st0" width="3" height="23.4"/>
		</g>
		<g>
			
				<rect x="242.1" y="220.8" transform="matrix(0.7071 -0.7071 0.7071 0.7071 -93.0625 240.3632)" class="st0" width="3" height="23.4"/>
		</g>
		<g>
			<path class="st0" d="M285.1,338.1c-9.2,0-17.9-3.6-24.4-10.1l-45.6-45.6l48.8-48.8l45.6,45.6c6.5,6.5,10.1,15.2,10.1,24.4
				c0,9.2-3.6,17.9-10.1,24.4C303,334.5,294.4,338.1,285.1,338.1z M219.4,282.4l43.5,43.5c5.9,5.9,13.9,9.2,22.3,9.2
				c8.4,0,16.3-3.3,22.3-9.2c5.9-5.9,9.2-13.9,9.2-22.3c0-8.4-3.3-16.3-9.2-22.3l-43.5-43.5L219.4,282.4z"/>
		</g>
		<g>
			<path class="st1" d="M36.8,106.7l-1.3-2.7c0.3-0.2,8.5-4.1,8.5-12.8h3C47,101.8,37.2,106.5,36.8,106.7z"/>
		</g>
		<g>
			<path class="st1" d="M78.5,106.6c-0.4-0.2-9.7-4.9-9.7-15.5h3c0,8.8,7.9,12.8,8,12.8L78.5,106.6z"/>
		</g>
		<g>
			<path class="st0" d="M137.9,197.1v-3c8,0,10.2-10,10.2-10.1l2.9,0.6C150.2,189,146.3,197.1,137.9,197.1z"/>
		</g>
		<g>
			<path class="st0" d="M182.4,197.1c-8.3,0-12.2-8.2-13.2-12.5l2.9-0.6c0.1,0.4,2.2,10.1,10.2,10.1V197.1z"/>
		</g>
	</g>
</g>
</svg>
