<?xml version="1.0" encoding="utf-8"?>
<!-- Generator: Adobe Illustrator 26.0.3, SVG Export Plug-In . SVG Version: 6.00 Build 0)  -->
<svg version="1.1" id="Layer_1" xmlns="http://www.w3.org/2000/svg" xmlns:xlink="http://www.w3.org/1999/xlink" x="0px" y="0px"
	 viewBox="0 0 90 90" style="enable-background:new 0 0 90 90;" xml:space="preserve">
<style type="text/css">
	.st0{fill:#6E6E6E;}
</style>
<path class="st0" d="M45.1,90c-24.8,0-45-20.2-45-45s20.2-45,45-45s45,20.2,45,45S69.9,90,45.1,90z M45.1,2.9C21.9,2.9,3,21.8,3,45
	s18.9,42.1,42.1,42.1S87.2,68.2,87.2,45S68.3,2.9,45.1,2.9z"/>
<path class="st0" d="M45.7,24.6c-1.1,0-2.3,0.3-3.4,0.8l-20.1,9.4c-0.6,0.3-1,0.9-1,1.5s0.4,1.2,1,1.5l20.1,9.4
	c1.1,0.5,2.2,0.8,3.4,0.8s2.3-0.3,3.4-0.8l17.7-8.3v16.3c-1.2,0.9-1.4,2.7-0.5,3.9c0.5,0.7,1.3,1.1,2.2,1.1c1.5,0,2.8-1.2,2.8-2.8
	c0-0.9-0.4-1.7-1.1-2.2V36.4l0,0l0,0c0-0.7-0.5-1.4-1.2-1.6l-19.9-9.3C48,24.9,46.8,24.6,45.7,24.6z M60.8,45.2L50,50.3
	c-1.4,0.6-2.8,1-4.3,1s-2.9-0.3-4.3-1l-10.8-5.1c-0.2,1.5-0.4,3.2-0.4,4.9c0,4,0.6,7.4,0.6,7.5c0.1,0.8,0.8,1.4,1.6,1.4
	c3.7,0,7.9,0.4,12,5c0.3,0.4,0.8,0.6,1.2,0.6s0.9-0.2,1.2-0.6c4.1-4.6,8.4-5,12-5c0.8,0,1.5-0.6,1.6-1.4c0-0.1,0.6-3.5,0.6-7.5
	C61.3,48.5,61.1,46.7,60.8,45.2z"/>
</svg>
