<?xml version="1.0" encoding="utf-8"?>
<!-- Generator: Adobe Illustrator 26.0.3, SVG Export Plug-In . SVG Version: 6.00 Build 0)  -->
<svg version="1.1" id="Layer_1" xmlns="http://www.w3.org/2000/svg" xmlns:xlink="http://www.w3.org/1999/xlink" x="0px" y="0px"
	 viewBox="0 0 90 90" style="enable-background:new 0 0 90 90;" xml:space="preserve">
<style type="text/css">
	.st0{fill:#43CB83;}
</style>
<path class="st0" d="M45.1,90c-24.8,0-45-20.2-45-45s20.2-45,45-45s45,20.2,45,45S69.9,90,45.1,90z M45.1,2.9C21.9,2.9,3,21.8,3,45
	s18.9,42.1,42.1,42.1S87.2,68.2,87.2,45S68.3,2.9,45.1,2.9z"/>
<path class="st0" d="M45.1,20c-8.9,0-16.2,7.3-16.2,16.2c0,6.5,8,17.8,12.8,24c0.8,1.1,2.1,1.7,3.4,1.7c1.3,0,2.6-0.6,3.4-1.7
	c4.8-6.2,12.8-17.5,12.8-24C61.3,27.3,54,20,45.1,20z M45.1,32.2c2.2,0,4.1,1.8,4.1,4.1c0,2.2-1.8,4.1-4.1,4.1
	c-2.2,0-4.1-1.8-4.1-4.1C41,34,42.9,32.2,45.1,32.2z M28.5,53.8c-1.9,0-3.6,1.1-4.3,2.8l-3,6.8c-0.7,1.5-0.5,3.2,0.4,4.5
	c0.9,1.3,2.4,2.2,4,2.2h39.2c1.6,0,3.1-0.8,4-2.2c0.9-1.3,1-3,0.4-4.5l-3-6.8c-0.8-1.7-2.5-2.8-4.3-2.8h-4.4
	c-0.9,1.3-1.8,2.7-2.8,4.1h7.2c0.3,0,0.5,0.2,0.6,0.4l3,6.8c0.1,0.3,0,0.5-0.1,0.6c-0.1,0.1-0.2,0.3-0.6,0.3H25.5
	c-0.3,0-0.5-0.2-0.6-0.3c-0.1-0.1-0.2-0.3-0.1-0.6l3-6.8c0.1-0.2,0.4-0.4,0.6-0.4h7.2c-1-1.4-1.9-2.8-2.8-4.1H28.5z"/>
</svg>
