<?xml version="1.0" encoding="utf-8"?>
<!-- Generator: Adobe Illustrator 26.0.3, SVG Export Plug-In . SVG Version: 6.00 Build 0)  -->
<svg version="1.1" id="Layer_1" xmlns="http://www.w3.org/2000/svg" xmlns:xlink="http://www.w3.org/1999/xlink" x="0px" y="0px"
	 viewBox="0 0 90 90" style="enable-background:new 0 0 90 90;" xml:space="preserve">
<style type="text/css">
	.st0{fill:#EFEFEF;}
</style>
<path class="st0" d="M45.1,90c-24.8,0-45-20.2-45-45c0-24.8,20.2-45,45-45c24.8,0,45,20.2,45,45C90.1,69.8,69.9,90,45.1,90z
	 M45.1,2.9C21.9,2.9,3,21.8,3,45c0,23.2,18.9,42.1,42.1,42.1c23.2,0,42.1-18.9,42.1-42.1C87.2,21.8,68.3,2.9,45.1,2.9z"/>
<path class="st0" d="M25.7,24.5c-3.1,0-5.6,2.5-5.6,5.6v28.7c0,3.1,2.5,5.6,5.6,5.6h14.4v4.4c0,0.7,0.4,1.3,0.9,1.6
	c0.6,0.3,1.3,0.3,1.9,0l2.2-1.3l2.2,1.3c0.3,0.2,0.6,0.2,0.9,0.2c0.3,0,0.7-0.1,0.9-0.3c0.6-0.3,0.9-1,0.9-1.6v-4.4h14.4
	c3.1,0,5.6-2.5,5.6-5.6V30.1c0-3.1-2.5-5.6-5.6-5.6H25.7z M30.7,33.3h28.8c1,0,1.9,0.8,1.9,1.9S60.5,37,59.4,37H30.7
	c-1,0-1.9-0.8-1.9-1.9S29.7,33.3,30.7,33.3z M33.2,40.8h23.8c1,0,1.9,0.8,1.9,1.9s-0.8,1.9-1.9,1.9H33.2c-1,0-1.9-0.8-1.9-1.9
	S32.2,40.8,33.2,40.8z M45.1,49.5c3.5,0,6.2,2.8,6.2,6.2c0,3.5-2.8,6.2-6.2,6.2s-6.2-2.8-6.2-6.2C38.8,52.3,41.6,49.5,45.1,49.5z"/>
</svg>
