<?xml version="1.0" encoding="utf-8"?>
<!-- Generator: Adobe Illustrator 26.0.3, SVG Export Plug-In . SVG Version: 6.00 Build 0)  -->
<svg version="1.1" id="Layer_1" xmlns="http://www.w3.org/2000/svg" xmlns:xlink="http://www.w3.org/1999/xlink" x="0px" y="0px"
	 viewBox="0 0 90 90" style="enable-background:new 0 0 90 90;" xml:space="preserve">
<style type="text/css">
	.st0{fill:#6E6E6E;}
</style>
<path class="st0" d="M45.1,90c-24.8,0-45-20.2-45-45s20.2-45,45-45s45,20.2,45,45S69.9,90,45.1,90z M45.1,2.9C21.9,2.9,3,21.8,3,45
	s18.9,42.1,42.1,42.1S87.2,68.2,87.2,45S68.3,2.9,45.1,2.9z"/>
<path class="st0" d="M38,20c-2.3,0-4.2,1.9-4.2,4.3v3h-8.9c-2.3,0-4.2,1.9-4.2,4.3v15.2h20.2v-0.6c0-1,0.8-1.8,1.8-1.8h3.6
	c0.4,0,0.8,0.1,1.1,0.4c2.7-2.5,6.3-4,10.3-4c4.2,0,7.9,1.7,10.7,4.4V31.6c0-2.4-1.9-4.3-4.2-4.3h-8.9v-3c0-2.3-1.9-4.3-4.2-4.3H38z
	 M38,23.7h13.1c0.4,0,0.6,0.2,0.6,0.6v3H37.4v-3C37.4,23.9,37.6,23.7,38,23.7z M57.6,43.2c-7.2,0-13.1,6-13.1,13.4S50.4,70,57.6,70
	s13.1-6,13.1-13.4S64.8,43.2,57.6,43.2z M56.4,48c0.7,0,1.2,0.5,1.2,1.2v7.3h6c0.7,0,1.2,0.5,1.2,1.2S64.2,59,63.6,59h-7.1
	c-0.7,0-1.2-0.5-1.2-1.2v-8.5C55.2,48.6,55.8,48,56.4,48z M20.7,50.5v9.1c0,2.4,1.9,4.3,4.2,4.3h19c-1.1-2.2-1.8-4.7-1.8-7.3
	c0-1.3,0.2-2.5,0.4-3.7c-0.9-0.1-1.6-0.9-1.6-1.8v-0.6H20.7z"/>
</svg>
