<?xml version="1.0" encoding="utf-8"?>
<!-- Generator: Adobe Illustrator 26.0.3, SVG Export Plug-In . SVG Version: 6.00 Build 0)  -->
<svg version="1.1" id="Layer_1" xmlns="http://www.w3.org/2000/svg" xmlns:xlink="http://www.w3.org/1999/xlink" x="0px" y="0px"
	 viewBox="0 0 90 90" style="enable-background:new 0 0 90 90;" xml:space="preserve">
<style type="text/css">
	.st0{fill:#43CB83;}
</style>
<path class="st0" d="M45.1,90c-24.8,0-45-20.2-45-45s20.2-45,45-45s45,20.2,45,45S69.9,90,45.1,90z M45.1,2.9C21.9,2.9,3,21.8,3,45
	s18.9,42.1,42.1,42.1S87.2,68.2,87.2,45S68.3,2.9,45.1,2.9z"/>
<path class="st0" d="M33,20.3c-2.6,0-4.8,2.1-4.8,4.8v6.8c0,4.8-1.5,9.4-4.3,13.2c-0.5,0.7-0.6,1.7-0.2,2.5c0.4,0.8,1.2,1.3,2.1,1.3
	h33.3c0.8,0,1.5-0.4,1.9-1c3.4-4.7,5.2-10.2,5.2-16V25c0-2.6-2.1-4.8-4.8-4.8H33z M66.3,48.6c-0.4,0.7-0.9,1.4-1.4,2.1
	c-1.3,1.8-3.5,2.9-5.8,2.9h-31v4.8c0,1.3,1.1,2.4,2.4,2.4h3.3l-3,6.1c-0.6,1.2-0.1,2.6,1.1,3.2c0.4,0.2,0.7,0.3,1.1,0.3
	c0.9,0,1.7-0.5,2.1-1.3l4.1-8.2h5.7v4.8c0,1.3,1.1,2.4,2.4,2.4s2.4-1.1,2.4-2.4v-4.8h5.7l4.1,8.2c0.4,0.8,1.2,1.3,2.1,1.3
	c0.4,0,0.7-0.1,1.1-0.3c1.2-0.6,1.6-2,1.1-3.2l-3-6.1H64c1.3,0,2.4-1.1,2.4-2.4V48.6z"/>
</svg>
