<?xml version="1.0" encoding="utf-8"?>
<!-- Generator: Adobe Illustrator 26.0.3, SVG Export Plug-In . SVG Version: 6.00 Build 0)  -->
<svg version="1.1" id="Layer_1" xmlns="http://www.w3.org/2000/svg" xmlns:xlink="http://www.w3.org/1999/xlink" x="0px" y="0px"
	 viewBox="0 0 90 90" style="enable-background:new 0 0 90 90;" xml:space="preserve">
<style type="text/css">
	.st0{fill:#43CB83;}
</style>
<path class="st0" d="M45.1,90c-24.8,0-45-20.2-45-45s20.2-45,45-45s45,20.2,45,45S69.9,90,45.1,90z M45.1,2.9C21.9,2.9,3,21.8,3,45
	s18.9,42.1,42.1,42.1S87.2,68.2,87.2,45S68.3,2.9,45.1,2.9z"/>
<path class="st0" d="M45.1,20c-13.8,0-25,11.2-25,25s11.2,25,25,25s25-11.2,25-25S58.9,20,45.1,20z M45.1,23.8
	c11.7,0,21.2,9.5,21.2,21.2c0,6.8-3.2,12.8-8.2,16.7L52.7,59l-0.2-3.1c1.2-1.3,2.2-2.8,2.9-4.8c0.7-0.4,2.2-1.6,2.2-4.2
	c0-1.5-0.6-2.4-1-2.9v-2.4v-1.6c0-2.9-0.8-7.4-3.3-7.4c0,0,0,0,0,0l-1.5-4.9c-12.5,0-18.3,2.9-18.3,12.5v1.4v2.4
	c-0.4,0.5-1,1.4-1,2.9c0,2.5,1.6,3.7,2.2,4.2c0.7,1.9,1.8,3.5,2.9,4.8L37.5,59l-5.4,2.7c-5-3.9-8.2-9.9-8.2-16.7
	C23.9,33.3,33.4,23.8,45.1,23.8z M38.4,36.3c0,0,3,1,6.7,1s5.8-1,5.8-1c2.9,2.5,2.9,8.7,2.9,8.7v0.1l0.4,0.4c0,0,0.6,0.7,0.6,1.5
	c0,1.5-1.1,2-1.1,2L53,49.3l-0.2,0.6c-0.8,2.4-2.5,4.4-4.1,5.8c-0.8,0.7-1.5,1.2-2.1,1.5c-0.3,0.2-0.5,0.3-0.7,0.4c0,0,0,0,0,0h-1
	h-1c0,0,0,0,0,0c-0.1-0.1-0.4-0.2-0.7-0.4c-0.6-0.3-1.3-0.8-2.1-1.5c-1.6-1.3-3.3-3.3-4.1-5.8l-0.2-0.6L36.6,49c0,0-1.1-0.5-1.1-2
	c0-0.8,0.6-1.5,0.6-1.5l0.4-0.4V45C36.4,45,36.3,38.4,38.4,36.3z M40.5,58.5c0.5,0.4,1.1,0.9,1.5,1.1c0.3,0.2,0.7,0.4,0.9,0.5
	c0.1,0.1,0.3,0.1,0.4,0.2c0.1,0,0.2,0.1,0.6,0.1h1.2h1.2c0.4,0,0.5-0.1,0.6-0.1c0.1,0,0.3-0.1,0.4-0.2c0.3-0.1,0.6-0.3,0.9-0.5
	c0.4-0.3,1-0.7,1.5-1.1l0.4,5.6c-0.9,0.5-2.6,1.1-5,1.1c-2.4,0-4.1-0.6-5-1.1L40.5,58.5z"/>
</svg>
