<?xml version="1.0" encoding="utf-8"?>
<!-- Generator: Adobe Illustrator 26.0.3, SVG Export Plug-In . SVG Version: 6.00 Build 0)  -->
<svg version="1.1" id="Layer_1" xmlns="http://www.w3.org/2000/svg" xmlns:xlink="http://www.w3.org/1999/xlink" x="0px" y="0px"
	 viewBox="0 0 90 90" style="enable-background:new 0 0 90 90;" xml:space="preserve">
<style type="text/css">
	.st0{fill:#6E6E6E;}
</style>
<path class="st0" d="M45.1,90c-24.8,0-45-20.2-45-45s20.2-45,45-45s45,20.2,45,45S69.9,90,45.1,90z M45.1,2.9C21.9,2.9,3,21.8,3,45
	s18.9,42.1,42.1,42.1S87.2,68.2,87.2,45S68.3,2.9,45.1,2.9z"/>
<path class="st0" d="M64.5,28.4H50.8v2.4c0,2-1.6,3.6-3.6,3.6h-4.8c-2,0-3.6-1.6-3.6-3.6v-2.4H25.3c-3,0-5.4,2.4-5.4,5.4v25
	c0,3,2.4,5.4,5.4,5.4h39.3c3,0,5.4-2.4,5.4-5.4v-25C69.9,30.8,67.5,28.4,64.5,28.4z M33,39.1c2,0,3.6,1.6,3.6,3.6
	c0,2-1.6,3.6-3.6,3.6s-3.6-1.6-3.6-3.6C29.4,40.7,31,39.1,33,39.1z M38.9,51.6l0,0.2l-0.1,0.4c-0.5,2.4-2.7,3.6-5.9,3.6
	c-3.3,0-5.5-1.3-5.9-3.9l0-0.3v-1.2l0-0.2c0.1-0.9,0.9-1.5,1.8-1.5h8.3l0.2,0c0.9,0.1,1.5,0.9,1.5,1.8V51.6z M61.2,53.4l-0.2,0H49.1
	l-0.2,0c-0.9-0.1-1.5-0.9-1.5-1.8c0-0.9,0.7-1.6,1.5-1.8l0.2,0H61l0.2,0c0.9,0.1,1.5,0.9,1.5,1.8C62.8,52.5,62.1,53.3,61.2,53.4z
	 M61.2,45.1l-0.2,0H49.1l-0.2,0c-0.9-0.1-1.5-0.9-1.5-1.8c0-0.9,0.7-1.7,1.5-1.8l0.3,0H61l0.2,0c0.9,0.1,1.5,0.9,1.5,1.8
	C62.8,44.2,62.1,44.9,61.2,45.1z M44.9,21.3L44.9,21.3c-3.3,0-6,2.7-6,6v1.2h11.9v-1.2C50.8,23.9,48.2,21.3,44.9,21.3z"/>
</svg>
