<?xml version="1.0" encoding="utf-8"?>
<!-- Generator: Adobe Illustrator 26.0.3, SVG Export Plug-In . SVG Version: 6.00 Build 0)  -->
<svg version="1.1" id="Layer_1" xmlns="http://www.w3.org/2000/svg" xmlns:xlink="http://www.w3.org/1999/xlink" x="0px" y="0px"
	 viewBox="0 0 90 90" style="enable-background:new 0 0 90 90;" xml:space="preserve">
<style type="text/css">
	.st0{fill:#6E6E6E;}
</style>
<path class="st0" d="M45.1,90c-24.8,0-45-20.2-45-45s20.2-45,45-45s45,20.2,45,45S69.9,90,45.1,90z M45.1,2.9C21.9,2.9,3,21.8,3,45
	s18.9,42.1,42.1,42.1S87.2,68.2,87.2,45S68.3,2.9,45.1,2.9z"/>
<path class="st0" d="M45,20c-13.8,0-25,11.2-25,25c0,5.2,1.6,10,4.2,13.9L21.9,70L34,67.5c3.3,1.6,7,2.5,11,2.5
	c13.8,0,25-11.2,25-25S58.8,20,45,20z M33.4,31h2.9l4.1,14.1h-2.2l-0.8-2.7h-5.2l-0.7,2.7h-2.3L33.4,31z M34.8,33.2l-2,7.2h4
	L34.8,33.2z M51.2,40c0.7,1.1,1.2,2.1,1.6,3.1h7.6v1.8h-3.2c-1,3.2-2.3,5.7-3.9,7.4c1.7,1.4,4.1,2.6,7.2,3.7l-1.1,1.6
	c-3-1.1-5.5-2.4-7.6-4.1c-2.2,1.8-4.8,3.1-7.7,3.9l-1-1.6c3.1-1,5.6-2.2,7.3-3.6c-1.5-1.6-2.8-3.7-3.8-6.4l1.7-0.7
	c1,2.6,2.1,4.6,3.5,5.9c1.4-1.4,2.6-3.5,3.4-6.2h-12V43h7.5c-0.4-0.9-0.9-1.7-1.4-2.5L51.2,40z"/>
</svg>
