<?xml version="1.0" encoding="utf-8"?>
<!-- Generator: Adobe Illustrator 26.0.3, SVG Export Plug-In . SVG Version: 6.00 Build 0)  -->
<svg version="1.1" id="Layer_1" xmlns="http://www.w3.org/2000/svg" xmlns:xlink="http://www.w3.org/1999/xlink" x="0px" y="0px"
	 viewBox="0 0 90 90" style="enable-background:new 0 0 90 90;" xml:space="preserve">
<style type="text/css">
	.st0{fill:#EFEFEF;}
</style>
<path class="st0" d="M45.1,90c-24.8,0-45-20.2-45-45s20.2-45,45-45s45,20.2,45,45S69.9,90,45.1,90z M45.1,2.9C21.9,2.9,3,21.8,3,45
	s18.9,42.1,42.1,42.1S87.2,68.2,87.2,45S68.3,2.9,45.1,2.9z"/>
<path class="st0" d="M45.1,20c-6.2,0-11.9,2.3-16.3,6.1L25.7,23c-1.2-1.2-3.1-0.3-3.1,1.3v8.2c0,1.4,1.1,2.5,2.5,2.5h8.2
	c1.6,0,2.4-2,1.3-3.1l-2.2-2.2c3.5-2.9,7.9-4.6,12.8-4.6c10.3,0,18.8,7.8,19.9,17.8c0.2,1.4,1.4,2.4,2.8,2.2
	c1.4-0.2,2.4-1.4,2.2-2.8l0,0C68.6,29.7,57.9,20,45.1,20z M45.1,29c-0.7,0-1.3,0.6-1.3,1.3v2.3c-0.8,0.1-5.6,1-5.6,6.7
	c0,8.4,8.6,5.9,8.6,11.5c0,2.8-1.8,2.9-2.2,2.9c-0.3,0-1.9,0.1-2.4-2.5c-0.2-0.9-1-1.6-2-1.6h-0.7c-1.2,0-2.2,1.1-2,2.3
	c1,5,5.1,5.5,5.8,5.6v2.1c0,0.7,0.6,1.2,1.2,1.2s1.3-0.6,1.3-1.2v-2.1c0.8-0.1,5.6-0.9,5.6-6.7c0-8-8.6-6.5-8.6-11.4
	c0-2.8,1.6-2.9,1.9-2.9c0.5,0,1.5,0.4,1.9,2.2c0.2,1,1,1.7,2,1.7h0.6c1.3,0,2.3-1.2,2-2.5c-1-4.3-4.3-5.1-5-5.2v-2.4
	C46.3,29.6,45.8,29,45.1,29L45.1,29z M22.7,45c-1.4,0-2.5,1.2-2.4,2.6c0,0.1,0,0.2,0,0.2C21.6,60.3,32.3,70,45.1,70
	c6.2,0,11.9-2.3,16.3-6.1l3,3c1.2,1.2,3.2,0.3,3.2-1.3v-8.1c0-1.4-1.1-2.5-2.5-2.5H57c-1.7,0-2.5,2-1.3,3.2l2.2,2.2
	C54.4,63.2,50,65,45.1,65c-10.3,0-18.8-7.8-19.9-17.8C25.1,45.9,24,44.9,22.7,45z"/>
</svg>
