<?xml version="1.0" encoding="utf-8"?>
<!-- Generator: Adobe Illustrator 26.0.3, SVG Export Plug-In . SVG Version: 6.00 Build 0)  -->
<svg version="1.1" id="Layer_1" xmlns="http://www.w3.org/2000/svg" xmlns:xlink="http://www.w3.org/1999/xlink" x="0px" y="0px"
	 viewBox="0 0 90 90" style="enable-background:new 0 0 90 90;" xml:space="preserve">
<style type="text/css">
	.st0{fill:#6E6E6E;}
</style>
<path class="st0" d="M45.1,90c-24.8,0-45-20.2-45-45s20.2-45,45-45s45,20.2,45,45S69.9,90,45.1,90z M45.1,2.9C21.9,2.9,3,21.8,3,45
	s18.9,42.1,42.1,42.1S87.2,68.2,87.2,45S68.3,2.9,45.1,2.9z"/>
<path class="st0" d="M34.2,30.9c-1.4,0-2.2,0.3-2.9,1.5c-0.7,1.2-4.6,5.8-5.5,7.4c-5.8,1.2-6.7,2.3-6.7,4.1v7.5
	c0,0.9,2.4,3.4,3.2,3.4h1.5c0.9,2.5,3.3,4.3,6.1,4.3s5.2-1.8,6.1-4.3h20.3c0.9,2.5,3.3,4.3,6.1,4.3c2.9,0,5.4-2,6.2-4.7
	c1.1-0.7,2.5-2.3,2.5-3v-6.1c0-1.7-3.4-2.6-10.7-4.1c-4.2-4-7.3-6.9-9.3-8.8c-1.4-1.3-2.4-1.5-2.9-1.5H34.2z M35.1,34.4h3.5v7.4
	h-8.3c-1,0-1.4-0.6-0.5-1.9c0.8-1.2,2.8-3.7,3.3-4.4C33.6,34.6,34.1,34.4,35.1,34.4z M42.9,34.4h4.7c0.8,0,1.7,0.4,2.3,0.9
	c0.8,0.7,4.2,3.9,5.5,5.1c1.2,1.1,0.6,1.4-0.3,1.4H42.9V34.4z M29.9,49.3c1.8,0,3.2,1.5,3.2,3.2s-1.5,3.2-3.2,3.2
	c-1.8,0-3.2-1.5-3.2-3.2S28.1,49.3,29.9,49.3z M62.4,49.3c1.8,0,3.3,1.5,3.3,3.2s-1.5,3.2-3.3,3.2s-3.2-1.5-3.2-3.2
	S60.6,49.3,62.4,49.3z"/>
</svg>
