<?xml version="1.0" standalone="no"?>
<!DOCTYPE svg PUBLIC "-//W3C//DTD SVG 20010904//EN"
 "http://www.w3.org/TR/2001/REC-SVG-20010904/DTD/svg10.dtd">
<svg version="1.0" xmlns="http://www.w3.org/2000/svg"
 width="64.000000pt" height="64.000000pt" viewBox="0 0 64.000000 64.000000"
 preserveAspectRatio="xMidYMid meet">

<g transform="translate(0.000000,64.000000) scale(0.100000,-0.100000)"
fill="#000000" stroke="none">
<path d="M363 448 c-110 -109 -126 -129 -139 -176 -9 -29 -13 -56 -10 -59 3
-3 32 1 63 10 53 15 68 26 176 136 64 65 117 127 117 136 0 19 -53 75 -71 75
-7 0 -68 -55 -136 -122z m167 82 c23 -23 25 -43 7 -59 -10 -8 -21 -3 -46 23
-31 32 -32 35 -14 45 25 15 30 14 53 -9z m-112 -177 l-92 -93 -33 32 -33 32
92 93 92 93 33 -32 33 -32 -92 -93z m-125 -104 c-9 -7 -63 -21 -63 -16 0 2 5
18 11 36 l11 32 24 -22 c13 -13 21 -26 17 -30z"/>
<path d="M95 495 c-25 -24 -25 -27 -25 -200 0 -175 0 -176 25 -201 l25 -25
196 3 c180 3 197 5 210 22 16 23 20 156 4 156 -6 0 -10 -29 -10 -68 0 -40 -5
-73 -12 -80 -15 -15 -370 -17 -399 -2 -18 10 -19 23 -19 193 0 129 4 187 12
195 7 7 40 12 80 12 39 0 68 4 68 10 0 6 -28 10 -65 10 -57 0 -69 -3 -90 -25z"/>
</g>
</svg>
