<?xml version="1.0" standalone="no"?>
<!DOCTYPE svg PUBLIC "-//W3C//DTD SVG 20010904//EN"
 "http://www.w3.org/TR/2001/REC-SVG-20010904/DTD/svg10.dtd">
<svg version="1.0" xmlns="http://www.w3.org/2000/svg"
 width="100.000000pt" height="100.000000pt" viewBox="0 0 100.000000 100.000000"
 preserveAspectRatio="xMidYMid meet">

<g transform="translate(0.000000,100.000000) scale(0.100000,-0.100000)"
fill="#000000" stroke="none">
<path d="M322 708 c-16 -16 -15 -67 2 -74 7 -3 16 -23 20 -45 4 -25 19 -53 41
-78 l35 -38 -23 -21 c-13 -12 -33 -22 -45 -22 -12 0 -27 -9 -34 -20 -7 -11
-19 -20 -26 -20 -8 0 -27 -9 -44 -21 -23 -17 -29 -27 -26 -53 3 -28 7 -31 40
-34 25 -2 41 -10 48 -23 10 -17 22 -19 111 -19 93 0 103 -2 131 -25 40 -34 94
-47 140 -35 44 13 95 63 107 107 10 34 -1 96 -21 121 -8 9 -6 12 5 12 24 0 47
29 47 59 0 31 -16 51 -42 51 -10 0 -18 5 -18 10 0 6 -12 16 -27 23 -16 6 -36
22 -46 34 -12 15 -29 23 -50 23 -28 0 -29 1 -13 13 12 9 17 23 14 47 l-3 35
-155 3 c-113 2 -159 -1 -168 -10z m92 -125 c45 -48 46 -49 46 -119 0 -71 0
-71 -40 -103 -22 -18 -45 -29 -50 -26 -17 11 1 58 36 95 19 20 34 40 34 44 0
5 -18 28 -40 52 -28 31 -40 52 -40 74 0 16 2 30 4 30 3 0 25 -21 50 -47z m196
32 c0 -28 -27 -79 -54 -104 -30 -28 -32 -43 -11 -61 12 -10 11 -16 -7 -41 -18
-24 -24 -26 -36 -16 -13 10 -14 9 -2 -9 23 -37 7 -54 -52 -54 l-53 1 38 30
c27 23 37 38 37 61 0 16 3 27 8 24 4 -2 8 9 9 26 0 21 -2 26 -8 17 -6 -10 -9
-5 -9 16 0 23 -11 41 -40 70 -22 21 -40 43 -40 47 0 4 50 8 110 8 92 0 110 -2
110 -15z m71 -15 c10 -6 19 -21 19 -34 0 -19 4 -22 25 -18 17 3 27 -1 31 -12
3 -9 14 -16 23 -16 44 0 57 -63 17 -81 -20 -9 -35 -7 -81 12 -54 22 -58 23
-100 8 -66 -24 -105 11 -51 46 13 9 34 36 45 61 21 45 37 52 72 34z m19 -164
c0 -5 3 -7 6 -3 3 3 16 -4 28 -17 17 -18 18 -18 6 -1 -15 20 -15 20 7 2 13
-11 19 -25 16 -35 -5 -11 -3 -13 7 -7 10 6 12 3 8 -13 -4 -12 -2 -20 3 -16 5
3 9 -9 9 -26 0 -20 -4 -29 -11 -24 -8 4 -9 -1 -4 -16 5 -15 4 -20 -4 -16 -6 4
-11 2 -11 -3 0 -21 -2 -26 -12 -38 -6 -7 -14 -11 -18 -8 -11 7 -41 -5 -36 -14
2 -3 -15 -6 -39 -6 -24 0 -41 4 -38 9 3 5 0 7 -8 4 -7 -2 -22 5 -34 17 -19 20
-19 20 -5 0 15 -20 15 -20 -7 -2 -13 11 -19 25 -16 35 4 9 2 13 -4 9 -7 -5 -9
1 -6 15 4 19 3 20 -6 8 -9 -13 -11 -13 -11 1 0 8 5 20 12 27 9 9 9 12 0 12 -7
0 -12 7 -12 16 0 9 5 12 11 8 7 -4 10 -1 7 7 -3 8 6 22 19 32 12 10 22 24 20
30 -1 7 6 11 17 9 10 -2 16 0 13 5 -3 4 17 8 44 8 27 0 49 -4 49 -9z m-335
-33 c-3 -10 -9 -30 -12 -45 -3 -16 -12 -28 -20 -28 -8 0 -17 -9 -20 -21 -5
-16 -12 -19 -42 -17 -31 3 -36 7 -39 31 -2 18 1 27 11 27 8 0 20 7 28 16 7 8
21 13 31 11 12 -4 18 0 18 12 0 23 9 31 33 31 14 0 17 -5 12 -17z"/>
<path d="M530 575 c-24 -24 -42 -46 -39 -48 2 -2 24 19 48 45 55 61 50 63 -9
3z"/>
<path d="M674 356 c-3 -9 -12 -16 -20 -16 -8 0 -14 -4 -14 -9 0 -5 -12 -24
-27 -43 l-28 -33 33 28 c19 15 38 27 43 27 5 0 9 5 9 11 0 7 7 17 17 24 11 8
13 14 4 19 -6 4 -14 0 -17 -8z"/>
</g>
</svg>
